<?xml version="1.0" encoding="UTF-8" standalone="no"?>
<!-- Created with Inkscape (http://www.inkscape.org/) -->

<svg
   xmlns:dc="http://purl.org/dc/elements/1.1/"
   xmlns:cc="http://creativecommons.org/ns#"
   xmlns:rdf="http://www.w3.org/1999/02/22-rdf-syntax-ns#"
   xmlns:svg="http://www.w3.org/2000/svg"
   xmlns="http://www.w3.org/2000/svg"
   xmlns:sodipodi="http://sodipodi.sourceforge.net/DTD/sodipodi-0.dtd"
   xmlns:inkscape="http://www.inkscape.org/namespaces/inkscape"
   sodipodi:docname="147_greyscale.svg"
   inkscape:version="0.92.2 5c3e80d, 2017-08-06"
   id="svg431"
   version="1.1"
   viewBox="0 0 92.604165 116.41666"
   height="439.99997"
   width="350">
  <sodipodi:namedview
     inkscape:window-maximized="1"
     inkscape:window-y="0"
     inkscape:window-x="0"
     inkscape:window-height="1006"
     inkscape:window-width="1920"
     units="px"
     showgrid="true"
     inkscape:current-layer="layer6"
     inkscape:document-units="px"
     inkscape:cy="252.14803"
     inkscape:cx="126.74825"
     inkscape:zoom="1.4"
     inkscape:pageshadow="2"
     inkscape:pageopacity="0.0"
     borderopacity="1.0"
     bordercolor="#666666"
     pagecolor="#ffffff"
     id="base"
     fit-margin-top="0"
     fit-margin-left="0"
     fit-margin-right="0"
     fit-margin-bottom="0">
    <inkscape:grid
       spacingy="2.6458333"
       spacingx="2.6458333"
       id="grid790"
       type="xygrid"
       units="px"
       originx="0"
       originy="-4.508702e-05" />
  </sodipodi:namedview>
  <defs
     id="defs425" />
  <metadata
     id="metadata428">
    <rdf:RDF>
      <cc:Work
         rdf:about="">
        <dc:format>image/svg+xml</dc:format>
        <dc:type
           rdf:resource="http://purl.org/dc/dcmitype/StillImage" />
        <dc:title></dc:title>
      </cc:Work>
    </rdf:RDF>
  </metadata>
  <g
     style="display:inline"
     inkscape:label="black"
     id="layer6"
     inkscape:groupmode="layer"
     transform="translate(0,-180.58329)">
    <path
       inkscape:connector-curvature="0"
       id="rect1018"
       transform="scale(0.26458333)"
       d="m 130,732.51953 v 20 h 10 v -20 z m 10,20 v 20 h 10 v -20 z m 150,20 v 20 h 10 v -20 z m -190,10 v 20 h 10 v -20 z m 90,10 v 10 h 10 v 20 h -10 v 20 h 10 v 10 h 10 v -10 h 10 v -10 h -10 v -10 h 10 v 10 h 10 v -20 h -10 v -10 h -10 v -10 z m 0,30 v -20 h -10 v 20 z m 50,-10 v 10 h 30 v -10 z m -120,20 v 20 h 10 10 v -10 h -10 v -10 z m 90,30 v 20 h 10 v -20 z m 0,20 h -10 v 10 h 10 z m -10,10 h -10 v 10 h -30 v 10 h 50 v -10 h -10 z m 10,20 v 10 h 10 v -10 z m 10,10 v 10 h 10 v -10 z m 90,-30 v 10 h 10 v -10 z m 10,20 v 10 h 10 v -10 z m 10,20 v 20 h 10 v -20 z m -100,20 v 20 h 10 v -20 z m -100,10 v 10 h 50 v -10 z m 210,20 v 59.99997 h 10 v -59.99997 z m 0,59.99997 h -10 v 30 h 10 z m -10,30 h -10 v 10 h 10 z m -320,-60 v 10 h 10 v -10 z m 10,10 v 10 h 10 v -10 z m 10,10 v 10 h 10 v -10 z m 100,0 v 10 h 10 v -10 z m -80,10 v 10 h 10 v -10 z m 10,10 v 10 h 30 v -10 z m 40,-10 v 10 h 10 v -10 z m 50,0 v 10 h 20 v -10 z m 20,10 v 10 h 10 v -10 z m 10,10 v 10 h 10 v -10 z m 10,20 v 10 h 10 v -10 z m 10,10 v 10 h 10 v -10 z m 110,0 v 10 h 10 v -10 z m 0,10 h -20 v 10 h 20 z m -20,10 h -50 v 10 h 50 z m -70,-10 v 10 h 10 v -10 z"
       style="opacity:1;fill:#070707;fill-opacity:1;stroke:none;stroke-width:0.37795275;stroke-linecap:butt;stroke-linejoin:round;stroke-miterlimit:4;stroke-dasharray:none;stroke-opacity:1;paint-order:stroke markers fill" />
  </g>
  <g
     style="display:inline"
     inkscape:label="blue 1"
     id="layer7"
     inkscape:groupmode="layer"
     transform="translate(0,-180.58329)">
    <path
       transform="scale(0.26458333)"
       inkscape:connector-curvature="0"
       id="rect1262"
       d="m 180,752.51953 v 10 h 30 v -10 z m 30,10 v 20 h 10 v -20 z m 10,20 v 20 h 10 v -20 z m 10,20 v 10 h 10 v -10 z m -110,-10 v 10 h 10 v -10 z m -10,20 v 20 h 10 v -20 z m 160,10 v 20 h 10 v -20 z m 10,20 v 20 h 10 v -20 z m 10,20 v 10 h 10 v -10 z m 10,10 v 10 h 10 v -10 z m 10,10 v 10 h 10 v -10 z m -180,-30 v 10 h 10 v -10 z m 190,50 v 10 h 10 v -10 z m -280,20 v 20 h 10 v -20 z m 290,0 v 10 h 10 v -10 z m -320,20 v 20 h 10 v -20 z m 0,20 H 0 v 39.99997 h 10 z m 0,39.99997 v 10 h 10 v -10 z m 220,-59.99997 v 10 h 10 v -10 z m -200,10 v 20 h 10 v -20 z m 10,20 v 10 h 10 v -10 z m 10,10 v 10 h 20 v -10 z m 20,10 v 9.99997 h 20 v -9.99997 z m 20,0 h 20 v -10 H 90 Z m 20,-10 h 10 v -10 h -10 z m 10,-10 h 10 v -10 h -10 z m 210,-20 v 10 h 10 v -10 z m 10,10 v 20 h 10 v -20 z m -160,0 v 10 h 10 v -10 z m 20,10 v 10 h 20 v -10 z m 20,10 v 10 h 10 v 9.99997 h 10 v -29.99997 h -10 v 10 z m 10,19.99997 h -10 v 20 h 10 z m -120,30 v 10 h 20 v -10 z m 30,0 v 10 h 10 v -10 z m -100,10 v 10 h 10 v -10 z m 50,0 v 10 h 10 v -10 z m 100,30 v 10 h 10 v -10 z m 130,10 v 10 h 10 v -10 z m -110,20 v 10 h 10 v -10 z m 20,10 v 10 h 10 v -10 z"
       style="opacity:1;fill:#565656;fill-opacity:1;stroke:none;stroke-width:0.37795275;stroke-linecap:butt;stroke-linejoin:round;stroke-miterlimit:4;stroke-dasharray:none;stroke-opacity:1;paint-order:stroke markers fill" />
  </g>
  <g
     style="display:inline"
     inkscape:label="blue 2"
     id="layer8"
     inkscape:groupmode="layer"
     transform="translate(0,-180.58329)">
    <path
       transform="scale(0.26458333)"
       inkscape:connector-curvature="0"
       id="rect1345"
       d="m 160,752.51953 v 10 h 20 v -10 z m 0,10 h -10 v 10 h 10 z m -30,10 v 10 h 10 v -10 z m 0,10 h -10 v 10 h 10 z m 50,10 v 10 h 10 v -10 z m -70,10 v 10 h 10 v -10 z m 40,0 v 20 h 10 v -20 z m 0,20 h -20 v 10 h 20 z m 70,50 v 10 h -10 v 10 h -10 v 10 h 10 v 10 h 10 v -10 h 10 v -10 h 10 v -10 h -10 v -10 z m -190,50 v 10 h 10 v -10 z m 0,10 H 20 v 10 h 10 z m 0,10 v 10 h 10 v -10 z m 90,30 v 10 h 10 v 10 9.99997 h -10 v 10 h -10 v 10 H 90 v 10 H 60 v 10 h 30 20 v -10 h 40 v 10 h 30 v 10 h 10 v -30 h -10 v -10 h -10 v -10 h 10 v -9.99997 h -10 v -10 h 10 v -10 z m 60,10 v 10 h 10 v -10 z m 10,0 h 10 v -10 h -10 z m 10,0 v 10 h 10 v -10 z m 0,10 h -10 v 9.99997 h 10 z m 0,9.99997 v 10 h 10 v -10 z m 0,10 h -10 v 10 h 10 z m -10,0 v -10 h -10 v 10 z M 60,992.51953 v 9.99997 h 10 v -9.99997 z m 170,9.99997 v 10 h 10 v -10 z m 100,0 v 20 h -10 v 40 h -10 v 30 h 10 v -20 h 10 v -30 h 10 v -40 z m -20,90 h -10 v 10 h 10 z m -270,-70 v 10 h 10 v -10 z m 170,0 v 10 h 10 v -10 z"
       style="opacity:1;fill:#8b8b8b;fill-opacity:1;stroke:none;stroke-width:0.37795275;stroke-linecap:butt;stroke-linejoin:round;stroke-miterlimit:4;stroke-dasharray:none;stroke-opacity:1;paint-order:stroke markers fill" />
  </g>
  <g
     style="display:inline"
     inkscape:label="blue 3"
     id="layer9"
     inkscape:groupmode="layer"
     transform="translate(0,-180.58329)">
    <path
       sodipodi:nodetypes="cccccccccccccccccccccccccccccccccccccccccccccccccccccccccccccccccccccccccccccccccccccccccccccccccccccccccccccccccccccccccccccccccccc"
       inkscape:connector-curvature="0"
       id="rect1415"
       transform="scale(0.26458333)"
       d="m 210,792.51953 v 10 h 10 v -10 z m 40,30 v 40 h -10 v 10 h -10 v 10 h 10 v 10 h 10 10 v 10 h 20 v 10 h 10 v 10 h 10 v 20 h 10 v 30 h 10 v 29.99997 20 h 10 v -20 h 10 v -39.99997 h -10 v -40 h -10 v -20 h -10 v -20 h -10 v -10 h -10 v -10 h -10 v -20 h -10 v -20 z m -70,150 v 10 h 10 v -10 z m 10,10 v 10 h 10 v -10 z m 10,10 v 9.99997 h 10 v 10 h -10 v 10 h -10 v 30 10 h 20 v -10 h 10 v -20 h -10 v -10 h 10 v -20 h 10 v -9.99997 h -10 v -10 h -10 v 10 z m -10,29.99997 v -10 h -10 v 10 z m -10,-10 v -10 h -10 v 10 z m 0,-10 h 10 v -9.99997 h -10 z m 0,-9.99997 v -10 h -10 v 10 z m 10,9.99997 v 10 h 10 v -10 z M 40,982.51953 v 19.99997 H 30 v 20 h 10 10 v 10 h 10 30 v -10 h 20 v -10 h 10 v -10 h 10 v -19.99997 h -10 -10 v 10 H 90 v 9.99997 H 70 60 v -9.99997 H 50 v -10 z"
       style="opacity:1;fill:#a4a4a4;fill-opacity:1;stroke:none;stroke-width:0.37795275;stroke-linecap:butt;stroke-linejoin:round;stroke-miterlimit:4;stroke-dasharray:none;stroke-opacity:1;paint-order:stroke markers fill" />
  </g>
  <g
     style="display:inline"
     inkscape:label="blue 4"
     id="layer13"
     inkscape:groupmode="layer"
     transform="translate(0,-180.58329)">
    <path
       sodipodi:nodetypes="cccccccccccccccccccccccccccccccccccccccccccccccccccccccccccccccccccccccccccccccccccccccc"
       transform="scale(0.26458333)"
       inkscape:connector-curvature="0"
       id="rect2269"
       d="m 180,762.51953 v 10 h 10 v 20 h 20 10 v -10 h -10 v -20 z m -40,30 v 10 h 10 v -10 z m 30,10 v 10 h -10 v 10 h -10 v 10 h -20 v 10 h 10 v 10 h 10 v -10 h 10 v -10 h 30 v -10 h -10 v -20 z m -40,30 v -20 h -10 v 20 z m 90,-30 v 10 h 10 v -10 z m 10,10 v 10 10 h -10 v 10 h -10 v 10 h 10 v 20 h 10 10 v -10 h 10 v -40 h -10 v -10 z m -200,120 v 10 h 10 v -10 z m 0,10 H 20 v 40 19.99997 H 40 V 972.51953 H 30 Z m 200,70.00017 v 9.9998 h -10 v 30 h 10 v -20 h 10 v -19.9998 z m -10,39.9998 h -10 v 10 h 10 z"
       style="opacity:1;fill:#c0c0c0;fill-opacity:1;stroke:none;stroke-width:0.37795275;stroke-linecap:butt;stroke-linejoin:round;stroke-miterlimit:4;stroke-dasharray:none;stroke-opacity:1;paint-order:stroke markers fill" />
  </g>
  <g
     style="display:inline"
     inkscape:label="blue 5"
     id="layer14"
     inkscape:groupmode="layer"
     transform="translate(0,-180.58329)">
    <path
       inkscape:connector-curvature="0"
       id="rect2313"
       transform="scale(0.26458333)"
       d="m 160,762.51953 v 10 h -20 v 10 h -10 v 20 h 10 v -10 h 10 v 10 h 10 v 10 h 10 v -10 h 10 v -10 h 10 v -20 h -10 v -10 h -10 z m -30,40 h -10 v 10 h 10 z"
       style="opacity:1;fill:#d9d9d9;fill-opacity:1;stroke:none;stroke-width:0.37795275;stroke-linecap:butt;stroke-linejoin:round;stroke-miterlimit:4;stroke-dasharray:none;stroke-opacity:1;paint-order:stroke markers fill" />
  </g>
  <g
     style="display:inline"
     inkscape:label="grey 1"
     id="layer10"
     inkscape:groupmode="layer"
     transform="translate(0,-180.58329)">
    <path
       sodipodi:nodetypes="ccccccccccccccccccccccccccccccccccccccccccccccccccccccccccccccccccccccccccccccccccccccccccccccccccccccccc"
       inkscape:connector-curvature="0"
       id="rect1111"
       transform="scale(0.26458333)"
       d="m 260,712.51953 v 30 h 10 v -30 z m 10,30 v 10 h 20 v -10 z m -140,-20 v 10 h 10 v -10 z m 80,20 v 20 h 10 v -20 z m -100,10 v 20 h 10 v -20 z m 0,20 h -10 v 10 h 10 z m 200,-20 v 10 h 10 v -10 z m 0,10 h -10 v 10 h 10 z m -10,20 v 10 h 10 v -10 z m 10,10 v 10 h 10 v -10 z m 0,10 h -20 v 10 h 20 z m -20,10 h -20 v 10 h 20 z m -190,-10 v 10 h 10 v -10 z m 60,30 v 10 h 30 v -10 z m 0,10 h -10 v 10 h 10 z m -10,10 h -10 v 10 h 10 z m -10,10 h -10 v 30 h 10 z m 0,30 v 10 h 10 v -10 z m 10,10 v 10 h 10 v -10 z m 60,-50 v 10 h 10 v -10 z m 10,80 v 10 h 10 v -10 z"
       style="opacity:1;fill:#5a5a5a;fill-opacity:1;stroke:none;stroke-width:0.37795275;stroke-linecap:butt;stroke-linejoin:round;stroke-miterlimit:4;stroke-dasharray:none;stroke-opacity:1;paint-order:stroke markers fill" />
  </g>
  <g
     style="display:inline"
     inkscape:label="grey 2"
     id="layer11"
     inkscape:groupmode="layer"
     transform="translate(0,-180.58329)">
    <path
       inkscape:connector-curvature="0"
       transform="scale(0.26458333)"
       id="rect1158"
       d="m 250,682.51953 v 10 h 10 v 20 h 10 v -30 z m 0,10 h -10 v 10 h 10 z m -10,10 h -10 v 20 h 10 z m -10,20 h -10 v 20 h 10 z m -110,0 v 10 h 10 v -10 z m 0,10 h -10 v 20 h 10 z m 140,10 v 10 h 10 v -10 z m 10,10 v 10 h 10 v -10 z m 20,-10 v 10 h 30 v -10 z m -20,40 v 10 h 10 v -10 z m 0,10 h -10 v 20 h 10 z m -60,30 v 10 h 10 v -10 z m 20,110 v 10 h 10 v -10 z M 40,1032.5195 v 10 h 20 v -10 z m 20,10 v 10 h 30 v -10 z"
       style="opacity:1;fill:#939393;fill-opacity:1;stroke:none;stroke-width:0.37795275;stroke-linecap:butt;stroke-linejoin:round;stroke-miterlimit:4;stroke-dasharray:none;stroke-opacity:1;paint-order:stroke markers fill" />
  </g>
  <g
     style="display:inline"
     inkscape:label="grey 3"
     id="layer12"
     inkscape:groupmode="layer"
     transform="translate(0,-180.58329)">
    <path
       inkscape:connector-curvature="0"
       id="rect1191"
       transform="scale(0.26458333)"
       d="m 250,742.51953 v 40 h 10 v -10 h 10 v -20 h -10 v -10 z m -120,10 v 20 h 10 v -20 z m 0,20 h -10 -10 v 10 20 h 10 v -20 h 10 z m 150,-20 v 10 h 10 v -10 z m 0,30 v 10 h -10 v 10 10 h 10 10 v -10 h 20 v -10 h -20 v -10 z m -80,70 v 20 h -10 v 10 h -10 v 10 h -30 v 10 h 40 v -10 h 10 v -10 h 10 v -30 z m 30,40 v 10 h -10 v 20 h 10 v 10 h 20 v -10 h 10 v -30 z m 50,20 v 10 h 10 v -10 z m 10,10 v 10 h 10 v -10 z m 10,20 v 10 h 10 v -10 z m -290,20 v 10 h 10 v -10 z m 300,10 v 10 h 10 v -10 z m -300,20 v 9.99997 h 10 v -9.99997 z m 10,9.99997 v 20 h 10 v -20 z m 10,20 v 10 h 10 v -10 z m 200,10 v 10 h 10 v -10 z m -60,10 v 10 h 10 v -10 z m 10,10 v 10 h 10 v -10 z m 10,10 v 10 h 10 v 20 h 10 v 10 h 20 v 10 h 60 v -10 h 10 v -10 h 10 v -30 h 10 v -20 h -10 v 10 h -10 v 10 h -20 v 10 h -40 v -10 h -10 v -10 h -10 v 10 h -20 z"
       style="opacity:1;fill:#d9d9d9;fill-opacity:1;stroke:none;stroke-width:0.37795275;stroke-linecap:butt;stroke-linejoin:round;stroke-miterlimit:4;stroke-dasharray:none;stroke-opacity:1;paint-order:stroke markers fill" />
  </g>
</svg>
