<?xml version="1.0" encoding="UTF-8" standalone="no"?>
<!-- Created with Inkscape (http://www.inkscape.org/) -->

<svg
   xmlns:dc="http://purl.org/dc/elements/1.1/"
   xmlns:cc="http://creativecommons.org/ns#"
   xmlns:rdf="http://www.w3.org/1999/02/22-rdf-syntax-ns#"
   xmlns:svg="http://www.w3.org/2000/svg"
   xmlns="http://www.w3.org/2000/svg"
   xmlns:xlink="http://www.w3.org/1999/xlink"
   xmlns:sodipodi="http://sodipodi.sourceforge.net/DTD/sodipodi-0.dtd"
   xmlns:inkscape="http://www.inkscape.org/namespaces/inkscape"
   width="40.253338mm"
   height="46.465076mm"
   viewBox="0 0 40.253338 46.465076"
   version="1.1"
   id="svg4758"
   inkscape:version="0.92.2 5c3e80d, 2017-08-06"
   sodipodi:docname="Medal3D.svg">
  <defs
     id="defs4752">
    <clipPath
       clipPathUnits="userSpaceOnUse"
       id="clipPath5782">
      <path
         sodipodi:type="star"
         style="opacity:1;fill:none;fill-opacity:1;stroke:#0000ff;stroke-width:1.00157475;stroke-linecap:butt;stroke-linejoin:round;stroke-miterlimit:4;stroke-dasharray:none;stroke-opacity:1;paint-order:stroke markers fill"
         id="path5784"
         sodipodi:sides="6"
         sodipodi:cx="0"
         sodipodi:cy="1122.5197"
         sodipodi:r1="390"
         sodipodi:r2="337.74988"
         sodipodi:arg1="-1.5707963"
         sodipodi:arg2="-1.0471976"
         inkscape:flatsided="true"
         inkscape:rounded="0"
         inkscape:randomized="0"
         d="M 1.045001e-5,732.51965 337.74991,927.51966 337.7499,1317.5197 -1.045001e-5,1512.5197 -337.74991,1317.5196 l 10e-6,-389.99996 z"
         inkscape:transform-center-y="-3.7417322e-06" />
    </clipPath>
  </defs>
  <sodipodi:namedview
     id="base"
     pagecolor="#ffffff"
     bordercolor="#666666"
     borderopacity="1.0"
     inkscape:pageopacity="0.0"
     inkscape:pageshadow="2"
     inkscape:zoom="5.6"
     inkscape:cx="37.818404"
     inkscape:cy="130.01789"
     inkscape:document-units="mm"
     inkscape:current-layer="layer6"
     showgrid="true"
     inkscape:snap-global="false"
     borderlayer="true"
     inkscape:showpageshadow="false"
     inkscape:window-width="1920"
     inkscape:window-height="1006"
     inkscape:window-x="0"
     inkscape:window-y="0"
     inkscape:window-maximized="1"
     inkscape:pagecheckerboard="false"
     fit-margin-top="0"
     fit-margin-left="0"
     fit-margin-right="0"
     fit-margin-bottom="0">
    <inkscape:grid
       type="xygrid"
       id="grid5303"
       spacingx="2.6458333"
       spacingy="2.6458333"
       originx="20.126669"
       originy="23.232537" />
    <inkscape:grid
       type="axonomgrid"
       id="grid5305"
       units="mm"
       empspacing="5"
       enabled="false"
       originx="20.126669"
       originy="23.232537" />
  </sodipodi:namedview>
  <metadata
     id="metadata4755">
    <rdf:RDF>
      <cc:Work
         rdf:about="">
        <dc:format>image/svg+xml</dc:format>
        <dc:type
           rdf:resource="http://purl.org/dc/dcmitype/StillImage" />
        <dc:title></dc:title>
      </cc:Work>
    </rdf:RDF>
  </metadata>
  <g
     inkscape:groupmode="layer"
     id="layer10"
     inkscape:label="cutting"
     style="display:inline"
     transform="translate(20.126668,-273.76746)">
    <path
       sodipodi:type="star"
       style="opacity:1;fill:#b3b3b3;fill-opacity:1;stroke:#ff0000;stroke-width:0.1;stroke-linecap:butt;stroke-linejoin:round;stroke-miterlimit:4;stroke-dasharray:none;stroke-opacity:1;paint-order:stroke markers fill"
       id="path5774"
       sodipodi:sides="6"
       sodipodi:cx="0"
       sodipodi:cy="297"
       sodipodi:r1="23.182539"
       sodipodi:r2="20.076666"
       sodipodi:arg1="-1.5707963"
       sodipodi:arg2="-1.0471976"
       inkscape:flatsided="true"
       inkscape:rounded="0"
       inkscape:randomized="0"
       d="M 6.2117373e-7,273.81746 20.076668,285.40873 l -1e-6,23.18254 L -6.2117373e-7,320.18254 -20.076668,308.59127 l 1e-6,-23.18254 z" />
    <path
       style="display:inline;opacity:1;fill:#ffffff;fill-opacity:1;stroke:#ff0000;stroke-width:0.1;stroke-linecap:butt;stroke-linejoin:round;stroke-miterlimit:4;stroke-dasharray:none;stroke-opacity:1;paint-order:stroke markers fill"
       d="m 2.5198412,279.36111 -0.051193,0.50784 -0.1468264,0.473 -0.2323272,0.42803 -0.307695,0.37293 -0.3729299,0.3077 -0.42803195,0.23233 -0.47300097,0.14683 L 0,281.88096 l -0.50783708,-0.0512 -0.47300097,-0.14683 -0.42803195,-0.23233 -0.3729299,-0.3077 -0.307695,-0.37293 -0.2323272,-0.42803 -0.1468264,-0.473 -0.051193,-0.50784 0.051194,-0.50784 0.1468276,-0.473 0.2323277,-0.42803 0.3076951,-0.37293 0.3729296,-0.30769 0.42803118,-0.23233 0.47299989,-0.14683 L 0,276.84127 l 0.50783573,0.0512 0.47299989,0.14683 0.42803118,0.23233 0.3729296,0.30769 0.3076951,0.37293 0.2323277,0.42803 0.1468276,0.473 z"
       id="path887"
       inkscape:connector-curvature="0"
       sodipodi:nodetypes="ccccccccccccccccccccccccccccccccc" />
    <path
       transform="translate(-1e-7,-1.0625e-5)"
       style="display:inline;opacity:1;fill:#808080;fill-opacity:1;stroke:#0000ff;stroke-width:0.1;stroke-linecap:butt;stroke-linejoin:round;stroke-miterlimit:4;stroke-dasharray:none;stroke-opacity:1;paint-order:stroke markers fill"
       d="m -2.442868,278.75565 -14.57866,8.41696 v 19.65476 L 0,316.65475 17.021528,306.82737 V 287.17261 L 2.4434586,278.75595 Z"
       id="path41"
       inkscape:connector-curvature="0"
       sodipodi:nodetypes="cccccccc" />
  </g>
  <g
     inkscape:groupmode="layer"
     id="layer6"
     inkscape:label="engraving 1"
     style="display:inline"
     transform="translate(20.126668,-273.76746)">
    <path
       sodipodi:type="inkscape:offset"
       inkscape:radius="0"
       inkscape:original="M 5.0390625 278.71484 A 2.8176619 2.8176619 0 0 0 4.8984375 278.85742 L 4.8984375 279.72266 L 4.5351562 279.72266 A 2.8176619 2.8176619 0 0 0 4.3945312 279.86523 L 4.3945312 280.73047 L 4.03125 280.73047 A 2.8176619 2.8176619 0 0 0 3.890625 280.87305 L 3.890625 281.73828 L 0.50390625 281.73828 A 2.8176619 2.8176619 0 0 0 0.36132812 281.88086 L 0.36132812 282.24219 L -1.3691406 282.24219 L -1.3691406 281.88086 A 2.8176619 2.8176619 0 0 0 -1.5117188 281.73828 L -2.3769531 281.73828 L -2.3769531 281.37695 A 2.8176619 2.8176619 0 0 0 -2.5195312 281.23438 L -3.890625 281.23438 L -3.890625 280.87305 A 2.8176619 2.8176619 0 0 0 -4.03125 280.73047 L -5.90625 280.73047 L -5.90625 280.36914 A 2.8176619 2.8176619 0 0 0 -6.046875 280.22656 L -8.0644531 280.22656 A 2.8176619 2.8176619 0 0 0 -8.2050781 280.36914 L -8.2050781 280.73047 L -8.5683594 280.73047 A 2.8176619 2.8176619 0 0 0 -8.7089844 280.87305 L -8.7089844 281.37695 A 2.8176619 2.8176619 0 0 0 -8.5683594 281.51953 L -8.2050781 281.51953 L -8.2050781 281.88086 A 2.8176619 2.8176619 0 0 0 -8.0644531 282.02344 L -7.7011719 282.02344 L -7.7011719 282.38477 A 2.8176619 2.8176619 0 0 0 -7.5585938 282.52734 L -7.1972656 282.52734 L -7.1972656 282.88867 A 2.8176619 2.8176619 0 0 0 -7.0546875 283.03125 L -6.6933594 283.03125 L -6.6933594 283.39258 A 2.8176619 2.8176619 0 0 0 -6.5507812 283.53516 L -5.6855469 283.53516 L -5.6855469 283.89648 A 2.8176619 2.8176619 0 0 0 -5.5429688 284.03906 L -5.1816406 284.03906 L -5.1816406 284.40039 A 2.8176619 2.8176619 0 0 0 -5.0390625 284.54297 L -4.1738281 284.54297 L -4.1738281 286.27539 L -4.5351562 286.27539 A 2.8176619 2.8176619 0 0 0 -4.6777344 286.41602 L -4.6777344 287.2832 L -5.0390625 287.2832 A 2.8176619 2.8176619 0 0 0 -5.1816406 287.42383 L -5.1816406 288.29102 L -5.5429688 288.29102 A 2.8176619 2.8176619 0 0 0 -5.6855469 288.43164 L -5.6855469 289.29883 L -6.046875 289.29883 A 2.8176619 2.8176619 0 0 0 -6.1894531 289.44141 L -6.1894531 290.30664 L -6.5507812 290.30664 L -6.9140625 290.30664 L -6.9140625 289.94531 A 2.8176619 2.8176619 0 0 0 -7.0546875 289.80273 L -7.4179688 289.80273 L -7.4179688 289.58203 L -7.0546875 289.58203 A 2.8176619 2.8176619 0 0 0 -6.9140625 289.44141 L -6.9140625 289.07812 L -6.5507812 289.07812 A 2.8176619 2.8176619 0 0 0 -6.4101562 288.93555 L -6.4101562 288.57422 L -6.046875 288.57422 A 2.8176619 2.8176619 0 0 0 -5.90625 288.43164 L -5.90625 288.07031 L -5.5429688 288.07031 A 2.8176619 2.8176619 0 0 0 -5.4023438 287.92773 L -5.4023438 286.91992 A 2.8176619 2.8176619 0 0 0 -5.5429688 286.7793 L -5.90625 286.7793 L -5.90625 285.91211 A 2.8176619 2.8176619 0 0 0 -6.046875 285.77148 L -6.4101562 285.77148 L -6.4101562 284.9043 A 2.8176619 2.8176619 0 0 0 -6.5507812 284.76367 L -6.9140625 284.76367 L -6.9140625 283.89648 A 2.8176619 2.8176619 0 0 0 -7.0546875 283.75391 L -7.4179688 283.75391 L -7.4179688 282.88867 A 2.8176619 2.8176619 0 0 0 -7.5585938 282.74609 L -7.921875 282.74609 L -7.921875 282.38477 A 2.8176619 2.8176619 0 0 0 -8.0644531 282.24219 L -8.4257812 282.24219 L -8.4257812 281.88086 A 2.8176619 2.8176619 0 0 0 -8.5683594 281.73828 L -9.5761719 281.73828 A 2.8176619 2.8176619 0 0 0 -9.7167969 281.88086 L -9.7167969 282.38477 L -9.7167969 282.74609 L -10.080078 282.74609 A 2.8176619 2.8176619 0 0 0 -10.220703 282.88867 L -10.220703 283.75391 L -10.583984 283.75391 A 2.8176619 2.8176619 0 0 0 -10.724609 283.89648 L -10.724609 284.76367 L -11.087891 284.76367 A 2.8176619 2.8176619 0 0 0 -11.228516 284.9043 L -11.228516 286.41602 A 2.8176619 2.8176619 0 0 0 -11.087891 286.55859 L -10.724609 286.55859 L -10.724609 286.91992 A 2.8176619 2.8176619 0 0 0 -10.583984 287.0625 L -10.220703 287.0625 L -10.220703 287.42383 A 2.8176619 2.8176619 0 0 0 -10.080078 287.56641 L -9.7167969 287.56641 L -9.7167969 287.92773 A 2.8176619 2.8176619 0 0 0 -9.5761719 288.07031 L -9.2128906 288.07031 L -9.2128906 288.79492 L -9.5761719 288.79492 A 2.8176619 2.8176619 0 0 0 -9.7167969 288.93555 L -9.7167969 289.29883 L -10.080078 289.29883 A 2.8176619 2.8176619 0 0 0 -10.220703 289.44141 L -10.220703 290.44922 A 2.8176619 2.8176619 0 0 0 -10.080078 290.58984 L -9.7167969 290.58984 L -9.7167969 290.95312 A 2.8176619 2.8176619 0 0 0 -9.5761719 291.09375 L -9.2128906 291.09375 L -9.2128906 291.45703 A 2.8176619 2.8176619 0 0 0 -9.0722656 291.59766 L -8.7089844 291.59766 L -8.7089844 292.82617 L -9.0722656 292.82617 A 2.8176619 2.8176619 0 0 0 -9.2128906 292.96875 L -9.2128906 293.47266 A 2.8176619 2.8176619 0 0 0 -9.0722656 293.61328 L -8.7089844 293.61328 L -8.7089844 293.97656 A 2.8176619 2.8176619 0 0 0 -8.5683594 294.11719 L -7.7011719 294.11719 L -7.7011719 294.48047 A 2.8176619 2.8176619 0 0 0 -7.5585938 294.62305 L -6.6933594 294.62305 L -6.6933594 295.48828 A 2.8176619 2.8176619 0 0 0 -6.5507812 295.63086 L -6.1894531 295.63086 L -6.1894531 296.35352 L -7.5585938 296.35352 A 2.8176619 2.8176619 0 0 0 -7.7011719 296.49609 L -7.7011719 296.85742 L -8.5683594 296.85742 A 2.8176619 2.8176619 0 0 0 -8.7089844 297 L -8.7089844 297.36133 L -9.5761719 297.36133 A 2.8176619 2.8176619 0 0 0 -9.7167969 297.50391 L -9.7167969 297.86523 L -10.080078 297.86523 A 2.8176619 2.8176619 0 0 0 -10.220703 298.00781 L -10.220703 299.01562 A 2.8176619 2.8176619 0 0 0 -10.080078 299.1582 L -9.7167969 299.1582 L -9.7167969 299.51953 A 2.8176619 2.8176619 0 0 0 -9.5761719 299.66211 L -8.2050781 299.66211 L -8.2050781 300.02344 A 2.8176619 2.8176619 0 0 0 -8.0644531 300.16602 L -6.1894531 300.16602 L -6.1894531 300.52734 A 2.8176619 2.8176619 0 0 0 -6.046875 300.66992 L -5.1816406 300.66992 L -5.1816406 301.53516 A 2.8176619 2.8176619 0 0 0 -5.0390625 301.67773 L -4.6777344 301.67773 L -4.6777344 302.03906 A 2.8176619 2.8176619 0 0 0 -4.5351562 302.18164 L -3.0234375 302.18164 A 2.8176619 2.8176619 0 0 0 -2.8828125 302.03906 L -2.8828125 301.67773 L -2.5195312 301.67773 A 2.8176619 2.8176619 0 0 0 -2.3769531 301.53516 L -2.3769531 301.17383 L 2.015625 301.17383 A 2.8176619 2.8176619 0 0 0 2.1582031 301.03125 L 2.1582031 300.66992 L 5.5429688 300.66992 A 2.8176619 2.8176619 0 0 0 5.6855469 300.52734 L 5.6855469 300.16602 L 8.0644531 300.16602 A 2.8176619 2.8176619 0 0 0 8.2050781 300.02344 L 8.2050781 299.66211 L 10.080078 299.66211 A 2.8176619 2.8176619 0 0 0 10.220703 299.51953 L 10.220703 299.1582 L 11.087891 299.1582 A 2.8176619 2.8176619 0 0 0 11.228516 299.01562 L 11.228516 298.6543 L 11.591797 298.6543 A 2.8176619 2.8176619 0 0 0 11.732422 298.51172 L 11.732422 298.15039 L 12.095703 298.15039 A 2.8176619 2.8176619 0 0 0 12.236328 298.00781 L 12.236328 297 A 2.8176619 2.8176619 0 0 0 12.095703 296.85742 L 11.732422 296.85742 L 11.732422 296.49609 A 2.8176619 2.8176619 0 0 0 11.591797 296.35352 L 10.724609 296.35352 L 10.724609 295.99219 A 2.8176619 2.8176619 0 0 0 10.583984 295.84961 L 9.7167969 295.84961 L 9.7167969 295.48828 A 2.8176619 2.8176619 0 0 0 9.5761719 295.3457 L 8.0644531 295.3457 L 7.7011719 295.3457 L 7.7011719 294.98438 A 2.8176619 2.8176619 0 0 0 7.5585938 294.8418 L 5.1816406 294.8418 L 5.1816406 294.11719 L 5.5429688 294.11719 A 2.8176619 2.8176619 0 0 0 5.6855469 293.97656 L 5.6855469 293.61328 L 7.0546875 293.61328 A 2.8176619 2.8176619 0 0 0 7.1972656 293.47266 L 7.1972656 293.10938 L 7.5585938 293.10938 A 2.8176619 2.8176619 0 0 0 7.7011719 292.96875 L 7.7011719 292.60547 L 8.0644531 292.60547 A 2.8176619 2.8176619 0 0 0 8.2050781 292.46484 L 8.2050781 291.45703 A 2.8176619 2.8176619 0 0 0 8.0644531 291.31445 L 7.7011719 291.31445 L 7.7011719 290.95312 A 2.8176619 2.8176619 0 0 0 7.5585938 290.81055 L 7.1972656 290.81055 L 7.1972656 290.44922 A 2.8176619 2.8176619 0 0 0 7.0546875 290.30664 L 6.1894531 290.30664 L 6.1894531 289.58203 L 6.5507812 289.58203 A 2.8176619 2.8176619 0 0 0 6.6933594 289.44141 L 6.6933594 289.07812 L 7.0546875 289.07812 A 2.8176619 2.8176619 0 0 0 7.1972656 288.93555 L 7.1972656 288.57422 L 7.5585938 288.57422 A 2.8176619 2.8176619 0 0 0 7.7011719 288.43164 L 7.7011719 286.91992 A 2.8176619 2.8176619 0 0 0 7.5585938 286.7793 L 7.1972656 286.7793 L 7.1972656 285.4082 A 2.8176619 2.8176619 0 0 0 7.0546875 285.26758 L 6.6933594 285.26758 L 6.6933594 284.40039 A 2.8176619 2.8176619 0 0 0 6.5507812 284.25977 L 6.1894531 284.25977 L 6.1894531 283.53516 L 6.5507812 283.53516 A 2.8176619 2.8176619 0 0 0 6.6933594 283.39258 L 6.6933594 280.36914 A 2.8176619 2.8176619 0 0 0 6.5507812 280.22656 L 6.1894531 280.22656 L 6.1894531 279.36133 A 2.8176619 2.8176619 0 0 0 6.046875 279.21875 L 5.6855469 279.21875 L 5.6855469 278.85742 A 2.8176619 2.8176619 0 0 0 5.5429688 278.71484 L 5.0390625 278.71484 z M 4.6777344 281.01562 L 4.8984375 281.01562 L 4.8984375 281.37695 A 2.8176619 2.8176619 0 0 0 5.0390625 281.51953 L 5.4023438 281.51953 L 5.4023438 281.88086 A 2.8176619 2.8176619 0 0 0 5.5429688 282.02344 L 5.90625 282.02344 L 5.90625 283.25 L 5.6855469 283.25 L 5.6855469 282.88867 A 2.8176619 2.8176619 0 0 0 5.5429688 282.74609 L 5.1816406 282.74609 L 5.1816406 282.38477 A 2.8176619 2.8176619 0 0 0 5.0390625 282.24219 L 4.1738281 282.24219 L 4.1738281 282.02344 L 4.5351562 282.02344 A 2.8176619 2.8176619 0 0 0 4.6777344 281.88086 L 4.6777344 281.01562 z M -5.90625 281.51953 L -4.1738281 281.51953 L -4.1738281 281.88086 A 2.8176619 2.8176619 0 0 0 -4.03125 282.02344 L -2.6621094 282.02344 L -2.6621094 282.38477 A 2.8176619 2.8176619 0 0 0 -2.5195312 282.52734 L -1.6542969 282.52734 L -1.6542969 282.88867 A 2.8176619 2.8176619 0 0 0 -1.5117188 283.03125 L 0.50390625 283.03125 A 2.8176619 2.8176619 0 0 0 0.64648438 282.88867 L 0.64648438 282.52734 L 3.890625 282.52734 L 3.890625 282.88867 A 2.8176619 2.8176619 0 0 0 4.03125 283.03125 L 4.8984375 283.03125 L 4.8984375 283.39258 A 2.8176619 2.8176619 0 0 0 5.0390625 283.53516 L 5.4023438 283.53516 L 5.4023438 284.25977 L 5.0390625 284.25977 L 4.5351562 284.25977 A 2.8176619 2.8176619 0 0 0 4.3945312 284.40039 L 4.3945312 284.9043 L 4.3945312 285.91211 A 2.8176619 2.8176619 0 0 0 4.5351562 286.05469 L 4.8984375 286.05469 L 4.8984375 286.41602 A 2.8176619 2.8176619 0 0 0 5.0390625 286.55859 L 5.5429688 286.55859 A 2.8176619 2.8176619 0 0 0 5.6855469 286.41602 L 5.6855469 286.05469 L 6.046875 286.05469 A 2.8176619 2.8176619 0 0 0 6.1894531 285.91211 L 6.1894531 285.55078 L 6.4101562 285.55078 L 6.4101562 286.91992 A 2.8176619 2.8176619 0 0 0 6.5507812 287.0625 L 6.9140625 287.0625 L 6.9140625 288.29102 L 6.5507812 288.29102 A 2.8176619 2.8176619 0 0 0 6.4101562 288.43164 L 6.4101562 288.79492 L 6.046875 288.79492 A 2.8176619 2.8176619 0 0 0 5.90625 288.93555 L 5.90625 289.29883 L 5.0390625 289.29883 A 2.8176619 2.8176619 0 0 0 4.8984375 289.44141 L 4.8984375 289.80273 L 4.03125 289.80273 A 2.8176619 2.8176619 0 0 0 3.890625 289.94531 L 3.890625 290.44922 A 2.8176619 2.8176619 0 0 0 4.03125 290.58984 L 5.0390625 290.58984 A 2.8176619 2.8176619 0 0 0 5.1816406 290.44922 L 5.1816406 290.08594 L 5.4023438 290.08594 L 5.4023438 290.44922 L 5.4023438 290.95312 L 5.4023438 292.32227 L 5.0390625 292.32227 A 2.8176619 2.8176619 0 0 0 4.8984375 292.46484 L 4.8984375 293.83398 L 4.5351562 293.83398 A 2.8176619 2.8176619 0 0 0 4.3945312 293.97656 L 4.3945312 294.8418 L 0.14257812 294.8418 L 0.14257812 293.97656 A 2.8176619 2.8176619 0 0 0 0 293.83398 L -0.36132812 293.83398 L -0.36132812 293.47266 A 2.8176619 2.8176619 0 0 0 -0.50390625 293.33008 L -0.86523438 293.33008 L -0.86523438 292.96875 A 2.8176619 2.8176619 0 0 0 -1.0078125 292.82617 L -2.5195312 292.82617 A 2.8176619 2.8176619 0 0 0 -2.6621094 292.96875 L -2.6621094 293.47266 A 2.8176619 2.8176619 0 0 0 -2.5195312 293.61328 L -1.1503906 293.61328 L -1.1503906 293.97656 A 2.8176619 2.8176619 0 0 0 -1.0078125 294.11719 L -0.64648438 294.11719 L -0.64648438 295.3457 L -3.5273438 295.3457 A 2.8176619 2.8176619 0 0 0 -3.6699219 295.48828 L -3.6699219 295.84961 L -4.8984375 295.84961 L -4.8984375 295.48828 A 2.8176619 2.8176619 0 0 0 -5.0390625 295.3457 L -5.90625 295.3457 L -5.90625 294.48047 A 2.8176619 2.8176619 0 0 0 -6.046875 294.33789 L -6.4101562 294.33789 L -6.4101562 293.97656 L -6.4101562 293.61328 L -5.5429688 293.61328 A 2.8176619 2.8176619 0 0 0 -5.4023438 293.47266 L -5.4023438 293.10938 L -5.0390625 293.10938 A 2.8176619 2.8176619 0 0 0 -4.8984375 292.96875 L -4.8984375 292.46484 A 2.8176619 2.8176619 0 0 0 -5.0390625 292.32227 L -5.4023438 292.32227 L -5.4023438 291.96094 A 2.8176619 2.8176619 0 0 0 -5.5429688 291.81836 L -6.4101562 291.81836 L -6.4101562 291.59766 L -6.046875 291.59766 A 2.8176619 2.8176619 0 0 0 -5.90625 291.45703 L -5.90625 290.58984 L -5.0390625 290.58984 A 2.8176619 2.8176619 0 0 0 -4.8984375 290.44922 L -4.8984375 290.08594 L -4.03125 290.08594 A 2.8176619 2.8176619 0 0 0 -3.890625 289.94531 L -3.890625 289.44141 A 2.8176619 2.8176619 0 0 0 -4.03125 289.29883 L -4.3945312 289.29883 L -4.3945312 288.93555 A 2.8176619 2.8176619 0 0 0 -4.5351562 288.79492 L -4.8984375 288.79492 L -4.8984375 288.57422 L -4.5351562 288.57422 A 2.8176619 2.8176619 0 0 0 -4.3945312 288.43164 L -4.3945312 287.56641 L -4.03125 287.56641 A 2.8176619 2.8176619 0 0 0 -3.890625 287.42383 L -3.890625 286.55859 L -3.5273438 286.55859 A 2.8176619 2.8176619 0 0 0 -3.3867188 286.41602 L -3.3867188 285.04688 L -3.0234375 285.04688 A 2.8176619 2.8176619 0 0 0 -2.8828125 284.9043 L -2.8828125 284.40039 A 2.8176619 2.8176619 0 0 0 -3.0234375 284.25977 L -3.5273438 284.25977 L -3.890625 284.25977 L -3.890625 283.89648 A 2.8176619 2.8176619 0 0 0 -4.03125 283.75391 L -4.8984375 283.75391 L -4.8984375 283.39258 A 2.8176619 2.8176619 0 0 0 -5.0390625 283.25 L -5.4023438 283.25 L -5.4023438 282.88867 L -5.4023438 282.38477 A 2.8176619 2.8176619 0 0 0 -5.5429688 282.24219 L -5.90625 282.24219 L -5.90625 281.51953 z M -8.9296875 282.52734 L -8.7089844 282.52734 L -8.7089844 282.88867 A 2.8176619 2.8176619 0 0 0 -8.5683594 283.03125 L -8.2050781 283.03125 L -8.2050781 283.89648 A 2.8176619 2.8176619 0 0 0 -8.0644531 284.03906 L -7.7011719 284.03906 L -7.7011719 284.9043 A 2.8176619 2.8176619 0 0 0 -7.5585938 285.04688 L -7.1972656 285.04688 L -7.1972656 285.91211 A 2.8176619 2.8176619 0 0 0 -7.0546875 286.05469 L -6.6933594 286.05469 L -6.6933594 286.91992 A 2.8176619 2.8176619 0 0 0 -6.5507812 287.0625 L -6.1894531 287.0625 L -6.1894531 287.78711 L -6.5507812 287.78711 A 2.8176619 2.8176619 0 0 0 -6.6933594 287.92773 L -6.6933594 288.29102 L -7.0546875 288.29102 A 2.8176619 2.8176619 0 0 0 -7.1972656 288.43164 L -7.1972656 288.79492 L -7.5585938 288.79492 A 2.8176619 2.8176619 0 0 0 -7.7011719 288.93555 L -7.7011719 289.29883 L -8.0644531 289.29883 A 2.8176619 2.8176619 0 0 0 -8.2050781 289.44141 L -8.2050781 289.94531 A 2.8176619 2.8176619 0 0 0 -8.0644531 290.08594 L -7.7011719 290.08594 L -7.7011719 290.44922 A 2.8176619 2.8176619 0 0 0 -7.5585938 290.58984 L -7.1972656 290.58984 L -7.1972656 290.95312 A 2.8176619 2.8176619 0 0 0 -7.0546875 291.09375 L -6.6933594 291.09375 L -6.6933594 291.31445 L -7.0546875 291.31445 A 2.8176619 2.8176619 0 0 0 -7.1972656 291.45703 L -7.1972656 292.32227 L -7.5585938 292.32227 A 2.8176619 2.8176619 0 0 0 -7.7011719 292.46484 L -7.7011719 292.96875 A 2.8176619 2.8176619 0 0 0 -7.5585938 293.10938 L -7.1972656 293.10938 L -7.1972656 293.83398 L -7.4179688 293.83398 L -7.4179688 293.47266 A 2.8176619 2.8176619 0 0 0 -7.5585938 293.33008 L -8.4257812 293.33008 L -8.4257812 293.10938 L -8.0644531 293.10938 A 2.8176619 2.8176619 0 0 0 -7.921875 292.96875 L -7.921875 291.45703 A 2.8176619 2.8176619 0 0 0 -8.0644531 291.31445 L -8.4257812 291.31445 L -8.4257812 290.95312 A 2.8176619 2.8176619 0 0 0 -8.5683594 290.81055 L -8.9296875 290.81055 L -8.9296875 290.44922 A 2.8176619 2.8176619 0 0 0 -9.0722656 290.30664 L -9.4335938 290.30664 L -9.4335938 289.58203 L -9.0722656 289.58203 A 2.8176619 2.8176619 0 0 0 -8.9296875 289.44141 L -8.9296875 289.07812 L -8.5683594 289.07812 A 2.8176619 2.8176619 0 0 0 -8.4257812 288.93555 L -8.4257812 287.92773 A 2.8176619 2.8176619 0 0 0 -8.5683594 287.78711 L -8.9296875 287.78711 L -8.9296875 287.42383 A 2.8176619 2.8176619 0 0 0 -9.0722656 287.2832 L -9.4335938 287.2832 L -9.4335938 286.91992 A 2.8176619 2.8176619 0 0 0 -9.5761719 286.7793 L -9.9375 286.7793 L -9.9375 286.41602 A 2.8176619 2.8176619 0 0 0 -10.080078 286.27539 L -10.441406 286.27539 L -10.441406 285.04688 L -10.080078 285.04688 A 2.8176619 2.8176619 0 0 0 -9.9375 284.9043 L -9.9375 284.03906 L -9.5761719 284.03906 A 2.8176619 2.8176619 0 0 0 -9.4335938 283.89648 L -9.4335938 283.03125 L -9.0722656 283.03125 A 2.8176619 2.8176619 0 0 0 -8.9296875 282.88867 L -8.9296875 282.52734 z M 0 283.75391 A 2.8176619 2.8176619 0 0 0 -0.14257812 283.89648 L -0.14257812 284.25977 L -0.50390625 284.25977 A 2.8176619 2.8176619 0 0 0 -0.64648438 284.40039 L -0.64648438 285.4082 A 2.8176619 2.8176619 0 0 0 -0.50390625 285.55078 L -0.14257812 285.55078 L -0.14257812 285.91211 A 2.8176619 2.8176619 0 0 0 0 286.05469 L 1.0078125 286.05469 A 2.8176619 2.8176619 0 0 0 1.1503906 285.91211 L 1.1503906 285.55078 L 1.5117188 285.55078 A 2.8176619 2.8176619 0 0 0 1.6542969 285.4082 L 1.6542969 284.40039 A 2.8176619 2.8176619 0 0 0 1.5117188 284.25977 L 1.1503906 284.25977 L 1.1503906 283.89648 A 2.8176619 2.8176619 0 0 0 1.0078125 283.75391 L 0 283.75391 z M 0.64648438 284.54297 L 0.86523438 284.54297 L 0.86523438 284.76367 L 0.64648438 284.76367 L 0.64648438 284.54297 z M 5.6855469 284.54297 L 5.90625 284.54297 L 5.90625 284.76367 L 5.6855469 284.76367 L 5.6855469 284.54297 z M 5.1816406 285.04688 L 5.4023438 285.04688 L 5.4023438 285.26758 L 5.1816406 285.26758 L 5.1816406 285.04688 z M 3.5273438 285.77148 A 2.8176619 2.8176619 0 0 0 3.3867188 285.91211 L 3.3867188 286.41602 A 2.8176619 2.8176619 0 0 0 3.5273438 286.55859 L 4.03125 286.55859 A 2.8176619 2.8176619 0 0 0 4.1738281 286.41602 L 4.1738281 285.91211 A 2.8176619 2.8176619 0 0 0 4.03125 285.77148 L 3.5273438 285.77148 z M 1.5117188 286.7793 A 2.8176619 2.8176619 0 0 0 1.3691406 286.91992 L 1.3691406 287.42383 A 2.8176619 2.8176619 0 0 0 1.5117188 287.56641 L 1.8730469 287.56641 L 1.8730469 287.92773 A 2.8176619 2.8176619 0 0 0 2.015625 288.07031 L 3.0234375 288.07031 A 2.8176619 2.8176619 0 0 0 3.1660156 287.92773 L 3.1660156 287.56641 L 3.890625 287.56641 L 3.890625 287.92773 A 2.8176619 2.8176619 0 0 0 4.03125 288.07031 L 4.5351562 288.07031 A 2.8176619 2.8176619 0 0 0 4.6777344 287.92773 L 4.6777344 287.56641 L 5.0390625 287.56641 A 2.8176619 2.8176619 0 0 0 5.1816406 287.42383 L 5.1816406 286.91992 A 2.8176619 2.8176619 0 0 0 5.0390625 286.7793 L 4.5351562 286.7793 A 2.8176619 2.8176619 0 0 0 4.3945312 286.91992 L 4.3945312 287.2832 L 4.1738281 287.2832 L 4.1738281 286.91992 A 2.8176619 2.8176619 0 0 0 4.03125 286.7793 L 3.0234375 286.7793 A 2.8176619 2.8176619 0 0 0 2.8828125 286.91992 L 2.8828125 287.2832 L 2.1582031 287.2832 L 2.1582031 286.91992 A 2.8176619 2.8176619 0 0 0 2.015625 286.7793 L 1.5117188 286.7793 z M -1.0078125 288.29102 A 2.8176619 2.8176619 0 0 0 -1.1503906 288.43164 L -1.1503906 288.79492 L -2.015625 288.79492 A 2.8176619 2.8176619 0 0 0 -2.1582031 288.93555 L -2.1582031 289.29883 L -2.5195312 289.29883 A 2.8176619 2.8176619 0 0 0 -2.6621094 289.44141 L -2.6621094 289.94531 A 2.8176619 2.8176619 0 0 0 -2.5195312 290.08594 L -2.015625 290.08594 A 2.8176619 2.8176619 0 0 0 -1.8730469 289.94531 L -1.8730469 289.58203 L -1.0078125 289.58203 A 2.8176619 2.8176619 0 0 0 -0.86523438 289.44141 L -0.86523438 289.07812 L -0.14257812 289.07812 L -0.14257812 289.94531 A 2.8176619 2.8176619 0 0 0 0 290.08594 L 0.36132812 290.08594 L 0.36132812 290.30664 L -0.50390625 290.30664 A 2.8176619 2.8176619 0 0 0 -0.64648438 290.44922 L -0.64648438 290.95312 A 2.8176619 2.8176619 0 0 0 -0.50390625 291.09375 L 0.50390625 291.09375 A 2.8176619 2.8176619 0 0 0 0.64648438 290.95312 L 0.64648438 290.58984 L 1.0078125 290.58984 A 2.8176619 2.8176619 0 0 0 1.1503906 290.44922 L 1.1503906 289.94531 A 2.8176619 2.8176619 0 0 0 1.0078125 289.80273 L 0.64648438 289.80273 L 0.64648438 288.93555 A 2.8176619 2.8176619 0 0 0 0.50390625 288.79492 L 0.14257812 288.79492 L 0.14257812 288.43164 A 2.8176619 2.8176619 0 0 0 0 288.29102 L -1.0078125 288.29102 z M 6.1894531 291.09375 L 6.9140625 291.09375 L 6.9140625 291.45703 A 2.8176619 2.8176619 0 0 0 7.0546875 291.59766 L 7.4179688 291.59766 L 7.4179688 292.32227 L 7.0546875 292.32227 A 2.8176619 2.8176619 0 0 0 6.9140625 292.46484 L 6.9140625 292.82617 L 5.6855469 292.82617 L 5.6855469 292.60547 L 6.046875 292.60547 A 2.8176619 2.8176619 0 0 0 6.1894531 292.46484 L 6.1894531 291.09375 z M -0.36132812 295.63086 L 0 295.63086 L 7.4179688 295.63086 L 7.4179688 295.99219 L 7.4179688 296.85742 L 7.0546875 296.85742 A 2.8176619 2.8176619 0 0 0 6.9140625 297 L 6.9140625 297.36133 L 6.046875 297.36133 A 2.8176619 2.8176619 0 0 0 5.90625 297.50391 L 5.90625 297.86523 L 3.5273438 297.86523 A 2.8176619 2.8176619 0 0 0 3.3867188 298.00781 L 3.3867188 298.36914 L 1.0078125 298.36914 A 2.8176619 2.8176619 0 0 0 0.86523438 298.51172 L 0.86523438 298.87305 L -1.0078125 298.87305 A 2.8176619 2.8176619 0 0 0 -1.1503906 299.01562 L -1.1503906 299.37695 L -1.5117188 299.37695 A 2.8176619 2.8176619 0 0 0 -1.6542969 299.51953 L -1.6542969 299.88086 L -2.015625 299.88086 A 2.8176619 2.8176619 0 0 0 -2.1582031 300.02344 L -2.1582031 300.38477 L -2.5195312 300.38477 A 2.8176619 2.8176619 0 0 0 -2.6621094 300.52734 L -2.6621094 300.89062 L -3.0234375 300.89062 A 2.8176619 2.8176619 0 0 0 -3.1660156 301.03125 L -3.1660156 301.39453 L -4.3945312 301.39453 L -4.3945312 299.51953 A 2.8176619 2.8176619 0 0 0 -4.5351562 299.37695 L -5.0390625 299.37695 A 2.8176619 2.8176619 0 0 0 -5.1816406 299.51953 L -5.1816406 299.88086 L -5.90625 299.88086 L -5.90625 299.51953 A 2.8176619 2.8176619 0 0 0 -6.046875 299.37695 L -7.921875 299.37695 L -7.921875 299.01562 A 2.8176619 2.8176619 0 0 0 -8.0644531 298.87305 L -9.4335938 298.87305 L -9.4335938 298.15039 L -8.5683594 298.15039 A 2.8176619 2.8176619 0 0 0 -8.4257812 298.00781 L -8.4257812 297.64648 L -7.5585938 297.64648 A 2.8176619 2.8176619 0 0 0 -7.4179688 297.50391 L -7.4179688 297.14258 L -6.046875 297.14258 A 2.8176619 2.8176619 0 0 0 -5.90625 297 L -5.90625 296.63867 L -3.5273438 296.63867 A 2.8176619 2.8176619 0 0 0 -3.3867188 296.49609 L -3.3867188 296.13477 L -0.50390625 296.13477 A 2.8176619 2.8176619 0 0 0 -0.36132812 295.99219 L -0.36132812 295.63086 z M 8.2050781 296.13477 L 9.4335938 296.13477 L 9.4335938 296.49609 A 2.8176619 2.8176619 0 0 0 9.5761719 296.63867 L 10.441406 296.63867 L 10.441406 297 A 2.8176619 2.8176619 0 0 0 10.583984 297.14258 L 11.449219 297.14258 L 11.449219 297.86523 L 11.087891 297.86523 A 2.8176619 2.8176619 0 0 0 10.945312 298.00781 L 10.945312 298.36914 L 10.080078 298.36914 A 2.8176619 2.8176619 0 0 0 9.9375 298.51172 L 9.9375 298.87305 L 8.0644531 298.87305 A 2.8176619 2.8176619 0 0 0 7.921875 299.01562 L 7.921875 299.37695 L 5.5429688 299.37695 A 2.8176619 2.8176619 0 0 0 5.4023438 299.51953 L 5.4023438 299.88086 L 2.015625 299.88086 A 2.8176619 2.8176619 0 0 0 1.8730469 300.02344 L 1.8730469 300.38477 L -1.3691406 300.38477 L -1.3691406 300.16602 L -1.0078125 300.16602 A 2.8176619 2.8176619 0 0 0 -0.86523438 300.02344 L -0.86523438 299.66211 L 1.0078125 299.66211 A 2.8176619 2.8176619 0 0 0 1.1503906 299.51953 L 1.1503906 299.1582 L 3.5273438 299.1582 A 2.8176619 2.8176619 0 0 0 3.6699219 299.01562 L 3.6699219 298.6543 L 6.046875 298.6543 A 2.8176619 2.8176619 0 0 0 6.1894531 298.51172 L 6.1894531 298.15039 L 7.0546875 298.15039 A 2.8176619 2.8176619 0 0 0 7.1972656 298.00781 L 7.1972656 297.64648 L 7.5585938 297.64648 A 2.8176619 2.8176619 0 0 0 7.7011719 297.50391 L 7.7011719 297.14258 L 8.0644531 297.14258 A 2.8176619 2.8176619 0 0 0 8.2050781 297 L 8.2050781 296.13477 z "
       xlink:href="#rect5406"
       style="opacity:1;fill:#000000;fill-opacity:1;stroke:none;stroke-width:1.00157475;stroke-linecap:butt;stroke-linejoin:round;stroke-miterlimit:4;stroke-dasharray:none;stroke-opacity:1;paint-order:stroke markers fill"
       id="path304"
       inkscape:href="#rect5406"
       d="m 5.0390625,278.85742 v 1.00781 H 4.5351562 v 1.00782 h 0.5039063 v 0.5039 h 0.5039063 v 0.50391 H 6.046875 v 1.51172 h 0.5039062 v -3.02344 H 6.046875 v -1.00781 H 5.5429688 v -0.50391 z m 1.0078125,4.53516 H 5.5429688 v 1.00781 H 6.046875 Z m 0,1.00781 v 0.50391 H 5.5429688 v 0.5039 H 5.0390625 v -0.5039 h 0.5039063 v -0.50391 H 5.0390625 4.5351562 v 0.50391 1.00781 h 0.5039063 v 0.50391 h 0.5039063 v -0.50391 H 6.046875 v -0.50391 h 0.5039062 v -1.00781 z m 0.5039062,1.00781 v 1.51172 h 0.5039063 v -1.51172 z m 0.5039063,1.51172 v 1.51172 h 0.5039063 v -1.51172 z m 0,1.51172 H 6.5507812 v 0.50391 h 0.5039063 z m -0.5039063,0.50391 H 6.046875 v 0.50586 H 6.5507812 Z M 6.046875,289.44141 H 5.0390625 v 0.5039 h 0.5039063 v 0.50391 0.5039 1.51172 H 6.046875 v -1.51172 h 1.0078125 v -0.5039 H 6.046875 Z m 1.0078125,1.51171 v 0.50391 h 0.5039063 v -0.50391 z m 0.5039063,0.50391 v 1.00781 h 0.5058593 v -1.00781 z m 0,1.00781 H 7.0546875 v 0.50391 h 0.5039063 z m -0.5039063,0.50391 H 5.5429688 v -0.50391 H 5.0390625 v 1.51172 h 0.5039063 v -0.5039 h 1.5117187 z m -2.015625,1.00781 H 4.5351562 v 1.00782 H 0 v -1.00782 h -0.50390625 v 1.51172 H 0 7.5585938 v -0.5039 H 5.0390625 Z m 2.5195313,1.51172 V 295.99219 297 h 0.5058593 v -1.00781 h 1.5117188 v -0.50391 H 8.0644531 Z m 2.0175781,0.50391 v 0.5039 h 1.0078121 v -0.5039 z m 1.0078121,0.5039 V 297 h 1.007813 v -0.50391 z M 11.591797,297 v 1.00781 h 0.503906 V 297 Z m 0,1.00781 h -0.503906 v 0.50391 h 0.503906 z m -0.503906,0.50391 h -1.007813 v 0.5039 h 1.007813 z m -1.007813,0.5039 H 8.0644531 v 0.50391 h 2.0156249 z m -2.0156249,0.50391 H 5.5429688 v 0.50391 h 2.5214843 z m -2.5214843,0.50391 H 2.015625 v 0.5039 h 3.5273438 z m -3.5273438,0.5039 h -3.5273438 v -0.5039 H -2.015625 v 0.5039 h -0.5039062 v 0.50391 H 2.015625 Z m -4.5351562,0.50391 h -0.5039063 v 0.50391 h 0.5039063 z m -0.5039063,0.50391 h -1.5117187 v 0.5039 h 1.5117187 z m -1.5117187,0 v -2.01563 h -0.5039063 v 0.50391 H -6.046875 v 0.5039 h 1.0078125 v 1.00782 z m -1.5117188,-1.51172 v -0.50391 h -2.0175781 v 0.50391 z m -2.0175781,-0.50391 v -0.50391 h -1.5117188 v 0.50391 z m -1.5117188,-0.50391 v -1.00781 h -0.5039061 v 1.00781 z m 0,-1.00781 h 1.0078125 v -0.5039 h -1.0078125 z m 1.0078125,-0.5039 h 1.0097656 V 297 H -8.5683594 Z M -7.5585938,297 h 1.5117188 v -0.50391 h -1.5117188 z m 1.5117188,-0.50391 h 2.5195312 v -0.5039 h -1.5117187 v -0.50391 H -6.046875 Z m 0,-1.00781 v -1.00781 h -0.5039062 v 1.00781 z m -0.5039062,-1.00781 v -0.50391 -0.5039 h 1.0078124 v -0.50391 h 0.5039063 v -0.50391 h -0.5039063 v -0.5039 h -1.0078124 v -0.50391 h -0.5039063 v 1.00781 h -0.5039063 v 0.50391 h 0.5039063 v 1.00781 h -0.5039063 v 0.50391 z m -1.0078126,-0.50391 v -0.5039 h -1.0097656 v 0.5039 z m -1.0097656,-0.5039 v -0.50391 h -0.5039062 v 0.50391 z m 0,-0.50391 h 0.5039063 v -1.51172 h -0.5039063 z m 0,-1.51172 v -0.50391 h -0.5039062 v 0.50391 z m -0.5039062,-0.50391 v -0.5039 h -0.5039063 v 0.5039 z m -0.5039063,-0.5039 v -1.00781 h -0.5039061 v 1.00781 z m 0,-1.00781 h 0.5039063 v -0.50586 h -0.5039063 z m 0.5039063,-0.50586 h 0.5039062 v -1.00782 h -0.5039062 z m 0,-1.00782 v -0.5039 h -0.5039063 v 0.5039 z m -0.5039063,-0.5039 v -0.50391 h -0.5039061 v 0.50391 z m -0.5039061,-0.50391 v -0.5039 h -0.503906 v 0.5039 z m -0.503906,-0.5039 v -1.51172 h -0.503907 v 1.51172 z m 0,-1.51172 h 0.503906 v -1.00782 h -0.503906 z m 0.503906,-1.00782 h 0.5039061 v -1.00781 h -0.5039061 z m 0.5039061,-1.00781 h 0.5039063 v -0.5039 h 0.5039062 v -0.50391 h -1.0078125 v 0.50391 z m 1.0078125,-0.5039 v 0.5039 h 0.5039063 v -0.5039 z m 0.5039063,0.5039 v 1.00781 h 0.5058593 v -1.00781 z m 0.5058593,1.00781 v 1.00782 h 0.5039063 v -1.00782 z m 0.5039063,1.00782 v 1.00781 h 0.5039063 v -1.00781 z m 0.5039063,1.00781 v 1.00781 h 0.5039062 v -1.00781 z m 0.5039062,1.00781 v 1.00781 h 0.5039062 v -1.00781 z m 0,1.00781 h -0.5039062 v 0.50391 h 0.5039062 z m -0.5039062,0.50391 h -0.5039063 v 0.50391 h 0.5039063 z m -0.5039063,0.50391 h -0.5039063 v 0.50586 h 0.5039063 z m -0.5039063,0.50586 h -0.5058593 v 0.5039 h 0.5058593 z m 0,0.5039 v 0.50391 h 0.5039063 v -0.50391 z m 0.5039063,0.50391 v 0.5039 h 0.5039063 v 0.50391 h 0.5039062 v -1.00781 h -0.5039062 z m 1.0078125,0 h 1.0078125 v -0.50391 H -4.03125 v -0.5039 h -0.5039062 v -0.50586 h -0.5039063 v -0.50391 h -0.5039063 v 1.00977 H -6.046875 Z m 1.0078125,-2.01758 h 0.5039063 v -1.00781 h -0.5039063 z m 0.5039063,-1.00781 H -4.03125 v -1.00781 h -0.5039062 z m 0.5039062,-1.00781 h 0.5039062 v -1.51172 h 0.5039063 v -0.50391 H -3.5273438 -4.03125 Z m 0,-2.01563 v -0.50391 h -1.0078125 v 0.50391 z m -1.0078125,-0.50391 v -0.5039 h -0.5039063 v 0.5039 z m -0.5039063,-0.5039 v -0.50391 -0.5039 H -6.046875 v -1.00782 h 2.015625 v -0.5039 h -2.015625 v -0.50391 h -2.0175781 v 0.50391 h -0.5039063 v 0.5039 h 0.5039063 v 0.50391 h 0.5058593 v 0.50391 h 0.5039063 v 0.5039 h 0.5039063 v 0.50391 z m 1.5117188,-2.01563 v 0.50391 h 1.5117188 v -0.50391 z m 1.5117188,0.50391 v 0.50391 h 1.0078124 v -0.50391 z m 1.0078124,0.50391 v 0.5039 h 2.01562505 v -0.5039 z m 2.01562505,0 H 4.03125 v -0.50391 H 0.50390625 Z M 4.03125,281.88086 h 0.5039062 v -1.00781 H 4.03125 Z m 0,0.50391 v 0.5039 h 1.0078125 v -0.5039 z m 1.0078125,0.5039 v 0.50391 h 0.5039063 v -0.50391 z m -8.5664063,13.10352 h 3.02343755 v -0.50391 H -3.5273438 Z m 2.015625,4.03125 h 0.5039063 v -0.50391 h -0.5039063 z m 0.5039063,-0.50391 h 2.015625 v -0.50391 h -2.015625 z m 2.015625,-0.50391 h 2.5195313 v -0.5039 H 1.0078125 Z m 2.5195313,-0.5039 H 6.046875 v -0.50391 H 3.5273438 Z m 2.5195312,-0.50391 h 1.0078125 v -0.5039 H 6.046875 Z m 1.0078125,-0.5039 H 7.5585938 V 297 H 7.0546875 Z m -7.55859375,-3.52735 v -0.5039 H -1.0078125 v 0.5039 z m -0.50390625,-0.5039 v -0.50391 h -1.5117187 v 0.50391 z m 6.046875,-3.52735 H 4.03125 v 0.50391 H 5.0390625 Z M 0,283.89648 v 0.50391 h -0.50390625 v 1.00781 H 0 v 0.50391 h 1.0078125 v -0.50391 h 0.5039063 v -1.00781 H 1.0078125 v 0.50391 H 0.50390625 v -0.50391 H 1.0078125 v -0.50391 z m 3.5273438,2.01563 v 0.50391 H 4.03125 v -0.50391 z m -2.015625,1.00781 v 0.50391 H 2.015625 v -0.50391 z m 0.5039062,0.50391 v 0.5039 h 1.0078125 v -0.5039 z m 1.0078125,0 H 4.03125 v -0.50391 H 3.0234375 Z m 1.0078125,0 v 0.5039 h 0.5039062 v -0.5039 z m 0.5039062,0 h 0.5039063 v -0.50391 H 4.5351562 Z m -5.5429687,1.00781 v 0.50391 H 0 v -0.50391 z M 0,288.93555 v 1.00976 h 0.50390625 v -1.00976 z m 0.50390625,1.00976 v 0.50391 H 1.0078125 v -0.50391 z m 0,0.50391 h -1.0078125 v 0.5039 h 1.0078125 z M -1.0078125,288.93555 H -2.015625 v 0.50586 h 1.0078125 z m -1.0078125,0.50586 h -0.5039062 v 0.5039 h 0.5039062 z" />
    <path
       sodipodi:type="inkscape:offset"
       inkscape:radius="2.8173802"
       inkscape:original="M 100 762.51953 L 100 782.51953 L 90 782.51953 L 90 802.51953 L 100 802.51953 L 100 812.51953 L 110 812.51953 L 110 822.51953 L 120 822.51953 L 120 852.51953 L 130 852.51953 L 130 792.51953 L 120 792.51953 L 120 772.51953 L 110 772.51953 L 110 762.51953 L 100 762.51953 z M 120 852.51953 L 110 852.51953 L 110 872.51953 L 120 872.51953 L 120 852.51953 z M 120 872.51953 L 120 882.51953 L 110 882.51953 L 110 892.51953 L 100 892.51953 L 100 882.51953 L 110 882.51953 L 110 872.51953 L 100 872.51953 L 90 872.51953 L 90 882.51953 L 90 902.51953 L 100 902.51953 L 100 912.51953 L 110 912.51953 L 110 902.51953 L 120 902.51953 L 120 892.51953 L 130 892.51953 L 130 872.51953 L 120 872.51953 z M 130 892.51953 L 130 922.51953 L 140 922.51953 L 140 892.51953 L 130 892.51953 z M 140 922.51953 L 140 952.51953 L 150 952.51953 L 150 922.51953 L 140 922.51953 z M 140 952.51953 L 130 952.51953 L 130 962.51953 L 140 962.51953 L 140 952.51953 z M 130 962.51953 L 120 962.51953 L 120 972.51953 L 130 972.51953 L 130 962.51953 z M 120 972.51953 L 100 972.51953 L 100 982.51953 L 110 982.51953 L 110 992.51953 L 110 1002.5195 L 110 1032.5195 L 120 1032.5195 L 120 1002.5195 L 140 1002.5195 L 140 992.51953 L 120 992.51953 L 120 972.51953 z M 140 1002.5195 L 140 1012.5195 L 150 1012.5195 L 150 1002.5195 L 140 1002.5195 z M 150 1012.5195 L 150 1032.5195 L 160 1032.5195 L 160 1012.5195 L 150 1012.5195 z M 150 1032.5195 L 140 1032.5195 L 140 1042.5195 L 150 1042.5195 L 150 1032.5195 z M 140 1042.5195 L 110 1042.5195 L 110 1032.5195 L 100 1032.5195 L 100 1062.5195 L 110 1062.5195 L 110 1052.5195 L 140 1052.5195 L 140 1042.5195 z M 100 1062.5195 L 90 1062.5195 L 90 1082.5195 L 0 1082.5195 L 0 1062.5195 L -10 1062.5195 L -10 1092.5195 L 0 1092.5195 L 150 1092.5195 L 150 1082.5195 L 100 1082.5195 L 100 1062.5195 z M 150 1092.5195 L 150 1102.5195 L 150 1122.5195 L 160 1122.5195 L 160 1102.5195 L 190 1102.5195 L 190 1092.5195 L 160 1092.5195 L 150 1092.5195 z M 190 1102.5195 L 190 1112.5195 L 210 1112.5195 L 210 1102.5195 L 190 1102.5195 z M 210 1112.5195 L 210 1122.5195 L 230 1122.5195 L 230 1112.5195 L 210 1112.5195 z M 230 1122.5195 L 230 1142.5195 L 240 1142.5195 L 240 1122.5195 L 230 1122.5195 z M 230 1142.5195 L 220 1142.5195 L 220 1152.5195 L 230 1152.5195 L 230 1142.5195 z M 220 1152.5195 L 200 1152.5195 L 200 1162.5195 L 220 1162.5195 L 220 1152.5195 z M 200 1162.5195 L 160 1162.5195 L 160 1172.5195 L 200 1172.5195 L 200 1162.5195 z M 160 1172.5195 L 110 1172.5195 L 110 1182.5195 L 160 1182.5195 L 160 1172.5195 z M 110 1182.5195 L 40 1182.5195 L 40 1192.5195 L 110 1192.5195 L 110 1182.5195 z M 40 1192.5195 L -30 1192.5195 L -30 1182.5195 L -40 1182.5195 L -40 1192.5195 L -50 1192.5195 L -50 1202.5195 L 40 1202.5195 L 40 1192.5195 z M -50 1202.5195 L -60 1202.5195 L -60 1212.5195 L -50 1212.5195 L -50 1202.5195 z M -60 1212.5195 L -90 1212.5195 L -90 1222.5195 L -60 1222.5195 L -60 1212.5195 z M -90 1212.5195 L -90 1172.5195 L -100 1172.5195 L -100 1182.5195 L -120 1182.5195 L -120 1192.5195 L -100 1192.5195 L -100 1212.5195 L -90 1212.5195 z M -120 1182.5195 L -120 1172.5195 L -160 1172.5195 L -160 1182.5195 L -120 1182.5195 z M -160 1172.5195 L -160 1162.5195 L -190 1162.5195 L -190 1172.5195 L -160 1172.5195 z M -190 1162.5195 L -190 1142.5195 L -200 1142.5195 L -200 1162.5195 L -190 1162.5195 z M -190 1142.5195 L -170 1142.5195 L -170 1132.5195 L -190 1132.5195 L -190 1142.5195 z M -170 1132.5195 L -150 1132.5195 L -150 1122.5195 L -170 1122.5195 L -170 1132.5195 z M -150 1122.5195 L -120 1122.5195 L -120 1112.5195 L -150 1112.5195 L -150 1122.5195 z M -120 1112.5195 L -70 1112.5195 L -70 1102.5195 L -100 1102.5195 L -100 1092.5195 L -120 1092.5195 L -120 1112.5195 z M -120 1092.5195 L -120 1072.5195 L -130 1072.5195 L -130 1092.5195 L -120 1092.5195 z M -130 1072.5195 L -130 1062.5195 L -130 1052.5195 L -110 1052.5195 L -110 1042.5195 L -100 1042.5195 L -100 1032.5195 L -110 1032.5195 L -110 1022.5195 L -130 1022.5195 L -130 1012.5195 L -140 1012.5195 L -140 1032.5195 L -150 1032.5195 L -150 1042.5195 L -140 1042.5195 L -140 1062.5195 L -150 1062.5195 L -150 1072.5195 L -130 1072.5195 z M -150 1062.5195 L -150 1052.5195 L -170 1052.5195 L -170 1062.5195 L -150 1062.5195 z M -170 1052.5195 L -170 1042.5195 L -180 1042.5195 L -180 1052.5195 L -170 1052.5195 z M -170 1042.5195 L -160 1042.5195 L -160 1012.5195 L -170 1012.5195 L -170 1042.5195 z M -170 1012.5195 L -170 1002.5195 L -180 1002.5195 L -180 1012.5195 L -170 1012.5195 z M -180 1002.5195 L -180 992.51953 L -190 992.51953 L -190 1002.5195 L -180 1002.5195 z M -190 992.51953 L -190 972.51953 L -200 972.51953 L -200 992.51953 L -190 992.51953 z M -190 972.51953 L -180 972.51953 L -180 962.51953 L -190 962.51953 L -190 972.51953 z M -180 962.51953 L -170 962.51953 L -170 942.51953 L -180 942.51953 L -180 962.51953 z M -180 942.51953 L -180 932.51953 L -190 932.51953 L -190 942.51953 L -180 942.51953 z M -190 932.51953 L -190 922.51953 L -200 922.51953 L -200 932.51953 L -190 932.51953 z M -200 922.51953 L -200 912.51953 L -210 912.51953 L -210 922.51953 L -200 922.51953 z M -210 912.51953 L -210 882.51953 L -220 882.51953 L -220 912.51953 L -210 912.51953 z M -210 882.51953 L -200 882.51953 L -200 862.51953 L -210 862.51953 L -210 882.51953 z M -200 862.51953 L -190 862.51953 L -190 842.51953 L -200 842.51953 L -200 862.51953 z M -190 842.51953 L -180 842.51953 L -180 832.51953 L -170 832.51953 L -170 822.51953 L -190 822.51953 L -190 832.51953 L -190 842.51953 z M -170 832.51953 L -170 842.51953 L -160 842.51953 L -160 832.51953 L -170 832.51953 z M -160 842.51953 L -160 862.51953 L -150 862.51953 L -150 842.51953 L -160 842.51953 z M -150 862.51953 L -150 882.51953 L -140 882.51953 L -140 862.51953 L -150 862.51953 z M -140 882.51953 L -140 902.51953 L -130 902.51953 L -130 882.51953 L -140 882.51953 z M -130 902.51953 L -130 922.51953 L -120 922.51953 L -120 902.51953 L -130 902.51953 z M -120 922.51953 L -120 942.51953 L -110 942.51953 L -110 922.51953 L -120 922.51953 z M -120 942.51953 L -130 942.51953 L -130 952.51953 L -120 952.51953 L -120 942.51953 z M -130 952.51953 L -140 952.51953 L -140 962.51953 L -130 962.51953 L -130 952.51953 z M -140 962.51953 L -150 962.51953 L -150 972.51953 L -140 972.51953 L -140 962.51953 z M -150 972.51953 L -160 972.51953 L -160 982.51953 L -150 982.51953 L -150 972.51953 z M -150 982.51953 L -150 992.51953 L -140 992.51953 L -140 982.51953 L -150 982.51953 z M -140 992.51953 L -140 1002.5195 L -130 1002.5195 L -130 1012.5195 L -120 1012.5195 L -120 992.51953 L -130 992.51953 L -140 992.51953 z M -120 992.51953 L -100 992.51953 L -100 982.51953 L -80 982.51953 L -80 972.51953 L -90 972.51953 L -90 962.51953 L -100 962.51953 L -100 952.51953 L -110 952.51953 L -110 972.51953 L -120 972.51953 L -120 992.51953 z M -100 952.51953 L -90 952.51953 L -90 932.51953 L -100 932.51953 L -100 952.51953 z M -90 932.51953 L -80 932.51953 L -80 912.51953 L -90 912.51953 L -90 932.51953 z M -80 912.51953 L -70 912.51953 L -70 882.51953 L -60 882.51953 L -60 872.51953 L -70 872.51953 L -80 872.51953 L -80 912.51953 z M -80 872.51953 L -80 862.51953 L -100 862.51953 L -100 872.51953 L -80 872.51953 z M -100 862.51953 L -100 852.51953 L -110 852.51953 L -110 862.51953 L -100 862.51953 z M -110 852.51953 L -110 842.51953 L -110 832.51953 L -120 832.51953 L -120 812.51953 L -80 812.51953 L -80 802.51953 L -120 802.51953 L -120 792.51953 L -160 792.51953 L -160 802.51953 L -170 802.51953 L -170 812.51953 L -160 812.51953 L -160 822.51953 L -150 822.51953 L -150 832.51953 L -140 832.51953 L -140 842.51953 L -130 842.51953 L -130 852.51953 L -110 852.51953 z M -80 812.51953 L -80 822.51953 L -50 822.51953 L -50 812.51953 L -80 812.51953 z M -50 822.51953 L -50 832.51953 L -30 832.51953 L -30 822.51953 L -50 822.51953 z M -30 832.51953 L -30 842.51953 L 10 842.51953 L 10 832.51953 L -30 832.51953 z M 10 832.51953 L 80 832.51953 L 80 822.51953 L 10 822.51953 L 10 832.51953 z M 80 822.51953 L 90 822.51953 L 90 802.51953 L 80 802.51953 L 80 822.51953 z M 80 832.51953 L 80 842.51953 L 100 842.51953 L 100 832.51953 L 80 832.51953 z M 100 842.51953 L 100 852.51953 L 110 852.51953 L 110 842.51953 L 100 842.51953 z M -70 1102.5195 L -10 1102.5195 L -10 1092.5195 L -70 1092.5195 L -70 1102.5195 z M -30 1182.5195 L -20 1182.5195 L -20 1172.5195 L -30 1172.5195 L -30 1182.5195 z M -20 1172.5195 L 20 1172.5195 L 20 1162.5195 L -20 1162.5195 L -20 1172.5195 z M 20 1162.5195 L 70 1162.5195 L 70 1152.5195 L 20 1152.5195 L 20 1162.5195 z M 70 1152.5195 L 120 1152.5195 L 120 1142.5195 L 70 1142.5195 L 70 1152.5195 z M 120 1142.5195 L 140 1142.5195 L 140 1132.5195 L 120 1132.5195 L 120 1142.5195 z M 140 1132.5195 L 150 1132.5195 L 150 1122.5195 L 140 1122.5195 L 140 1132.5195 z M -10 1062.5195 L -10 1052.5195 L -20 1052.5195 L -20 1062.5195 L -10 1062.5195 z M -20 1052.5195 L -20 1042.5195 L -50 1042.5195 L -50 1052.5195 L -20 1052.5195 z M 100 982.51953 L 80 982.51953 L 80 992.51953 L 100 992.51953 L 100 982.51953 z M 0 862.51953 L 0 872.51953 L -10 872.51953 L -10 892.51953 L 0 892.51953 L 0 902.51953 L 20 902.51953 L 20 892.51953 L 30 892.51953 L 30 872.51953 L 20 872.51953 L 20 882.51953 L 10 882.51953 L 10 872.51953 L 20 872.51953 L 20 862.51953 L 0 862.51953 z M 70 902.51953 L 70 912.51953 L 80 912.51953 L 80 902.51953 L 70 902.51953 z M 30 922.51953 L 30 932.51953 L 40 932.51953 L 40 922.51953 L 30 922.51953 z M 40 932.51953 L 40 942.51953 L 60 942.51953 L 60 932.51953 L 40 932.51953 z M 60 932.51953 L 80 932.51953 L 80 922.51953 L 60 922.51953 L 60 932.51953 z M 80 932.51953 L 80 942.51953 L 90 942.51953 L 90 932.51953 L 80 932.51953 z M 90 932.51953 L 100 932.51953 L 100 922.51953 L 90 922.51953 L 90 932.51953 z M -20 952.51953 L -20 962.51953 L 0 962.51953 L 0 952.51953 L -20 952.51953 z M 0 962.51953 L 0 982.51953 L 10 982.51953 L 10 962.51953 L 0 962.51953 z M 10 982.51953 L 10 992.51953 L 20 992.51953 L 20 982.51953 L 10 982.51953 z M 10 992.51953 L -10 992.51953 L -10 1002.5195 L 10 1002.5195 L 10 992.51953 z M -20 962.51953 L -40 962.51953 L -40 972.51953 L -20 972.51953 L -20 962.51953 z M -40 972.51953 L -50 972.51953 L -50 982.51953 L -40 982.51953 L -40 972.51953 z "
       style="opacity:1;fill:#000000;fill-opacity:1;stroke:none;stroke-width:1.00157475;stroke-linecap:butt;stroke-linejoin:round;stroke-miterlimit:4;stroke-dasharray:none;stroke-opacity:1;paint-order:stroke markers fill"
       id="rect5406"
       d="m 100,759.70312 a 2.8176619,2.8176619 0 0 0 -2.816406,2.81641 v 17.18359 H 90 a 2.8176619,2.8176619 0 0 0 -2.816406,2.81641 v 17.18359 H 80 a 2.8176619,2.8176619 0 0 0 -2.816406,2.81641 v 17.18359 H 10 a 2.8176619,2.8176619 0 0 0 -2.8164062,2.81641 v 7.18359 H -27.183594 v -7.18359 A 2.8176619,2.8176619 0 0 0 -30,819.70312 h -17.183594 v -7.18359 A 2.8176619,2.8176619 0 0 0 -50,809.70312 h -27.183594 v -7.18359 A 2.8176619,2.8176619 0 0 0 -80,799.70312 h -37.18359 v -7.18359 A 2.8176619,2.8176619 0 0 0 -120,789.70312 h -40 a 2.8176619,2.8176619 0 0 0 -2.81641,2.81641 v 7.18359 H -170 a 2.8176619,2.8176619 0 0 0 -2.81641,2.81641 v 10 A 2.8176619,2.8176619 0 0 0 -170,815.33594 h 7.18359 v 7.18359 A 2.8176619,2.8176619 0 0 0 -160,825.33594 h 7.18359 v 7.18359 A 2.8176619,2.8176619 0 0 0 -150,835.33594 h 7.18359 v 7.18359 A 2.8176619,2.8176619 0 0 0 -140,845.33594 h 7.18359 v 7.18359 A 2.8176619,2.8176619 0 0 0 -130,855.33594 h 17.18359 v 7.18359 A 2.8176619,2.8176619 0 0 0 -110,865.33594 h 7.18359 v 7.18359 A 2.8176619,2.8176619 0 0 0 -100,875.33594 h 17.183594 v 34.36718 H -90 a 2.8176619,2.8176619 0 0 0 -2.816406,2.81641 v 17.18359 H -100 a 2.8176619,2.8176619 0 0 0 -2.81641,2.81641 v 17.18359 H -110 a 2.8176619,2.8176619 0 0 0 -2.81641,2.81641 v 17.18359 H -120 a 2.8176619,2.8176619 0 0 0 -2.81641,2.81641 v 17.18359 H -130 h -7.18359 v -7.18359 A 2.8176619,2.8176619 0 0 0 -140,979.70312 h -7.18359 v -4.36718 H -140 a 2.8176619,2.8176619 0 0 0 2.81641,-2.81641 v -7.18359 H -130 a 2.8176619,2.8176619 0 0 0 2.81641,-2.81641 v -7.18359 H -120 a 2.8176619,2.8176619 0 0 0 2.81641,-2.81641 v -7.18359 H -110 a 2.8176619,2.8176619 0 0 0 2.81641,-2.81641 v -20 A 2.8176619,2.8176619 0 0 0 -110,919.70312 h -7.18359 V 902.51953 A 2.8176619,2.8176619 0 0 0 -120,899.70312 h -7.18359 V 882.51953 A 2.8176619,2.8176619 0 0 0 -130,879.70312 h -7.18359 V 862.51953 A 2.8176619,2.8176619 0 0 0 -140,859.70312 h -7.18359 V 842.51953 A 2.8176619,2.8176619 0 0 0 -150,839.70312 h -7.18359 v -7.18359 A 2.8176619,2.8176619 0 0 0 -160,829.70312 h -7.18359 v -7.18359 A 2.8176619,2.8176619 0 0 0 -170,819.70312 h -20 a 2.8176619,2.8176619 0 0 0 -2.81641,2.81641 v 10 7.18359 H -200 a 2.8176619,2.8176619 0 0 0 -2.81641,2.81641 v 17.18359 H -210 a 2.8176619,2.8176619 0 0 0 -2.81641,2.81641 v 17.18359 H -220 a 2.8176619,2.8176619 0 0 0 -2.81641,2.81641 v 30 A 2.8176619,2.8176619 0 0 0 -220,915.33594 h 7.18359 v 7.18359 A 2.8176619,2.8176619 0 0 0 -210,925.33594 h 7.18359 v 7.18359 A 2.8176619,2.8176619 0 0 0 -200,935.33594 h 7.18359 v 7.18359 A 2.8176619,2.8176619 0 0 0 -190,945.33594 h 7.18359 v 14.36718 H -190 a 2.8176619,2.8176619 0 0 0 -2.81641,2.81641 v 7.18359 H -200 a 2.8176619,2.8176619 0 0 0 -2.81641,2.81641 v 20 A 2.8176619,2.8176619 0 0 0 -200,995.33594 h 7.18359 v 7.18356 a 2.8176619,2.8176619 0 0 0 2.81641,2.8164 h 7.18359 v 7.1836 a 2.8176619,2.8176619 0 0 0 2.81641,2.8164 h 7.18359 v 24.3653 H -180 a 2.8176619,2.8176619 0 0 0 -2.81641,2.8183 v 10 a 2.8176619,2.8176619 0 0 0 2.81641,2.8164 h 7.18359 v 7.1836 a 2.8176619,2.8176619 0 0 0 2.81641,2.8164 h 17.18359 v 7.1836 a 2.8176619,2.8176619 0 0 0 2.81641,2.8164 h 17.18359 v 17.1836 a 2.8176619,2.8176619 0 0 0 2.81641,2.8164 h 7.18359 v 14.3653 H -150 a 2.8176619,2.8176619 0 0 0 -2.81641,2.8183 v 7.1817 H -170 a 2.8176619,2.8176619 0 0 0 -2.81641,2.8183 v 7.1817 H -190 a 2.8176619,2.8176619 0 0 0 -2.81641,2.8183 v 7.1817 H -200 a 2.8176619,2.8176619 0 0 0 -2.81641,2.8183 v 20 a 2.8176619,2.8176619 0 0 0 2.81641,2.8164 h 7.18359 v 7.1836 a 2.8176619,2.8176619 0 0 0 2.81641,2.8164 h 27.18359 v 7.1836 a 2.8176619,2.8176619 0 0 0 2.81641,2.8164 h 37.18359 v 7.1836 a 2.8176619,2.8176619 0 0 0 2.81641,2.8164 h 17.18359 v 17.1836 a 2.8176619,2.8176619 0 0 0 2.81641,2.8164 h 7.183594 v 7.1836 A 2.8176619,2.8176619 0 0 0 -90,1225.3359 h 30 a 2.8176619,2.8176619 0 0 0 2.816406,-2.8164 v -7.1836 H -50 a 2.8176619,2.8176619 0 0 0 2.816406,-2.8164 v -7.1836 H 40 a 2.8176619,2.8176619 0 0 0 2.816406,-2.8164 v -7.1836 H 110 a 2.8176619,2.8176619 0 0 0 2.81641,-2.8164 v -7.1836 H 160 a 2.8176619,2.8176619 0 0 0 2.81641,-2.8164 v -7.1836 H 200 a 2.8176619,2.8176619 0 0 0 2.81641,-2.8164 v -7.1836 H 220 a 2.8176619,2.8176619 0 0 0 2.81641,-2.8164 v -7.1836 H 230 a 2.8176619,2.8176619 0 0 0 2.81641,-2.8164 v -7.1836 H 240 a 2.8176619,2.8176619 0 0 0 2.81641,-2.8164 v -20 A 2.8176619,2.8176619 0 0 0 240,1119.7012 h -7.18359 v -7.1817 A 2.8176619,2.8176619 0 0 0 230,1109.7012 h -17.18359 v -7.1817 A 2.8176619,2.8176619 0 0 0 210,1099.7012 h -17.18359 v -7.1817 A 2.8176619,2.8176619 0 0 0 190,1089.7012 h -30 -7.18359 v -7.1817 A 2.8176619,2.8176619 0 0 0 150,1079.7012 h -47.18359 v -14.3653 H 110 a 2.8176619,2.8176619 0 0 0 2.81641,-2.8164 v -7.1836 H 140 a 2.8176619,2.8176619 0 0 0 2.81641,-2.8164 v -7.1836 H 150 a 2.8176619,2.8176619 0 0 0 2.81641,-2.8164 v -7.1836 H 160 a 2.8176619,2.8176619 0 0 0 2.81641,-2.8164 v -20 A 2.8176619,2.8176619 0 0 0 160,1009.7012 h -7.18359 v -7.1817 A 2.8176619,2.8176619 0 0 0 150,999.70117 h -7.18359 v -7.18164 A 2.8176619,2.8176619 0 0 0 140,989.70312 H 122.81641 V 975.33594 H 130 a 2.8176619,2.8176619 0 0 0 2.81641,-2.81641 v -7.18359 H 140 a 2.8176619,2.8176619 0 0 0 2.81641,-2.81641 v -7.18359 H 150 a 2.8176619,2.8176619 0 0 0 2.81641,-2.81641 v -30 A 2.8176619,2.8176619 0 0 0 150,919.70312 h -7.18359 V 892.51953 A 2.8176619,2.8176619 0 0 0 140,889.70312 h -7.18359 V 872.51953 A 2.8176619,2.8176619 0 0 0 130,869.70312 h -7.18359 V 855.33594 H 130 a 2.8176619,2.8176619 0 0 0 2.81641,-2.81641 v -60 A 2.8176619,2.8176619 0 0 0 130,789.70312 h -7.18359 V 772.51953 A 2.8176619,2.8176619 0 0 0 120,769.70312 h -7.18359 v -7.18359 A 2.8176619,2.8176619 0 0 0 110,759.70312 Z m -7.183594,45.63282 h 4.367188 v 7.18359 A 2.8176619,2.8176619 0 0 0 100,815.33594 h 7.18359 v 7.18359 A 2.8176619,2.8176619 0 0 0 110,825.33594 h 7.18359 v 24.36718 h -4.36718 v -7.18359 A 2.8176619,2.8176619 0 0 0 110,839.70312 h -7.18359 v -7.18359 A 2.8176619,2.8176619 0 0 0 100,829.70312 H 82.816406 v -4.36718 H 90 a 2.8176619,2.8176619 0 0 0 2.816406,-2.81641 z m -209.999996,10 h 34.367184 v 7.18359 A 2.8176619,2.8176619 0 0 0 -80,825.33594 h 27.183594 v 7.18359 A 2.8176619,2.8176619 0 0 0 -50,835.33594 h 17.183594 v 7.18359 A 2.8176619,2.8176619 0 0 0 -30,845.33594 h 40 a 2.8176619,2.8176619 0 0 0 2.816406,-2.81641 v -7.18359 h 64.367188 v 7.18359 A 2.8176619,2.8176619 0 0 0 80,845.33594 h 17.183594 v 7.18359 A 2.8176619,2.8176619 0 0 0 100,855.33594 h 7.18359 v 14.36718 H 100 90 a 2.8176619,2.8176619 0 0 0 -2.816406,2.81641 v 10 20 A 2.8176619,2.8176619 0 0 0 90,905.33594 h 7.183594 v 7.18359 A 2.8176619,2.8176619 0 0 0 100,915.33594 h 10 a 2.8176619,2.8176619 0 0 0 2.81641,-2.81641 v -7.18359 H 120 a 2.8176619,2.8176619 0 0 0 2.81641,-2.81641 v -7.18359 h 4.36718 v 27.18359 A 2.8176619,2.8176619 0 0 0 130,925.33594 h 7.18359 v 24.36718 H 130 a 2.8176619,2.8176619 0 0 0 -2.81641,2.81641 v 7.18359 H 120 a 2.8176619,2.8176619 0 0 0 -2.81641,2.81641 v 7.18359 H 100 a 2.8176619,2.8176619 0 0 0 -2.816406,2.81641 v 7.18359 H 80 a 2.8176619,2.8176619 0 0 0 -2.816406,2.81641 v 10 A 2.8176619,2.8176619 0 0 0 80,995.33594 h 20 a 2.8176619,2.8176619 0 0 0 2.81641,-2.81641 v -7.18359 h 4.36718 v 7.18359 9.99997 27.1817 H 100 a 2.8176619,2.8176619 0 0 0 -2.816406,2.8183 v 27.1817 H 90 a 2.8176619,2.8176619 0 0 0 -2.816406,2.8183 v 17.1817 H 2.8164062 v -17.1817 A 2.8176619,2.8176619 0 0 0 0,1059.7012 h -7.1835938 v -7.1817 A 2.8176619,2.8176619 0 0 0 -10,1049.7012 h -7.183594 v -7.1817 A 2.8176619,2.8176619 0 0 0 -20,1039.7012 h -30 a 2.8176619,2.8176619 0 0 0 -2.816406,2.8183 v 10 A 2.8176619,2.8176619 0 0 0 -50,1055.3359 h 27.183594 v 7.1836 A 2.8176619,2.8176619 0 0 0 -20,1065.3359 h 7.183594 v 24.3653 H -70 a 2.8176619,2.8176619 0 0 0 -2.816406,2.8183 v 7.1817 h -24.367188 v -7.1817 A 2.8176619,2.8176619 0 0 0 -100,1089.7012 h -17.18359 v -17.1817 A 2.8176619,2.8176619 0 0 0 -120,1069.7012 h -7.18359 v -7.1817 -7.1836 H -110 a 2.8176619,2.8176619 0 0 0 2.81641,-2.8164 v -7.1836 H -100 a 2.8176619,2.8176619 0 0 0 2.816406,-2.8164 v -10 A 2.8176619,2.8176619 0 0 0 -100,1029.7012 h -7.18359 v -7.1817 A 2.8176619,2.8176619 0 0 0 -110,1019.7012 h -17.18359 v -4.3653 H -120 a 2.8176619,2.8176619 0 0 0 2.81641,-2.8164 V 995.33594 H -100 a 2.8176619,2.8176619 0 0 0 2.816406,-2.81641 v -7.18359 H -80 a 2.8176619,2.8176619 0 0 0 2.816406,-2.81641 v -10 A 2.8176619,2.8176619 0 0 0 -80,969.70312 h -7.183594 v -7.18359 A 2.8176619,2.8176619 0 0 0 -90,959.70312 h -7.183594 v -4.36718 H -90 a 2.8176619,2.8176619 0 0 0 2.816406,-2.81641 V 935.33594 H -80 a 2.8176619,2.8176619 0 0 0 2.816406,-2.81641 V 915.33594 H -70 a 2.8176619,2.8176619 0 0 0 2.816406,-2.81641 V 885.33594 H -60 a 2.8176619,2.8176619 0 0 0 2.816406,-2.81641 v -10 A 2.8176619,2.8176619 0 0 0 -60,869.70312 h -10 -7.183594 v -7.18359 A 2.8176619,2.8176619 0 0 0 -80,859.70312 h -17.183594 v -7.18359 A 2.8176619,2.8176619 0 0 0 -100,849.70312 h -7.18359 v -7.18359 -10 A 2.8176619,2.8176619 0 0 0 -110,829.70312 h -7.18359 z m -60,20 h 4.36718 v 7.18359 A 2.8176619,2.8176619 0 0 0 -170,845.33594 h 7.18359 v 17.18359 A 2.8176619,2.8176619 0 0 0 -160,865.33594 h 7.18359 v 17.18359 A 2.8176619,2.8176619 0 0 0 -150,885.33594 h 7.18359 v 17.18359 A 2.8176619,2.8176619 0 0 0 -140,905.33594 h 7.18359 v 17.18359 A 2.8176619,2.8176619 0 0 0 -130,925.33594 h 7.18359 v 14.36718 H -130 a 2.8176619,2.8176619 0 0 0 -2.81641,2.81641 v 7.18359 H -140 a 2.8176619,2.8176619 0 0 0 -2.81641,2.81641 v 7.18359 H -150 a 2.8176619,2.8176619 0 0 0 -2.81641,2.81641 v 7.18359 H -160 a 2.8176619,2.8176619 0 0 0 -2.81641,2.81641 v 10 A 2.8176619,2.8176619 0 0 0 -160,985.33594 h 7.18359 v 7.18359 A 2.8176619,2.8176619 0 0 0 -150,995.33594 h 7.18359 v 7.18356 a 2.8176619,2.8176619 0 0 0 2.81641,2.8164 h 7.18359 v 4.3653 H -140 a 2.8176619,2.8176619 0 0 0 -2.81641,2.8183 v 17.1817 H -150 a 2.8176619,2.8176619 0 0 0 -2.81641,2.8183 v 10 a 2.8176619,2.8176619 0 0 0 2.81641,2.8164 h 7.18359 v 14.3653 h -4.36718 v -7.1817 A 2.8176619,2.8176619 0 0 0 -150,1049.7012 h -17.18359 v -4.3653 H -160 a 2.8176619,2.8176619 0 0 0 2.81641,-2.8164 v -30 A 2.8176619,2.8176619 0 0 0 -160,1009.7012 h -7.18359 v -7.1817 A 2.8176619,2.8176619 0 0 0 -170,999.70117 h -7.18359 v -7.18164 A 2.8176619,2.8176619 0 0 0 -180,989.70312 h -7.18359 V 975.33594 H -180 a 2.8176619,2.8176619 0 0 0 2.81641,-2.81641 v -7.18359 H -170 a 2.8176619,2.8176619 0 0 0 2.81641,-2.81641 v -20 A 2.8176619,2.8176619 0 0 0 -170,939.70312 h -7.18359 v -7.18359 A 2.8176619,2.8176619 0 0 0 -180,929.70312 h -7.18359 v -7.18359 A 2.8176619,2.8176619 0 0 0 -190,919.70312 h -7.18359 v -7.18359 A 2.8176619,2.8176619 0 0 0 -200,909.70312 h -7.18359 V 885.33594 H -200 a 2.8176619,2.8176619 0 0 0 2.81641,-2.81641 V 865.33594 H -190 a 2.8176619,2.8176619 0 0 0 2.81641,-2.81641 V 845.33594 H -180 a 2.8176619,2.8176619 0 0 0 2.81641,-2.81641 z M 0,859.70312 a 2.8176619,2.8176619 0 0 0 -2.8164062,2.81641 v 7.18359 H -10 a 2.8176619,2.8176619 0 0 0 -2.816406,2.81641 v 20 A 2.8176619,2.8176619 0 0 0 -10,895.33594 h 7.1835938 v 7.18359 A 2.8176619,2.8176619 0 0 0 0,905.33594 h 20 a 2.8176619,2.8176619 0 0 0 2.816406,-2.81641 v -7.18359 H 30 a 2.8176619,2.8176619 0 0 0 2.816406,-2.81641 v -20 A 2.8176619,2.8176619 0 0 0 30,869.70312 h -7.183594 v -7.18359 A 2.8176619,2.8176619 0 0 0 20,859.70312 Z m 12.816406,15.63282 h 4.367188 v 4.36718 h -4.367188 z m 100.000004,0 h 4.36718 v 4.36718 h -4.36718 z m -10,10 h 4.36718 v 4.36718 h -4.36718 z M 70,899.70312 a 2.8176619,2.8176619 0 0 0 -2.816406,2.81641 v 10 A 2.8176619,2.8176619 0 0 0 70,915.33594 h 10 a 2.8176619,2.8176619 0 0 0 2.816406,-2.81641 v -10 A 2.8176619,2.8176619 0 0 0 80,899.70312 Z m -40,20 a 2.8176619,2.8176619 0 0 0 -2.816406,2.81641 v 10 A 2.8176619,2.8176619 0 0 0 30,935.33594 h 7.183594 v 7.18359 A 2.8176619,2.8176619 0 0 0 40,945.33594 h 20 a 2.8176619,2.8176619 0 0 0 2.816406,-2.81641 v -7.18359 h 14.367188 v 7.18359 A 2.8176619,2.8176619 0 0 0 80,945.33594 h 10 a 2.8176619,2.8176619 0 0 0 2.816406,-2.81641 v -7.18359 H 100 a 2.8176619,2.8176619 0 0 0 2.81641,-2.81641 v -10 A 2.8176619,2.8176619 0 0 0 100,919.70312 H 90 a 2.8176619,2.8176619 0 0 0 -2.816406,2.81641 v 7.18359 h -4.367188 v -7.18359 A 2.8176619,2.8176619 0 0 0 80,919.70312 H 60 a 2.8176619,2.8176619 0 0 0 -2.816406,2.81641 v 7.18359 H 42.816406 v -7.18359 A 2.8176619,2.8176619 0 0 0 40,919.70312 Z m -50,30 a 2.8176619,2.8176619 0 0 0 -2.816406,2.81641 v 7.18359 H -40 a 2.8176619,2.8176619 0 0 0 -2.816406,2.81641 v 7.18359 H -50 a 2.8176619,2.8176619 0 0 0 -2.816406,2.81641 v 10 A 2.8176619,2.8176619 0 0 0 -50,985.33594 h 10 a 2.8176619,2.8176619 0 0 0 2.816406,-2.81641 v -7.18359 H -20 a 2.8176619,2.8176619 0 0 0 2.816406,-2.81641 v -7.18359 h 14.3671878 v 17.18359 A 2.8176619,2.8176619 0 0 0 0,985.33594 h 7.1835938 v 4.36718 H -10 a 2.8176619,2.8176619 0 0 0 -2.816406,2.81641 v 9.99997 A 2.8176619,2.8176619 0 0 0 -10,1005.3359 h 20 a 2.8176619,2.8176619 0 0 0 2.816406,-2.8164 v -7.18356 H 20 a 2.8176619,2.8176619 0 0 0 2.816406,-2.81641 v -10 A 2.8176619,2.8176619 0 0 0 20,979.70312 H 12.816406 V 962.51953 A 2.8176619,2.8176619 0 0 0 10,959.70312 H 2.8164062 v -7.18359 A 2.8176619,2.8176619 0 0 0 0,949.70312 Z m 142.81641,55.63278 h 14.36718 v 7.1836 A 2.8176619,2.8176619 0 0 0 140,1015.3359 h 7.18359 v 14.3653 H 140 a 2.8176619,2.8176619 0 0 0 -2.81641,2.8183 v 7.1817 h -24.36718 v -4.3653 H 120 a 2.8176619,2.8176619 0 0 0 2.81641,-2.8164 z m -130.0000038,90 H 0 147.18359 v 7.1836 17.1817 H 140 a 2.8176619,2.8176619 0 0 0 -2.81641,2.8183 v 7.1817 H 120 a 2.8176619,2.8176619 0 0 0 -2.81641,2.8183 v 7.1817 H 70 a 2.8176619,2.8176619 0 0 0 -2.816406,2.8183 v 7.1817 H 20 a 2.8176619,2.8176619 0 0 0 -2.816406,2.8183 v 7.1817 H -20 a 2.8176619,2.8176619 0 0 0 -2.816406,2.8183 v 7.1817 H -30 a 2.8176619,2.8176619 0 0 0 -2.816406,2.8183 v 7.1817 H -40 a 2.8176619,2.8176619 0 0 0 -2.816406,2.8183 v 7.1817 H -50 a 2.8176619,2.8176619 0 0 0 -2.816406,2.8183 v 7.1817 H -60 a 2.8176619,2.8176619 0 0 0 -2.816406,2.8183 v 7.1817 h -24.367188 v -37.1817 A 2.8176619,2.8176619 0 0 0 -90,1169.7012 h -10 a 2.8176619,2.8176619 0 0 0 -2.81641,2.8183 v 7.1817 h -14.36718 v -7.1817 A 2.8176619,2.8176619 0 0 0 -120,1169.7012 h -37.18359 v -7.1817 A 2.8176619,2.8176619 0 0 0 -160,1159.7012 h -27.18359 v -14.3653 H -170 a 2.8176619,2.8176619 0 0 0 2.81641,-2.8164 v -7.1836 H -150 a 2.8176619,2.8176619 0 0 0 2.81641,-2.8164 v -7.1836 H -120 a 2.8176619,2.8176619 0 0 0 2.81641,-2.8164 v -7.1836 H -70 a 2.8176619,2.8176619 0 0 0 2.816406,-2.8164 v -7.1836 H -10 a 2.8176619,2.8176619 0 0 0 2.8164062,-2.8164 z m 170.0000038,10 h 24.36718 v 7.1836 A 2.8176619,2.8176619 0 0 0 190,1115.3359 h 17.18359 v 7.1836 A 2.8176619,2.8176619 0 0 0 210,1125.3359 h 17.18359 v 14.3653 H 220 a 2.8176619,2.8176619 0 0 0 -2.81641,2.8183 v 7.1817 H 200 a 2.8176619,2.8176619 0 0 0 -2.81641,2.8183 v 7.1817 H 160 a 2.8176619,2.8176619 0 0 0 -2.81641,2.8183 v 7.1817 H 110 a 2.8176619,2.8176619 0 0 0 -2.81641,2.8183 v 7.1817 H 40 a 2.8176619,2.8176619 0 0 0 -2.816406,2.8183 v 7.1817 h -64.367188 v -4.3653 H -20 a 2.8176619,2.8176619 0 0 0 2.816406,-2.8164 v -7.1836 H 20 a 2.8176619,2.8176619 0 0 0 2.816406,-2.8164 v -7.1836 H 70 a 2.8176619,2.8176619 0 0 0 2.816406,-2.8164 v -7.1836 H 120 a 2.8176619,2.8176619 0 0 0 2.81641,-2.8164 v -7.1836 H 140 a 2.8176619,2.8176619 0 0 0 2.81641,-2.8164 v -7.1836 H 150 a 2.8176619,2.8176619 0 0 0 2.81641,-2.8164 v -7.1836 H 160 a 2.8176619,2.8176619 0 0 0 2.81641,-2.8164 z"
       transform="matrix(0.05039682,0,0,0.05039682,0,240.42857)" />
  </g>
  <g
     inkscape:groupmode="layer"
     id="layer7"
     inkscape:label="engraving 2"
     style="display:inline"
     transform="translate(20.126668,-273.76746)">
    <path
       sodipodi:type="inkscape:offset"
       inkscape:radius="0"
       inkscape:original="M -1.5117188 285.91211 L -1.5117188 286.41602 L -2.015625 286.41602 L -2.015625 287.42383 L -1.5117188 287.42383 L -1.5117188 287.92773 L -0.50390625 287.92773 L -0.50390625 287.42383 L 0 287.42383 L 0 286.41602 L -0.50390625 286.41602 L -0.50390625 285.91211 L -1.5117188 285.91211 z M 6.046875 286.91992 L 6.046875 287.42383 L 5.5429688 287.42383 L 5.5429688 288.43164 L 6.046875 288.43164 L 6.046875 288.93555 L 6.5507812 288.93555 L 6.5507812 288.43164 L 7.0546875 288.43164 L 7.0546875 286.91992 L 6.046875 286.91992 z M -8.0644531 292.46484 L -8.0644531 292.96875 L -8.5683594 292.96875 L -8.5683594 293.47266 L -7.5585938 293.47266 L -7.5585938 293.97656 L -7.0546875 293.97656 L -7.0546875 292.96875 L -7.5585938 292.96875 L -7.5585938 292.46484 L -8.0644531 292.46484 z "
       style="opacity:1;fill:#666666;fill-opacity:1;stroke:none;stroke-width:0.05047619;stroke-linecap:butt;stroke-linejoin:round;stroke-miterlimit:4;stroke-dasharray:none;stroke-opacity:1;paint-order:stroke markers fill"
       id="rect5690"
       d="m -1.5117188,285.91211 v 0.50391 H -2.015625 v 1.00781 h 0.5039062 v 0.5039 h 1.00781255 v -0.5039 H 0 v -1.00781 h -0.50390625 v -0.50391 z m 7.5585938,1.00781 v 0.50391 H 5.5429688 v 1.00781 H 6.046875 v 0.50391 h 0.5039062 v -0.50391 h 0.5039063 v -1.51172 z m -14.1113281,5.54492 v 0.50391 h -0.5039063 v 0.50391 h 1.0097656 v 0.5039 h 0.5039063 v -1.00781 h -0.5039063 v -0.50391 z" />
  </g>
  <g
     inkscape:groupmode="layer"
     id="layer8"
     inkscape:label="engraving 3"
     style="display:inline"
     transform="translate(20.126668,-273.76746)">
    <path
       sodipodi:type="inkscape:offset"
       inkscape:radius="0.01721099"
       inkscape:original="M 0 295.99219 L 0 296.49609 L -3.0234375 296.49609 L -3.0234375 297 L -5.5429688 297 L -5.5429688 297.50391 L -7.5585938 297.50391 L -8.5683594 297.50391 L -8.5683594 298.00781 L -9.5761719 298.00781 L -9.5761719 299.01562 L -8.0644531 299.01562 L -8.0644531 299.51953 L -6.046875 299.51953 L -6.046875 300.02344 L -5.0390625 300.02344 L -5.0390625 299.51953 L -4.5351562 299.51953 L -4.5351562 301.53516 L -3.0234375 301.53516 L -3.0234375 301.03125 L -2.5195312 301.03125 L -2.5195312 300.52734 L -2.015625 300.52734 L -2.015625 300.02344 L -1.5117188 300.02344 L -1.5117188 299.51953 L -1.0078125 299.51953 L -1.0078125 299.01562 L 1.0078125 299.01562 L 1.0078125 298.51172 L 3.5273438 298.51172 L 3.5273438 298.00781 L 6.046875 298.00781 L 6.046875 297.50391 L 7.0546875 297.50391 L 7.0546875 297 L 7.5585938 297 L 7.5585938 296.49609 L 6.046875 296.49609 L 6.046875 295.99219 L 0 295.99219 z M 7.5585938 297 L 7.5585938 297.50391 L 7.0546875 297.50391 L 7.0546875 298.00781 L 6.046875 298.00781 L 6.046875 298.51172 L 3.5273438 298.51172 L 3.5273438 299.01562 L 1.0078125 299.01562 L 1.0078125 299.51953 L -1.0078125 299.51953 L -1.0078125 300.02344 L -1.5117188 300.02344 L -1.5117188 300.52734 L 2.015625 300.52734 L 2.015625 300.02344 L 5.5429688 300.02344 L 5.5429688 299.51953 L 8.0644531 299.51953 L 8.0644531 299.01562 L 10.080078 299.01562 L 10.080078 298.51172 L 10.583984 298.51172 L 10.583984 298.00781 L 10.080078 298.00781 L 10.080078 297.50391 L 8.5683594 297.50391 L 8.5683594 297 L 8.0644531 297 L 7.5585938 297 z "
       style="opacity:1;fill:#cccccc;fill-opacity:1;stroke:none;stroke-width:0.05047619;stroke-linecap:butt;stroke-linejoin:round;stroke-miterlimit:4;stroke-dasharray:none;stroke-opacity:1;paint-order:stroke markers fill"
       id="path5742"
       d="m -0.00390625,295.97461 c -0.00596694,0.005 -0.00882336,0.002 -0.0078125,0.006 -0.0045245,0.003 -0.0078547,0.0156 -0.0058594,0.0117 v 0.48633 H -3.0234375 a 0.01721271,0.01721271 0 0 0 -0.00195,0 0.01721271,0.01721271 0 0 0 -0.00195,0 0.01721271,0.01721271 0 0 0 -0.00195,0.002 0.01721271,0.01721271 0 0 0 -0.00195,0 0.01721271,0.01721271 0 0 0 -0.00195,0.002 0.01721271,0.01721271 0 0 0 -0.00195,0 0.01721271,0.01721271 0 0 0 0,0.002 0.01721271,0.01721271 0 0 0 -0.00195,0.002 0.01721271,0.01721271 0 0 0 -0.00195,0.002 0.01721271,0.01721271 0 0 0 0,0.002 0.01721271,0.01721271 0 0 0 0,0.002 0.01721271,0.01721271 0 0 0 -0.00195,0.002 0.01721271,0.01721271 0 0 0 0,0.002 v 0.48633 h -2.5019532 a 0.01721271,0.01721271 0 0 0 -0.00195,0 0.01721271,0.01721271 0 0 0 -0.00195,0 0.01721271,0.01721271 0 0 0 -0.00195,0.002 0.01721271,0.01721271 0 0 0 -0.00195,0 0.01721271,0.01721271 0 0 0 -0.00195,0.002 0.01721271,0.01721271 0 0 0 -0.00195,0 0.01721271,0.01721271 0 0 0 0,0.002 0.01721271,0.01721271 0 0 0 -0.00195,0.002 0.01721271,0.01721271 0 0 0 -0.00195,0.002 0.01721271,0.01721271 0 0 0 0,0.002 0.01721271,0.01721271 0 0 0 0,0.002 0.01721271,0.01721271 0 0 0 -0.00195,0.002 0.01721271,0.01721271 0 0 0 0,0.002 v 0.48633 h -1.9980469 -1.0097656 a 0.01721271,0.01721271 0 0 0 -0.00195,0 0.01721271,0.01721271 0 0 0 -0.00195,0 0.01721271,0.01721271 0 0 0 -0.00195,0.002 0.01721271,0.01721271 0 0 0 -0.00195,0 0.01721271,0.01721271 0 0 0 -0.00195,0.002 0.01721271,0.01721271 0 0 0 -0.00195,0 0.01721271,0.01721271 0 0 0 0,0.002 0.01721271,0.01721271 0 0 0 -0.00195,0.002 0.01721271,0.01721271 0 0 0 -0.00195,0.002 0.01721271,0.01721271 0 0 0 0,0.002 0.01721271,0.01721271 0 0 0 0,0.002 0.01721271,0.01721271 0 0 0 -0.00195,0.002 0.01721271,0.01721271 0 0 0 0,0.002 v 0.48632 h -0.9902344 a 0.01721271,0.01721271 0 0 0 -0.00195,0 0.01721271,0.01721271 0 0 0 -0.00195,0 0.01721271,0.01721271 0 0 0 -0.00195,0.002 0.01721271,0.01721271 0 0 0 -0.00195,0 0.01721271,0.01721271 0 0 0 -0.00195,0.002 0.01721271,0.01721271 0 0 0 -0.00195,0 0.01721271,0.01721271 0 0 0 0,0.002 0.01721271,0.01721271 0 0 0 -0.00195,0.002 0.01721271,0.01721271 0 0 0 -0.00195,0.002 0.01721271,0.01721271 0 0 0 0,0.002 0.01721271,0.01721271 0 0 0 0,0.002 0.01721271,0.01721271 0 0 0 -0.00195,0.002 0.01721271,0.01721271 0 0 0 0,0.002 v 1.00781 a 0.01721271,0.01721271 0 0 0 0,0.002 0.01721271,0.01721271 0 0 0 0,0.002 0.01721271,0.01721271 0 0 0 0.00195,0.002 0.01721271,0.01721271 0 0 0 0,0.002 0.01721271,0.01721271 0 0 0 0.00195,0.002 0.01721271,0.01721271 0 0 0 0,0.002 0.01721271,0.01721271 0 0 0 0.00195,0 0.01721271,0.01721271 0 0 0 0.00195,0.002 0.01721271,0.01721271 0 0 0 0.00195,0.002 0.01721271,0.01721271 0 0 0 0.00195,0 0.01721271,0.01721271 0 0 0 0.00195,0 0.01721271,0.01721271 0 0 0 0.00195,0.002 0.01721271,0.01721271 0 0 0 0.00195,0 h 1.4941407 v 0.48633 a 0.01721271,0.01721271 0 0 0 0,0.002 0.01721271,0.01721271 0 0 0 0,0.002 0.01721271,0.01721271 0 0 0 0.00195,0.002 0.01721271,0.01721271 0 0 0 0,0.002 0.01721271,0.01721271 0 0 0 0.00195,0.002 0.01721271,0.01721271 0 0 0 0,0.002 0.01721271,0.01721271 0 0 0 0.00195,0 0.01721271,0.01721271 0 0 0 0.00195,0.002 0.01721271,0.01721271 0 0 0 0.00195,0.002 0.01721271,0.01721271 0 0 0 0.00195,0 0.01721271,0.01721271 0 0 0 0.00195,0 0.01721271,0.01721271 0 0 0 0.00195,0.002 0.01721271,0.01721271 0 0 0 0.00195,0 h 2 v 0.48633 a 0.01721271,0.01721271 0 0 0 0,0.002 0.01721271,0.01721271 0 0 0 0,0.002 0.01721271,0.01721271 0 0 0 0.00195,0.002 0.01721271,0.01721271 0 0 0 0,0.002 0.01721271,0.01721271 0 0 0 0.00195,0.002 0.01721271,0.01721271 0 0 0 0,0.002 0.01721271,0.01721271 0 0 0 0.00195,0 0.01721271,0.01721271 0 0 0 0.00195,0.002 0.01721271,0.01721271 0 0 0 0.00195,0.002 0.01721271,0.01721271 0 0 0 0.00195,0 0.01721271,0.01721271 0 0 0 0.00195,0 0.01721271,0.01721271 0 0 0 0.00195,0.002 0.01721271,0.01721271 0 0 0 0.00195,0 h 1.0078125 a 0.01721271,0.01721271 0 0 0 0.00195,0 0.01721271,0.01721271 0 0 0 0.00195,0 0.01721271,0.01721271 0 0 0 0.00195,-0.002 0.01721271,0.01721271 0 0 0 0.00195,0 0.01721271,0.01721271 0 0 0 0.00195,-0.002 0.01721271,0.01721271 0 0 0 0.00195,0 0.01721271,0.01721271 0 0 0 0,-0.002 0.01721271,0.01721271 0 0 0 0.00195,-0.002 0.01721271,0.01721271 0 0 0 0.00195,-0.002 0.01721271,0.01721271 0 0 0 0,-0.002 0.01721271,0.01721271 0 0 0 0,-0.002 0.01721271,0.01721271 0 0 0 0.00195,-0.002 0.01721271,0.01721271 0 0 0 0,-0.002 v -0.48633 h 0.46875 v 1.99805 a 0.01721271,0.01721271 0 0 0 0,0.002 0.01721271,0.01721271 0 0 0 0,0.002 0.01721271,0.01721271 0 0 0 0.00195,0.002 0.01721271,0.01721271 0 0 0 0,0.002 0.01721271,0.01721271 0 0 0 0.00195,0.002 0.01721271,0.01721271 0 0 0 0,0.002 0.01721271,0.01721271 0 0 0 0.00195,0 0.01721271,0.01721271 0 0 0 0.00195,0.002 0.01721271,0.01721271 0 0 0 0.00195,0.002 0.01721271,0.01721271 0 0 0 0.00195,0 0.01721271,0.01721271 0 0 0 0.00195,0 0.01721271,0.01721271 0 0 0 0.00195,0.002 0.01721271,0.01721271 0 0 0 0.00195,0 h 1.5117187 a 0.01721271,0.01721271 0 0 0 0.00195,0 0.01721271,0.01721271 0 0 0 0.00195,0 0.01721271,0.01721271 0 0 0 0.00195,-0.002 0.01721271,0.01721271 0 0 0 0.00195,0 0.01721271,0.01721271 0 0 0 0.00195,-0.002 0.01721271,0.01721271 0 0 0 0.00195,0 0.01721271,0.01721271 0 0 0 0,-0.002 0.01721271,0.01721271 0 0 0 0.00195,-0.002 0.01721271,0.01721271 0 0 0 0.00195,-0.002 0.01721271,0.01721271 0 0 0 0,-0.002 0.01721271,0.01721271 0 0 0 0,-0.002 0.01721271,0.01721271 0 0 0 0.00195,-0.002 0.01721271,0.01721271 0 0 0 0,-0.002 v -0.48633 h 0.4863282 a 0.01721271,0.01721271 0 0 0 0.00195,0 0.01721271,0.01721271 0 0 0 0.00195,0 0.01721271,0.01721271 0 0 0 0.00195,-0.002 0.01721271,0.01721271 0 0 0 0.00195,0 0.01721271,0.01721271 0 0 0 0.00195,-0.002 0.01721271,0.01721271 0 0 0 0.00195,0 0.01721271,0.01721271 0 0 0 0,-0.002 0.01721271,0.01721271 0 0 0 0.00195,-0.002 0.01721271,0.01721271 0 0 0 0.00195,-0.002 0.01721271,0.01721271 0 0 0 0,-0.002 0.01721271,0.01721271 0 0 0 0,-0.002 0.01721271,0.01721271 0 0 0 0.00195,-0.002 0.01721271,0.01721271 0 0 0 0,-0.002 v -0.48633 h 0.4863281 a 0.01721271,0.01721271 0 0 0 0.00195,0 0.01721271,0.01721271 0 0 0 0.00195,0 0.01721271,0.01721271 0 0 0 0.00195,-0.002 0.01721271,0.01721271 0 0 0 0.00195,0 0.01721271,0.01721271 0 0 0 0.00195,-0.002 0.01721271,0.01721271 0 0 0 0.00195,0 0.01721271,0.01721271 0 0 0 0,-0.002 0.01721271,0.01721271 0 0 0 0.00195,-0.002 0.01721271,0.01721271 0 0 0 0.00195,-0.002 0.01721271,0.01721271 0 0 0 0,-0.002 0.01721271,0.01721271 0 0 0 0,-0.002 0.01721271,0.01721271 0 0 0 0.00195,-0.002 0.01721271,0.01721271 0 0 0 0,-0.002 v -0.48632 h 0.46875 v 0.48632 a 0.01721271,0.01721271 0 0 0 0,0.002 0.01721271,0.01721271 0 0 0 0,0.002 0.01721271,0.01721271 0 0 0 0.00195,0.002 0.01721271,0.01721271 0 0 0 0,0.002 0.01721271,0.01721271 0 0 0 0.00195,0.002 0.01721271,0.01721271 0 0 0 0,0.002 0.01721271,0.01721271 0 0 0 0.00195,0 0.01721271,0.01721271 0 0 0 0.00195,0.002 0.01721271,0.01721271 0 0 0 0.00195,0.002 0.01721271,0.01721271 0 0 0 0.00195,0 0.01721271,0.01721271 0 0 0 0.00195,0 0.01721271,0.01721271 0 0 0 0.00195,0.002 0.01721271,0.01721271 0 0 0 0.00195,0 H 2.015625 a 0.01721271,0.01721271 0 0 0 0.00195,0 0.01721271,0.01721271 0 0 0 0.00195,0 0.01721271,0.01721271 0 0 0 0.00195,-0.002 0.01721271,0.01721271 0 0 0 0.00195,0 0.01721271,0.01721271 0 0 0 0.00195,-0.002 0.01721271,0.01721271 0 0 0 0.00195,0 0.01721271,0.01721271 0 0 0 0,-0.002 0.01721271,0.01721271 0 0 0 0.00195,-0.002 0.01721271,0.01721271 0 0 0 0.00195,-0.002 0.01721271,0.01721271 0 0 0 0,-0.002 0.01721271,0.01721271 0 0 0 0,-0.002 0.01721271,0.01721271 0 0 0 0.00195,-0.002 0.01721271,0.01721271 0 0 0 0,-0.002 v -0.48632 h 3.5097657 a 0.01721271,0.01721271 0 0 0 0.00195,0 0.01721271,0.01721271 0 0 0 0.00195,0 0.01721271,0.01721271 0 0 0 0.00195,-0.002 0.01721271,0.01721271 0 0 0 0.00195,0 0.01721271,0.01721271 0 0 0 0.00195,-0.002 0.01721271,0.01721271 0 0 0 0.00195,0 0.01721271,0.01721271 0 0 0 0,-0.002 0.01721271,0.01721271 0 0 0 0.00195,-0.002 0.01721271,0.01721271 0 0 0 0.00195,-0.002 0.01721271,0.01721271 0 0 0 0,-0.002 0.01721271,0.01721271 0 0 0 0,-0.002 0.01721271,0.01721271 0 0 0 0.00195,-0.002 0.01721271,0.01721271 0 0 0 0,-0.002 v -0.48633 h 2.5039062 a 0.01721271,0.01721271 0 0 0 0.00195,0 0.01721271,0.01721271 0 0 0 0.00195,0 0.01721271,0.01721271 0 0 0 0.00195,-0.002 0.01721271,0.01721271 0 0 0 0.00195,0 0.01721271,0.01721271 0 0 0 0.00195,-0.002 0.01721271,0.01721271 0 0 0 0.00195,0 0.01721271,0.01721271 0 0 0 0,-0.002 0.01721271,0.01721271 0 0 0 0.00195,-0.002 0.01721271,0.01721271 0 0 0 0.00195,-0.002 0.01721271,0.01721271 0 0 0 0,-0.002 0.01721271,0.01721271 0 0 0 0,-0.002 0.01721271,0.01721271 0 0 0 0.00195,-0.002 0.01721271,0.01721271 0 0 0 0,-0.002 v -0.48633 h 1.9980468 a 0.01721271,0.01721271 0 0 0 0.002,0 0.01721271,0.01721271 0 0 0 0.002,0 0.01721271,0.01721271 0 0 0 0.002,-0.002 0.01721271,0.01721271 0 0 0 0.002,0 0.01721271,0.01721271 0 0 0 0.002,-0.002 0.01721271,0.01721271 0 0 0 0.002,0 0.01721271,0.01721271 0 0 0 0,-0.002 0.01721271,0.01721271 0 0 0 0.002,-0.002 0.01721271,0.01721271 0 0 0 0.002,-0.002 0.01721271,0.01721271 0 0 0 0,-0.002 0.01721271,0.01721271 0 0 0 0,-0.002 0.01721271,0.01721271 0 0 0 0.002,-0.002 0.01721271,0.01721271 0 0 0 0,-0.002 v -0.48632 h 0.486328 a 0.01721271,0.01721271 0 0 0 0.002,0 0.01721271,0.01721271 0 0 0 0.002,0 0.01721271,0.01721271 0 0 0 0.002,-0.002 0.01721271,0.01721271 0 0 0 0.002,0 0.01721271,0.01721271 0 0 0 0.002,-0.002 0.01721271,0.01721271 0 0 0 0.002,0 0.01721271,0.01721271 0 0 0 0,-0.002 0.01721271,0.01721271 0 0 0 0.002,-0.002 0.01721271,0.01721271 0 0 0 0.002,-0.002 0.01721271,0.01721271 0 0 0 0,-0.002 0.01721271,0.01721271 0 0 0 0,-0.002 0.01721271,0.01721271 0 0 0 0.002,-0.002 0.01721271,0.01721271 0 0 0 0,-0.002 v -0.50391 a 0.01721271,0.01721271 0 0 0 0,-0.002 0.01721271,0.01721271 0 0 0 0,-0.002 0.01721271,0.01721271 0 0 0 -0.002,-0.002 0.01721271,0.01721271 0 0 0 0,-0.002 0.01721271,0.01721271 0 0 0 -0.002,-0.002 0.01721271,0.01721271 0 0 0 0,-0.002 0.01721271,0.01721271 0 0 0 -0.002,0 0.01721271,0.01721271 0 0 0 -0.002,-0.002 0.01721271,0.01721271 0 0 0 -0.002,-0.002 0.01721271,0.01721271 0 0 0 -0.002,0 0.01721271,0.01721271 0 0 0 -0.002,0 0.01721271,0.01721271 0 0 0 -0.002,-0.002 0.01721271,0.01721271 0 0 0 -0.002,0 h -0.486328 v -0.48632 a 0.01721271,0.01721271 0 0 0 0,-0.002 0.01721271,0.01721271 0 0 0 0,-0.002 0.01721271,0.01721271 0 0 0 -0.002,-0.002 0.01721271,0.01721271 0 0 0 0,-0.002 0.01721271,0.01721271 0 0 0 -0.002,-0.002 0.01721271,0.01721271 0 0 0 0,-0.002 0.01721271,0.01721271 0 0 0 -0.002,0 0.01721271,0.01721271 0 0 0 -0.002,-0.002 0.01721271,0.01721271 0 0 0 -0.002,-0.002 0.01721271,0.01721271 0 0 0 -0.002,0 0.01721271,0.01721271 0 0 0 -0.002,0 0.01721271,0.01721271 0 0 0 -0.002,-0.002 0.01721271,0.01721271 0 0 0 -0.002,0 H 8.5859375 V 297 a 0.01721271,0.01721271 0 0 0 0,-0.002 0.01721271,0.01721271 0 0 0 0,-0.002 0.01721271,0.01721271 0 0 0 -0.00195,-0.002 0.01721271,0.01721271 0 0 0 0,-0.002 0.01721271,0.01721271 0 0 0 -0.00195,-0.002 0.01721271,0.01721271 0 0 0 0,-0.002 0.01721271,0.01721271 0 0 0 -0.00195,0 0.01721271,0.01721271 0 0 0 -0.00195,-0.002 0.01721271,0.01721271 0 0 0 -0.00195,-0.002 0.01721271,0.01721271 0 0 0 -0.00195,0 0.01721271,0.01721271 0 0 0 -0.00195,0 0.01721271,0.01721271 0 0 0 -0.00195,-0.002 0.01721271,0.01721271 0 0 0 -0.00195,0 H 8.0644531 7.5761719 v -0.48633 a 0.01721271,0.01721271 0 0 0 0,-0.002 0.01721271,0.01721271 0 0 0 0,-0.002 0.01721271,0.01721271 0 0 0 -0.00195,-0.002 0.01721271,0.01721271 0 0 0 0,-0.002 0.01721271,0.01721271 0 0 0 -0.00195,-0.002 0.01721271,0.01721271 0 0 0 0,-0.002 0.01721271,0.01721271 0 0 0 -0.00195,0 0.01721271,0.01721271 0 0 0 -0.00195,-0.002 0.01721271,0.01721271 0 0 0 -0.00195,-0.002 0.01721271,0.01721271 0 0 0 -0.00195,0 0.01721271,0.01721271 0 0 0 -0.00195,0 0.01721271,0.01721271 0 0 0 -0.00195,-0.002 0.01721271,0.01721271 0 0 0 -0.00195,0 H 6.0644531 v -0.48633 a 0.01721271,0.01721271 0 0 0 0,-0.002 0.01721271,0.01721271 0 0 0 0,-0.002 0.01721271,0.01721271 0 0 0 -0.00195,-0.002 0.01721271,0.01721271 0 0 0 0,-0.002 0.01721271,0.01721271 0 0 0 -0.00195,-0.002 0.01721271,0.01721271 0 0 0 0,-0.002 0.01721271,0.01721271 0 0 0 -0.00195,0 0.01721271,0.01721271 0 0 0 -0.00195,-0.002 0.01721271,0.01721271 0 0 0 -0.00195,-0.002 0.01721271,0.01721271 0 0 0 -0.00195,0 0.01721271,0.01721271 0 0 0 -0.00195,0 0.01721271,0.01721271 0 0 0 -0.00195,-0.002 0.01721271,0.01721271 0 0 0 -0.00195,0 H 0 a 0.01721271,0.01721271 0 0 0 -0.00195313,0 0.01721271,0.01721271 0 0 0 -0.00195312,0 z m 7.07617185,1.04297 h 0.46875 v 0.46875 h -0.46875 z m -1.0078125,0.5039 h 0.9726563 v 0.46875 H 6.0644531 Z m -2.5195312,0.50391 h 2.484375 v 0.46875 h -2.484375 z m -2.5195313,0.50391 h 2.484375 v 0.46875 h -2.484375 z m -2.01562498,0.5039 h 1.98046876 v 0.46875 h -1.98046876 z m -0.50390622,0.50391 h 0.46875 v 0.46875 h -0.46875 z" />
    <path
       style="display:inline;fill:#cccccc;fill-opacity:1;stroke:#000000;stroke-width:0.19047616px;stroke-linecap:butt;stroke-linejoin:miter;stroke-opacity:1"
       d="m 1.3964844,1145.377 c -22.6236864,-0.023 -45.0459304,1.6327 -65.7304684,4.7402 v 9.5449 l 24.580078,14.1914 c 25.799893,-2.316 53.205605,-2.4754 79.671875,-0.094 l 24.416015,-14.0977 v -9.5879 c -20.31281,-3.1732 -41.714164,-4.6746 -62.9374996,-4.6972 z m -1.02539065,5.2519 c 1.08798215,-0.01 1.10937465,0.014 1.11132815,0.3555 l 0.080078,13.9511 c 0.00317,0.5547 0.025482,0.6188 -1.0625,0.625 -0.55465759,0 -0.78902306,-0.038 -0.94140625,-0.5703 -0.71815115,-2.4706 -0.98210255,-3.5995 -1.74414065,-6.2832 -0.1306839,-0.4686 -0.3057472,-1.2567 -0.4550781,-1.2558 -0.1493309,8e-4 -0.1461184,0.4492 -0.1445312,0.7265 l 0.039062,7.0176 c 0.00195,0.3413 -0.060607,0.3843 -1.1699218,0.3906 -1.0666492,0.01 -1.066528,-0.035 -1.0683594,-0.3554 l -0.082031,-14.2715 c -0.00171,-0.2987 0.039864,-0.2993 0.9785156,-0.3047 0.9173183,-0.01 1.0251363,0.079 1.1992187,0.6758 0.4580042,1.7467 1.0894076,4.0257 1.7636719,6.2832 0.043887,0.2131 0.13176772,0.5534 0.25976562,0.5527 0.14933089,-8e-4 0.14587427,-0.4059 0.14453126,-0.6406 l -0.0371094,-6.5059 c -0.001953,-0.3413 0.0622571,-0.3845 1.12890657,-0.3906 z m 4.82226565,0.045 c 1.1306185,0.01 1.1945563,0.032 1.1914062,0.3731 l -0.1308594,14.1875 c -0.00295,0.32 -0.025935,0.3409 -1.1992187,0.3301 -1.0452888,-0.01 -1.0867407,-0.01 -1.0839844,-0.3086 l 0.1308594,-14.25 c 0.00295,-0.32 0.089173,-0.3413 1.0917969,-0.3321 z m 3.5820312,0.016 5.6308594,0.1289 c 0.255933,0.01 0.272521,0.1993 0.253906,1.0097 -0.02253,0.9811 -0.04664,1.0874 -0.28125,1.0821 l -0.916015,-0.022 c -0.234605,-0.01 -0.511523,-0.011 -0.619141,0.029 -0.195378,0.1449 -0.161601,0.5079 -0.167969,0.7851 l -0.271484,11.7949 c -0.0044,0.192 -0.239785,0.2067 -1.242188,0.1836 -0.895763,-0.02 -1.086929,-0.025 -1.082031,-0.2382 l 0.271484,-11.793 c 0.0064,-0.2773 0.05571,-0.6393 -0.132812,-0.793 -0.105659,-0.045 -0.3825827,-0.051 -0.6171875,-0.057 L 8.8125,1152.78 c -0.3199156,-0.01 -0.3799492,-0.1569 -0.359375,-1.0527 0.020574,-0.8957 0.066333,-1.0449 0.3222656,-1.039 z m -16.9667968,0.039 c 0.5045841,0.018 0.5792753,0.099 0.5839843,0.291 l 0.2851563,11.6231 c 0.043427,1.7701 -1.0576124,3.0138 -3.0410154,3.0625 -1.94075,0.048 -3.125868,-1.3318 -3.164063,-2.8887 l -0.285156,-11.6016 c -0.0084,-0.3412 0.140528,-0.3669 1.185547,-0.3925 0.853077,-0.021 1.087855,0.016 1.095703,0.3359 l 0.273438,11.1113 c 0.01413,0.5759 0.136055,1.1911 0.839843,1.1739 0.6824616,-0.017 0.7959004,-0.6158 0.7812502,-1.2129 l -0.2734374,-11.1328 c -0.00733,-0.2986 0.098883,-0.3437 1.0585937,-0.3672 0.2772499,-0.01 0.4919615,-0.01 0.6601563,0 z m 25.5800782,0.211 c 0.660803,0.026 1.257289,0.071 1.287109,0.3925 0.181483,1.8648 0.348381,3.5375 0.513672,5.2735 -0.0026,0.064 0.03583,0.1938 0.121094,0.1972 0.08526,0 0.112672,-0.145 0.115234,-0.2089 0.353132,-1.8861 0.557956,-3.2872 0.890625,-5.1954 0.05374,-0.2754 0.65281,-0.3151 1.207032,-0.2929 0.575538,0.023 1.108255,0.065 1.033203,0.3398 -0.633697,2.494 -1.116808,4.4188 -1.814453,6.9102 -0.124519,0.4433 -0.207541,0.9095 -0.285157,1.248 -0.05032,0.1902 -0.1565,0.7394 -0.171875,1.1231 l -0.203125,5.0742 c -0.0077,0.1918 -0.902576,0.1341 -1.179687,0.123 -0.34106,-0.014 -1.131344,-0.024 -1.121094,-0.2793 0.06919,-1.7266 0.144683,-3.0481 0.220703,-4.9453 0.01537,-0.3837 0.0098,-0.8107 -0.02344,-1.0469 -0.03153,-0.2788 -0.158305,-0.8177 -0.246094,-1.291 -0.475601,-2.517 -0.881484,-4.6467 -1.314453,-7.1621 -0.05284,-0.2797 0.608327,-0.2743 0.970703,-0.2597 z m -34.324219,0.027 c 0.441542,0 0.553062,0.074 0.564453,0.3301 l 0.63086,14.1719 c 0.01519,0.3409 0.03953,0.3823 -1.111328,0.4335 -1.044298,0.047 -1.110762,0.01 -1.125,-0.3125 -0.132897,-2.9837 -0.304432,-6.8406 -0.44336,-8.5214 -0.09379,-0.1881 -0.283274,-0.1174 -0.316406,0.098 -0.202588,1.2049 -0.414856,2.1975 -0.595703,2.9317 -0.03313,0.215 -0.114083,0.3246 -0.455078,0.3398 -0.340996,0.015 -0.409942,-0.088 -0.482422,-0.2773 -0.199925,-0.6531 -0.500638,-1.685 -0.808594,-2.8457 -0.05212,-0.2113 -0.311017,-0.2642 -0.388672,-0.09 0.012,1.7078 0.181557,5.5007 0.314453,8.4844 0.01519,0.341 -0.04801,0.3862 -1.15625,0.4355 -1.044298,0.046 -1.024823,0 -1.039062,-0.3164 l -0.632813,-14.1933 c -0.01614,-0.3623 0.135621,-0.3478 0.966797,-0.3848 0.916425,-0.041 1.069002,0.06 1.3125,0.7324 0.368095,1.0727 0.731233,2.0175 1.074219,3.0059 0.246346,0.7364 0.509018,1.3855 0.658203,1.3789 0.149185,-0.01 0.335845,-0.6346 0.535156,-1.4336 l 0.802735,-3.0879 c 0.161433,-0.6905 0.303589,-0.8263 1.134765,-0.8633 0.229106,-0.01 0.413366,-0.016 0.560547,-0.016 z m -10.351562,0.5039 c 0.441486,-0.01 0.553285,0.061 0.570312,0.3164 l 0.945313,14.1543 c 0.0227,0.3406 0.04593,0.3824 -1.103516,0.459 -1.043019,0.07 -1.109575,0.03 -1.130859,-0.2891 -0.198651,-2.98 -0.454906,-6.8324 -0.63086,-8.5097 -0.09792,-0.1859 -0.28607,-0.1083 -0.314453,0.1074 -0.175973,1.209 -0.366633,2.2054 -0.53125,2.9433 -0.02838,0.2157 -0.106688,0.327 -0.447266,0.3497 -0.340577,0.023 -0.409699,-0.08 -0.486328,-0.2676 -0.214275,-0.6485 -0.539572,-1.6744 -0.873046,-2.8282 -0.05676,-0.21 -0.316833,-0.256 -0.390626,-0.08 0.04966,1.7071 0.301349,5.4965 0.5,8.4765 0.0227,0.3406 -0.03765,0.3872 -1.144531,0.461 -1.043018,0.07 -1.023638,0.024 -1.044922,-0.2949 l -0.945312,-14.1758 c -0.02412,-0.3619 0.12492,-0.3509 0.955078,-0.4063 0.915302,-0.061 1.071811,0.036 1.330078,0.7031 0.391657,1.0644 0.77593,1.9999 1.140625,2.9805 0.262524,0.7308 0.540451,1.3752 0.689453,1.3652 0.149003,-0.01 0.320307,-0.6401 0.501953,-1.4433 l 0.734375,-3.1074 c 0.146169,-0.694 0.285077,-0.8314 1.115235,-0.8868 0.228825,-0.015 0.413384,-0.025 0.560547,-0.027 z m 57.427734,0.084 c 0.08872,-0.01 0.195656,0.01 0.333984,0.016 l 2.169922,0.1524 c 0.915092,0.064 1.834674,0.3854 2.451172,1.0488 0.576917,0.6178 0.773068,1.4872 0.708985,2.4023 l -0.591797,8.4473 c -0.05514,0.7874 -0.302403,1.5617 -1.078125,2.2559 -0.73018,0.6545 -1.724314,0.7992 -2.511719,0.7441 l -2.212891,-0.1543 c -0.276656,-0.019 -0.448282,-0.011 -0.521484,-0.1875 -0.07767,-0.1124 -0.06373,-0.3028 -0.04883,-0.5156 l 0.949218,-13.5782 c 0.01639,-0.234 0.03047,-0.4249 0.123047,-0.5253 0.06906,-0.07 0.1398,-0.098 0.228516,-0.1055 z m 10.167969,0.7969 c 0.21626,-0.024 0.483041,-0.01 0.716797,0.016 0.531263,0.047 1.1027,0.1193 1.113281,0.4844 0.348094,5.5133 0.522856,8.8687 0.882812,14.4902 0.02185,0.2375 -0.613735,0.1601 -1.1875,0.1094 -0.616265,-0.054 -1.022848,-0.046 -1.039062,-0.3477 -0.06486,-1.205 -0.07975,-2.0213 -0.146484,-3.2051 -0.0025,-0.2143 -0.261554,-0.1945 -0.601563,-0.2246 -0.40376,-0.036 -0.612317,-0.097 -0.652344,0.1133 -0.232651,1.1788 -0.386406,1.9585 -0.601562,3.1817 -0.0419,0.2318 -0.507483,0.1694 -1.1875,0.1093 -0.318758,-0.028 -1.06354,-0.094 -1.025391,-0.2832 1.276335,-5.4769 2.15872,-9.1476 3.3125,-14.207 0.03439,-0.1469 0.199755,-0.2126 0.416016,-0.2363 z m -79.71875,0.059 c 1.490597,0.1248 2.565717,1.1516 2.707031,2.7695 l 0.765625,8.7773 c 0.155933,1.7852 -0.774453,3.152 -2.835938,3.3321 -1.955222,0.1707 -3.195435,-1.0484 -3.347656,-2.7911 l -0.767578,-8.7773 c -0.161502,-1.849 1.052456,-3.1545 2.816406,-3.3086 0.228464,-0.02 0.449167,-0.02 0.66211,0 z m 84.582031,0.4277 c 0.205761,-0.018 0.460309,0 0.640625,0.023 0.657623,0.07 1.249232,0.1539 1.257812,0.4766 0.05825,1.8727 0.115441,3.5518 0.166016,5.2949 -0.0068,0.064 0.02257,0.1961 0.107422,0.2051 0.08485,0.01 0.122137,-0.1375 0.128906,-0.2012 0.476605,-1.8587 0.772821,-3.2428 1.230469,-5.125 0.07176,-0.2712 0.673054,-0.2715 1.224609,-0.2129 0.572769,0.061 1.100788,0.1373 1.007813,0.4063 -0.796607,2.4468 -1.405377,4.3353 -2.265625,6.7754 -0.153455,0.4342 -0.26549,0.8939 -0.365234,1.2265 -0.06274,0.1864 -0.207431,0.7295 -0.248047,1.1114 l -0.53711,5.0488 c -0.02031,0.1909 -0.907816,0.074 -1.183593,0.045 -0.339419,-0.036 -1.126688,-0.099 -1.09961,-0.3535 0.182776,-1.7183 0.344095,-3.03 0.544922,-4.918 0.04062,-0.3818 0.06448,-0.809 0.04687,-1.0468 -0.01309,-0.2803 -0.105684,-0.8268 -0.162109,-1.3047 -0.30876,-2.543 -0.573512,-4.694 -0.839844,-7.2325 -0.01715,-0.1412 0.139942,-0.2004 0.345703,-0.2187 z m -92.664063,0.3496 c 1.558328,0.1351 2.457574,1.3286 2.601563,2.6836 l 0.121094,1.1445 c 0.02254,0.2122 -0.139395,0.2948 -1.115235,0.3985 -0.700058,0.074 -1.056632,0.1546 -1.085937,-0.1211 l -0.117188,-1.1035 c -0.03156,-0.297 -0.329298,-0.8653 -0.880859,-0.8067 -0.657631,0.07 -0.736344,0.7434 -0.677734,1.2949 l 0.851562,7.9981 c 0.06312,0.594 0.275963,1.1929 0.933594,1.123 0.615203,-0.065 0.73138,-0.5922 0.695312,-0.9316 l -0.117187,-1.1035 c -0.03156,-0.297 0.160338,-0.2954 1.09375,-0.3946 0.890984,-0.095 1.084424,-0.095 1.125,0.2871 l 0.117187,1.1036 c 0.187101,1.7607 -0.702888,3.0774 -2.675781,3.2871 -1.909251,0.2029 -3.219304,-1.0303 -3.390625,-2.6426 l -0.945312,-8.8887 c -0.173576,-1.6334 0.848561,-3.1155 2.757812,-3.3183 0.249263,-0.026 0.486366,-0.029 0.708984,-0.01 z m 79.695313,0.7598 c -0.09385,0 -0.154551,0.022 -0.189453,0.062 -0.0698,0.081 -0.07504,0.1652 -0.08398,0.2929 l -0.669922,9.5762 c -0.01341,0.1915 -0.02448,0.3406 0.05469,0.4316 0.05937,0.068 0.294797,0.065 0.486328,0.078 0.255375,0.018 0.58098,-0.047 0.835938,-0.3282 0.28071,-0.3438 0.284286,-0.7061 0.30664,-1.0253 l 0.53125,-7.5762 c 0.0313,-0.4469 0.03771,-0.8524 -0.195312,-1.1895 -0.158327,-0.1821 -0.300532,-0.2778 -0.683594,-0.3047 -0.17025,-0.012 -0.298728,-0.022 -0.392578,-0.017 z m -72.083984,0.6543 c -0.637573,0.056 -0.747291,0.7506 -0.695313,1.3457 l 0.6875,7.8847 c 0.05198,0.5951 0.133583,1.2738 0.919922,1.2051 0.743834,-0.065 0.74729,-0.7506 0.695312,-1.3457 l -0.6875,-7.8848 c -0.05198,-0.595 -0.303601,-1.2589 -0.919921,-1.205 z m 80.478515,2.6113 c -0.106252,-0.01 -0.195614,0.5166 -0.203125,0.6016 -0.252709,1.6481 -0.431547,2.7041 -0.636719,4.0566 -0.03439,0.1469 0.0914,0.1789 0.410157,0.207 0.276257,0.024 0.48482,0.086 0.480469,-0.1074 0.03269,-1.5819 0.04776,-2.4798 0.08984,-4.168 0.0094,-0.1062 0.0081,-0.5767 -0.140625,-0.5898 z"
       id="path848"
       inkscape:connector-curvature="0"
       transform="scale(0.26458333)" />
  </g>
  <g
     inkscape:groupmode="layer"
     id="layer9"
     inkscape:label="vector engraving"
     style="display:inline"
     transform="translate(20.126668,-273.76746)">
    <g
       aria-label="JAN '18"
       style="font-style:normal;font-variant:normal;font-weight:normal;font-stretch:normal;font-size:4.5693121px;line-height:1.25;font-family:'Garage Gothic';-inkscape-font-specification:'Garage Gothic';font-variant-ligatures:normal;font-variant-caps:normal;font-variant-numeric:normal;font-feature-settings:normal;text-align:start;letter-spacing:0px;word-spacing:0px;writing-mode:lr-tb;text-anchor:start;display:inline;fill:#f2f2f2;fill-opacity:1;stroke:#0000ff;stroke-width:0.1;stroke-miterlimit:4;stroke-dasharray:none;stroke-opacity:1"
       id="text840">
      <path
         d="m -4.0507312,313.05964 c 0,-0.0822 -0.036554,-0.0868 -0.2376043,-0.0868 -0.1964804,0 -0.2238963,-0.005 -0.2238963,0.0868 0,0.0822 0,0.12794 0,0.24218 0,0.33356 0.2101884,0.63513 0.6259958,0.63513 0.424946,0 0.6259957,-0.26045 0.6259957,-0.6397 0,-0.74023 0,-1.64039 0,-2.46286 0,-0.0914 -0.013708,-0.0914 -0.2421735,-0.0914 -0.1873418,0 -0.2147577,0.009 -0.2147577,0.096 0,0.74479 -0.00457,1.69978 0,2.35776 0,0.12337 -0.013708,0.25588 -0.1690645,0.25588 -0.1279407,0 -0.1507873,-0.096 -0.1599259,-0.19191 -0.00457,-0.0594 -0.00457,-0.13708 -0.00457,-0.20105 z"
         style="font-style:normal;font-variant:normal;font-weight:normal;font-stretch:normal;font-size:4.5693121px;font-family:'Garage Gothic';-inkscape-font-specification:'Garage Gothic';fill:#f2f2f2;stroke:#0000ff;stroke-width:0.1;stroke-miterlimit:4;stroke-dasharray:none;stroke-opacity:1"
         id="path55" />
      <path
         d="m -2.564491,313.89126 c 0.022846,-0.26502 0.041124,-0.43409 0.06854,-0.68997 0.00457,-0.0457 0.050263,-0.0365 0.1370794,-0.0365 0.073109,0 0.1279407,-0.009 0.1325101,0.0365 0.036555,0.25131 0.054832,0.42495 0.091386,0.68083 0.00914,0.064 0.095956,0.0548 0.2284656,0.0548 0.1233714,0 0.2604508,0.005 0.2513122,-0.0457 -0.1827725,-1.19259 -0.2832974,-1.90541 -0.4615005,-3.07515 -0.00914,-0.0777 -0.1325101,-0.0822 -0.2467429,-0.0822 -0.1005249,0 -0.2284656,0.005 -0.2376042,0.0685 -0.1507873,1.10121 -0.2695894,1.90084 -0.438654,3.09343 -0.00457,0.0411 0.1553566,0.0411 0.2238963,0.0411 0.146218,0 0.2467429,0.005 0.2513122,-0.0457 z m 0.1096635,-1.10578 c 0.018277,-0.29243 0.036554,-0.5209 0.059401,-0.8773 0,-0.0183 0.00914,-0.13251 0.031985,-0.13251 0.031985,0 0.041124,0.10052 0.041124,0.12337 0.022847,0.36097 0.036554,0.55288 0.059401,0.89101 0.00457,0.0411 -0.041124,0.032 -0.1005249,0.032 -0.06854,0 -0.095956,-0.005 -0.091386,-0.0366 z"
         style="font-style:normal;font-variant:normal;font-weight:normal;font-stretch:normal;font-size:4.5693121px;font-family:'Garage Gothic';-inkscape-font-specification:'Garage Gothic';fill:#f2f2f2;stroke:#0000ff;stroke-width:0.1;stroke-miterlimit:4;stroke-dasharray:none;stroke-opacity:1"
         id="path57" />
      <path
         d="m -0.79166948,312.46563 c 0.15992592,0.57574 0.21475767,0.81791 0.36554497,1.34795 0.0319852,0.11423 0.0822476,0.12337 0.20104973,0.12337 0.23303492,0 0.2284656,-0.0137 0.2284656,-0.13251 0,-1.14233 0,-2.2481 0,-2.98833 0,-0.0731 -0.00456931,-0.0777 -0.23760422,-0.0777 -0.22846561,0 -0.24217355,0.009 -0.24217355,0.0822 0,0.52547 0,0.90929 0,1.39364 0,0.0503 0,0.13708 -0.0319852,0.13708 -0.0274159,0 -0.0456931,-0.0731 -0.0548317,-0.1188 -0.14164867,-0.48435 -0.27415872,-0.97327 -0.37011428,-1.34795 -0.0365545,-0.12794 -0.059401,-0.14622 -0.25588144,-0.14622 -0.2010498,0 -0.2101884,0 -0.2101884,0.064 0,1.09207 0,1.91454 0,3.05687 0,0.0685 0,0.0777 0.2284656,0.0777 0.23760424,0 0.25131218,-0.009 0.25131218,-0.0823 0,-0.62599 0,-0.90929 0,-1.5033 0,-0.0594 0,-0.15536 0.0319852,-0.15536 0.0319852,0 0.0685397,0.16907 0.0959556,0.26959 z"
         style="font-style:normal;font-variant:normal;font-weight:normal;font-stretch:normal;font-size:4.5693121px;font-family:'Garage Gothic';-inkscape-font-specification:'Garage Gothic';fill:#f2f2f2;stroke:#0000ff;stroke-width:0.1;stroke-miterlimit:4;stroke-dasharray:none;stroke-opacity:1"
         id="path59" />
      <path
         d="m 1.2825128,310.743 c -0.050262,0 -0.077678,0.0868 -0.073109,0.21019 0.00457,0.15079 0,0.2376 0,0.39296 0,0.10053 0.013708,0.14622 0.06854,0.14165 0.054832,-0.005 0.1507873,-0.009 0.1964804,0 0.06854,0.0137 0.086817,-0.0822 0.086817,-0.10509 0,-0.25589 0.00457,-0.25132 0.00457,-0.5666 0,-0.0914 -0.036555,-0.096 -0.073109,-0.0868 -0.050262,0.0137 -0.1599259,0.0137 -0.2101883,0.0137 z"
         style="font-style:normal;font-variant:normal;font-weight:normal;font-stretch:normal;font-size:4.5693121px;font-family:'Garage Gothic';-inkscape-font-specification:'Garage Gothic';fill:#f2f2f2;stroke:#0000ff;stroke-width:0.1;stroke-miterlimit:4;stroke-dasharray:none;stroke-opacity:1"
         id="path61" />
      <path
         d="m 1.8032003,311.19536 c -0.018277,0.096 -0.00457,0.23761 0.00914,0.32899 0.013708,0.0731 0.086817,-0.009 0.1233714,-0.0411 0.045693,-0.032 0.13251,-0.11423 0.1827725,-0.11423 0.022846,0 0.018277,0.0731 0.018277,0.10966 0,0.80877 0,1.07836 0,1.88713 0,0.0548 0,0.12337 -0.022846,0.13708 -0.022847,0.0137 -0.050263,0.009 -0.082248,0.009 -0.06854,0 -0.146218,0 -0.1919111,0 -0.06397,0 -0.073109,0.1051 -0.073109,0.2239 0,0.10966 0.00457,0.20105 0.06397,0.20105 0.2284656,0 0.8727386,0 1.1012042,0 0.041124,0 0.050262,-0.10509 0.050262,-0.20562 0,-0.1188 0,-0.21933 -0.041124,-0.21933 -0.06397,0 -0.1370793,0 -0.2284656,0 -0.018277,0 -0.059401,0 -0.077678,-0.0228 -0.013708,-0.0183 -0.013708,-0.0731 -0.013708,-0.12337 0,-1.01439 0,-1.53072 0,-2.49028 0,-0.0503 0.00914,-0.13708 -0.050262,-0.13708 -0.091386,0 -0.3289905,0 -0.4432233,0.0366 -0.041124,0.009 -0.06854,0.17363 -0.1416487,0.23303 -0.077678,0.064 -0.1782032,0.14165 -0.1827725,0.18734 z"
         style="font-style:normal;font-variant:normal;font-weight:normal;font-stretch:normal;font-size:4.5693121px;font-family:'Garage Gothic';-inkscape-font-specification:'Garage Gothic';fill:#f2f2f2;stroke:#0000ff;stroke-width:0.1;stroke-miterlimit:4;stroke-dasharray:none;stroke-opacity:1"
         id="path63" />
      <path
         d="m 3.1825613,311.85334 c 0,0.10967 0.027416,0.17821 0.077678,0.24218 0.041124,0.0548 0.091386,0.0868 0.1370794,0.1188 -0.050262,0.0274 -0.1050942,0.0548 -0.146218,0.11423 -0.041124,0.064 -0.06854,0.12794 -0.06854,0.23304 0,0.30614 0,0.40667 0,0.6991 0,0.4021 0.2787281,0.67626 0.6625503,0.67626 0.3975301,0 0.6671196,-0.26045 0.6671196,-0.67626 0,-0.27873 0,-0.36097 0,-0.64884 0,-0.13251 -0.045693,-0.20562 -0.1005249,-0.2833 -0.045693,-0.0503 -0.091386,-0.0731 -0.1279407,-0.10509 0.036555,-0.032 0.095956,-0.0548 0.1416486,-0.11423 0.045693,-0.064 0.086817,-0.12794 0.086817,-0.24218 0,-0.24217 0,-0.28786 0,-0.51633 0,-0.37011 -0.292436,-0.61229 -0.6671196,-0.61229 -0.365545,0 -0.6625503,0.24675 -0.6625503,0.60772 0,0.22847 0,0.26959 0,0.50719 z m 0.8361842,0.90473 c 0,0.17363 0,0.25131 0,0.43408 0,0.15079 -0.031985,0.28787 -0.1736339,0.28787 -0.1416487,0 -0.1736339,-0.14165 -0.1736339,-0.28787 0,-0.18734 0,-0.26959 0,-0.43865 0,-0.12337 0.041124,-0.25588 0.1736339,-0.25588 0.13251,0 0.1736339,0.13251 0.1736339,0.26045 z m 0,-1.32053 c 0,0.12794 0,0.24217 0,0.4158 0,0.13708 -0.041124,0.26046 -0.1736339,0.26046 -0.1325101,0 -0.1736339,-0.13251 -0.1736339,-0.26046 0,-0.16906 0,-0.27415 0,-0.41123 0,-0.12338 0.045693,-0.24675 0.1736339,-0.24675 0.1279407,0 0.1736339,0.11881 0.1736339,0.24218 z"
         style="font-style:normal;font-variant:normal;font-weight:normal;font-stretch:normal;font-size:4.5693121px;font-family:'Garage Gothic';-inkscape-font-specification:'Garage Gothic';fill:#f2f2f2;stroke:#0000ff;stroke-width:0.1;stroke-miterlimit:4;stroke-dasharray:none;stroke-opacity:1"
         id="path65" />
    </g>
    <path
       style="fill:none;stroke:#0000ff;stroke-width:0.1;stroke-linecap:butt;stroke-linejoin:miter;stroke-miterlimit:4;stroke-dasharray:none;stroke-opacity:1"
       d="m 11.307295,310.12649 c -7.4884467,-0.72715 -15.285332,-0.67613 -22.570296,0.0256"
       id="path889"
       inkscape:connector-curvature="0"
       sodipodi:nodetypes="cc" />
    <path
       style="fill:none;stroke:#0000ff;stroke-width:0.1;stroke-linecap:butt;stroke-linejoin:miter;stroke-miterlimit:4;stroke-dasharray:none;stroke-opacity:1"
       d="m 17.021528,304.80057 c -11.106052,-1.73542 -23.4340442,-1.5846 -34.043056,0.01"
       id="path891"
       inkscape:connector-curvature="0"
       sodipodi:nodetypes="cc" />
    <path
       style="fill:none;stroke:none;stroke-width:0.05039682px;stroke-linecap:butt;stroke-linejoin:miter;stroke-opacity:1"
       d="m -18.646825,309.90159 c 11.4693444,-1.91593 25.2139107,-2.11403 37.29365,0"
       id="path889-3"
       inkscape:connector-curvature="0"
       sodipodi:nodetypes="cc" />
  </g>
</svg>
