  0
SECTION
  2
HEADER
  9
$ACADVER
  1
AC1014
  9
$HANDSEED
  5
FFFF
  9
$MEASUREMENT
 70
     1
  0
ENDSEC
  0
SECTION
  2
TABLES
  0
TABLE
  2
VPORT
  5
8
330
0
100
AcDbSymbolTable
 70
     4
  0
VPORT
  5
2E
330
8
100
AcDbSymbolTableRecord
100
AcDbViewportTableRecord
  2
*ACTIVE
 70
     0
 10
0.0
 20
0.0
 11
1.0
 21
1.0
 12
210.0
 22
148.5
 13
0.0
 23
0.0
 14
10.0
 24
10.0
 15
10.0
 25
10.0
 16
0.0
 26
0.0
 36
1.0
 17
0.0
 27
0.0
 37
0.0
 40
341.0
 41
1.24
 42
50.0
 43
0.0
 44
0.0
 50
0.0
 51
0.0
 71
     0
 72
   100
 73
     1
 74
     3
 75
     0
 76
     0
 77
     0
 78
     0
  0
ENDTAB
  0
TABLE
  2
LTYPE
  5
5
330
0
100
AcDbSymbolTable
 70
     1
  0
LTYPE
  5
14
330
5
100
AcDbSymbolTableRecord
100
AcDbLinetypeTableRecord
  2
BYBLOCK
 70
     0
  3

 72
    65
 73
     0
 40
0.0
  0
LTYPE
  5
15
330
5
100
AcDbSymbolTableRecord
100
AcDbLinetypeTableRecord
  2
BYLAYER
 70
     0
  3

 72
    65
 73
     0
 40
0.0
  0
LTYPE
  5
16
330
5
100
AcDbSymbolTableRecord
100
AcDbLinetypeTableRecord
  2
CONTINUOUS
 70
     0
  3
Solid line
 72
    65
 73
     0
 40
0.0
  0
ENDTAB
  0
TABLE
  2
LAYER
  5
2
100
AcDbSymbolTable
 70
8
  0
LAYER
  5
50
100
AcDbSymbolTableRecord
100
AcDbLayerTableRecord
  2
0
 70
0
  6
CONTINUOUS
  0
LAYER
  5
51
100
AcDbSymbolTableRecord
100
AcDbLayerTableRecord
  2
medal_original
 70
0
  6
CONTINUOUS
  0
LAYER
  5
52
100
AcDbSymbolTableRecord
100
AcDbLayerTableRecord
  2
pikachu_surf
 70
0
  6
CONTINUOUS
  0
LAYER
  5
53
100
AcDbSymbolTableRecord
100
AcDbLayerTableRecord
  2
engraving_1
 70
0
  6
CONTINUOUS
  0
LAYER
  5
54
100
AcDbSymbolTableRecord
100
AcDbLayerTableRecord
  2
engraving_2
 70
0
  6
CONTINUOUS
  0
LAYER
  5
55
100
AcDbSymbolTableRecord
100
AcDbLayerTableRecord
  2
engraving_3
 70
0
  6
CONTINUOUS
  0
LAYER
  5
56
100
AcDbSymbolTableRecord
100
AcDbLayerTableRecord
  2
vector_engraving
 70
0
  6
CONTINUOUS
  0
LAYER
  5
57
100
AcDbSymbolTableRecord
100
AcDbLayerTableRecord
  2
cutting
 70
0
  6
CONTINUOUS
  0
ENDTAB
  0
TABLE
  2
STYLE
  5
3
330
0
100
AcDbSymbolTable
 70
     1
  0
STYLE
  5
11
330
3
100
AcDbSymbolTableRecord
100
AcDbTextStyleTableRecord
  2
STANDARD
 70
     0
 40
0.0
 41
1.0
 50
0.0
 71
     0
 42
2.5
  3
txt
  4

  0
ENDTAB
  0
TABLE
  2
VIEW
  5
6
330
0
100
AcDbSymbolTable
 70
     0
  0
ENDTAB
  0
TABLE
  2
UCS
  5
7
330
0
100
AcDbSymbolTable
 70
     0
  0
ENDTAB
  0
TABLE
  2
APPID
  5
9
330
0
100
AcDbSymbolTable
 70
     2
  0
APPID
  5
12
330
9
100
AcDbSymbolTableRecord
100
AcDbRegAppTableRecord
  2
ACAD
 70
     0
  0
ENDTAB
  0
TABLE
  2
DIMSTYLE
  5
A
330
0
100
AcDbSymbolTable
 70
     1
  0
DIMSTYLE
105
27
330
A
100
AcDbSymbolTableRecord
100
AcDbDimStyleTableRecord
  2
ISO-25
 70
     0
  3

  4

  5

  6

  7

 40
1.0
 41
2.5
 42
0.625
 43
3.75
 44
1.25
 45
0.0
 46
0.0
 47
0.0
 48
0.0
140
2.5
141
2.5
142
0.0
143
0.03937007874016
144
1.0
145
0.0
146
1.0
147
0.625
 71
     0
 72
     0
 73
     0
 74
     0
 75
     0
 76
     0
 77
     1
 78
     8
170
     0
171
     3
172
     1
173
     0
174
     0
175
     0
176
     0
177
     0
178
     0
270
     2
271
     2
272
     2
273
     2
274
     3
340
11
275
     0
280
     0
281
     0
282
     0
283
     0
284
     8
285
     0
286
     0
287
     3
288
     0
  0
ENDTAB
  0
TABLE
  2
BLOCK_RECORD
  5
1
330
0
100
AcDbSymbolTable
 70
     1
  0
BLOCK_RECORD
  5
1F
330
1
100
AcDbSymbolTableRecord
100
AcDbBlockTableRecord
  2
*MODEL_SPACE
  0
BLOCK_RECORD
  5
1B
330
1
100
AcDbSymbolTableRecord
100
AcDbBlockTableRecord
  2
*PAPER_SPACE
  0
ENDTAB
  0
ENDSEC
  0
SECTION
  2
BLOCKS
  0
BLOCK
  5
20
330
1F
100
AcDbEntity
  8
0
100
AcDbBlockBegin
  2
*MODEL_SPACE
 70
     0
 10
0.0
 20
0.0
 30
0.0
  3
*MODEL_SPACE
  1

  0
ENDBLK
  5
21
330
1F
100
AcDbEntity
  8
0
100
AcDbBlockEnd
  0
BLOCK
  5
1C
330
1B
100
AcDbEntity
 67
     1
  8
0
100
AcDbBlockBegin
  2
*PAPER_SPACE
  1

  0
ENDBLK
  5
1D
330
1B
100
AcDbEntity
 67
     1
  8
0
100
AcDbBlockEnd
  0
ENDSEC
  0
SECTION
  2
ENTITIES
  0
LWPOLYLINE
  5
100
100
AcDbEntity
  8
engraving_1
 62
7
100
AcDbPolyline
 90
16
 70
1
 10
25.166350
 20
41.375407
 30
0.0
 10
25.166350
 20
40.367470
 30
0.0
 10
24.662382
 20
40.367470
 30
0.0
 10
24.662382
 20
39.359534
 30
0.0
 10
25.166350
 20
39.359534
 30
0.0
 10
25.166350
 20
38.855566
 30
0.0
 10
25.670318
 20
38.855566
 30
0.0
 10
25.670318
 20
38.351597
 30
0.0
 10
26.174286
 20
38.351597
 30
0.0
 10
26.174286
 20
36.839693
 30
0.0
 10
26.678255
 20
36.839693
 30
0.0
 10
26.678255
 20
39.863502
 30
0.0
 10
26.174286
 20
39.863502
 30
0.0
 10
26.174286
 20
40.871438
 30
0.0
 10
25.670318
 20
40.871438
 30
0.0
 10
25.670318
 20
41.375407
 30
0.0
  0
LWPOLYLINE
  5
101
100
AcDbEntity
  8
engraving_1
 62
7
100
AcDbPolyline
 90
4
 70
1
 10
26.174286
 20
36.839693
 30
0.0
 10
25.670318
 20
36.839693
 30
0.0
 10
25.670318
 20
35.831756
 30
0.0
 10
26.174286
 20
35.831756
 30
0.0
  0
LWPOLYLINE
  5
102
100
AcDbEntity
  8
engraving_1
 62
7
100
AcDbPolyline
 90
20
 70
1
 10
26.174286
 20
35.831756
 30
0.0
 10
26.174286
 20
35.327788
 30
0.0
 10
25.670318
 20
35.327788
 30
0.0
 10
25.670318
 20
34.823820
 30
0.0
 10
25.166350
 20
34.823820
 30
0.0
 10
25.166350
 20
35.327788
 30
0.0
 10
25.670318
 20
35.327788
 30
0.0
 10
25.670318
 20
35.831756
 30
0.0
 10
25.166350
 20
35.831756
 30
0.0
 10
24.662382
 20
35.831756
 30
0.0
 10
24.662382
 20
35.327788
 30
0.0
 10
24.662382
 20
34.319852
 30
0.0
 10
25.166350
 20
34.319852
 30
0.0
 10
25.166350
 20
33.815884
 30
0.0
 10
25.670318
 20
33.815884
 30
0.0
 10
25.670318
 20
34.319852
 30
0.0
 10
26.174286
 20
34.319852
 30
0.0
 10
26.174286
 20
34.823820
 30
0.0
 10
26.678255
 20
34.823820
 30
0.0
 10
26.678255
 20
35.831756
 30
0.0
  0
LWPOLYLINE
  5
103
100
AcDbEntity
  8
engraving_1
 62
7
100
AcDbPolyline
 90
4
 70
1
 10
26.678255
 20
34.823820
 30
0.0
 10
26.678255
 20
33.311915
 30
0.0
 10
27.182223
 20
33.311915
 30
0.0
 10
27.182223
 20
34.823820
 30
0.0
  0
LWPOLYLINE
  5
104
100
AcDbEntity
  8
engraving_1
 62
7
100
AcDbPolyline
 90
4
 70
1
 10
27.182223
 20
33.311915
 30
0.0
 10
27.182223
 20
31.800011
 30
0.0
 10
27.686191
 20
31.800011
 30
0.0
 10
27.686191
 20
33.311915
 30
0.0
  0
LWPOLYLINE
  5
105
100
AcDbEntity
  8
engraving_1
 62
7
100
AcDbPolyline
 90
4
 70
1
 10
27.182223
 20
31.800011
 30
0.0
 10
26.678255
 20
31.800011
 30
0.0
 10
26.678255
 20
31.296043
 30
0.0
 10
27.182223
 20
31.296043
 30
0.0
  0
LWPOLYLINE
  5
106
100
AcDbEntity
  8
engraving_1
 62
7
100
AcDbPolyline
 90
4
 70
1
 10
26.678255
 20
31.296043
 30
0.0
 10
26.174286
 20
31.296043
 30
0.0
 10
26.174286
 20
30.792074
 30
0.0
 10
26.678255
 20
30.792074
 30
0.0
  0
LWPOLYLINE
  5
107
100
AcDbEntity
  8
engraving_1
 62
7
100
AcDbPolyline
 90
12
 70
1
 10
26.174286
 20
30.792074
 30
0.0
 10
25.166350
 20
30.792074
 30
0.0
 10
25.166350
 20
30.288106
 30
0.0
 10
25.670318
 20
30.288106
 30
0.0
 10
25.670318
 20
29.784138
 30
0.0
 10
25.670318
 20
29.280171
 30
0.0
 10
25.670318
 20
27.768267
 30
0.0
 10
26.174286
 20
27.768267
 30
0.0
 10
26.174286
 20
29.280171
 30
0.0
 10
27.182223
 20
29.280171
 30
0.0
 10
27.182223
 20
29.784138
 30
0.0
 10
26.174286
 20
29.784138
 30
0.0
  0
LWPOLYLINE
  5
108
100
AcDbEntity
  8
engraving_1
 62
7
100
AcDbPolyline
 90
4
 70
1
 10
27.182223
 20
29.280171
 30
0.0
 10
27.182223
 20
28.776203
 30
0.0
 10
27.686191
 20
28.776203
 30
0.0
 10
27.686191
 20
29.280171
 30
0.0
  0
LWPOLYLINE
  5
109
100
AcDbEntity
  8
engraving_1
 62
7
100
AcDbPolyline
 90
4
 70
1
 10
27.686191
 20
28.776203
 30
0.0
 10
27.686191
 20
27.768267
 30
0.0
 10
28.190159
 20
27.768267
 30
0.0
 10
28.190159
 20
28.776203
 30
0.0
  0
LWPOLYLINE
  5
10a
100
AcDbEntity
  8
engraving_1
 62
7
100
AcDbPolyline
 90
4
 70
1
 10
27.686191
 20
27.768267
 30
0.0
 10
27.182223
 20
27.768267
 30
0.0
 10
27.182223
 20
27.264298
 30
0.0
 10
27.686191
 20
27.264298
 30
0.0
  0
LWPOLYLINE
  5
10b
100
AcDbEntity
  8
engraving_1
 62
7
100
AcDbPolyline
 90
8
 70
1
 10
27.182223
 20
27.264298
 30
0.0
 10
25.670318
 20
27.264298
 30
0.0
 10
25.670318
 20
27.768267
 30
0.0
 10
25.166350
 20
27.768267
 30
0.0
 10
25.166350
 20
26.256362
 30
0.0
 10
25.670318
 20
26.256362
 30
0.0
 10
25.670318
 20
26.760330
 30
0.0
 10
27.182223
 20
26.760330
 30
0.0
  0
LWPOLYLINE
  5
10c
100
AcDbEntity
  8
engraving_1
 62
7
100
AcDbPolyline
 90
11
 70
1
 10
25.166350
 20
26.256362
 30
0.0
 10
24.662382
 20
26.256362
 30
0.0
 10
24.662382
 20
25.248426
 30
0.0
 10
20.126668
 20
25.248426
 30
0.0
 10
20.126668
 20
26.256362
 30
0.0
 10
19.622700
 20
26.256362
 30
0.0
 10
19.622700
 20
24.744457
 30
0.0
 10
20.126668
 20
24.744457
 30
0.0
 10
27.686191
 20
24.744457
 30
0.0
 10
27.686191
 20
25.248426
 30
0.0
 10
25.166350
 20
25.248426
 30
0.0
  0
LWPOLYLINE
  5
10d
100
AcDbEntity
  8
engraving_1
 62
7
100
AcDbPolyline
 90
8
 70
1
 10
27.686191
 20
24.744457
 30
0.0
 10
27.686191
 20
24.240489
 30
0.0
 10
27.686191
 20
23.232553
 30
0.0
 10
28.190159
 20
23.232553
 30
0.0
 10
28.190159
 20
24.240489
 30
0.0
 10
29.702064
 20
24.240489
 30
0.0
 10
29.702064
 20
24.744457
 30
0.0
 10
28.190159
 20
24.744457
 30
0.0
  0
LWPOLYLINE
  5
10e
100
AcDbEntity
  8
engraving_1
 62
7
100
AcDbPolyline
 90
4
 70
1
 10
29.702064
 20
24.240489
 30
0.0
 10
29.702064
 20
23.736521
 30
0.0
 10
30.710000
 20
23.736521
 30
0.0
 10
30.710000
 20
24.240489
 30
0.0
  0
LWPOLYLINE
  5
10f
100
AcDbEntity
  8
engraving_1
 62
7
100
AcDbPolyline
 90
4
 70
1
 10
30.710000
 20
23.736521
 30
0.0
 10
30.710000
 20
23.232553
 30
0.0
 10
31.717937
 20
23.232553
 30
0.0
 10
31.717937
 20
23.736521
 30
0.0
  0
LWPOLYLINE
  5
110
100
AcDbEntity
  8
engraving_1
 62
7
100
AcDbPolyline
 90
4
 70
1
 10
31.717937
 20
23.232553
 30
0.0
 10
31.717937
 20
22.224616
 30
0.0
 10
32.221905
 20
22.224616
 30
0.0
 10
32.221905
 20
23.232553
 30
0.0
  0
LWPOLYLINE
  5
111
100
AcDbEntity
  8
engraving_1
 62
7
100
AcDbPolyline
 90
4
 70
1
 10
31.717937
 20
22.224616
 30
0.0
 10
31.213968
 20
22.224616
 30
0.0
 10
31.213968
 20
21.720648
 30
0.0
 10
31.717937
 20
21.720648
 30
0.0
  0
LWPOLYLINE
  5
112
100
AcDbEntity
  8
engraving_1
 62
7
100
AcDbPolyline
 90
4
 70
1
 10
31.213968
 20
21.720648
 30
0.0
 10
30.206032
 20
21.720648
 30
0.0
 10
30.206032
 20
21.216680
 30
0.0
 10
31.213968
 20
21.216680
 30
0.0
  0
LWPOLYLINE
  5
113
100
AcDbEntity
  8
engraving_1
 62
7
100
AcDbPolyline
 90
4
 70
1
 10
30.206032
 20
21.216680
 30
0.0
 10
28.190159
 20
21.216680
 30
0.0
 10
28.190159
 20
20.712712
 30
0.0
 10
30.206032
 20
20.712712
 30
0.0
  0
LWPOLYLINE
  5
114
100
AcDbEntity
  8
engraving_1
 62
7
100
AcDbPolyline
 90
4
 70
1
 10
28.190159
 20
20.712712
 30
0.0
 10
25.670318
 20
20.712712
 30
0.0
 10
25.670318
 20
20.208744
 30
0.0
 10
28.190159
 20
20.208744
 30
0.0
  0
LWPOLYLINE
  5
115
100
AcDbEntity
  8
engraving_1
 62
7
100
AcDbPolyline
 90
4
 70
1
 10
25.670318
 20
20.208744
 30
0.0
 10
22.142541
 20
20.208744
 30
0.0
 10
22.142541
 20
19.704775
 30
0.0
 10
25.670318
 20
19.704775
 30
0.0
  0
LWPOLYLINE
  5
116
100
AcDbEntity
  8
engraving_1
 62
7
100
AcDbPolyline
 90
8
 70
1
 10
22.142541
 20
19.704775
 30
0.0
 10
18.614763
 20
19.704775
 30
0.0
 10
18.614763
 20
20.208744
 30
0.0
 10
18.110795
 20
20.208744
 30
0.0
 10
18.110795
 20
19.704775
 30
0.0
 10
17.606827
 20
19.704775
 30
0.0
 10
17.606827
 20
19.200807
 30
0.0
 10
22.142541
 20
19.200807
 30
0.0
  0
LWPOLYLINE
  5
117
100
AcDbEntity
  8
engraving_1
 62
7
100
AcDbPolyline
 90
4
 70
1
 10
17.606827
 20
19.200807
 30
0.0
 10
17.102859
 20
19.200807
 30
0.0
 10
17.102859
 20
18.696839
 30
0.0
 10
17.606827
 20
18.696839
 30
0.0
  0
LWPOLYLINE
  5
118
100
AcDbEntity
  8
engraving_1
 62
7
100
AcDbPolyline
 90
4
 70
1
 10
17.102859
 20
18.696839
 30
0.0
 10
15.590954
 20
18.696839
 30
0.0
 10
15.590954
 20
18.192871
 30
0.0
 10
17.102859
 20
18.192871
 30
0.0
  0
LWPOLYLINE
  5
119
100
AcDbEntity
  8
engraving_1
 62
7
100
AcDbPolyline
 90
8
 70
1
 10
15.590954
 20
18.696839
 30
0.0
 10
15.590954
 20
20.712712
 30
0.0
 10
15.086986
 20
20.712712
 30
0.0
 10
15.086986
 20
20.208744
 30
0.0
 10
14.079050
 20
20.208744
 30
0.0
 10
14.079050
 20
19.704775
 30
0.0
 10
15.086986
 20
19.704775
 30
0.0
 10
15.086986
 20
18.696839
 30
0.0
  0
LWPOLYLINE
  5
11a
100
AcDbEntity
  8
engraving_1
 62
7
100
AcDbPolyline
 90
4
 70
1
 10
14.079050
 20
20.208744
 30
0.0
 10
14.079050
 20
20.712712
 30
0.0
 10
12.063177
 20
20.712712
 30
0.0
 10
12.063177
 20
20.208744
 30
0.0
  0
LWPOLYLINE
  5
11b
100
AcDbEntity
  8
engraving_1
 62
7
100
AcDbPolyline
 90
4
 70
1
 10
12.063177
 20
20.712712
 30
0.0
 10
12.063177
 20
21.216680
 30
0.0
 10
10.551272
 20
21.216680
 30
0.0
 10
10.551272
 20
20.712712
 30
0.0
  0
LWPOLYLINE
  5
11c
100
AcDbEntity
  8
engraving_1
 62
7
100
AcDbPolyline
 90
4
 70
1
 10
10.551272
 20
21.216680
 30
0.0
 10
10.551272
 20
22.224616
 30
0.0
 10
10.047304
 20
22.224616
 30
0.0
 10
10.047304
 20
21.216680
 30
0.0
  0
LWPOLYLINE
  5
11d
100
AcDbEntity
  8
engraving_1
 62
7
100
AcDbPolyline
 90
4
 70
1
 10
10.551272
 20
22.224616
 30
0.0
 10
11.559209
 20
22.224616
 30
0.0
 10
11.559209
 20
22.728585
 30
0.0
 10
10.551272
 20
22.728585
 30
0.0
  0
LWPOLYLINE
  5
11e
100
AcDbEntity
  8
engraving_1
 62
7
100
AcDbPolyline
 90
4
 70
1
 10
11.559209
 20
22.728585
 30
0.0
 10
12.567145
 20
22.728585
 30
0.0
 10
12.567145
 20
23.232553
 30
0.0
 10
11.559209
 20
23.232553
 30
0.0
  0
LWPOLYLINE
  5
11f
100
AcDbEntity
  8
engraving_1
 62
7
100
AcDbPolyline
 90
4
 70
1
 10
12.567145
 20
23.232553
 30
0.0
 10
14.079050
 20
23.232553
 30
0.0
 10
14.079050
 20
23.736521
 30
0.0
 10
12.567145
 20
23.736521
 30
0.0
  0
LWPOLYLINE
  5
120
100
AcDbEntity
  8
engraving_1
 62
7
100
AcDbPolyline
 90
6
 70
1
 10
14.079050
 20
23.736521
 30
0.0
 10
16.598891
 20
23.736521
 30
0.0
 10
16.598891
 20
24.240489
 30
0.0
 10
15.086986
 20
24.240489
 30
0.0
 10
15.086986
 20
24.744457
 30
0.0
 10
14.079050
 20
24.744457
 30
0.0
  0
LWPOLYLINE
  5
121
100
AcDbEntity
  8
engraving_1
 62
7
100
AcDbPolyline
 90
4
 70
1
 10
14.079050
 20
24.744457
 30
0.0
 10
14.079050
 20
25.752394
 30
0.0
 10
13.575081
 20
25.752394
 30
0.0
 10
13.575081
 20
24.744457
 30
0.0
  0
LWPOLYLINE
  5
122
100
AcDbEntity
  8
engraving_1
 62
7
100
AcDbPolyline
 90
19
 70
1
 10
13.575081
 20
25.752394
 30
0.0
 10
13.575081
 20
26.256362
 30
0.0
 10
13.575081
 20
26.760330
 30
0.0
 10
14.583018
 20
26.760330
 30
0.0
 10
14.583018
 20
27.264298
 30
0.0
 10
15.086986
 20
27.264298
 30
0.0
 10
15.086986
 20
27.768267
 30
0.0
 10
14.583018
 20
27.768267
 30
0.0
 10
14.583018
 20
28.272235
 30
0.0
 10
13.575081
 20
28.272235
 30
0.0
 10
13.575081
 20
28.776203
 30
0.0
 10
13.071113
 20
28.776203
 30
0.0
 10
13.071113
 20
27.768267
 30
0.0
 10
12.567145
 20
27.768267
 30
0.0
 10
12.567145
 20
27.264298
 30
0.0
 10
13.071113
 20
27.264298
 30
0.0
 10
13.071113
 20
26.256362
 30
0.0
 10
12.567145
 20
26.256362
 30
0.0
 10
12.567145
 20
25.752394
 30
0.0
  0
LWPOLYLINE
  5
123
100
AcDbEntity
  8
engraving_1
 62
7
100
AcDbPolyline
 90
4
 70
1
 10
12.567145
 20
26.256362
 30
0.0
 10
12.567145
 20
26.760330
 30
0.0
 10
11.559209
 20
26.760330
 30
0.0
 10
11.559209
 20
26.256362
 30
0.0
  0
LWPOLYLINE
  5
124
100
AcDbEntity
  8
engraving_1
 62
7
100
AcDbPolyline
 90
4
 70
1
 10
11.559209
 20
26.760330
 30
0.0
 10
11.559209
 20
27.264298
 30
0.0
 10
11.055240
 20
27.264298
 30
0.0
 10
11.055240
 20
26.760330
 30
0.0
  0
LWPOLYLINE
  5
125
100
AcDbEntity
  8
engraving_1
 62
7
100
AcDbPolyline
 90
4
 70
1
 10
11.559209
 20
27.264298
 30
0.0
 10
12.063177
 20
27.264298
 30
0.0
 10
12.063177
 20
28.776203
 30
0.0
 10
11.559209
 20
28.776203
 30
0.0
  0
LWPOLYLINE
  5
126
100
AcDbEntity
  8
engraving_1
 62
7
100
AcDbPolyline
 90
4
 70
1
 10
11.559209
 20
28.776203
 30
0.0
 10
11.559209
 20
29.280171
 30
0.0
 10
11.055240
 20
29.280171
 30
0.0
 10
11.055240
 20
28.776203
 30
0.0
  0
LWPOLYLINE
  5
127
100
AcDbEntity
  8
engraving_1
 62
7
100
AcDbPolyline
 90
4
 70
1
 10
11.055240
 20
29.280171
 30
0.0
 10
11.055240
 20
29.784138
 30
0.0
 10
10.551272
 20
29.784138
 30
0.0
 10
10.551272
 20
29.280171
 30
0.0
  0
LWPOLYLINE
  5
128
100
AcDbEntity
  8
engraving_1
 62
7
100
AcDbPolyline
 90
4
 70
1
 10
10.551272
 20
29.784138
 30
0.0
 10
10.551272
 20
30.792074
 30
0.0
 10
10.047304
 20
30.792074
 30
0.0
 10
10.047304
 20
29.784138
 30
0.0
  0
LWPOLYLINE
  5
129
100
AcDbEntity
  8
engraving_1
 62
7
100
AcDbPolyline
 90
4
 70
1
 10
10.551272
 20
30.792074
 30
0.0
 10
11.055240
 20
30.792074
 30
0.0
 10
11.055240
 20
31.296043
 30
0.0
 10
10.551272
 20
31.296043
 30
0.0
  0
LWPOLYLINE
  5
12a
100
AcDbEntity
  8
engraving_1
 62
7
100
AcDbPolyline
 90
4
 70
1
 10
11.055240
 20
31.296043
 30
0.0
 10
11.559209
 20
31.296043
 30
0.0
 10
11.559209
 20
32.303979
 30
0.0
 10
11.055240
 20
32.303979
 30
0.0
  0
LWPOLYLINE
  5
12b
100
AcDbEntity
  8
engraving_1
 62
7
100
AcDbPolyline
 90
4
 70
1
 10
11.055240
 20
32.303979
 30
0.0
 10
11.055240
 20
32.807947
 30
0.0
 10
10.551272
 20
32.807947
 30
0.0
 10
10.551272
 20
32.303979
 30
0.0
  0
LWPOLYLINE
  5
12c
100
AcDbEntity
  8
engraving_1
 62
7
100
AcDbPolyline
 90
4
 70
1
 10
10.551272
 20
32.807947
 30
0.0
 10
10.551272
 20
33.311915
 30
0.0
 10
10.047304
 20
33.311915
 30
0.0
 10
10.047304
 20
32.807947
 30
0.0
  0
LWPOLYLINE
  5
12d
100
AcDbEntity
  8
engraving_1
 62
7
100
AcDbPolyline
 90
4
 70
1
 10
10.047304
 20
33.311915
 30
0.0
 10
10.047304
 20
33.815884
 30
0.0
 10
9.543336
 20
33.815884
 30
0.0
 10
9.543336
 20
33.311915
 30
0.0
  0
LWPOLYLINE
  5
12e
100
AcDbEntity
  8
engraving_1
 62
7
100
AcDbPolyline
 90
4
 70
1
 10
9.543336
 20
33.815884
 30
0.0
 10
9.543336
 20
35.327788
 30
0.0
 10
9.039368
 20
35.327788
 30
0.0
 10
9.039368
 20
33.815884
 30
0.0
  0
LWPOLYLINE
  5
12f
100
AcDbEntity
  8
engraving_1
 62
7
100
AcDbPolyline
 90
4
 70
1
 10
9.543336
 20
35.327788
 30
0.0
 10
10.047304
 20
35.327788
 30
0.0
 10
10.047304
 20
36.335725
 30
0.0
 10
9.543336
 20
36.335725
 30
0.0
  0
LWPOLYLINE
  5
130
100
AcDbEntity
  8
engraving_1
 62
7
100
AcDbPolyline
 90
4
 70
1
 10
10.047304
 20
36.335725
 30
0.0
 10
10.551272
 20
36.335725
 30
0.0
 10
10.551272
 20
37.343661
 30
0.0
 10
10.047304
 20
37.343661
 30
0.0
  0
LWPOLYLINE
  5
131
100
AcDbEntity
  8
engraving_1
 62
7
100
AcDbPolyline
 90
7
 70
1
 10
10.551272
 20
37.343661
 30
0.0
 10
11.055240
 20
37.343661
 30
0.0
 10
11.055240
 20
37.847629
 30
0.0
 10
11.559209
 20
37.847629
 30
0.0
 10
11.559209
 20
38.351597
 30
0.0
 10
10.551272
 20
38.351597
 30
0.0
 10
10.551272
 20
37.847629
 30
0.0
  0
LWPOLYLINE
  5
132
100
AcDbEntity
  8
engraving_1
 62
7
100
AcDbPolyline
 90
4
 70
1
 10
11.559209
 20
37.847629
 30
0.0
 10
11.559209
 20
37.343661
 30
0.0
 10
12.063177
 20
37.343661
 30
0.0
 10
12.063177
 20
37.847629
 30
0.0
  0
LWPOLYLINE
  5
133
100
AcDbEntity
  8
engraving_1
 62
7
100
AcDbPolyline
 90
4
 70
1
 10
12.063177
 20
37.343661
 30
0.0
 10
12.063177
 20
36.335725
 30
0.0
 10
12.567145
 20
36.335725
 30
0.0
 10
12.567145
 20
37.343661
 30
0.0
  0
LWPOLYLINE
  5
134
100
AcDbEntity
  8
engraving_1
 62
7
100
AcDbPolyline
 90
4
 70
1
 10
12.567145
 20
36.335725
 30
0.0
 10
12.567145
 20
35.327788
 30
0.0
 10
13.071113
 20
35.327788
 30
0.0
 10
13.071113
 20
36.335725
 30
0.0
  0
LWPOLYLINE
  5
135
100
AcDbEntity
  8
engraving_1
 62
7
100
AcDbPolyline
 90
4
 70
1
 10
13.071113
 20
35.327788
 30
0.0
 10
13.071113
 20
34.319852
 30
0.0
 10
13.575081
 20
34.319852
 30
0.0
 10
13.575081
 20
35.327788
 30
0.0
  0
LWPOLYLINE
  5
136
100
AcDbEntity
  8
engraving_1
 62
7
100
AcDbPolyline
 90
4
 70
1
 10
13.575081
 20
34.319852
 30
0.0
 10
13.575081
 20
33.311915
 30
0.0
 10
14.079050
 20
33.311915
 30
0.0
 10
14.079050
 20
34.319852
 30
0.0
  0
LWPOLYLINE
  5
137
100
AcDbEntity
  8
engraving_1
 62
7
100
AcDbPolyline
 90
4
 70
1
 10
14.079050
 20
33.311915
 30
0.0
 10
14.079050
 20
32.303979
 30
0.0
 10
14.583018
 20
32.303979
 30
0.0
 10
14.583018
 20
33.311915
 30
0.0
  0
LWPOLYLINE
  5
138
100
AcDbEntity
  8
engraving_1
 62
7
100
AcDbPolyline
 90
4
 70
1
 10
14.079050
 20
32.303979
 30
0.0
 10
13.575081
 20
32.303979
 30
0.0
 10
13.575081
 20
31.800011
 30
0.0
 10
14.079050
 20
31.800011
 30
0.0
  0
LWPOLYLINE
  5
139
100
AcDbEntity
  8
engraving_1
 62
7
100
AcDbPolyline
 90
4
 70
1
 10
13.575081
 20
31.800011
 30
0.0
 10
13.071113
 20
31.800011
 30
0.0
 10
13.071113
 20
31.296043
 30
0.0
 10
13.575081
 20
31.296043
 30
0.0
  0
LWPOLYLINE
  5
13a
100
AcDbEntity
  8
engraving_1
 62
7
100
AcDbPolyline
 90
4
 70
1
 10
13.071113
 20
31.296043
 30
0.0
 10
12.567145
 20
31.296043
 30
0.0
 10
12.567145
 20
30.792074
 30
0.0
 10
13.071113
 20
30.792074
 30
0.0
  0
LWPOLYLINE
  5
13b
100
AcDbEntity
  8
engraving_1
 62
7
100
AcDbPolyline
 90
4
 70
1
 10
12.567145
 20
30.792074
 30
0.0
 10
12.063177
 20
30.792074
 30
0.0
 10
12.063177
 20
30.288106
 30
0.0
 10
12.567145
 20
30.288106
 30
0.0
  0
LWPOLYLINE
  5
13c
100
AcDbEntity
  8
engraving_1
 62
7
100
AcDbPolyline
 90
4
 70
1
 10
12.567145
 20
30.288106
 30
0.0
 10
12.567145
 20
29.784138
 30
0.0
 10
13.071113
 20
29.784138
 30
0.0
 10
13.071113
 20
30.288106
 30
0.0
  0
LWPOLYLINE
  5
13d
100
AcDbEntity
  8
engraving_1
 62
7
100
AcDbPolyline
 90
7
 70
1
 10
13.071113
 20
29.784138
 30
0.0
 10
13.071113
 20
29.280171
 30
0.0
 10
13.575081
 20
29.280171
 30
0.0
 10
13.575081
 20
28.776203
 30
0.0
 10
14.079050
 20
28.776203
 30
0.0
 10
14.079050
 20
29.784138
 30
0.0
 10
13.575081
 20
29.784138
 30
0.0
  0
LWPOLYLINE
  5
13e
100
AcDbEntity
  8
engraving_1
 62
7
100
AcDbPolyline
 90
12
 70
1
 10
14.079050
 20
29.784138
 30
0.0
 10
15.086986
 20
29.784138
 30
0.0
 10
15.086986
 20
30.288106
 30
0.0
 10
16.094922
 20
30.288106
 30
0.0
 10
16.094922
 20
30.792074
 30
0.0
 10
15.590954
 20
30.792074
 30
0.0
 10
15.590954
 20
31.296043
 30
0.0
 10
15.086986
 20
31.296043
 30
0.0
 10
15.086986
 20
31.800011
 30
0.0
 10
14.583018
 20
31.800011
 30
0.0
 10
14.583018
 20
30.792074
 30
0.0
 10
14.079050
 20
30.792074
 30
0.0
  0
LWPOLYLINE
  5
13f
100
AcDbEntity
  8
engraving_1
 62
7
100
AcDbPolyline
 90
4
 70
1
 10
15.086986
 20
31.800011
 30
0.0
 10
15.590954
 20
31.800011
 30
0.0
 10
15.590954
 20
32.807947
 30
0.0
 10
15.086986
 20
32.807947
 30
0.0
  0
LWPOLYLINE
  5
140
100
AcDbEntity
  8
engraving_1
 62
7
100
AcDbPolyline
 90
4
 70
1
 10
15.590954
 20
32.807947
 30
0.0
 10
16.094922
 20
32.807947
 30
0.0
 10
16.094922
 20
33.815884
 30
0.0
 10
15.590954
 20
33.815884
 30
0.0
  0
LWPOLYLINE
  5
141
100
AcDbEntity
  8
engraving_1
 62
7
100
AcDbPolyline
 90
7
 70
1
 10
16.094922
 20
33.815884
 30
0.0
 10
16.598891
 20
33.815884
 30
0.0
 10
16.598891
 20
35.327788
 30
0.0
 10
17.102859
 20
35.327788
 30
0.0
 10
17.102859
 20
35.831756
 30
0.0
 10
16.598891
 20
35.831756
 30
0.0
 10
16.094922
 20
35.831756
 30
0.0
  0
LWPOLYLINE
  5
142
100
AcDbEntity
  8
engraving_1
 62
7
100
AcDbPolyline
 90
4
 70
1
 10
16.094922
 20
35.831756
 30
0.0
 10
16.094922
 20
36.335725
 30
0.0
 10
15.086986
 20
36.335725
 30
0.0
 10
15.086986
 20
35.831756
 30
0.0
  0
LWPOLYLINE
  5
143
100
AcDbEntity
  8
engraving_1
 62
7
100
AcDbPolyline
 90
4
 70
1
 10
15.086986
 20
36.335725
 30
0.0
 10
15.086986
 20
36.839693
 30
0.0
 10
14.583018
 20
36.839693
 30
0.0
 10
14.583018
 20
36.335725
 30
0.0
  0
LWPOLYLINE
  5
144
100
AcDbEntity
  8
engraving_1
 62
7
100
AcDbPolyline
 90
21
 70
1
 10
14.583018
 20
36.839693
 30
0.0
 10
14.583018
 20
37.343661
 30
0.0
 10
14.583018
 20
37.847629
 30
0.0
 10
14.079050
 20
37.847629
 30
0.0
 10
14.079050
 20
38.855566
 30
0.0
 10
16.094922
 20
38.855566
 30
0.0
 10
16.094922
 20
39.359534
 30
0.0
 10
14.079050
 20
39.359534
 30
0.0
 10
14.079050
 20
39.863502
 30
0.0
 10
12.063177
 20
39.863502
 30
0.0
 10
12.063177
 20
39.359534
 30
0.0
 10
11.559209
 20
39.359534
 30
0.0
 10
11.559209
 20
38.855566
 30
0.0
 10
12.063177
 20
38.855566
 30
0.0
 10
12.063177
 20
38.351597
 30
0.0
 10
12.567145
 20
38.351597
 30
0.0
 10
12.567145
 20
37.847629
 30
0.0
 10
13.071113
 20
37.847629
 30
0.0
 10
13.071113
 20
37.343661
 30
0.0
 10
13.575081
 20
37.343661
 30
0.0
 10
13.575081
 20
36.839693
 30
0.0
  0
LWPOLYLINE
  5
145
100
AcDbEntity
  8
engraving_1
 62
7
100
AcDbPolyline
 90
4
 70
1
 10
16.094922
 20
38.855566
 30
0.0
 10
16.094922
 20
38.351597
 30
0.0
 10
17.606827
 20
38.351597
 30
0.0
 10
17.606827
 20
38.855566
 30
0.0
  0
LWPOLYLINE
  5
146
100
AcDbEntity
  8
engraving_1
 62
7
100
AcDbPolyline
 90
4
 70
1
 10
17.606827
 20
38.351597
 30
0.0
 10
17.606827
 20
37.847629
 30
0.0
 10
18.614763
 20
37.847629
 30
0.0
 10
18.614763
 20
38.351597
 30
0.0
  0
LWPOLYLINE
  5
147
100
AcDbEntity
  8
engraving_1
 62
7
100
AcDbPolyline
 90
4
 70
1
 10
18.614763
 20
37.847629
 30
0.0
 10
18.614763
 20
37.343661
 30
0.0
 10
20.630636
 20
37.343661
 30
0.0
 10
20.630636
 20
37.847629
 30
0.0
  0
LWPOLYLINE
  5
148
100
AcDbEntity
  8
engraving_1
 62
7
100
AcDbPolyline
 90
4
 70
1
 10
20.630636
 20
37.847629
 30
0.0
 10
24.158414
 20
37.847629
 30
0.0
 10
24.158414
 20
38.351597
 30
0.0
 10
20.630636
 20
38.351597
 30
0.0
  0
LWPOLYLINE
  5
149
100
AcDbEntity
  8
engraving_1
 62
7
100
AcDbPolyline
 90
4
 70
1
 10
24.158414
 20
38.351597
 30
0.0
 10
24.662382
 20
38.351597
 30
0.0
 10
24.662382
 20
39.359534
 30
0.0
 10
24.158414
 20
39.359534
 30
0.0
  0
LWPOLYLINE
  5
14a
100
AcDbEntity
  8
engraving_1
 62
7
100
AcDbPolyline
 90
4
 70
1
 10
24.158414
 20
37.847629
 30
0.0
 10
24.158414
 20
37.343661
 30
0.0
 10
25.166350
 20
37.343661
 30
0.0
 10
25.166350
 20
37.847629
 30
0.0
  0
LWPOLYLINE
  5
14b
100
AcDbEntity
  8
engraving_1
 62
7
100
AcDbPolyline
 90
4
 70
1
 10
25.166350
 20
37.343661
 30
0.0
 10
25.166350
 20
36.839693
 30
0.0
 10
25.670318
 20
36.839693
 30
0.0
 10
25.670318
 20
37.343661
 30
0.0
  0
LWPOLYLINE
  5
14c
100
AcDbEntity
  8
engraving_1
 62
7
100
AcDbPolyline
 90
4
 70
1
 10
16.598891
 20
24.240489
 30
0.0
 10
19.622700
 20
24.240489
 30
0.0
 10
19.622700
 20
24.744457
 30
0.0
 10
16.598891
 20
24.744457
 30
0.0
  0
LWPOLYLINE
  5
14d
100
AcDbEntity
  8
engraving_1
 62
7
100
AcDbPolyline
 90
4
 70
1
 10
18.614763
 20
20.208744
 30
0.0
 10
19.118732
 20
20.208744
 30
0.0
 10
19.118732
 20
20.712712
 30
0.0
 10
18.614763
 20
20.712712
 30
0.0
  0
LWPOLYLINE
  5
14e
100
AcDbEntity
  8
engraving_1
 62
7
100
AcDbPolyline
 90
4
 70
1
 10
19.118732
 20
20.712712
 30
0.0
 10
21.134604
 20
20.712712
 30
0.0
 10
21.134604
 20
21.216680
 30
0.0
 10
19.118732
 20
21.216680
 30
0.0
  0
LWPOLYLINE
  5
14f
100
AcDbEntity
  8
engraving_1
 62
7
100
AcDbPolyline
 90
4
 70
1
 10
21.134604
 20
21.216680
 30
0.0
 10
23.654445
 20
21.216680
 30
0.0
 10
23.654445
 20
21.720648
 30
0.0
 10
21.134604
 20
21.720648
 30
0.0
  0
LWPOLYLINE
  5
150
100
AcDbEntity
  8
engraving_1
 62
7
100
AcDbPolyline
 90
4
 70
1
 10
23.654445
 20
21.720648
 30
0.0
 10
26.174286
 20
21.720648
 30
0.0
 10
26.174286
 20
22.224616
 30
0.0
 10
23.654445
 20
22.224616
 30
0.0
  0
LWPOLYLINE
  5
151
100
AcDbEntity
  8
engraving_1
 62
7
100
AcDbPolyline
 90
4
 70
1
 10
26.174286
 20
22.224616
 30
0.0
 10
27.182223
 20
22.224616
 30
0.0
 10
27.182223
 20
22.728585
 30
0.0
 10
26.174286
 20
22.728585
 30
0.0
  0
LWPOLYLINE
  5
152
100
AcDbEntity
  8
engraving_1
 62
7
100
AcDbPolyline
 90
4
 70
1
 10
27.182223
 20
22.728585
 30
0.0
 10
27.686191
 20
22.728585
 30
0.0
 10
27.686191
 20
23.232553
 30
0.0
 10
27.182223
 20
23.232553
 30
0.0
  0
LWPOLYLINE
  5
153
100
AcDbEntity
  8
engraving_1
 62
7
100
AcDbPolyline
 90
4
 70
1
 10
19.622700
 20
26.256362
 30
0.0
 10
19.622700
 20
26.760330
 30
0.0
 10
19.118732
 20
26.760330
 30
0.0
 10
19.118732
 20
26.256362
 30
0.0
  0
LWPOLYLINE
  5
154
100
AcDbEntity
  8
engraving_1
 62
7
100
AcDbPolyline
 90
4
 70
1
 10
19.118732
 20
26.760330
 30
0.0
 10
19.118732
 20
27.264298
 30
0.0
 10
17.606827
 20
27.264298
 30
0.0
 10
17.606827
 20
26.760330
 30
0.0
  0
LWPOLYLINE
  5
155
100
AcDbEntity
  8
engraving_1
 62
7
100
AcDbPolyline
 90
4
 70
1
 10
25.166350
 20
30.288106
 30
0.0
 10
24.158414
 20
30.288106
 30
0.0
 10
24.158414
 20
29.784138
 30
0.0
 10
25.166350
 20
29.784138
 30
0.0
  0
LWPOLYLINE
  5
156
100
AcDbEntity
  8
engraving_1
 62
7
100
AcDbPolyline
 90
16
 70
1
 10
20.126668
 20
36.335725
 30
0.0
 10
20.126668
 20
35.831756
 30
0.0
 10
19.622700
 20
35.831756
 30
0.0
 10
19.622700
 20
34.823820
 30
0.0
 10
20.126668
 20
34.823820
 30
0.0
 10
20.126668
 20
34.319852
 30
0.0
 10
21.134604
 20
34.319852
 30
0.0
 10
21.134604
 20
34.823820
 30
0.0
 10
21.638573
 20
34.823820
 30
0.0
 10
21.638573
 20
35.831756
 30
0.0
 10
21.134604
 20
35.831756
 30
0.0
 10
21.134604
 20
35.327788
 30
0.0
 10
20.630636
 20
35.327788
 30
0.0
 10
20.630636
 20
35.831756
 30
0.0
 10
21.134604
 20
35.831756
 30
0.0
 10
21.134604
 20
36.335725
 30
0.0
  0
LWPOLYLINE
  5
157
100
AcDbEntity
  8
engraving_1
 62
7
100
AcDbPolyline
 90
4
 70
1
 10
23.654445
 20
34.319852
 30
0.0
 10
23.654445
 20
33.815884
 30
0.0
 10
24.158414
 20
33.815884
 30
0.0
 10
24.158414
 20
34.319852
 30
0.0
  0
LWPOLYLINE
  5
158
100
AcDbEntity
  8
engraving_1
 62
7
100
AcDbPolyline
 90
4
 70
1
 10
21.638573
 20
33.311915
 30
0.0
 10
21.638573
 20
32.807947
 30
0.0
 10
22.142541
 20
32.807947
 30
0.0
 10
22.142541
 20
33.311915
 30
0.0
  0
LWPOLYLINE
  5
159
100
AcDbEntity
  8
engraving_1
 62
7
100
AcDbPolyline
 90
4
 70
1
 10
22.142541
 20
32.807947
 30
0.0
 10
22.142541
 20
32.303979
 30
0.0
 10
23.150477
 20
32.303979
 30
0.0
 10
23.150477
 20
32.807947
 30
0.0
  0
LWPOLYLINE
  5
15a
100
AcDbEntity
  8
engraving_1
 62
7
100
AcDbPolyline
 90
4
 70
1
 10
23.150477
 20
32.807947
 30
0.0
 10
24.158414
 20
32.807947
 30
0.0
 10
24.158414
 20
33.311915
 30
0.0
 10
23.150477
 20
33.311915
 30
0.0
  0
LWPOLYLINE
  5
15b
100
AcDbEntity
  8
engraving_1
 62
7
100
AcDbPolyline
 90
4
 70
1
 10
24.158414
 20
32.807947
 30
0.0
 10
24.158414
 20
32.303979
 30
0.0
 10
24.662382
 20
32.303979
 30
0.0
 10
24.662382
 20
32.807947
 30
0.0
  0
LWPOLYLINE
  5
15c
100
AcDbEntity
  8
engraving_1
 62
7
100
AcDbPolyline
 90
4
 70
1
 10
24.662382
 20
32.807947
 30
0.0
 10
25.166350
 20
32.807947
 30
0.0
 10
25.166350
 20
33.311915
 30
0.0
 10
24.662382
 20
33.311915
 30
0.0
  0
LWPOLYLINE
  5
15d
100
AcDbEntity
  8
engraving_1
 62
7
100
AcDbPolyline
 90
4
 70
1
 10
19.118732
 20
31.800011
 30
0.0
 10
19.118732
 20
31.296043
 30
0.0
 10
20.126668
 20
31.296043
 30
0.0
 10
20.126668
 20
31.800011
 30
0.0
  0
LWPOLYLINE
  5
15e
100
AcDbEntity
  8
engraving_1
 62
7
100
AcDbPolyline
 90
4
 70
1
 10
20.126668
 20
31.296043
 30
0.0
 10
20.126668
 20
30.288106
 30
0.0
 10
20.630636
 20
30.288106
 30
0.0
 10
20.630636
 20
31.296043
 30
0.0
  0
LWPOLYLINE
  5
15f
100
AcDbEntity
  8
engraving_1
 62
7
100
AcDbPolyline
 90
4
 70
1
 10
20.630636
 20
30.288106
 30
0.0
 10
20.630636
 20
29.784138
 30
0.0
 10
21.134604
 20
29.784138
 30
0.0
 10
21.134604
 20
30.288106
 30
0.0
  0
LWPOLYLINE
  5
160
100
AcDbEntity
  8
engraving_1
 62
7
100
AcDbPolyline
 90
4
 70
1
 10
20.630636
 20
29.784138
 30
0.0
 10
19.622700
 20
29.784138
 30
0.0
 10
19.622700
 20
29.280171
 30
0.0
 10
20.630636
 20
29.280171
 30
0.0
  0
LWPOLYLINE
  5
161
100
AcDbEntity
  8
engraving_1
 62
7
100
AcDbPolyline
 90
4
 70
1
 10
19.118732
 20
31.296043
 30
0.0
 10
18.110795
 20
31.296043
 30
0.0
 10
18.110795
 20
30.792074
 30
0.0
 10
19.118732
 20
30.792074
 30
0.0
  0
LWPOLYLINE
  5
162
100
AcDbEntity
  8
engraving_1
 62
7
100
AcDbPolyline
 90
4
 70
1
 10
18.110795
 20
30.792074
 30
0.0
 10
17.606827
 20
30.792074
 30
0.0
 10
17.606827
 20
30.288106
 30
0.0
 10
18.110795
 20
30.288106
 30
0.0
  0
LWPOLYLINE
  5
163
100
AcDbEntity
  8
engraving_2
 62
7
100
AcDbPolyline
 90
12
 70
1
 10
18.614763
 20
34.319846
 30
0.0
 10
18.614763
 20
33.815876
 30
0.0
 10
18.110795
 20
33.815876
 30
0.0
 10
18.110795
 20
32.807946
 30
0.0
 10
18.614763
 20
32.807946
 30
0.0
 10
18.614763
 20
32.303976
 30
0.0
 10
19.622700
 20
32.303976
 30
0.0
 10
19.622700
 20
32.807946
 30
0.0
 10
20.126668
 20
32.807946
 30
0.0
 10
20.126668
 20
33.815876
 30
0.0
 10
19.622700
 20
33.815876
 30
0.0
 10
19.622700
 20
34.319846
 30
0.0
  0
LWPOLYLINE
  5
164
100
AcDbEntity
  8
engraving_2
 62
7
100
AcDbPolyline
 90
10
 70
1
 10
26.174287
 20
33.311906
 30
0.0
 10
26.174287
 20
32.807946
 30
0.0
 10
25.670319
 20
32.807946
 30
0.0
 10
25.670319
 20
31.800006
 30
0.0
 10
26.174287
 20
31.800006
 30
0.0
 10
26.174287
 20
31.296036
 30
0.0
 10
26.678255
 20
31.296036
 30
0.0
 10
26.678255
 20
31.800006
 30
0.0
 10
27.182224
 20
31.800006
 30
0.0
 10
27.182224
 20
33.311906
 30
0.0
  0
LWPOLYLINE
  5
165
100
AcDbEntity
  8
engraving_2
 62
7
100
AcDbPolyline
 90
10
 70
1
 10
12.063176
 20
27.768256
 30
0.0
 10
12.063176
 20
27.264296
 30
0.0
 10
11.559208
 20
27.264296
 30
0.0
 10
11.559208
 20
26.760326
 30
0.0
 10
12.567144
 20
26.760326
 30
0.0
 10
12.567144
 20
26.256356
 30
0.0
 10
13.071113
 20
26.256356
 30
0.0
 10
13.071113
 20
27.264296
 30
0.0
 10
12.567144
 20
27.264296
 30
0.0
 10
12.567144
 20
27.768256
 30
0.0
  0
LWPOLYLINE
  5
166
100
AcDbEntity
  8
engraving_3
 62
7
100
AcDbPolyline
 90
41
 70
1
 10
20.126668
 20
24.240486
 30
0.0
 10
20.126668
 20
23.736516
 30
0.0
 10
17.102859
 20
23.736516
 30
0.0
 10
17.102859
 20
23.232546
 30
0.0
 10
14.583017
 20
23.232546
 30
0.0
 10
14.583017
 20
22.728576
 30
0.0
 10
12.567144
 20
22.728576
 30
0.0
 10
11.559208
 20
22.728576
 30
0.0
 10
11.559208
 20
22.224606
 30
0.0
 10
10.551271
 20
22.224606
 30
0.0
 10
10.551271
 20
21.216676
 30
0.0
 10
12.063176
 20
21.216676
 30
0.0
 10
12.063176
 20
20.712706
 30
0.0
 10
14.079049
 20
20.712706
 30
0.0
 10
14.079049
 20
20.208736
 30
0.0
 10
15.086986
 20
20.208736
 30
0.0
 10
15.086986
 20
20.712706
 30
0.0
 10
15.590954
 20
20.712706
 30
0.0
 10
15.590954
 20
18.696836
 30
0.0
 10
17.102859
 20
18.696836
 30
0.0
 10
17.102859
 20
19.200796
 30
0.0
 10
17.606827
 20
19.200796
 30
0.0
 10
17.606827
 20
19.704766
 30
0.0
 10
18.110795
 20
19.704766
 30
0.0
 10
18.110795
 20
20.208736
 30
0.0
 10
18.614763
 20
20.208736
 30
0.0
 10
18.614763
 20
20.712706
 30
0.0
 10
19.118732
 20
20.712706
 30
0.0
 10
19.118732
 20
21.216676
 30
0.0
 10
21.134605
 20
21.216676
 30
0.0
 10
21.134605
 20
21.720646
 30
0.0
 10
23.654446
 20
21.720646
 30
0.0
 10
23.654446
 20
22.224606
 30
0.0
 10
26.174287
 20
22.224606
 30
0.0
 10
26.174287
 20
22.728576
 30
0.0
 10
27.182224
 20
22.728576
 30
0.0
 10
27.182224
 20
23.232546
 30
0.0
 10
27.686192
 20
23.232546
 30
0.0
 10
27.686192
 20
23.736516
 30
0.0
 10
26.174287
 20
23.736516
 30
0.0
 10
26.174287
 20
24.240486
 30
0.0
  0
LWPOLYLINE
  5
167
100
AcDbEntity
  8
engraving_3
 62
7
100
AcDbPolyline
 90
29
 70
1
 10
27.686192
 20
23.232546
 30
0.0
 10
27.686192
 20
22.728576
 30
0.0
 10
27.182224
 20
22.728576
 30
0.0
 10
27.182224
 20
22.224606
 30
0.0
 10
26.174287
 20
22.224606
 30
0.0
 10
26.174287
 20
21.720646
 30
0.0
 10
23.654446
 20
21.720646
 30
0.0
 10
23.654446
 20
21.216676
 30
0.0
 10
21.134605
 20
21.216676
 30
0.0
 10
21.134605
 20
20.712706
 30
0.0
 10
19.118732
 20
20.712706
 30
0.0
 10
19.118732
 20
20.208736
 30
0.0
 10
18.614763
 20
20.208736
 30
0.0
 10
18.614763
 20
19.704766
 30
0.0
 10
22.142541
 20
19.704766
 30
0.0
 10
22.142541
 20
20.208736
 30
0.0
 10
25.670319
 20
20.208736
 30
0.0
 10
25.670319
 20
20.712706
 30
0.0
 10
28.190160
 20
20.712706
 30
0.0
 10
28.190160
 20
21.216676
 30
0.0
 10
30.206033
 20
21.216676
 30
0.0
 10
30.206033
 20
21.720646
 30
0.0
 10
30.710001
 20
21.720646
 30
0.0
 10
30.710001
 20
22.224606
 30
0.0
 10
30.206033
 20
22.224606
 30
0.0
 10
30.206033
 20
22.728576
 30
0.0
 10
28.694128
 20
22.728576
 30
0.0
 10
28.694128
 20
23.232546
 30
0.0
 10
28.190160
 20
23.232546
 30
0.0
  0
LWPOLYLINE
  5
168
100
AcDbEntity
  8
engraving_3
 62
7
100
AcDbPolyline
 90
27
 70
1
 10
20.496154
 20
17.184875
 30
0.0
 10
18.254753
 20
17.166455
 30
0.0
 10
16.023111
 20
17.107098
 30
0.0
 10
13.805993
 20
17.007509
 30
0.0
 10
11.608162
 20
16.868391
 30
0.0
 10
9.434380
 20
16.690447
 30
0.0
 10
7.289412
 20
16.474381
 30
0.0
 10
5.178020
 20
16.220897
 30
0.0
 10
3.104968
 20
15.930697
 30
0.0
 10
3.104968
 20
13.405276
 30
0.0
 10
9.608447
 20
9.650468
 30
0.0
 10
12.186881
 20
9.853313
 30
0.0
 10
14.797255
 20
10.001473
 30
0.0
 10
17.431677
 20
10.093757
 30
0.0
 10
20.082255
 20
10.128974
 30
0.0
 10
22.741098
 20
10.105931
 30
0.0
 10
25.400314
 20
10.023439
 30
0.0
 10
28.052011
 20
9.880305
 30
0.0
 10
30.688297
 20
9.675339
 30
0.0
 10
37.148368
 20
13.405355
 30
0.0
 10
37.148368
 20
15.942154
 30
0.0
 10
35.120110
 20
16.236360
 30
0.0
 10
33.068779
 20
16.489697
 30
0.0
 10
30.998300
 20
16.702761
 30
0.0
 10
28.912602
 20
16.876153
 30
0.0
 10
24.711255
 20
17.106310
 30
0.0
 10
20.496154
 20
17.184955
 30
0.0
  0
LWPOLYLINE
  5
169
100
AcDbEntity
  8
engraving_3
 62
7
100
AcDbPolyline
 90
36
 70
1
 10
20.224853
 20
15.795310
 30
0.0
 10
20.479627
 20
15.783156
 30
0.0
 10
20.513211
 20
15.754438
 30
0.0
 10
20.518892
 20
15.701251
 30
0.0
 10
20.540079
 20
12.010022
 30
0.0
 10
20.536989
 20
11.922498
 30
0.0
 10
20.507782
 20
11.872918
 30
0.0
 10
20.258960
 20
11.844658
 30
0.0
 10
20.094506
 20
11.867289
 30
0.0
 10
20.009879
 20
11.995549
 30
0.0
 10
19.548409
 20
13.657979
 30
0.0
 10
19.490056
 20
13.870695
 30
0.0
 10
19.428003
 20
13.990243
 30
0.0
 10
19.393908
 20
13.921567
 30
0.0
 10
19.389762
 20
13.798023
 30
0.0
 10
19.400097
 20
11.941283
 30
0.0
 10
19.393223
 20
11.887274
 30
0.0
 10
19.355585
 20
11.856372
 30
0.0
 10
19.090555
 20
11.837937
 30
0.0
 10
18.843570
 20
11.852172
 30
0.0
 10
18.812570
 20
11.881142
 30
0.0
 10
18.807885
 20
11.931970
 30
0.0
 10
18.786181
 20
15.707971
 30
0.0
 10
18.822329
 20
15.777381
 30
0.0
 10
19.045080
 20
15.788590
 30
0.0
 10
19.277470
 20
15.759393
 30
0.0
 10
19.362373
 20
15.609784
 30
0.0
 10
19.829012
 20
13.947354
 30
0.0
 10
19.855031
 20
13.853024
 30
0.0
 10
19.897741
 20
13.801119
 30
0.0
 10
19.931811
 20
13.862658
 30
0.0
 10
19.935982
 20
13.970611
 30
0.0
 10
19.926163
 20
15.691964
 30
0.0
 10
19.932929
 20
15.745981
 30
0.0
 10
19.969483
 20
15.776895
 30
0.0
 10
20.224853
 20
15.795310
 30
0.0
  0
LWPOLYLINE
  5
16a
100
AcDbEntity
  8
engraving_3
 62
7
100
AcDbPolyline
 90
15
 70
1
 10
21.500744
 20
15.783404
 30
0.0
 10
21.770849
 20
15.766897
 30
0.0
 10
21.809135
 20
15.737814
 30
0.0
 10
21.815971
 20
15.684688
 30
0.0
 10
21.781347
 20
11.930912
 30
0.0
 10
21.775095
 20
11.881144
 30
0.0
 10
21.738820
 20
11.854421
 30
0.0
 10
21.464054
 20
11.843573
 30
0.0
 10
21.216666
 20
11.855763
 30
0.0
 10
21.182863
 20
11.879507
 30
0.0
 10
21.177250
 20
11.925223
 30
0.0
 10
21.211873
 20
15.695536
 30
0.0
 10
21.220034
 20
15.745326
 30
0.0
 10
21.257122
 20
15.772133
 30
0.0
 10
21.500744
 20
15.783404
 30
0.0
  0
LWPOLYLINE
  5
16b
100
AcDbEntity
  8
engraving_3
 62
7
100
AcDbPolyline
 90
24
 70
1
 10
22.448490
 20
15.779170
 30
0.0
 10
23.938322
 20
15.745066
 30
0.0
 10
23.999152
 20
15.690905
 30
0.0
 10
24.005501
 20
15.477916
 30
0.0
 10
23.989336
 20
15.236894
 30
0.0
 10
23.931087
 20
15.191610
 30
0.0
 10
23.688725
 20
15.197431
 30
0.0
 10
23.524910
 20
15.189758
 30
0.0
 10
23.483936
 20
15.099023
 30
0.0
 10
23.480468
 20
14.982034
 30
0.0
 10
23.408638
 20
11.861300
 30
0.0
 10
23.343328
 20
11.815669
 30
0.0
 10
23.079976
 20
11.812722
 30
0.0
 10
22.847470
 20
11.825065
 30
0.0
 10
22.793689
 20
11.875746
 30
0.0
 10
22.865519
 20
14.995977
 30
0.0
 10
22.867289
 20
15.113148
 30
0.0
 10
22.830379
 20
15.205792
 30
0.0
 10
22.667081
 20
15.220873
 30
0.0
 10
22.458309
 20
15.226165
 30
0.0
 10
22.376983
 20
15.277540
 30
0.0
 10
22.363224
 20
15.504692
 30
0.0
 10
22.382505
 20
15.731598
 30
0.0
 10
22.448490
 20
15.779594
 30
0.0
  0
LWPOLYLINE
  5
16c
100
AcDbEntity
  8
engraving_3
 62
7
100
AcDbPolyline
 90
30
 70
1
 10
17.959358
 20
15.768852
 30
0.0
 10
18.086212
 20
15.747619
 30
0.0
 10
18.113871
 20
15.691858
 30
0.0
 10
18.189319
 20
12.616579
 30
0.0
 10
18.142243
 20
12.294204
 30
0.0
 10
17.988117
 20
12.040641
 30
0.0
 10
17.733441
 20
11.872476
 30
0.0
 10
17.384717
 20
11.806293
 30
0.0
 10
17.038703
 20
11.862430
 30
0.0
 10
16.777368
 20
12.029208
 30
0.0
 10
16.610418
 20
12.275604
 30
0.0
 10
16.547558
 20
12.570595
 30
0.0
 10
16.472111
 20
15.640185
 30
0.0
 10
16.481303
 20
15.693544
 30
0.0
 10
16.524430
 20
15.723423
 30
0.0
 10
16.785787
 20
15.744034
 30
0.0
 10
17.014602
 20
15.733421
 30
0.0
 10
17.061258
 20
15.705536
 30
0.0
 10
17.075691
 20
15.655160
 30
0.0
 10
17.148039
 20
12.715295
 30
0.0
 10
17.190716
 20
12.501152
 30
0.0
 10
17.257495
 20
12.429884
 30
0.0
 10
17.370247
 20
12.404701
 30
0.0
 10
17.479267
 20
12.434525
 30
0.0
 10
17.542767
 20
12.507601
 30
0.0
 10
17.576953
 20
12.725614
 30
0.0
 10
17.504606
 20
15.671168
 30
0.0
 10
17.548700
 20
15.747040
 30
0.0
 10
17.784692
 20
15.768323
 30
0.0
 10
17.959358
 20
15.768323
 30
0.0
  0
LWPOLYLINE
  5
16d
100
AcDbEntity
  8
engraving_3
 62
7
100
AcDbPolyline
 90
30
 70
1
 10
24.727421
 20
15.713025
 30
0.0
 10
24.960300
 20
15.690419
 30
0.0
 10
25.036016
 20
15.660321
 30
0.0
 10
25.067968
 20
15.609176
 30
0.0
 10
25.203877
 20
14.213895
 30
0.0
 10
25.235917
 20
14.161720
 30
0.0
 10
25.266406
 20
14.216991
 30
0.0
 10
25.502050
 20
15.591607
 30
0.0
 10
25.537328
 20
15.635283
 30
0.0
 10
25.612073
 20
15.659883
 30
0.0
 10
25.821411
 20
15.669104
 30
0.0
 10
26.022646
 20
15.649134
 30
0.0
 10
26.081857
 20
15.623064
 30
0.0
 10
26.094779
 20
15.579198
 30
0.0
 10
25.614705
 20
13.750875
 30
0.0
 10
25.539257
 20
13.420675
 30
0.0
 10
25.493782
 20
13.123521
 30
0.0
 10
25.440039
 20
11.780972
 30
0.0
 10
25.310707
 20
11.744569
 30
0.0
 10
25.127913
 20
11.748429
 30
0.0
 10
24.944745
 20
11.761436
 30
0.0
 10
24.863804
 20
11.782804
 30
0.0
 10
24.831290
 20
11.822327
 30
0.0
 10
24.889685
 20
13.130771
 30
0.0
 10
24.883483
 20
13.407763
 30
0.0
 10
24.818370
 20
13.749340
 30
0.0
 10
24.470588
 20
15.644312
 30
0.0
 10
24.491337
 20
15.686812
 30
0.0
 10
24.557807
 20
15.707869
 30
0.0
 10
24.727420
 20
15.713025
 30
0.0
  0
LWPOLYLINE
  5
16e
100
AcDbEntity
  8
engraving_3
 62
7
100
AcDbPolyline
 90
42
 70
1
 10
15.645805
 20
15.705881
 30
0.0
 10
15.763156
 20
15.687621
 30
0.0
 10
15.795149
 20
15.618542
 30
0.0
 10
15.962064
 20
11.868893
 30
0.0
 10
15.960636
 20
11.814825
 30
0.0
 10
15.930739
 20
11.782801
 30
0.0
 10
15.668026
 20
11.754197
 30
0.0
 10
15.416996
 20
11.758876
 30
0.0
 10
15.379612
 20
11.786213
 30
0.0
 10
15.370369
 20
11.836879
 30
0.0
 10
15.253064
 20
14.091499
 30
0.0
 10
15.205187
 20
14.118569
 30
0.0
 10
15.169348
 20
14.065570
 30
0.0
 10
15.011735
 20
13.289891
 30
0.0
 10
14.982078
 20
13.225115
 30
0.0
 10
14.891329
 20
13.199986
 30
0.0
 10
14.800867
 20
13.216400
 30
0.0
 10
14.763688
 20
13.273355
 30
0.0
 10
14.549747
 20
14.026279
 30
0.0
 10
14.500863
 20
14.076435
 30
0.0
 10
14.446911
 20
14.050092
 30
0.0
 10
14.530110
 20
11.805261
 30
0.0
 10
14.525240
 20
11.751029
 30
0.0
 10
14.488613
 20
11.718706
 30
0.0
 10
14.224186
 20
11.690035
 30
0.0
 10
13.984526
 20
11.695935
 30
0.0
 10
13.949267
 20
11.773749
 30
0.0
 10
13.781836
 20
15.529060
 30
0.0
 10
13.789077
 20
15.584032
 30
0.0
 10
13.825665
 20
15.612242
 30
0.0
 10
14.037634
 20
15.630872
 30
0.0
 10
14.278034
 20
15.604764
 30
0.0
 10
14.384900
 20
15.437091
 30
0.0
 10
14.669120
 20
14.641780
 30
0.0
 10
14.765835
 20
14.385643
 30
0.0
 10
14.843270
 20
14.276946
 30
0.0
 10
14.909093
 20
14.388315
 30
0.0
 10
14.984863
 20
14.656252
 30
0.0
 10
15.197253
 20
15.473259
 30
0.0
 10
15.280922
 20
15.652306
 30
0.0
 10
15.497493
 20
15.701674
 30
0.0
 10
15.645805
 20
15.705907
 30
0.0
  0
LWPOLYLINE
  5
16f
100
AcDbEntity
  8
engraving_3
 62
7
100
AcDbPolyline
 90
42
 70
1
 10
12.906954
 20
15.572557
 30
0.0
 10
13.024516
 20
15.557033
 30
0.0
 10
13.057849
 20
15.488843
 30
0.0
 10
13.307963
 20
11.743851
 30
0.0
 10
13.307644
 20
11.689708
 30
0.0
 10
13.278276
 20
11.656936
 30
0.0
 10
13.015991
 20
11.622408
 30
0.0
 10
12.765013
 20
11.622047
 30
0.0
 10
12.727104
 20
11.648724
 30
0.0
 10
12.716785
 20
11.698899
 30
0.0
 10
12.549870
 20
13.950423
 30
0.0
 10
12.501371
 20
13.976062
 30
0.0
 10
12.466671
 20
13.922007
 30
0.0
 10
12.326111
 20
13.143259
 30
0.0
 10
12.297917
 20
13.077847
 30
0.0
 10
12.207771
 20
13.050734
 30
0.0
 10
12.117246
 20
13.065240
 30
0.0
 10
12.079097
 20
13.121537
 30
0.0
 10
11.848104
 20
13.869831
 30
0.0
 10
11.798117
 20
13.918713
 30
0.0
 10
11.744751
 20
13.890998
 30
0.0
 10
11.877042
 20
11.648257
 30
0.0
 10
11.873444
 20
11.593927
 30
0.0
 10
11.837706
 20
11.560799
 30
0.0
 10
11.574218
 20
11.526284
 30
0.0
 10
11.334609
 20
11.526711
 30
0.0
 10
11.297750
 20
11.604310
 30
0.0
 10
11.047636
 20
15.354990
 30
0.0
 10
11.053540
 20
15.410122
 30
0.0
 10
11.089224
 20
15.439151
 30
0.0
 10
11.300333
 20
15.462491
 30
0.0
 10
11.541482
 20
15.441718
 30
0.0
 10
11.652250
 20
15.276462
 30
0.0
 10
11.954040
 20
14.487872
 30
0.0
 10
12.056513
 20
14.233766
 30
0.0
 10
12.136458
 20
14.126662
 30
0.0
 10
12.199623
 20
14.238899
 30
0.0
 10
12.269266
 20
14.508535
 30
0.0
 10
12.463570
 20
15.330702
 30
0.0
 10
12.543242
 20
15.511379
 30
0.0
 10
12.758642
 20
15.565334
 30
0.0
 10
12.906954
 20
15.572478
 30
0.0
  0
LWPOLYLINE
  5
170
100
AcDbEntity
  8
engraving_3
 62
7
100
AcDbPolyline
 90
23
 70
1
 10
28.101375
 20
15.550332
 30
0.0
 10
28.189742
 20
15.546099
 30
0.0
 10
28.763867
 20
15.505777
 30
0.0
 10
29.117762
 20
15.426501
 30
0.0
 10
29.276305
 20
15.343308
 30
0.0
 10
29.412406
 20
15.228282
 30
0.0
 10
29.508497
 20
15.094056
 30
0.0
 10
29.569798
 20
14.939975
 30
0.0
 10
29.599992
 20
14.592673
 30
0.0
 10
29.443412
 20
12.357658
 30
0.0
 10
29.372280
 20
12.049974
 30
0.0
 10
29.287264
 20
11.902237
 30
0.0
 10
29.158158
 20
11.760785
 30
0.0
 10
29.002114
 20
11.654917
 30
0.0
 10
28.831556
 20
11.591941
 30
0.0
 10
28.493599
 20
11.563908
 30
0.0
 10
27.908105
 20
11.604733
 30
0.0
 10
27.818931
 20
11.613911
 30
0.0
 10
27.770129
 20
11.654343
 30
0.0
 10
27.757209
 20
11.790762
 30
0.0
 10
28.008357
 20
15.383327
 30
0.0
 10
28.040913
 20
15.522313
 30
0.0
 10
28.101374
 20
15.550227
 30
0.0
  0
LWPOLYLINE
  5
171
100
AcDbEntity
  8
engraving_3
 62
7
100
AcDbPolyline
 90
25
 70
1
 10
30.791650
 20
15.339486
 30
0.0
 10
30.981303
 20
15.335253
 30
0.0
 10
31.180242
 20
15.302732
 30
0.0
 10
31.248420
 20
15.266118
 30
0.0
 10
31.275858
 20
15.207088
 30
0.0
 10
31.509435
 20
11.373223
 30
0.0
 10
31.484130
 20
11.340304
 30
0.0
 10
31.411435
 20
11.330155
 30
0.0
 10
31.195243
 20
11.344278
 30
0.0
 10
30.998247
 20
11.365699
 30
0.0
 10
30.942161
 20
11.390232
 30
0.0
 10
30.920324
 20
11.436273
 30
0.0
 10
30.881567
 20
12.284289
 30
0.0
 10
30.835473
 20
12.332278
 30
0.0
 10
30.722404
 20
12.343715
 30
0.0
 10
30.600015
 20
12.353164
 30
0.0
 10
30.549804
 20
12.313737
 30
0.0
 10
30.390641
 20
11.471913
 30
0.0
 10
30.296858
 20
11.428491
 30
0.0
 10
30.076448
 20
11.442994
 30
0.0
 10
29.905386
 20
11.464465
 30
0.0
 10
29.805147
 20
11.517924
 30
0.0
 10
30.681579
 20
15.276859
 30
0.0
 10
30.718570
 20
15.320343
 30
0.0
 10
30.791650
 20
15.339380
 30
0.0
  0
LWPOLYLINE
  5
172
100
AcDbEntity
  8
engraving_3
 62
7
100
AcDbPolyline
 90
20
 70
1
 10
9.699398
 20
15.323875
 30
0.0
 10
9.972434
 20
15.255648
 30
0.0
 10
10.191389
 20
15.105637
 30
0.0
 10
10.343408
 20
14.881555
 30
0.0
 10
10.415633
 20
14.591112
 30
0.0
 10
10.618205
 20
12.268785
 30
0.0
 10
10.595071
 20
11.938467
 30
0.0
 10
10.463043
 20
11.668720
 30
0.0
 10
10.221011
 20
11.478600
 30
0.0
 10
9.867863
 20
11.387167
 30
0.0
 10
9.516886
 20
11.418659
 30
0.0
 10
9.246104
 20
11.566561
 30
0.0
 10
9.064768
 20
11.809385
 30
0.0
 10
8.982129
 20
12.125645
 30
0.0
 10
8.779040
 20
14.447972
 30
0.0
 10
8.811815
 20
14.785407
 30
0.0
 10
8.960586
 20
15.053838
 30
0.0
 10
9.204878
 20
15.238186
 30
0.0
 10
9.524214
 20
15.323373
 30
0.0
 10
9.699398
 20
15.323373
 30
0.0
  0
LWPOLYLINE
  5
173
100
AcDbEntity
  8
engraving_3
 62
7
100
AcDbPolyline
 90
30
 70
1
 10
32.078393
 20
15.210713
 30
0.0
 10
32.247892
 20
15.204628
 30
0.0
 10
32.478687
 20
15.166650
 30
0.0
 10
32.552199
 20
15.131646
 30
0.0
 10
32.580688
 20
15.078527
 30
0.0
 10
32.624613
 20
13.677585
 30
0.0
 10
32.653035
 20
13.623319
 30
0.0
 10
32.687141
 20
13.676553
 30
0.0
 10
33.012703
 20
15.032543
 30
0.0
 10
33.050818
 20
15.073796
 30
0.0
 10
33.127104
 20
15.093430
 30
0.0
 10
33.336714
 20
15.088873
 30
0.0
 10
33.536094
 20
15.055760
 30
0.0
 10
33.593390
 20
15.025926
 30
0.0
 10
33.603365
 20
14.981372
 30
0.0
 10
33.003918
 20
13.188714
 30
0.0
 10
32.907283
 20
12.864203
 30
0.0
 10
32.841654
 20
12.570145
 30
0.0
 10
32.699544
 20
11.234317
 30
0.0
 10
32.568311
 20
11.206545
 30
0.0
 10
32.386385
 20
11.222411
 30
0.0
 10
32.204552
 20
11.247496
 30
0.0
 10
32.125254
 20
11.274259
 30
0.0
 10
32.095446
 20
11.315941
 30
0.0
 10
32.239624
 20
12.617162
 30
0.0
 10
32.252025
 20
12.894127
 30
0.0
 10
32.209133
 20
13.239329
 30
0.0
 10
31.986925
 20
15.152928
 30
0.0
 10
32.010541
 20
15.194054
 30
0.0
 10
32.078392
 20
15.210793
 30
0.0
  0
LWPOLYLINE
  5
174
100
AcDbEntity
  8
engraving_3
 62
7
100
AcDbPolyline
 90
47
 70
1
 10
7.561027
 20
15.118215
 30
0.0
 10
7.837163
 20
15.042607
 30
0.0
 10
8.045521
 20
14.884234
 30
0.0
 10
8.183714
 20
14.665342
 30
0.0
 10
8.249357
 20
14.408179
 30
0.0
 10
8.281396
 20
14.105363
 30
0.0
 10
8.232918
 20
14.041880
 30
0.0
 10
7.986324
 20
13.999927
 30
0.0
 10
7.776112
 20
13.981251
 30
0.0
 10
7.721121
 20
13.993434
 30
0.0
 10
7.699003
 20
14.031968
 30
0.0
 10
7.667997
 20
14.323936
 30
0.0
 10
7.603061
 20
14.465938
 30
0.0
 10
7.531744
 20
14.521617
 30
0.0
 10
7.434936
 20
14.537375
 30
0.0
 10
7.331332
 20
14.496549
 30
0.0
 10
7.274213
 20
14.413844
 30
0.0
 10
7.255619
 20
14.194766
 30
0.0
 10
7.480928
 20
12.078602
 30
0.0
 10
7.545448
 20
11.864167
 30
0.0
 10
7.618289
 20
11.797998
 30
0.0
 10
7.727942
 20
11.781475
 30
0.0
 10
7.826698
 20
11.814616
 30
0.0
 10
7.884544
 20
11.877492
 30
0.0
 10
7.911910
 20
12.027961
 30
0.0
 10
7.880904
 20
12.319929
 30
0.0
 10
7.887869
 20
12.365702
 30
0.0
 10
7.929855
 20
12.391756
 30
0.0
 10
8.170292
 20
12.424333
 30
0.0
 10
8.403497
 20
12.433690
 30
0.0
 10
8.450061
 20
12.406425
 30
0.0
 10
8.467948
 20
12.348371
 30
0.0
 10
8.498954
 20
12.056377
 30
0.0
 10
8.482624
 20
11.731756
 30
0.0
 10
8.359282
 20
11.467633
 30
0.0
 10
8.128785
 20
11.280454
 30
0.0
 10
7.790987
 20
11.186665
 30
0.0
 10
7.444076
 20
11.213277
 30
0.0
 10
7.170000
 20
11.356157
 30
0.0
 10
6.982142
 20
11.589089
 30
0.0
 10
6.893884
 20
11.885853
 30
0.0
 10
6.643770
 20
14.237655
 30
0.0
 10
6.667369
 20
14.549614
 30
0.0
 10
6.801950
 20
14.818581
 30
0.0
 10
7.039859
 20
15.016577
 30
0.0
 10
7.373441
 20
15.115622
 30
0.0
 10
7.561027
 20
15.118268
 30
0.0
  0
LWPOLYLINE
  5
175
100
AcDbEntity
  8
engraving_3
 62
7
100
AcDbPolyline
 90
16
 70
1
 10
28.647078
 20
14.917184
 30
0.0
 10
28.596952
 20
14.900780
 30
0.0
 10
28.574732
 20
14.823284
 30
0.0
 10
28.397482
 20
12.289581
 30
0.0
 10
28.411952
 20
12.175387
 30
0.0
 10
28.540626
 20
12.154749
 30
0.0
 10
28.651255
 20
12.168481
 30
0.0
 10
28.761802
 20
12.241586
 30
0.0
 10
28.828001
 20
12.379665
 30
0.0
 10
28.842933
 20
12.512863
 30
0.0
 10
28.983493
 20
14.517399
 30
0.0
 10
28.983881
 20
14.685654
 30
0.0
 10
28.931817
 20
14.832121
 30
0.0
 10
28.863681
 20
14.887829
 30
0.0
 10
28.750949
 20
14.912739
 30
0.0
 10
28.647080
 20
14.917237
 30
0.0
  0
LWPOLYLINE
  5
176
100
AcDbEntity
  8
engraving_3
 62
7
100
AcDbPolyline
 90
15
 70
1
 10
9.574858
 20
14.744068
 30
0.0
 10
9.473012
 20
14.704326
 30
0.0
 10
9.414457
 20
14.619531
 30
0.0
 10
9.390889
 20
14.388018
 30
0.0
 10
9.572790
 20
12.301858
 30
0.0
 10
9.621626
 20
12.076571
 30
0.0
 10
9.692318
 20
12.003018
 30
0.0
 10
9.816186
 20
11.983008
 30
0.0
 10
9.929893
 20
12.023754
 30
0.0
 10
9.987130
 20
12.108437
 30
0.0
 10
10.000154
 20
12.339058
 30
0.0
 10
9.818253
 20
14.425245
 30
0.0
 10
9.752549
 20
14.649039
 30
0.0
 10
9.679748
 20
14.722406
 30
0.0
 10
9.574858
 20
14.744068
 30
0.0
  0
SPLINE
  5
177
100
AcDbEntity
  8
vector_engraving
 62
5
100
AcDbSpline
 70
8
 71
3
 72
8
 73
4
 74
0
 40
0
 40
0
 40
0
 40
0
 40
1
 40
1
 40
1
 40
1
 10
7.698870
 20
14.031986
 30
0.0
 10
7.706670
 20
13.958986
 30
0.0
 10
7.800849
 20
13.980386
 30
0.0
 10
7.986073
 20
14.000086
 30
0.0
  0
SPLINE
  5
178
100
AcDbEntity
  8
vector_engraving
 62
5
100
AcDbSpline
 70
8
 71
3
 72
8
 73
4
 74
0
 40
0
 40
0
 40
0
 40
0
 40
1
 40
1
 40
1
 40
1
 10
7.986073
 20
14.000086
 30
0.0
 10
8.244264
 20
14.027486
 30
0.0
 10
8.287378
 20
14.049086
 30
0.0
 10
8.281413
 20
14.105256
 30
0.0
  0
SPLINE
  5
179
100
AcDbEntity
  8
vector_engraving
 62
5
100
AcDbSpline
 70
8
 71
3
 72
8
 73
4
 74
0
 40
0
 40
0
 40
0
 40
0
 40
1
 40
1
 40
1
 40
1
 10
8.281413
 20
14.105256
 30
0.0
 10
8.274813
 20
14.166956
 30
0.0
 10
8.256363
 20
14.340996
 30
0.0
 10
8.249203
 20
14.408346
 30
0.0
  0
SPLINE
  5
17a
100
AcDbEntity
  8
vector_engraving
 62
5
100
AcDbSpline
 70
8
 71
3
 72
8
 73
4
 74
0
 40
0
 40
0
 40
0
 40
0
 40
1
 40
1
 40
1
 40
1
 10
8.249203
 20
14.408346
 30
0.0
 10
8.205663
 20
14.818086
 30
0.0
 10
7.901302
 20
15.171726
 30
0.0
 10
7.373695
 20
15.115666
 30
0.0
  0
SPLINE
  5
17b
100
AcDbEntity
  8
vector_engraving
 62
5
100
AcDbSpline
 70
8
 71
3
 72
8
 73
4
 74
0
 40
0
 40
0
 40
0
 40
0
 40
1
 40
1
 40
1
 40
1
 10
7.373695
 20
15.115666
 30
0.0
 10
6.868539
 20
15.061966
 30
0.0
 10
6.598004
 20
14.669956
 30
0.0
 10
6.643929
 20
14.237766
 30
0.0
  0
SPLINE
  5
17c
100
AcDbEntity
  8
vector_engraving
 62
5
100
AcDbSpline
 70
8
 71
3
 72
8
 73
4
 74
0
 40
0
 40
0
 40
0
 40
0
 40
1
 40
1
 40
1
 40
1
 10
6.643929
 20
14.237766
 30
0.0
 10
6.733389
 20
13.395846
 30
0.0
 10
6.804369
 20
12.727916
 30
0.0
 10
6.893834
 20
11.885986
 30
0.0
  0
SPLINE
  5
17d
100
AcDbEntity
  8
vector_engraving
 62
5
100
AcDbSpline
 70
8
 71
3
 72
8
 73
4
 74
0
 40
0
 40
0
 40
0
 40
0
 40
1
 40
1
 40
1
 40
1
 10
6.893834
 20
11.885986
 30
0.0
 10
6.939164
 20
11.459416
 30
0.0
 10
7.286041
 20
11.132996
 30
0.0
 10
7.791197
 20
11.186676
 30
0.0
  0
SPLINE
  5
17e
100
AcDbEntity
  8
vector_engraving
 62
5
100
AcDbSpline
 70
8
 71
3
 72
8
 73
4
 74
0
 40
0
 40
0
 40
0
 40
0
 40
1
 40
1
 40
1
 40
1
 10
7.791197
 20
11.186676
 30
0.0
 10
8.313191
 20
11.242176
 30
0.0
 10
8.548611
 20
11.590706
 30
0.0
 10
8.499108
 20
12.056566
 30
0.0
  0
SPLINE
  5
17f
100
AcDbEntity
  8
vector_engraving
 62
5
100
AcDbSpline
 70
8
 71
3
 72
8
 73
4
 74
0
 40
0
 40
0
 40
0
 40
0
 40
1
 40
1
 40
1
 40
1
 10
8.499108
 20
12.056566
 30
0.0
 10
8.491308
 20
12.129566
 30
0.0
 10
8.477038
 20
12.264246
 30
0.0
 10
8.468088
 20
12.348436
 30
0.0
  0
SPLINE
  5
180
100
AcDbEntity
  8
vector_engraving
 62
5
100
AcDbSpline
 70
8
 71
3
 72
8
 73
4
 74
0
 40
0
 40
0
 40
0
 40
0
 40
1
 40
1
 40
1
 40
1
 10
8.468088
 20
12.348436
 30
0.0
 10
8.457348
 20
12.449466
 30
0.0
 10
8.406238
 20
12.449716
 30
0.0
 10
8.170501
 20
12.424636
 30
0.0
  0
SPLINE
  5
181
100
AcDbEntity
  8
vector_engraving
 62
5
100
AcDbSpline
 70
8
 71
3
 72
8
 73
4
 74
0
 40
0
 40
0
 40
0
 40
0
 40
1
 40
1
 40
1
 40
1
 10
8.170501
 20
12.424636
 30
0.0
 10
7.923536
 20
12.398336
 30
0.0
 10
7.872424
 20
12.398636
 30
0.0
 10
7.880774
 20
12.320056
 30
0.0
  0
SPLINE
  5
182
100
AcDbEntity
  8
vector_engraving
 62
5
100
AcDbSpline
 70
8
 71
3
 72
8
 73
4
 74
0
 40
0
 40
0
 40
0
 40
0
 40
1
 40
1
 40
1
 40
1
 10
7.880774
 20
12.320056
 30
0.0
 10
7.894494
 20
12.190956
 30
0.0
 10
7.903434
 20
12.106766
 30
0.0
 10
7.911784
 20
12.028186
 30
0.0
  0
SPLINE
  5
183
100
AcDbEntity
  8
vector_engraving
 62
5
100
AcDbSpline
 70
8
 71
3
 72
8
 73
4
 74
0
 40
0
 40
0
 40
0
 40
0
 40
1
 40
1
 40
1
 40
1
 10
7.911784
 20
12.028186
 30
0.0
 10
7.921284
 20
11.938386
 30
0.0
 10
7.890734
 20
11.798896
 30
0.0
 10
7.727966
 20
11.781606
 30
0.0
  0
SPLINE
  5
184
100
AcDbEntity
  8
vector_engraving
 62
5
100
AcDbSpline
 70
8
 71
3
 72
8
 73
4
 74
0
 40
0
 40
0
 40
0
 40
0
 40
1
 40
1
 40
1
 40
1
 10
7.727966
 20
11.781606
 30
0.0
 10
7.553968
 20
11.763106
 30
0.0
 10
7.497382
 20
11.921716
 30
0.0
 10
7.480682
 20
12.078876
 30
0.0
  0
SPLINE
  5
185
100
AcDbEntity
  8
vector_engraving
 62
5
100
AcDbSpline
 70
8
 71
3
 72
8
 73
4
 74
0
 40
0
 40
0
 40
0
 40
0
 40
1
 40
1
 40
1
 40
1
 10
7.480682
 20
12.078876
 30
0.0
 10
7.403742
 20
12.802926
 30
0.0
 10
7.332170
 20
13.476466
 30
0.0
 10
7.255827
 20
14.194916
 30
0.0
  0
SPLINE
  5
186
100
AcDbEntity
  8
vector_engraving
 62
5
100
AcDbSpline
 70
8
 71
3
 72
8
 73
4
 74
0
 40
0
 40
0
 40
0
 40
0
 40
1
 40
1
 40
1
 40
1
 10
7.255827
 20
14.194916
 30
0.0
 10
7.240317
 20
14.340846
 30
0.0
 10
7.261127
 20
14.519016
 30
0.0
 10
7.435118
 20
14.537506
 30
0.0
  0
SPLINE
  5
187
100
AcDbEntity
  8
vector_engraving
 62
5
100
AcDbSpline
 70
8
 71
3
 72
8
 73
4
 74
0
 40
0
 40
0
 40
0
 40
0
 40
1
 40
1
 40
1
 40
1
 10
7.435118
 20
14.537506
 30
0.0
 10
7.581052
 20
14.553006
 30
0.0
 10
7.659494
 20
14.402416
 30
0.0
 10
7.667844
 20
14.323836
 30
0.0
  0
SPLINE
  5
188
100
AcDbEntity
  8
vector_engraving
 62
5
100
AcDbSpline
 70
8
 71
3
 72
8
 73
4
 74
0
 40
0
 40
0
 40
0
 40
0
 40
1
 40
1
 40
1
 40
1
 10
7.667844
 20
14.323836
 30
0.0
 10
7.673844
 20
14.267736
 30
0.0
 10
7.690504
 20
14.110546
 30
0.0
 10
7.698854
 20
14.031966
 30
0.0
  0
LWPOLYLINE
  5
189
100
AcDbEntity
  8
engraving_3
 62
7
100
AcDbPolyline
 90
11
 70
1
 10
30.868131
 20
14.053161
 30
0.0
 10
30.831462
 20
13.983000
 30
0.0
 10
30.814388
 20
13.893988
 30
0.0
 10
30.645922
 20
12.820679
 30
0.0
 10
30.665144
 20
12.781507
 30
0.0
 10
30.754443
 20
12.765910
 30
0.0
 10
30.845847
 20
12.758548
 30
0.0
 10
30.881567
 20
12.794327
 30
0.0
 10
30.905337
 20
13.897110
 30
0.0
 10
30.902423
 20
13.984373
 30
0.0
 10
30.868130
 20
14.053161
 30
0.0
  0
SPLINE
  5
18a
100
AcDbEntity
  8
vector_engraving
 62
5
100
AcDbSpline
 70
8
 71
3
 72
8
 73
4
 74
0
 40
0
 40
0
 40
0
 40
0
 40
1
 40
1
 40
1
 40
1
 10
10.618310
 20
12.268736
 30
0.0
 10
10.545127
 20
13.106566
 30
0.0
 10
10.487662
 20
13.764456
 30
0.0
 10
10.415461
 20
14.591046
 30
0.0
  0
SPLINE
  5
18b
100
AcDbEntity
  8
vector_engraving
 62
5
100
AcDbSpline
 70
8
 71
3
 72
8
 73
4
 74
0
 40
0
 40
0
 40
0
 40
0
 40
1
 40
1
 40
1
 40
1
 10
10.415461
 20
14.591046
 30
0.0
 10
10.372730
 20
15.080246
 30
0.0
 10
10.007843
 20
15.365666
 30
0.0
 10
9.524262
 20
15.323426
 30
0.0
  0
SPLINE
  5
18c
100
AcDbEntity
  8
vector_engraving
 62
5
100
AcDbSpline
 70
8
 71
3
 72
8
 73
4
 74
0
 40
0
 40
0
 40
0
 40
0
 40
1
 40
1
 40
1
 40
1
 10
9.524262
 20
15.323426
 30
0.0
 10
9.057551
 20
15.282626
 30
0.0
 10
8.736427
 20
14.937326
 30
0.0
 10
8.779158
 20
14.448116
 30
0.0
  0
SPLINE
  5
18d
100
AcDbEntity
  8
vector_engraving
 62
5
100
AcDbSpline
 70
8
 71
3
 72
8
 73
4
 74
0
 40
0
 40
0
 40
0
 40
0
 40
1
 40
1
 40
1
 40
1
 10
8.779158
 20
14.448116
 30
0.0
 10
8.852338
 20
13.610286
 30
0.0
 10
8.908333
 20
12.969256
 30
0.0
 10
8.982007
 20
12.125806
 30
0.0
  0
SPLINE
  5
18e
100
AcDbEntity
  8
vector_engraving
 62
5
100
AcDbSpline
 70
8
 71
3
 72
8
 73
4
 74
0
 40
0
 40
0
 40
0
 40
0
 40
1
 40
1
 40
1
 40
1
 10
8.982007
 20
12.125806
 30
0.0
 10
9.022277
 20
11.664716
 30
0.0
 10
9.350754
 20
11.342116
 30
0.0
 10
9.868074
 20
11.387306
 30
0.0
  0
SPLINE
  5
18f
100
AcDbEntity
  8
vector_engraving
 62
5
100
AcDbSpline
 70
8
 71
3
 72
8
 73
4
 74
0
 40
0
 40
0
 40
0
 40
0
 40
1
 40
1
 40
1
 40
1
 10
9.868074
 20
11.387306
 30
0.0
 10
10.413508
 20
11.434906
 30
0.0
 10
10.659567
 20
11.796396
 30
0.0
 10
10.618310
 20
12.268736
 30
0.0
  0
LWPOLYLINE
  5
190
100
AcDbEntity
  8
vector_engraving
 62
5
100
AcDbPolyline
 90
1
 70
1
 10
7.698854
 20
14.031966
 30
0.0
  0
SPLINE
  5
191
100
AcDbEntity
  8
vector_engraving
 62
5
100
AcDbSpline
 70
8
 71
3
 72
8
 73
4
 74
0
 40
0
 40
0
 40
0
 40
0
 40
1
 40
1
 40
1
 40
1
 10
9.817997
 20
14.425536
 30
0.0
 10
9.881357
 20
13.700166
 30
0.0
 10
9.936366
 20
13.070386
 30
0.0
 10
10.000216
 20
12.339396
 30
0.0
  0
SPLINE
  5
192
100
AcDbEntity
  8
vector_engraving
 62
5
100
AcDbSpline
 70
8
 71
3
 72
8
 73
4
 74
0
 40
0
 40
0
 40
0
 40
0
 40
1
 40
1
 40
1
 40
1
 10
10.000216
 20
12.339396
 30
0.0
 10
10.013966
 20
12.181946
 30
0.0
 10
10.012816
 20
12.000536
 30
0.0
 10
9.816011
 20
11.983346
 30
0.0
  0
SPLINE
  5
193
100
AcDbEntity
  8
vector_engraving
 62
5
100
AcDbSpline
 70
8
 71
3
 72
8
 73
4
 74
0
 40
0
 40
0
 40
0
 40
0
 40
1
 40
1
 40
1
 40
1
 10
9.816011
 20
11.983346
 30
0.0
 10
9.607958
 20
11.965146
 30
0.0
 10
9.586618
 20
12.144616
 30
0.0
 10
9.572866
 20
12.302066
 30
0.0
  0
SPLINE
  5
194
100
AcDbEntity
  8
vector_engraving
 62
5
100
AcDbSpline
 70
8
 71
3
 72
8
 73
4
 74
0
 40
0
 40
0
 40
0
 40
0
 40
1
 40
1
 40
1
 40
1
 10
9.572866
 20
12.302066
 30
0.0
 10
9.509016
 20
13.033056
 30
0.0
 10
9.454005
 20
13.662836
 30
0.0
 10
9.390646
 20
14.388216
 30
0.0
  0
SPLINE
  5
195
100
AcDbEntity
  8
vector_engraving
 62
5
100
AcDbSpline
 70
8
 71
3
 72
8
 73
4
 74
0
 40
0
 40
0
 40
0
 40
0
 40
1
 40
1
 40
1
 40
1
 10
9.390646
 20
14.388216
 30
0.0
 10
9.376896
 20
14.545656
 30
0.0
 10
9.406166
 20
14.729526
 30
0.0
 10
9.574852
 20
14.744256
 30
0.0
  0
SPLINE
  5
196
100
AcDbEntity
  8
vector_engraving
 62
5
100
AcDbSpline
 70
8
 71
3
 72
8
 73
4
 74
0
 40
0
 40
0
 40
0
 40
0
 40
1
 40
1
 40
1
 40
1
 10
9.574852
 20
14.744256
 30
0.0
 10
9.737920
 20
14.758456
 30
0.0
 10
9.804244
 20
14.582986
 30
0.0
 10
9.817997
 20
14.425536
 30
0.0
  0
LWPOLYLINE
  5
197
100
AcDbEntity
  8
vector_engraving
 62
5
100
AcDbPolyline
 90
1
 70
1
 10
10.618310
 20
12.268736
 30
0.0
  0
SPLINE
  5
198
100
AcDbEntity
  8
vector_engraving
 62
5
100
AcDbSpline
 70
8
 71
3
 72
8
 73
4
 74
0
 40
0
 40
0
 40
0
 40
0
 40
1
 40
1
 40
1
 40
1
 10
11.877210
 20
11.648396
 30
0.0
 10
11.824650
 20
12.436876
 30
0.0
 10
11.757825
 20
13.439356
 30
0.0
 10
11.744686
 20
13.891036
 30
0.0
  0
SPLINE
  5
199
100
AcDbEntity
  8
vector_engraving
 62
5
100
AcDbSpline
 70
8
 71
3
 72
8
 73
4
 74
0
 40
0
 40
0
 40
0
 40
0
 40
1
 40
1
 40
1
 40
1
 10
11.744686
 20
13.891036
 30
0.0
 10
11.764210
 20
13.937636
 30
0.0
 10
11.832920
 20
13.925236
 30
0.0
 10
11.847939
 20
13.869636
 30
0.0
  0
SPLINE
  5
19a
100
AcDbEntity
  8
vector_engraving
 62
5
100
AcDbSpline
 70
8
 71
3
 72
8
 73
4
 74
0
 40
0
 40
0
 40
0
 40
0
 40
1
 40
1
 40
1
 40
1
 10
11.847939
 20
13.869636
 30
0.0
 10
11.936171
 20
13.564386
 30
0.0
 10
12.022150
 20
13.292926
 30
0.0
 10
12.078843
 20
13.121336
 30
0.0
  0
SPLINE
  5
19b
100
AcDbEntity
  8
vector_engraving
 62
5
100
AcDbSpline
 70
8
 71
3
 72
8
 73
4
 74
0
 40
0
 40
0
 40
0
 40
0
 40
1
 40
1
 40
1
 40
1
 10
12.078843
 20
13.121336
 30
0.0
 10
12.099118
 20
13.071736
 30
0.0
 10
12.117891
 20
13.044736
 30
0.0
 10
12.208002
 20
13.050736
 30
0.0
  0
SPLINE
  5
19c
100
AcDbEntity
  8
vector_engraving
 62
5
100
AcDbSpline
 70
8
 71
3
 72
8
 73
4
 74
0
 40
0
 40
0
 40
0
 40
0
 40
1
 40
1
 40
1
 40
1
 10
12.208002
 20
13.050736
 30
0.0
 10
12.298113
 20
13.056736
 30
0.0
 10
12.318764
 20
13.086436
 30
0.0
 10
12.326274
 20
13.143436
 30
0.0
  0
SPLINE
  5
19d
100
AcDbEntity
  8
vector_engraving
 62
5
100
AcDbSpline
 70
8
 71
3
 72
8
 73
4
 74
0
 40
0
 40
0
 40
0
 40
0
 40
1
 40
1
 40
1
 40
1
 10
12.326274
 20
13.143436
 30
0.0
 10
12.369829
 20
13.338676
 30
0.0
 10
12.420143
 20
13.602256
 30
0.0
 10
12.466702
 20
13.922146
 30
0.0
  0
SPLINE
  5
19e
100
AcDbEntity
  8
vector_engraving
 62
5
100
AcDbSpline
 70
8
 71
3
 72
8
 73
4
 74
0
 40
0
 40
0
 40
0
 40
0
 40
1
 40
1
 40
1
 40
1
 10
12.466702
 20
13.922146
 30
0.0
 10
12.474212
 20
13.979246
 30
0.0
 10
12.523773
 20
13.999546
 30
0.0
 10
12.549679
 20
13.950346
 30
0.0
  0
SPLINE
  5
19f
100
AcDbEntity
  8
vector_engraving
 62
5
100
AcDbSpline
 70
8
 71
3
 72
8
 73
4
 74
0
 40
0
 40
0
 40
0
 40
0
 40
1
 40
1
 40
1
 40
1
 10
12.549679
 20
13.950346
 30
0.0
 10
12.596234
 20
13.506556
 30
0.0
 10
12.664186
 20
12.487166
 30
0.0
 10
12.716745
 20
11.698696
 30
0.0
  0
SPLINE
  5
1a0
100
AcDbEntity
  8
vector_engraving
 62
5
100
AcDbSpline
 70
8
 71
3
 72
8
 73
4
 74
0
 40
0
 40
0
 40
0
 40
0
 40
1
 40
1
 40
1
 40
1
 10
12.716745
 20
11.698696
 30
0.0
 10
12.722375
 20
11.614196
 30
0.0
 10
12.740023
 20
11.604096
 30
0.0
 10
13.015989
 20
11.622496
 30
0.0
  0
SPLINE
  5
1a1
100
AcDbEntity
  8
vector_engraving
 62
5
100
AcDbSpline
 70
8
 71
3
 72
8
 73
4
 74
0
 40
0
 40
0
 40
0
 40
0
 40
1
 40
1
 40
1
 40
1
 10
13.015989
 20
11.622496
 30
0.0
 10
13.320114
 20
11.642796
 30
0.0
 10
13.313731
 20
11.653696
 30
0.0
 10
13.307724
 20
11.743766
 30
0.0
  0
SPLINE
  5
1a2
100
AcDbEntity
  8
vector_engraving
 62
5
100
AcDbSpline
 70
8
 71
3
 72
8
 73
4
 74
0
 40
0
 40
0
 40
0
 40
0
 40
1
 40
1
 40
1
 40
1
 10
13.307724
 20
11.743766
 30
0.0
 10
13.212366
 20
13.174286
 30
0.0
 10
13.118134
 20
14.587906
 30
0.0
 10
13.058065
 20
15.489016
 30
0.0
  0
SPLINE
  5
1a3
100
AcDbEntity
  8
vector_engraving
 62
5
100
AcDbSpline
 70
8
 71
3
 72
8
 73
4
 74
0
 40
0
 40
0
 40
0
 40
0
 40
1
 40
1
 40
1
 40
1
 10
13.058065
 20
15.489016
 30
0.0
 10
13.052055
 20
15.579116
 30
0.0
 10
13.000995
 20
15.581416
 30
0.0
 10
12.758822
 20
15.565216
 30
0.0
  0
SPLINE
  5
1a4
100
AcDbEntity
  8
vector_engraving
 62
5
100
AcDbSpline
 70
8
 71
3
 72
8
 73
4
 74
0
 40
0
 40
0
 40
0
 40
0
 40
1
 40
1
 40
1
 40
1
 10
12.758822
 20
15.565216
 30
0.0
 10
12.539176
 20
15.550616
 30
0.0
 10
12.502005
 20
15.514116
 30
0.0
 10
12.463331
 20
15.330546
 30
0.0
  0
SPLINE
  5
1a5
100
AcDbEntity
  8
vector_engraving
 62
5
100
AcDbSpline
 70
8
 71
3
 72
8
 73
4
 74
0
 40
0
 40
0
 40
0
 40
0
 40
1
 40
1
 40
1
 40
1
 10
12.463331
 20
15.330546
 30
0.0
 10
12.392742
 20
15.031686
 30
0.0
 10
12.339801
 20
14.807536
 30
0.0
 10
12.269212
 20
14.508666
 30
0.0
  0
SPLINE
  5
1a6
100
AcDbEntity
  8
vector_engraving
 62
5
100
AcDbSpline
 70
8
 71
3
 72
8
 73
4
 74
0
 40
0
 40
0
 40
0
 40
0
 40
1
 40
1
 40
1
 40
1
 10
12.269212
 20
14.508666
 30
0.0
 10
12.221151
 20
14.296156
 30
0.0
 10
12.175719
 20
14.129076
 30
0.0
 10
12.136295
 20
14.126446
 30
0.0
  0
SPLINE
  5
1a7
100
AcDbEntity
  8
vector_engraving
 62
5
100
AcDbSpline
 70
8
 71
3
 72
8
 73
4
 74
0
 40
0
 40
0
 40
0
 40
0
 40
1
 40
1
 40
1
 40
1
 10
12.136295
 20
14.126446
 30
0.0
 10
12.096871
 20
14.123446
 30
0.0
 10
12.023282
 20
14.294276
 30
0.0
 10
11.953823
 20
14.487636
 30
0.0
  0
SPLINE
  5
1a8
100
AcDbEntity
  8
vector_engraving
 62
5
100
AcDbSpline
 70
8
 71
3
 72
8
 73
4
 74
0
 40
0
 40
0
 40
0
 40
0
 40
1
 40
1
 40
1
 40
1
 10
11.953823
 20
14.487636
 30
0.0
 10
11.857331
 20
14.747086
 30
0.0
 10
11.755957
 20
14.994896
 30
0.0
 10
11.652331
 20
15.276486
 30
0.0
  0
SPLINE
  5
1a9
100
AcDbEntity
  8
vector_engraving
 62
5
100
AcDbSpline
 70
8
 71
3
 72
8
 73
4
 74
0
 40
0
 40
0
 40
0
 40
0
 40
1
 40
1
 40
1
 40
1
 10
11.652331
 20
15.276486
 30
0.0
 10
11.583998
 20
15.452956
 30
0.0
 10
11.542697
 20
15.478486
 30
0.0
 10
11.300524
 20
15.462346
 30
0.0
  0
SPLINE
  5
1aa
100
AcDbEntity
  8
vector_engraving
 62
5
100
AcDbSpline
 70
8
 71
3
 72
8
 73
4
 74
0
 40
0
 40
0
 40
0
 40
0
 40
1
 40
1
 40
1
 40
1
 10
11.300524
 20
15.462346
 30
0.0
 10
11.080878
 20
15.447746
 30
0.0
 10
11.041079
 20
15.450746
 30
0.0
 10
11.047461
 20
15.354966
 30
0.0
  0
SPLINE
  5
1ab
100
AcDbEntity
  8
vector_engraving
 62
5
100
AcDbSpline
 70
8
 71
3
 72
8
 73
4
 74
0
 40
0
 40
0
 40
0
 40
0
 40
1
 40
1
 40
1
 40
1
 10
11.047461
 20
15.354966
 30
0.0
 10
11.136813
 20
14.014566
 30
0.0
 10
11.203638
 20
13.012076
 30
0.0
 10
11.297495
 20
11.604086
 30
0.0
  0
SPLINE
  5
1ac
100
AcDbEntity
  8
vector_engraving
 62
5
100
AcDbSpline
 70
8
 71
3
 72
8
 73
4
 74
0
 40
0
 40
0
 40
0
 40
0
 40
1
 40
1
 40
1
 40
1
 10
11.297495
 20
11.604086
 30
0.0
 10
11.303125
 20
11.519586
 30
0.0
 10
11.298245
 20
11.507986
 30
0.0
 10
11.574211
 20
11.526386
 30
0.0
  0
SPLINE
  5
1ad
100
AcDbEntity
  8
vector_engraving
 62
5
100
AcDbSpline
 70
8
 71
3
 72
8
 73
4
 74
0
 40
0
 40
0
 40
0
 40
0
 40
1
 40
1
 40
1
 40
1
 10
11.574211
 20
11.526386
 30
0.0
 10
11.867072
 20
11.545886
 30
0.0
 10
11.883217
 20
11.558286
 30
0.0
 10
11.877210
 20
11.648406
 30
0.0
  0
LWPOLYLINE
  5
1ae
100
AcDbEntity
  8
vector_engraving
 62
5
100
AcDbPolyline
 90
1
 70
1
 10
9.817997
 20
14.425536
 30
0.0
  0
SPLINE
  5
1af
100
AcDbEntity
  8
vector_engraving
 62
5
100
AcDbSpline
 70
8
 71
3
 72
8
 73
4
 74
0
 40
0
 40
0
 40
0
 40
0
 40
1
 40
1
 40
1
 40
1
 10
14.529853
 20
11.805196
 30
0.0
 10
14.494691
 20
12.594636
 30
0.0
 10
14.449985
 20
13.598346
 30
0.0
 10
14.446809
 20
14.050206
 30
0.0
  0
SPLINE
  5
1b0
100
AcDbEntity
  8
vector_engraving
 62
5
100
AcDbSpline
 70
8
 71
3
 72
8
 73
4
 74
0
 40
0
 40
0
 40
0
 40
0
 40
1
 40
1
 40
1
 40
1
 10
14.446809
 20
14.050206
 30
0.0
 10
14.467355
 20
14.096306
 30
0.0
 10
14.535775
 20
14.082406
 30
0.0
 10
14.549564
 20
14.026506
 30
0.0
  0
SPLINE
  5
1b1
100
AcDbEntity
  8
vector_engraving
 62
5
100
AcDbSpline
 70
8
 71
3
 72
8
 73
4
 74
0
 40
0
 40
0
 40
0
 40
0
 40
1
 40
1
 40
1
 40
1
 10
14.549564
 20
14.026506
 30
0.0
 10
14.631044
 20
13.719386
 30
0.0
 10
14.711017
 20
13.446096
 30
0.0
 10
14.763914
 20
13.273296
 30
0.0
  0
SPLINE
  5
1b2
100
AcDbEntity
  8
vector_engraving
 62
5
100
AcDbSpline
 70
8
 71
3
 72
8
 73
4
 74
0
 40
0
 40
0
 40
0
 40
0
 40
1
 40
1
 40
1
 40
1
 10
14.763914
 20
13.273296
 30
0.0
 10
14.783091
 20
13.223296
 30
0.0
 10
14.801263
 20
13.195896
 30
0.0
 10
14.891485
 20
13.199896
 30
0.0
  0
SPLINE
  5
1b3
100
AcDbEntity
  8
vector_engraving
 62
5
100
AcDbSpline
 70
8
 71
3
 72
8
 73
4
 74
0
 40
0
 40
0
 40
0
 40
0
 40
1
 40
1
 40
1
 40
1
 10
14.891485
 20
13.199896
 30
0.0
 10
14.981707
 20
13.203896
 30
0.0
 10
15.003006
 20
13.233096
 30
0.0
 10
15.011772
 20
13.289996
 30
0.0
  0
SPLINE
  5
1b4
100
AcDbEntity
  8
vector_engraving
 62
5
100
AcDbSpline
 70
8
 71
3
 72
8
 73
4
 74
0
 40
0
 40
0
 40
0
 40
0
 40
1
 40
1
 40
1
 40
1
 10
15.011772
 20
13.289996
 30
0.0
 10
15.059621
 20
13.484226
 30
0.0
 10
15.115734
 20
13.746636
 30
0.0
 10
15.169336
 20
14.065426
 30
0.0
  0
SPLINE
  5
1b5
100
AcDbEntity
  8
vector_engraving
 62
5
100
AcDbSpline
 70
8
 71
3
 72
8
 73
4
 74
0
 40
0
 40
0
 40
0
 40
0
 40
1
 40
1
 40
1
 40
1
 10
15.169336
 20
14.065426
 30
0.0
 10
15.178106
 20
14.122326
 30
0.0
 10
15.228098
 20
14.141526
 30
0.0
 10
15.252914
 20
14.091726
 30
0.0
  0
SPLINE
  5
1b6
100
AcDbEntity
  8
vector_engraving
 62
5
100
AcDbSpline
 70
8
 71
3
 72
8
 73
4
 74
0
 40
0
 40
0
 40
0
 40
0
 40
1
 40
1
 40
1
 40
1
 10
15.252914
 20
14.091726
 30
0.0
 10
15.289672
 20
13.647006
 30
0.0
 10
15.335132
 20
12.626376
 30
0.0
 10
15.370294
 20
11.836936
 30
0.0
  0
SPLINE
  5
1b7
100
AcDbEntity
  8
vector_engraving
 62
5
100
AcDbSpline
 70
8
 71
3
 72
8
 73
4
 74
0
 40
0
 40
0
 40
0
 40
0
 40
1
 40
1
 40
1
 40
1
 10
15.370294
 20
11.836936
 30
0.0
 10
15.374064
 20
11.752336
 30
0.0
 10
15.391480
 20
11.741836
 30
0.0
 10
15.667784
 20
11.754136
 30
0.0
  0
SPLINE
  5
1b8
100
AcDbEntity
  8
vector_engraving
 62
5
100
AcDbSpline
 70
8
 71
3
 72
8
 73
4
 74
0
 40
0
 40
0
 40
0
 40
0
 40
1
 40
1
 40
1
 40
1
 10
15.667784
 20
11.754136
 30
0.0
 10
15.972282
 20
11.767736
 30
0.0
 10
15.966141
 20
11.778736
 30
0.0
 10
15.962122
 20
11.868946
 30
0.0
  0
SPLINE
  5
1b9
100
AcDbEntity
  8
vector_engraving
 62
5
100
AcDbSpline
 70
8
 71
3
 72
8
 73
4
 74
0
 40
0
 40
0
 40
0
 40
0
 40
1
 40
1
 40
1
 40
1
 10
15.962122
 20
11.868946
 30
0.0
 10
15.898328
 20
13.301216
 30
0.0
 10
15.835287
 20
14.716566
 30
0.0
 10
15.795102
 20
15.618786
 30
0.0
  0
SPLINE
  5
1ba
100
AcDbEntity
  8
vector_engraving
 62
5
100
AcDbSpline
 70
8
 71
3
 72
8
 73
4
 74
0
 40
0
 40
0
 40
0
 40
0
 40
1
 40
1
 40
1
 40
1
 10
15.795102
 20
15.618786
 30
0.0
 10
15.791082
 20
15.708986
 30
0.0
 10
15.740083
 20
15.712386
 30
0.0
 10
15.497612
 20
15.701586
 30
0.0
  0
SPLINE
  5
1bb
100
AcDbEntity
  8
vector_engraving
 62
5
100
AcDbSpline
 70
8
 71
3
 72
8
 73
4
 74
0
 40
0
 40
0
 40
0
 40
0
 40
1
 40
1
 40
1
 40
1
 10
15.497612
 20
15.701586
 30
0.0
 10
15.277697
 20
15.691586
 30
0.0
 10
15.239732
 20
15.656186
 30
0.0
 10
15.197019
 20
15.473496
 30
0.0
  0
SPLINE
  5
1bc
100
AcDbEntity
  8
vector_engraving
 62
5
100
AcDbSpline
 70
8
 71
3
 72
8
 73
4
 74
0
 40
0
 40
0
 40
0
 40
0
 40
1
 40
1
 40
1
 40
1
 10
15.197019
 20
15.473496
 30
0.0
 10
15.119858
 20
15.176256
 30
0.0
 10
15.061987
 20
14.953326
 30
0.0
 10
14.984825
 20
14.656086
 30
0.0
  0
SPLINE
  5
1bd
100
AcDbEntity
  8
vector_engraving
 62
5
100
AcDbSpline
 70
8
 71
3
 72
8
 73
4
 74
0
 40
0
 40
0
 40
0
 40
0
 40
1
 40
1
 40
1
 40
1
 10
14.984825
 20
14.656086
 30
0.0
 10
14.932091
 20
14.444686
 30
0.0
 10
14.882986
 20
14.278646
 30
0.0
 10
14.843514
 20
14.276886
 30
0.0
  0
SPLINE
  5
1be
100
AcDbEntity
  8
vector_engraving
 62
5
100
AcDbSpline
 70
8
 71
3
 72
8
 73
4
 74
0
 40
0
 40
0
 40
0
 40
0
 40
1
 40
1
 40
1
 40
1
 10
14.843514
 20
14.276886
 30
0.0
 10
14.804042
 20
14.274886
 30
0.0
 10
14.734228
 20
14.447176
 30
0.0
 10
14.669049
 20
14.642026
 30
0.0
  0
SPLINE
  5
1bf
100
AcDbEntity
  8
vector_engraving
 62
5
100
AcDbSpline
 70
8
 71
3
 72
8
 73
4
 74
0
 40
0
 40
0
 40
0
 40
0
 40
1
 40
1
 40
1
 40
1
 10
14.669049
 20
14.642026
 30
0.0
 10
14.578301
 20
14.903536
 30
0.0
 10
14.482416
 20
15.153516
 30
0.0
 10
14.385024
 20
15.437326
 30
0.0
  0
SPLINE
  5
1c0
100
AcDbEntity
  8
vector_engraving
 62
5
100
AcDbSpline
 70
8
 71
3
 72
8
 73
4
 74
0
 40
0
 40
0
 40
0
 40
0
 40
1
 40
1
 40
1
 40
1
 10
14.385024
 20
15.437326
 30
0.0
 10
14.320598
 20
15.615256
 30
0.0
 10
14.279871
 20
15.641696
 30
0.0
 10
14.037400
 20
15.630896
 30
0.0
  0
SPLINE
  5
1c1
100
AcDbEntity
  8
vector_engraving
 62
5
100
AcDbSpline
 70
8
 71
3
 72
8
 73
4
 74
0
 40
0
 40
0
 40
0
 40
0
 40
1
 40
1
 40
1
 40
1
 10
14.037400
 20
15.630896
 30
0.0
 10
13.817485
 20
15.620896
 30
0.0
 10
13.777762
 20
15.624896
 30
0.0
 10
13.782031
 20
15.529126
 30
0.0
  0
SPLINE
  5
1c2
100
AcDbEntity
  8
vector_engraving
 62
5
100
AcDbSpline
 70
8
 71
3
 72
8
 73
4
 74
0
 40
0
 40
0
 40
0
 40
0
 40
1
 40
1
 40
1
 40
1
 10
13.782031
 20
15.529126
 30
0.0
 10
13.841807
 20
14.187076
 30
0.0
 10
13.886513
 20
13.183356
 30
0.0
 10
13.949302
 20
11.773646
 30
0.0
  0
SPLINE
  5
1c3
100
AcDbEntity
  8
vector_engraving
 62
5
100
AcDbSpline
 70
8
 71
3
 72
8
 73
4
 74
0
 40
0
 40
0
 40
0
 40
0
 40
1
 40
1
 40
1
 40
1
 10
13.949302
 20
11.773646
 30
0.0
 10
13.953072
 20
11.689046
 30
0.0
 10
13.947932
 20
11.677546
 30
0.0
 10
14.224237
 20
11.689846
 30
0.0
  0
SPLINE
  5
1c4
100
AcDbEntity
  8
vector_engraving
 62
5
100
AcDbSpline
 70
8
 71
3
 72
8
 73
4
 74
0
 40
0
 40
0
 40
0
 40
0
 40
1
 40
1
 40
1
 40
1
 10
14.224237
 20
11.689846
 30
0.0
 10
14.517457
 20
11.702946
 30
0.0
 10
14.533872
 20
11.714946
 30
0.0
 10
14.529853
 20
11.805166
 30
0.0
  0
LWPOLYLINE
  5
1c5
100
AcDbEntity
  8
vector_engraving
 62
5
100
AcDbPolyline
 90
1
 70
1
 10
11.877210
 20
11.648406
 30
0.0
  0
SPLINE
  5
1c6
100
AcDbEntity
  8
vector_engraving
 62
5
100
AcDbSpline
 70
8
 71
3
 72
8
 73
4
 74
0
 40
0
 40
0
 40
0
 40
0
 40
1
 40
1
 40
1
 40
1
 10
18.113827
 20
15.691926
 30
0.0
 10
18.112167
 20
15.759626
 30
0.0
 10
18.077894
 20
15.775726
 30
0.0
 10
17.784471
 20
15.768526
 30
0.0
  0
SPLINE
  5
1c7
100
AcDbEntity
  8
vector_engraving
 62
5
100
AcDbSpline
 70
8
 71
3
 72
8
 73
4
 74
0
 40
0
 40
0
 40
0
 40
0
 40
1
 40
1
 40
1
 40
1
 10
17.784471
 20
15.768526
 30
0.0
 10
17.530548
 20
15.762526
 30
0.0
 10
17.502611
 20
15.750326
 30
0.0
 10
17.504549
 20
15.671326
 30
0.0
  0
SPLINE
  5
1c8
100
AcDbEntity
  8
vector_engraving
 62
5
100
AcDbSpline
 70
8
 71
3
 72
8
 73
4
 74
0
 40
0
 40
0
 40
0
 40
0
 40
1
 40
1
 40
1
 40
1
 10
17.504549
 20
15.671326
 30
0.0
 10
17.527114
 20
14.751556
 30
0.0
 10
17.557708
 20
13.504506
 30
0.0
 10
17.576812
 20
12.725806
 30
0.0
  0
SPLINE
  5
1c9
100
AcDbEntity
  8
vector_engraving
 62
5
100
AcDbSpline
 70
8
 71
3
 72
8
 73
4
 74
0
 40
0
 40
0
 40
0
 40
0
 40
1
 40
1
 40
1
 40
1
 10
17.576812
 20
12.725806
 30
0.0
 10
17.580692
 20
12.567816
 30
0.0
 10
17.550708
 20
12.408986
 30
0.0
 10
17.370140
 20
12.404556
 30
0.0
  0
SPLINE
  5
1ca
100
AcDbEntity
  8
vector_engraving
 62
5
100
AcDbSpline
 70
8
 71
3
 72
8
 73
4
 74
0
 40
0
 40
0
 40
0
 40
0
 40
1
 40
1
 40
1
 40
1
 10
17.370140
 20
12.404556
 30
0.0
 10
17.183929
 20
12.399556
 30
0.0
 10
17.151701
 20
12.562936
 30
0.0
 10
17.147963
 20
12.715286
 30
0.0
  0
SPLINE
  5
1cb
100
AcDbEntity
  8
vector_engraving
 62
5
100
AcDbSpline
 70
8
 71
3
 72
8
 73
4
 74
0
 40
0
 40
0
 40
0
 40
0
 40
1
 40
1
 40
1
 40
1
 10
17.147963
 20
12.715286
 30
0.0
 10
17.128305
 20
13.516556
 30
0.0
 10
17.098818
 20
14.718466
 30
0.0
 10
17.075838
 20
15.655156
 30
0.0
  0
SPLINE
  5
1cc
100
AcDbEntity
  8
vector_engraving
 62
5
100
AcDbSpline
 70
8
 71
3
 72
8
 73
4
 74
0
 40
0
 40
0
 40
0
 40
0
 40
1
 40
1
 40
1
 40
1
 10
17.075838
 20
15.655156
 30
0.0
 10
17.073758
 20
15.739756
 30
0.0
 10
17.011414
 20
15.749556
 30
0.0
 10
16.785705
 20
15.744056
 30
0.0
  0
SPLINE
  5
1cd
100
AcDbEntity
  8
vector_engraving
 62
5
100
AcDbSpline
 70
8
 71
3
 72
8
 73
4
 74
0
 40
0
 40
0
 40
0
 40
0
 40
1
 40
1
 40
1
 40
1
 10
16.785705
 20
15.744056
 30
0.0
 10
16.509210
 20
15.737056
 30
0.0
 10
16.469849
 20
15.730656
 30
0.0
 10
16.472064
 20
15.640376
 30
0.0
  0
SPLINE
  5
1ce
100
AcDbEntity
  8
vector_engraving
 62
5
100
AcDbSpline
 70
8
 71
3
 72
8
 73
4
 74
0
 40
0
 40
0
 40
0
 40
0
 40
1
 40
1
 40
1
 40
1
 10
16.472064
 20
15.640376
 30
0.0
 10
16.497675
 20
14.596466
 30
0.0
 10
16.524669
 20
13.496136
 30
0.0
 10
16.547373
 20
12.570726
 30
0.0
  0
SPLINE
  5
1cf
100
AcDbEntity
  8
vector_engraving
 62
5
100
AcDbSpline
 70
8
 71
3
 72
8
 73
4
 74
0
 40
0
 40
0
 40
0
 40
0
 40
1
 40
1
 40
1
 40
1
 10
16.547373
 20
12.570726
 30
0.0
 10
16.557479
 20
12.158806
 30
0.0
 10
16.871324
 20
11.793856
 30
0.0
 10
17.384814
 20
11.806456
 30
0.0
  0
SPLINE
  5
1d0
100
AcDbEntity
  8
vector_engraving
 62
5
100
AcDbSpline
 70
8
 71
3
 72
8
 73
4
 74
0
 40
0
 40
0
 40
0
 40
0
 40
1
 40
1
 40
1
 40
1
 10
17.384814
 20
11.806456
 30
0.0
 10
17.909589
 20
11.819356
 30
0.0
 10
18.200764
 20
12.148306
 30
0.0
 10
18.189274
 20
12.616646
 30
0.0
  0
SPLINE
  5
1d1
100
AcDbEntity
  8
vector_engraving
 62
5
100
AcDbSpline
 70
8
 71
3
 72
8
 73
4
 74
0
 40
0
 40
0
 40
0
 40
0
 40
1
 40
1
 40
1
 40
1
 10
18.189274
 20
12.616646
 30
0.0
 10
18.167124
 20
13.519486
 30
0.0
 10
18.138745
 20
14.676256
 30
0.0
 10
18.113827
 20
15.691946
 30
0.0
  0
LWPOLYLINE
  5
1d2
100
AcDbEntity
  8
vector_engraving
 62
5
100
AcDbPolyline
 90
1
 70
1
 10
14.529853
 20
11.805166
 30
0.0
  0
SPLINE
  5
1d3
100
AcDbEntity
  8
vector_engraving
 62
5
100
AcDbSpline
 70
8
 71
3
 72
8
 73
4
 74
0
 40
0
 40
0
 40
0
 40
0
 40
1
 40
1
 40
1
 40
1
 10
19.548555
 20
13.657936
 30
0.0
 10
19.750178
 20
12.947876
 30
0.0
 10
19.819622
 20
12.649106
 30
0.0
 10
20.009633
 20
11.995436
 30
0.0
  0
SPLINE
  5
1d4
100
AcDbEntity
  8
vector_engraving
 62
5
100
AcDbSpline
 70
8
 71
3
 72
8
 73
4
 74
0
 40
0
 40
0
 40
0
 40
0
 40
1
 40
1
 40
1
 40
1
 10
20.009633
 20
11.995436
 30
0.0
 10
20.049951
 20
11.854546
 30
0.0
 10
20.112104
 20
11.843616
 30
0.0
 10
20.258857
 20
11.844456
 30
0.0
  0
SPLINE
  5
1d5
100
AcDbEntity
  8
vector_engraving
 62
5
100
AcDbSpline
 70
8
 71
3
 72
8
 73
4
 74
0
 40
0
 40
0
 40
0
 40
0
 40
1
 40
1
 40
1
 40
1
 10
20.258857
 20
11.844456
 30
0.0
 10
20.546719
 20
11.846456
 30
0.0
 10
20.540977
 20
11.863056
 30
0.0
 10
20.540138
 20
12.009756
 30
0.0
  0
SPLINE
  5
1d6
100
AcDbEntity
  8
vector_engraving
 62
5
100
AcDbSpline
 70
8
 71
3
 72
8
 73
4
 74
0
 40
0
 40
0
 40
0
 40
0
 40
1
 40
1
 40
1
 40
1
 10
20.540138
 20
12.009756
 30
0.0
 10
20.532062
 20
13.420846
 30
0.0
 10
20.524244
 20
14.786776
 30
0.0
 10
20.519011
 20
15.701166
 30
0.0
  0
SPLINE
  5
1d7
100
AcDbEntity
  8
vector_engraving
 62
5
100
AcDbSpline
 70
8
 71
3
 72
8
 73
4
 74
0
 40
0
 40
0
 40
0
 40
0
 40
1
 40
1
 40
1
 40
1
 10
20.519011
 20
15.701166
 30
0.0
 10
20.518494
 20
15.791466
 30
0.0
 10
20.512817
 20
15.797066
 30
0.0
 10
20.224956
 20
15.795466
 30
0.0
  0
SPLINE
  5
1d8
100
AcDbEntity
  8
vector_engraving
 62
5
100
AcDbSpline
 70
8
 71
3
 72
8
 73
4
 74
0
 40
0
 40
0
 40
0
 40
0
 40
1
 40
1
 40
1
 40
1
 10
20.224956
 20
15.795466
 30
0.0
 10
19.942738
 20
15.793466
 30
0.0
 10
19.925870
 20
15.782466
 30
0.0
 10
19.926386
 20
15.692156
 30
0.0
  0
SPLINE
  5
1d9
100
AcDbEntity
  8
vector_engraving
 62
5
100
AcDbSpline
 70
8
 71
3
 72
8
 73
4
 74
0
 40
0
 40
0
 40
0
 40
0
 40
1
 40
1
 40
1
 40
1
 10
19.926386
 20
15.692156
 30
0.0
 10
19.930101
 20
15.043056
 30
0.0
 10
19.932814
 20
14.568926
 30
0.0
 10
19.936239
 20
13.970626
 30
0.0
  0
SPLINE
  5
1da
100
AcDbEntity
  8
vector_engraving
 62
5
100
AcDbSpline
 70
8
 71
3
 72
8
 73
4
 74
0
 40
0
 40
0
 40
0
 40
0
 40
1
 40
1
 40
1
 40
1
 10
19.936239
 20
13.970626
 30
0.0
 10
19.936595
 20
13.908526
 30
0.0
 10
19.937209
 20
13.801296
 30
0.0
 10
19.897698
 20
13.801076
 30
0.0
  0
SPLINE
  5
1db
100
AcDbEntity
  8
vector_engraving
 62
5
100
AcDbSpline
 70
8
 71
3
 72
8
 73
4
 74
0
 40
0
 40
0
 40
0
 40
0
 40
1
 40
1
 40
1
 40
1
 10
19.897698
 20
13.801076
 30
0.0
 10
19.863832
 20
13.800876
 30
0.0
 10
19.840738
 20
13.891076
 30
0.0
 10
19.829126
 20
13.947436
 30
0.0
  0
SPLINE
  5
1dc
100
AcDbEntity
  8
vector_engraving
 62
5
100
AcDbSpline
 70
8
 71
3
 72
8
 73
4
 74
0
 40
0
 40
0
 40
0
 40
0
 40
1
 40
1
 40
1
 40
1
 10
19.829126
 20
13.947436
 30
0.0
 10
19.650727
 20
14.544736
 30
0.0
 10
19.483584
 20
15.147746
 30
0.0
 10
19.362404
 20
15.609906
 30
0.0
  0
SPLINE
  5
1dd
100
AcDbEntity
  8
vector_engraving
 62
5
100
AcDbSpline
 70
8
 71
3
 72
8
 73
4
 74
0
 40
0
 40
0
 40
0
 40
0
 40
1
 40
1
 40
1
 40
1
 10
19.362404
 20
15.609906
 30
0.0
 10
19.316345
 20
15.767686
 30
0.0
 10
19.287994
 20
15.790106
 30
0.0
 10
19.045286
 20
15.788716
 30
0.0
  0
SPLINE
  5
1de
100
AcDbEntity
  8
vector_engraving
 62
5
100
AcDbSpline
 70
8
 71
3
 72
8
 73
4
 74
0
 40
0
 40
0
 40
0
 40
0
 40
1
 40
1
 40
1
 40
1
 10
19.045286
 20
15.788716
 30
0.0
 10
18.796935
 20
15.787716
 30
0.0
 10
18.785646
 20
15.787716
 30
0.0
 10
18.786098
 20
15.708216
 30
0.0
  0
SPLINE
  5
1df
100
AcDbEntity
  8
vector_engraving
 62
5
100
AcDbSpline
 70
8
 71
3
 72
8
 73
4
 74
0
 40
0
 40
0
 40
0
 40
0
 40
1
 40
1
 40
1
 40
1
 10
18.786098
 20
15.708216
 30
0.0
 10
18.793818
 20
14.359216
 30
0.0
 10
18.799633
 20
13.343236
 30
0.0
 10
18.807709
 20
11.932146
 30
0.0
  0
SPLINE
  5
1e0
100
AcDbEntity
  8
vector_engraving
 62
5
100
AcDbSpline
 70
8
 71
3
 72
8
 73
4
 74
0
 40
0
 40
0
 40
0
 40
0
 40
1
 40
1
 40
1
 40
1
 10
18.807709
 20
11.932146
 30
0.0
 10
18.808194
 20
11.847446
 30
0.0
 10
18.808259
 20
11.836146
 30
0.0
 10
19.090476
 20
11.837846
 30
0.0
  0
SPLINE
  5
1e1
100
AcDbEntity
  8
vector_engraving
 62
5
100
AcDbSpline
 70
8
 71
3
 72
8
 73
4
 74
0
 40
0
 40
0
 40
0
 40
0
 40
1
 40
1
 40
1
 40
1
 10
19.090476
 20
11.837846
 30
0.0
 10
19.383983
 20
11.839846
 30
0.0
 10
19.400851
 20
11.850946
 30
0.0
 10
19.400334
 20
11.941226
 30
0.0
  0
SPLINE
  5
1e2
100
AcDbEntity
  8
vector_engraving
 62
5
100
AcDbSpline
 70
8
 71
3
 72
8
 73
4
 74
0
 40
0
 40
0
 40
0
 40
0
 40
1
 40
1
 40
1
 40
1
 10
19.400334
 20
11.941226
 30
0.0
 10
19.395908
 20
12.714496
 30
0.0
 10
19.393906
 20
13.064446
 30
0.0
 10
19.389706
 20
13.798216
 30
0.0
  0
SPLINE
  5
1e3
100
AcDbEntity
  8
vector_engraving
 62
5
100
AcDbSpline
 70
8
 71
3
 72
8
 73
4
 74
0
 40
0
 40
0
 40
0
 40
0
 40
1
 40
1
 40
1
 40
1
 10
19.389706
 20
13.798216
 30
0.0
 10
19.389286
 20
13.871616
 30
0.0
 10
19.388608
 20
13.990126
 30
0.0
 10
19.428118
 20
13.990346
 30
0.0
  0
SPLINE
  5
1e4
100
AcDbEntity
  8
vector_engraving
 62
5
100
AcDbSpline
 70
8
 71
3
 72
8
 73
4
 74
0
 40
0
 40
0
 40
0
 40
0
 40
1
 40
1
 40
1
 40
1
 10
19.428118
 20
13.990346
 30
0.0
 10
19.467629
 20
13.990576
 30
0.0
 10
19.513979
 20
13.781996
 30
0.0
 10
19.548556
 20
13.658016
 30
0.0
  0
LWPOLYLINE
  5
1e5
100
AcDbEntity
  8
vector_engraving
 62
5
100
AcDbPolyline
 90
1
 70
1
 10
18.113827
 20
15.691946
 30
0.0
  0
SPLINE
  5
1e6
100
AcDbEntity
  8
vector_engraving
 62
5
100
AcDbSpline
 70
8
 71
3
 72
8
 73
4
 74
0
 40
0
 40
0
 40
0
 40
0
 40
1
 40
1
 40
1
 40
1
 10
21.781137
 20
11.931156
 30
0.0
 10
21.794368
 20
13.364776
 30
0.0
 10
21.807391
 20
14.775826
 30
0.0
 10
21.815778
 20
15.684546
 30
0.0
  0
SPLINE
  5
1e7
100
AcDbEntity
  8
vector_engraving
 62
5
100
AcDbSpline
 70
8
 71
3
 72
8
 73
4
 74
0
 40
0
 40
0
 40
0
 40
0
 40
1
 40
1
 40
1
 40
1
 10
21.815778
 20
15.684546
 30
0.0
 10
21.816611
 20
15.774846
 30
0.0
 10
21.799731
 20
15.780646
 30
0.0
 10
21.500588
 20
15.783446
 30
0.0
  0
SPLINE
  5
1e8
100
AcDbEntity
  8
vector_engraving
 62
5
100
AcDbSpline
 70
8
 71
3
 72
8
 73
4
 74
0
 40
0
 40
0
 40
0
 40
0
 40
1
 40
1
 40
1
 40
1
 10
21.500588
 20
15.783446
 30
0.0
 10
21.235310
 20
15.785446
 30
0.0
 10
21.212681
 20
15.780446
 30
0.0
 10
21.211900
 20
15.695846
 30
0.0
  0
SPLINE
  5
1e9
100
AcDbEntity
  8
vector_engraving
 62
5
100
AcDbSpline
 70
8
 71
3
 72
8
 73
4
 74
0
 40
0
 40
0
 40
0
 40
0
 40
1
 40
1
 40
1
 40
1
 10
21.211900
 20
15.695846
 30
0.0
 10
21.199398
 20
14.341236
 30
0.0
 10
21.190178
 20
13.342216
 30
0.0
 10
21.177103
 20
11.925516
 30
0.0
  0
SPLINE
  5
1ea
100
AcDbEntity
  8
vector_engraving
 62
5
100
AcDbSpline
 70
8
 71
3
 72
8
 73
4
 74
0
 40
0
 40
0
 40
0
 40
0
 40
1
 40
1
 40
1
 40
1
 10
21.177103
 20
11.925516
 30
0.0
 10
21.176374
 20
11.846516
 30
0.0
 10
21.187662
 20
11.846416
 30
0.0
 10
21.464228
 20
11.843816
 30
0.0
  0
SPLINE
  5
1eb
100
AcDbEntity
  8
vector_engraving
 62
5
100
AcDbSpline
 70
8
 71
3
 72
8
 73
4
 74
0
 40
0
 40
0
 40
0
 40
0
 40
1
 40
1
 40
1
 40
1
 10
21.464228
 20
11.843816
 30
0.0
 10
21.774659
 20
11.840816
 30
0.0
 10
21.780356
 20
11.846816
 30
0.0
 10
21.781137
 20
11.931216
 30
0.0
  0
LWPOLYLINE
  5
1ec
100
AcDbEntity
  8
vector_engraving
 62
5
100
AcDbPolyline
 90
1
 70
1
 10
19.548556
 20
13.658016
 30
0.0
  0
SPLINE
  5
1ed
100
AcDbEntity
  8
vector_engraving
 62
5
100
AcDbSpline
 70
8
 71
3
 72
8
 73
4
 74
0
 40
0
 40
0
 40
0
 40
0
 40
1
 40
1
 40
1
 40
1
 10
22.865295
 20
14.996096
 30
0.0
 10
22.836781
 20
13.754646
 30
0.0
 10
22.822006
 20
13.111346
 30
0.0
 10
22.793621
 20
11.875536
 30
0.0
  0
SPLINE
  5
1ee
100
AcDbEntity
  8
vector_engraving
 62
5
100
AcDbSpline
 70
8
 71
3
 72
8
 73
4
 74
0
 40
0
 40
0
 40
0
 40
0
 40
1
 40
1
 40
1
 40
1
 10
22.793621
 20
11.875536
 30
0.0
 10
22.792321
 20
11.819136
 30
0.0
 10
22.843112
 20
11.817936
 30
0.0
 10
23.080116
 20
11.812536
 30
0.0
  0
SPLINE
  5
1ef
100
AcDbEntity
  8
vector_engraving
 62
5
100
AcDbSpline
 70
8
 71
3
 72
8
 73
4
 74
0
 40
0
 40
0
 40
0
 40
0
 40
1
 40
1
 40
1
 40
1
 10
23.080116
 20
11.812536
 30
0.0
 10
23.345335
 20
11.806536
 30
0.0
 10
23.407537
 20
11.810536
 30
0.0
 10
23.408704
 20
11.861436
 30
0.0
  0
SPLINE
  5
1f0
100
AcDbEntity
  8
vector_engraving
 62
5
100
AcDbSpline
 70
8
 71
3
 72
8
 73
4
 74
0
 40
0
 40
0
 40
0
 40
0
 40
1
 40
1
 40
1
 40
1
 10
23.408704
 20
11.861436
 30
0.0
 10
23.437088
 20
13.097246
 30
0.0
 10
23.451734
 20
13.734906
 30
0.0
 10
23.480378
 20
14.981996
 30
0.0
  0
SPLINE
  5
1f1
100
AcDbEntity
  8
vector_engraving
 62
5
100
AcDbSpline
 70
8
 71
3
 72
8
 73
4
 74
0
 40
0
 40
0
 40
0
 40
0
 40
1
 40
1
 40
1
 40
1
 10
23.480378
 20
14.981996
 30
0.0
 10
23.482058
 20
15.055396
 30
0.0
 10
23.472978
 20
15.151546
 30
0.0
 10
23.524674
 20
15.189876
 30
0.0
  0
SPLINE
  5
1f2
100
AcDbEntity
  8
vector_engraving
 62
5
100
AcDbSpline
 70
8
 71
3
 72
8
 73
4
 74
0
 40
0
 40
0
 40
0
 40
0
 40
1
 40
1
 40
1
 40
1
 10
23.524674
 20
15.189876
 30
0.0
 10
23.553148
 20
15.200476
 30
0.0
 10
23.626506
 20
15.198876
 30
0.0
 10
23.688579
 20
15.197876
 30
0.0
  0
SPLINE
  5
1f3
100
AcDbEntity
  8
vector_engraving
 62
5
100
AcDbSpline
 70
8
 71
3
 72
8
 73
4
 74
0
 40
0
 40
0
 40
0
 40
0
 40
1
 40
1
 40
1
 40
1
 10
23.688579
 20
15.197876
 30
0.0
 10
23.784509
 20
15.195876
 30
0.0
 10
23.863510
 20
15.193876
 30
0.0
 10
23.931226
 20
15.191876
 30
0.0
  0
SPLINE
  5
1f4
100
AcDbEntity
  8
vector_engraving
 62
5
100
AcDbSpline
 70
8
 71
3
 72
8
 73
4
 74
0
 40
0
 40
0
 40
0
 40
0
 40
1
 40
1
 40
1
 40
1
 10
23.931226
 20
15.191876
 30
0.0
 10
23.993298
 20
15.190876
 30
0.0
 10
23.999589
 20
15.218576
 30
0.0
 10
24.005552
 20
15.478106
 30
0.0
  0
SPLINE
  5
1f5
100
AcDbEntity
  8
vector_engraving
 62
5
100
AcDbSpline
 70
8
 71
3
 72
8
 73
4
 74
0
 40
0
 40
0
 40
0
 40
0
 40
1
 40
1
 40
1
 40
1
 10
24.005552
 20
15.478106
 30
0.0
 10
24.010482
 20
15.692536
 30
0.0
 10
24.006000
 20
15.743456
 30
0.0
 10
23.938285
 20
15.745016
 30
0.0
  0
SPLINE
  5
1f6
100
AcDbEntity
  8
vector_engraving
 62
5
100
AcDbSpline
 70
8
 71
3
 72
8
 73
4
 74
0
 40
0
 40
0
 40
0
 40
0
 40
1
 40
1
 40
1
 40
1
 10
23.938285
 20
15.745016
 30
0.0
 10
23.582778
 20
15.753016
 30
0.0
 10
22.804050
 20
15.771016
 30
0.0
 10
22.448544
 20
15.779216
 30
0.0
  0
SPLINE
  5
1f7
100
AcDbEntity
  8
vector_engraving
 62
5
100
AcDbSpline
 70
8
 71
3
 72
8
 73
4
 74
0
 40
0
 40
0
 40
0
 40
0
 40
1
 40
1
 40
1
 40
1
 10
22.448544
 20
15.779216
 30
0.0
 10
22.380828
 20
15.781216
 30
0.0
 10
22.368635
 20
15.741516
 30
0.0
 10
22.363192
 20
15.504526
 30
0.0
  0
SPLINE
  5
1f8
100
AcDbEntity
  8
vector_engraving
 62
5
100
AcDbSpline
 70
8
 71
3
 72
8
 73
4
 74
0
 40
0
 40
0
 40
0
 40
0
 40
1
 40
1
 40
1
 40
1
 10
22.363192
 20
15.504526
 30
0.0
 10
22.357752
 20
15.267526
 30
0.0
 10
22.373770
 20
15.227636
 30
0.0
 10
22.458414
 20
15.225686
 30
0.0
  0
SPLINE
  5
1f9
100
AcDbEntity
  8
vector_engraving
 62
5
100
AcDbSpline
 70
8
 71
3
 72
8
 73
4
 74
0
 40
0
 40
0
 40
0
 40
0
 40
1
 40
1
 40
1
 40
1
 10
22.458414
 20
15.225686
 30
0.0
 10
22.509201
 20
15.224686
 30
0.0
 10
22.588202
 20
15.222686
 30
0.0
 10
22.667204
 20
15.220686
 30
0.0
  0
SPLINE
  5
1fa
100
AcDbEntity
  8
vector_engraving
 62
5
100
AcDbSpline
 70
8
 71
3
 72
8
 73
4
 74
0
 40
0
 40
0
 40
0
 40
0
 40
1
 40
1
 40
1
 40
1
 10
22.667204
 20
15.220686
 30
0.0
 10
22.729277
 20
15.219686
 30
0.0
 10
22.802635
 20
15.217686
 30
0.0
 10
22.830590
 20
15.205686
 30
0.0
  0
SPLINE
  5
1fb
100
AcDbEntity
  8
vector_engraving
 62
5
100
AcDbSpline
 70
8
 71
3
 72
8
 73
4
 74
0
 40
0
 40
0
 40
0
 40
0
 40
1
 40
1
 40
1
 40
1
 10
22.830590
 20
15.205686
 30
0.0
 10
22.880469
 20
15.164986
 30
0.0
 10
22.866980
 20
15.069356
 30
0.0
 10
22.865295
 20
14.995996
 30
0.0
  0
LWPOLYLINE
  5
1fc
100
AcDbEntity
  8
vector_engraving
 62
5
100
AcDbPolyline
 90
1
 70
1
 10
21.781137
 20
11.931216
 30
0.0
  0
SPLINE
  5
1fd
100
AcDbEntity
  8
vector_engraving
 62
5
100
AcDbSpline
 70
8
 71
3
 72
8
 73
4
 74
0
 40
0
 40
0
 40
0
 40
0
 40
1
 40
1
 40
1
 40
1
 10
24.889446
 20
13.130646
 30
0.0
 10
24.869332
 20
12.628686
 30
0.0
 10
24.849681
 20
12.279246
 30
0.0
 10
24.831375
 20
11.822406
 30
0.0
  0
SPLINE
  5
1fe
100
AcDbEntity
  8
vector_engraving
 62
5
100
AcDbSpline
 70
8
 71
3
 72
8
 73
4
 74
0
 40
0
 40
0
 40
0
 40
0
 40
1
 40
1
 40
1
 40
1
 10
24.831375
 20
11.822406
 30
0.0
 10
24.828665
 20
11.754706
 30
0.0
 10
25.037566
 20
11.752006
 30
0.0
 10
25.127804
 20
11.748406
 30
0.0
  0
SPLINE
  5
1ff
100
AcDbEntity
  8
vector_engraving
 62
5
100
AcDbSpline
 70
8
 71
3
 72
8
 73
4
 74
0
 40
0
 40
0
 40
0
 40
0
 40
1
 40
1
 40
1
 40
1
 10
25.127804
 20
11.748406
 30
0.0
 10
25.201123
 20
11.745406
 30
0.0
 10
25.437774
 20
11.730306
 30
0.0
 10
25.439808
 20
11.781106
 30
0.0
  0
SPLINE
  5
200
100
AcDbEntity
  8
vector_engraving
 62
5
100
AcDbSpline
 70
8
 71
3
 72
8
 73
4
 74
0
 40
0
 40
0
 40
0
 40
0
 40
1
 40
1
 40
1
 40
1
 10
25.439808
 20
11.781106
 30
0.0
 10
25.458792
 20
12.254866
 30
0.0
 10
25.474385
 20
12.644016
 30
0.0
 10
25.493595
 20
13.123406
 30
0.0
  0
SPLINE
  5
201
100
AcDbEntity
  8
vector_engraving
 62
5
100
AcDbSpline
 70
8
 71
3
 72
8
 73
4
 74
0
 40
0
 40
0
 40
0
 40
0
 40
1
 40
1
 40
1
 40
1
 10
25.493595
 20
13.123406
 30
0.0
 10
25.497665
 20
13.224926
 30
0.0
 10
25.526098
 20
13.370666
 30
0.0
 10
25.539412
 20
13.420966
 30
0.0
  0
SPLINE
  5
202
100
AcDbEntity
  8
vector_engraving
 62
5
100
AcDbSpline
 70
8
 71
3
 72
8
 73
4
 74
0
 40
0
 40
0
 40
0
 40
0
 40
1
 40
1
 40
1
 40
1
 10
25.539412
 20
13.420966
 30
0.0
 10
25.559948
 20
13.510566
 30
0.0
 10
25.581839
 20
13.633936
 30
0.0
 10
25.614785
 20
13.751236
 30
0.0
  0
SPLINE
  5
203
100
AcDbEntity
  8
vector_engraving
 62
5
100
AcDbSpline
 70
8
 71
3
 72
8
 73
4
 74
0
 40
0
 40
0
 40
0
 40
0
 40
1
 40
1
 40
1
 40
1
 10
25.614785
 20
13.751236
 30
0.0
 10
25.799370
 20
14.410426
 30
0.0
 10
25.927094
 20
14.919356
 30
0.0
 10
26.094760
 20
15.579226
 30
0.0
  0
SPLINE
  5
204
100
AcDbEntity
  8
vector_engraving
 62
5
100
AcDbSpline
 70
8
 71
3
 72
8
 73
4
 74
0
 40
0
 40
0
 40
0
 40
0
 40
1
 40
1
 40
1
 40
1
 10
26.094760
 20
15.579226
 30
0.0
 10
26.114618
 20
15.651826
 30
0.0
 10
25.973846
 20
15.663126
 30
0.0
 10
25.821568
 20
15.669226
 30
0.0
  0
SPLINE
  5
205
100
AcDbEntity
  8
vector_engraving
 62
5
100
AcDbSpline
 70
8
 71
3
 72
8
 73
4
 74
0
 40
0
 40
0
 40
0
 40
0
 40
1
 40
1
 40
1
 40
1
 10
25.821568
 20
15.669226
 30
0.0
 10
25.674930
 20
15.675226
 30
0.0
 10
25.516334
 20
15.664226
 30
0.0
 10
25.502116
 20
15.591626
 30
0.0
  0
SPLINE
  5
206
100
AcDbEntity
  8
vector_engraving
 62
5
100
AcDbSpline
 70
8
 71
3
 72
8
 73
4
 74
0
 40
0
 40
0
 40
0
 40
0
 40
1
 40
1
 40
1
 40
1
 10
25.502116
 20
15.591626
 30
0.0
 10
25.414097
 20
15.086736
 30
0.0
 10
25.359703
 20
14.716086
 30
0.0
 10
25.266270
 20
14.217076
 30
0.0
  0
SPLINE
  5
207
100
AcDbEntity
  8
vector_engraving
 62
5
100
AcDbSpline
 70
8
 71
3
 72
8
 73
4
 74
0
 40
0
 40
0
 40
0
 40
0
 40
1
 40
1
 40
1
 40
1
 10
25.266270
 20
14.217076
 30
0.0
 10
25.265592
 20
14.200176
 30
0.0
 10
25.258370
 20
14.160876
 30
0.0
 10
25.235810
 20
14.161776
 30
0.0
  0
SPLINE
  5
208
100
AcDbEntity
  8
vector_engraving
 62
5
100
AcDbSpline
 70
8
 71
3
 72
8
 73
4
 74
0
 40
0
 40
0
 40
0
 40
0
 40
1
 40
1
 40
1
 40
1
 10
25.235810
 20
14.161776
 30
0.0
 10
25.213250
 20
14.162676
 30
0.0
 10
25.203326
 20
14.196976
 30
0.0
 10
25.204005
 20
14.213876
 30
0.0
  0
SPLINE
  5
209
100
AcDbEntity
  8
vector_engraving
 62
5
100
AcDbSpline
 70
8
 71
3
 72
8
 73
4
 74
0
 40
0
 40
0
 40
0
 40
0
 40
1
 40
1
 40
1
 40
1
 10
25.204005
 20
14.213876
 30
0.0
 10
25.160272
 20
14.673196
 30
0.0
 10
25.115860
 20
15.115596
 30
0.0
 10
25.067843
 20
15.608986
 30
0.0
  0
SPLINE
  5
20a
100
AcDbEntity
  8
vector_engraving
 62
5
100
AcDbSpline
 70
8
 71
3
 72
8
 73
4
 74
0
 40
0
 40
0
 40
0
 40
0
 40
1
 40
1
 40
1
 40
1
 10
25.067843
 20
15.608986
 30
0.0
 10
25.059953
 20
15.694086
 30
0.0
 10
24.902261
 20
15.705986
 30
0.0
 10
24.727424
 20
15.713006
 30
0.0
  0
SPLINE
  5
20b
100
AcDbEntity
  8
vector_engraving
 62
5
100
AcDbSpline
 70
8
 71
3
 72
8
 73
4
 74
0
 40
0
 40
0
 40
0
 40
0
 40
1
 40
1
 40
1
 40
1
 10
24.727424
 20
15.713006
 30
0.0
 10
24.631545
 20
15.717006
 30
0.0
 10
24.456482
 20
15.718006
 30
0.0
 10
24.470464
 20
15.644206
 30
0.0
  0
SPLINE
  5
20c
100
AcDbEntity
  8
vector_engraving
 62
5
100
AcDbSpline
 70
8
 71
3
 72
8
 73
4
 74
0
 40
0
 40
0
 40
0
 40
0
 40
1
 40
1
 40
1
 40
1
 10
24.470464
 20
15.644206
 30
0.0
 10
24.585020
 20
14.978686
 30
0.0
 10
24.692364
 20
14.415136
 30
0.0
 10
24.818200
 20
13.749166
 30
0.0
  0
SPLINE
  5
20d
100
AcDbEntity
  8
vector_engraving
 62
5
100
AcDbSpline
 70
8
 71
3
 72
8
 73
4
 74
0
 40
0
 40
0
 40
0
 40
0
 40
1
 40
1
 40
1
 40
1
 10
24.818200
 20
13.749166
 30
0.0
 10
24.841428
 20
13.623956
 30
0.0
 10
24.875257
 20
13.481376
 30
0.0
 10
24.883599
 20
13.407606
 30
0.0
  0
SPLINE
  5
20e
100
AcDbEntity
  8
vector_engraving
 62
5
100
AcDbSpline
 70
8
 71
3
 72
8
 73
4
 74
0
 40
0
 40
0
 40
0
 40
0
 40
1
 40
1
 40
1
 40
1
 10
24.883599
 20
13.407606
 30
0.0
 10
24.892389
 20
13.345106
 30
0.0
 10
24.893509
 20
13.232096
 30
0.0
 10
24.889449
 20
13.130576
 30
0.0
  0
LWPOLYLINE
  5
20f
100
AcDbEntity
  8
vector_engraving
 62
5
100
AcDbPolyline
 90
2
 70
0
 10
22.865295
 20
14.995996
 30
0.0
 10
22.865295
 20
14.996096
 30
0.0
  0
SPLINE
  5
210
100
AcDbEntity
  8
vector_engraving
 62
5
100
AcDbSpline
 70
8
 71
3
 72
8
 73
4
 74
0
 40
0
 40
0
 40
0
 40
0
 40
1
 40
1
 40
1
 40
1
 10
29.443228
 20
12.357656
 30
0.0
 10
29.503163
 20
13.213516
 30
0.0
 10
29.539835
 20
13.737166
 30
0.0
 10
29.599770
 20
14.593026
 30
0.0
  0
SPLINE
  5
211
100
AcDbEntity
  8
vector_engraving
 62
5
100
AcDbSpline
 70
8
 71
3
 72
8
 73
4
 74
0
 40
0
 40
0
 40
0
 40
0
 40
1
 40
1
 40
1
 40
1
 10
29.599770
 20
14.593026
 30
0.0
 10
29.616725
 20
14.835146
 30
0.0
 10
29.564930
 20
15.065106
 30
0.0
 10
29.412287
 20
15.228566
 30
0.0
  0
SPLINE
  5
212
100
AcDbEntity
  8
vector_engraving
 62
5
100
AcDbSpline
 70
8
 71
3
 72
8
 73
4
 74
0
 40
0
 40
0
 40
0
 40
0
 40
1
 40
1
 40
1
 40
1
 10
29.412287
 20
15.228566
 30
0.0
 10
29.249172
 20
15.404076
 30
0.0
 10
29.006155
 20
15.488996
 30
0.0
 10
28.764037
 20
15.505956
 30
0.0
  0
SPLINE
  5
213
100
AcDbEntity
  8
vector_engraving
 62
5
100
AcDbSpline
 70
8
 71
3
 72
8
 73
4
 74
0
 40
0
 40
0
 40
0
 40
0
 40
1
 40
1
 40
1
 40
1
 10
28.764037
 20
15.505956
 30
0.0
 10
28.612009
 20
15.516556
 30
0.0
 10
28.324846
 20
15.536756
 30
0.0
 10
28.189710
 20
15.546156
 30
0.0
  0
SPLINE
  5
214
100
AcDbEntity
  8
vector_engraving
 62
5
100
AcDbSpline
 70
8
 71
3
 72
8
 73
4
 74
0
 40
0
 40
0
 40
0
 40
0
 40
1
 40
1
 40
1
 40
1
 10
28.189710
 20
15.546156
 30
0.0
 10
28.116511
 20
15.551156
 30
0.0
 10
28.077491
 20
15.559656
 30
0.0
 10
28.040947
 20
15.522656
 30
0.0
  0
SPLINE
  5
215
100
AcDbEntity
  8
vector_engraving
 62
5
100
AcDbSpline
 70
8
 71
3
 72
8
 73
4
 74
0
 40
0
 40
0
 40
0
 40
0
 40
1
 40
1
 40
1
 40
1
 10
28.040947
 20
15.522656
 30
0.0
 10
28.016453
 20
15.496056
 30
0.0
 10
28.012904
 20
15.445456
 30
0.0
 10
28.008567
 20
15.383476
 30
0.0
  0
SPLINE
  5
216
100
AcDbEntity
  8
vector_engraving
 62
5
100
AcDbSpline
 70
8
 71
3
 72
8
 73
4
 74
0
 40
0
 40
0
 40
0
 40
0
 40
1
 40
1
 40
1
 40
1
 10
28.008567
 20
15.383476
 30
0.0
 10
27.932070
 20
14.291126
 30
0.0
 10
27.835070
 20
12.905986
 30
0.0
 10
27.756996
 20
11.791116
 30
0.0
  0
SPLINE
  5
217
100
AcDbEntity
  8
vector_engraving
 62
5
100
AcDbSpline
 70
8
 71
3
 72
8
 73
4
 74
0
 40
0
 40
0
 40
0
 40
0
 40
1
 40
1
 40
1
 40
1
 10
27.756996
 20
11.791116
 30
0.0
 10
27.753056
 20
11.734816
 30
0.0
 10
27.749506
 20
11.684136
 30
0.0
 10
27.770055
 20
11.654406
 30
0.0
  0
SPLINE
  5
218
100
AcDbEntity
  8
vector_engraving
 62
5
100
AcDbSpline
 70
8
 71
3
 72
8
 73
4
 74
0
 40
0
 40
0
 40
0
 40
0
 40
1
 40
1
 40
1
 40
1
 10
27.770055
 20
11.654406
 30
0.0
 10
27.789423
 20
11.607806
 30
0.0
 10
27.834863
 20
11.610206
 30
0.0
 10
27.908061
 20
11.605106
 30
0.0
  0
SPLINE
  5
219
100
AcDbEntity
  8
vector_engraving
 62
5
100
AcDbSpline
 70
8
 71
3
 72
8
 73
4
 74
0
 40
0
 40
0
 40
0
 40
0
 40
1
 40
1
 40
1
 40
1
 10
27.908061
 20
11.605106
 30
0.0
 10
28.054458
 20
11.594906
 30
0.0
 10
28.307838
 20
11.577106
 30
0.0
 10
28.493649
 20
11.564106
 30
0.0
  0
SPLINE
  5
21a
100
AcDbEntity
  8
vector_engraving
 62
5
100
AcDbSpline
 70
8
 71
3
 72
8
 73
4
 74
0
 40
0
 40
0
 40
0
 40
0
 40
1
 40
1
 40
1
 40
1
 10
28.493649
 20
11.564106
 30
0.0
 10
28.701983
 20
11.549506
 30
0.0
 10
28.964937
 20
11.587706
 30
0.0
 10
29.158130
 20
11.760886
 30
0.0
  0
SPLINE
  5
21b
100
AcDbEntity
  8
vector_engraving
 62
5
100
AcDbSpline
 70
8
 71
3
 72
8
 73
4
 74
0
 40
0
 40
0
 40
0
 40
0
 40
1
 40
1
 40
1
 40
1
 10
29.158130
 20
11.760886
 30
0.0
 10
29.363373
 20
11.944546
 30
0.0
 10
29.428638
 20
12.149336
 30
0.0
 10
29.443228
 20
12.357666
 30
0.0
  0
LWPOLYLINE
  5
21c
100
AcDbEntity
  8
vector_engraving
 62
5
100
AcDbPolyline
 90
1
 70
1
 10
24.889449
 20
13.130576
 30
0.0
  0
SPLINE
  5
21d
100
AcDbEntity
  8
vector_engraving
 62
5
100
AcDbSpline
 70
8
 71
3
 72
8
 73
4
 74
0
 40
0
 40
0
 40
0
 40
0
 40
1
 40
1
 40
1
 40
1
 10
28.983379
 20
14.517366
 30
0.0
 10
28.930541
 20
13.762866
 30
0.0
 10
28.895842
 20
13.267366
 30
0.0
 10
28.843003
 20
12.512856
 30
0.0
  0
SPLINE
  5
21e
100
AcDbEntity
  8
vector_engraving
 62
5
100
AcDbSpline
 70
8
 71
3
 72
8
 73
4
 74
0
 40
0
 40
0
 40
0
 40
0
 40
1
 40
1
 40
1
 40
1
 10
28.843003
 20
12.512856
 30
0.0
 10
28.837093
 20
12.428356
 30
0.0
 10
28.836013
 20
12.332286
 30
0.0
 10
28.761744
 20
12.241296
 30
0.0
  0
SPLINE
  5
21f
100
AcDbEntity
  8
vector_engraving
 62
5
100
AcDbSpline
 70
8
 71
3
 72
8
 73
4
 74
0
 40
0
 40
0
 40
0
 40
0
 40
1
 40
1
 40
1
 40
1
 10
28.761744
 20
12.241296
 30
0.0
 10
28.694286
 20
12.166796
 30
0.0
 10
28.608250
 20
12.150196
 30
0.0
 10
28.540682
 20
12.154896
 30
0.0
  0
SPLINE
  5
220
100
AcDbEntity
  8
vector_engraving
 62
5
100
AcDbSpline
 70
8
 71
3
 72
8
 73
4
 74
0
 40
0
 40
0
 40
0
 40
0
 40
1
 40
1
 40
1
 40
1
 10
28.540682
 20
12.154896
 30
0.0
 10
28.490006
 20
12.158896
 30
0.0
 10
28.427674
 20
12.156896
 30
0.0
 10
28.411965
 20
12.175196
 30
0.0
  0
SPLINE
  5
221
100
AcDbEntity
  8
vector_engraving
 62
5
100
AcDbSpline
 70
8
 71
3
 72
8
 73
4
 74
0
 40
0
 40
0
 40
0
 40
0
 40
1
 40
1
 40
1
 40
1
 10
28.411965
 20
12.175196
 30
0.0
 10
28.391020
 20
12.199296
 30
0.0
 10
28.393780
 20
12.238696
 30
0.0
 10
28.397329
 20
12.289386
 30
0.0
  0
SPLINE
  5
222
100
AcDbEntity
  8
vector_engraving
 62
5
100
AcDbSpline
 70
8
 71
3
 72
8
 73
4
 74
0
 40
0
 40
0
 40
0
 40
0
 40
1
 40
1
 40
1
 40
1
 10
28.397329
 20
12.289386
 30
0.0
 10
28.457659
 20
13.150876
 30
0.0
 10
28.513257
 20
13.944796
 30
0.0
 10
28.574770
 20
14.823176
 30
0.0
  0
SPLINE
  5
223
100
AcDbEntity
  8
vector_engraving
 62
5
100
AcDbSpline
 70
8
 71
3
 72
8
 73
4
 74
0
 40
0
 40
0
 40
0
 40
0
 40
1
 40
1
 40
1
 40
1
 10
28.574770
 20
14.823176
 30
0.0
 10
28.577140
 20
14.856976
 30
0.0
 10
28.578710
 20
14.879476
 30
0.0
 10
28.597182
 20
14.900776
 30
0.0
  0
SPLINE
  5
224
100
AcDbEntity
  8
vector_engraving
 62
5
100
AcDbSpline
 70
8
 71
3
 72
8
 73
4
 74
0
 40
0
 40
0
 40
0
 40
0
 40
1
 40
1
 40
1
 40
1
 10
28.597182
 20
14.900776
 30
0.0
 10
28.615651
 20
14.922076
 30
0.0
 10
28.660696
 20
14.918976
 30
0.0
 10
28.750787
 20
14.912676
 30
0.0
  0
SPLINE
  5
225
100
AcDbEntity
  8
vector_engraving
 62
5
100
AcDbSpline
 70
8
 71
3
 72
8
 73
4
 74
0
 40
0
 40
0
 40
0
 40
0
 40
1
 40
1
 40
1
 40
1
 10
28.750787
 20
14.912676
 30
0.0
 10
28.852139
 20
14.905676
 30
0.0
 10
28.889976
 20
14.880276
 30
0.0
 10
28.931867
 20
14.832076
 30
0.0
  0
SPLINE
  5
226
100
AcDbEntity
  8
vector_engraving
 62
5
100
AcDbSpline
 70
8
 71
3
 72
8
 73
4
 74
0
 40
0
 40
0
 40
0
 40
0
 40
1
 40
1
 40
1
 40
1
 10
28.931867
 20
14.832076
 30
0.0
 10
28.993520
 20
14.742876
 30
0.0
 10
28.991659
 20
14.635506
 30
0.0
 10
28.983378
 20
14.517256
 30
0.0
  0
LWPOLYLINE
  5
227
100
AcDbEntity
  8
vector_engraving
 62
5
100
AcDbPolyline
 90
1
 70
1
 10
29.443228
 20
12.357666
 30
0.0
  0
SPLINE
  5
228
100
AcDbEntity
  8
vector_engraving
 62
5
100
AcDbSpline
 70
8
 71
3
 72
8
 73
4
 74
0
 40
0
 40
0
 40
0
 40
0
 40
1
 40
1
 40
1
 40
1
 10
30.390613
 20
11.472106
 30
0.0
 10
30.447543
 20
11.795726
 30
0.0
 10
30.488413
 20
12.001776
 30
0.0
 10
30.549967
 20
12.313656
 30
0.0
  0
SPLINE
  5
229
100
AcDbEntity
  8
vector_engraving
 62
5
100
AcDbSpline
 70
8
 71
3
 72
8
 73
4
 74
0
 40
0
 40
0
 40
0
 40
0
 40
1
 40
1
 40
1
 40
1
 10
30.549967
 20
12.313656
 30
0.0
 10
30.560557
 20
12.369356
 30
0.0
 10
30.615787
 20
12.353156
 30
0.0
 10
30.722618
 20
12.343756
 30
0.0
  0
SPLINE
  5
22a
100
AcDbEntity
  8
vector_engraving
 62
5
100
AcDbSpline
 70
8
 71
3
 72
8
 73
4
 74
0
 40
0
 40
0
 40
0
 40
0
 40
1
 40
1
 40
1
 40
1
 10
30.722618
 20
12.343756
 30
0.0
 10
30.812578
 20
12.335756
 30
0.0
 10
30.881042
 20
12.340756
 30
0.0
 10
30.881697
 20
12.284356
 30
0.0
  0
SPLINE
  5
22b
100
AcDbEntity
  8
vector_engraving
 62
5
100
AcDbSpline
 70
8
 71
3
 72
8
 73
4
 74
0
 40
0
 40
0
 40
0
 40
0
 40
1
 40
1
 40
1
 40
1
 10
30.881697
 20
12.284356
 30
0.0
 10
30.899357
 20
11.971146
 30
0.0
 10
30.902967
 20
11.755496
 30
0.0
 10
30.920127
 20
11.436666
 30
0.0
  0
SPLINE
  5
22c
100
AcDbEntity
  8
vector_engraving
 62
5
100
AcDbSpline
 70
8
 71
3
 72
8
 73
4
 74
0
 40
0
 40
0
 40
0
 40
0
 40
1
 40
1
 40
1
 40
1
 10
30.920127
 20
11.436666
 30
0.0
 10
30.924427
 20
11.356966
 30
0.0
 10
31.032238
 20
11.358766
 30
0.0
 10
31.195292
 20
11.344366
 30
0.0
  0
SPLINE
  5
22d
100
AcDbEntity
  8
vector_engraving
 62
5
100
AcDbSpline
 70
8
 71
3
 72
8
 73
4
 74
0
 40
0
 40
0
 40
0
 40
0
 40
1
 40
1
 40
1
 40
1
 10
31.195292
 20
11.344366
 30
0.0
 10
31.347101
 20
11.330966
 30
0.0
 10
31.515280
 20
11.310466
 30
0.0
 10
31.509500
 20
11.373266
 30
0.0
  0
SPLINE
  5
22e
100
AcDbEntity
  8
vector_engraving
 62
5
100
AcDbSpline
 70
8
 71
3
 72
8
 73
4
 74
0
 40
0
 40
0
 40
0
 40
0
 40
1
 40
1
 40
1
 40
1
 10
31.509500
 20
11.373266
 30
0.0
 10
31.414260
 20
12.860616
 30
0.0
 10
31.368065
 20
13.748666
 30
0.0
 10
31.275965
 20
15.207406
 30
0.0
  0
SPLINE
  5
22f
100
AcDbEntity
  8
vector_engraving
 62
5
100
AcDbSpline
 70
8
 71
3
 72
8
 73
4
 74
0
 40
0
 40
0
 40
0
 40
0
 40
1
 40
1
 40
1
 40
1
 10
31.275965
 20
15.207406
 30
0.0
 10
31.273165
 20
15.304006
 30
0.0
 10
31.121854
 20
15.323026
 30
0.0
 10
30.981290
 20
15.335446
 30
0.0
  0
SPLINE
  5
230
100
AcDbEntity
  8
vector_engraving
 62
5
100
AcDbSpline
 70
8
 71
3
 72
8
 73
4
 74
0
 40
0
 40
0
 40
0
 40
0
 40
1
 40
1
 40
1
 40
1
 10
30.981290
 20
15.335446
 30
0.0
 10
30.857594
 20
15.346346
 30
0.0
 10
30.699666
 20
15.354646
 30
0.0
 10
30.681466
 20
15.276946
 30
0.0
  0
SPLINE
  5
231
100
AcDbEntity
  8
vector_engraving
 62
5
100
AcDbSpline
 70
8
 71
3
 72
8
 73
4
 74
0
 40
0
 40
0
 40
0
 40
0
 40
1
 40
1
 40
1
 40
1
 10
30.681466
 20
15.276946
 30
0.0
 10
30.376195
 20
13.938306
 30
0.0
 10
30.143070
 20
12.967276
 30
0.0
 10
29.805373
 20
11.518176
 30
0.0
  0
SPLINE
  5
232
100
AcDbEntity
  8
vector_engraving
 62
5
100
AcDbSpline
 70
8
 71
3
 72
8
 73
4
 74
0
 40
0
 40
0
 40
0
 40
0
 40
1
 40
1
 40
1
 40
1
 10
29.805373
 20
11.518176
 30
0.0
 10
29.795279
 20
11.468076
 30
0.0
 10
29.992069
 20
11.450676
 30
0.0
 10
30.076407
 20
11.443276
 30
0.0
  0
SPLINE
  5
233
100
AcDbEntity
  8
vector_engraving
 62
5
100
AcDbSpline
 70
8
 71
3
 72
8
 73
4
 74
0
 40
0
 40
0
 40
0
 40
0
 40
1
 40
1
 40
1
 40
1
 10
30.076407
 20
11.443276
 30
0.0
 10
30.256328
 20
11.427376
 30
0.0
 10
30.379527
 20
11.410876
 30
0.0
 10
30.390614
 20
11.472176
 30
0.0
  0
LWPOLYLINE
  5
234
100
AcDbEntity
  8
vector_engraving
 62
5
100
AcDbPolyline
 90
2
 70
0
 10
28.983378
 20
14.517256
 30
0.0
 10
28.983379
 20
14.517366
 30
0.0
  0
SPLINE
  5
235
100
AcDbEntity
  8
vector_engraving
 62
5
100
AcDbSpline
 70
8
 71
3
 72
8
 73
4
 74
0
 40
0
 40
0
 40
0
 40
0
 40
1
 40
1
 40
1
 40
1
 10
30.645778
 20
12.820836
 30
0.0
 10
30.700068
 20
13.178696
 30
0.0
 10
30.747393
 20
13.457836
 30
0.0
 10
30.814256
 20
13.893906
 30
0.0
  0
SPLINE
  5
236
100
AcDbEntity
  8
vector_engraving
 62
5
100
AcDbSpline
 70
8
 71
3
 72
8
 73
4
 74
0
 40
0
 40
0
 40
0
 40
0
 40
1
 40
1
 40
1
 40
1
 10
30.814256
 20
13.893906
 30
0.0
 10
30.816256
 20
13.916406
 30
0.0
 10
30.839906
 20
14.055966
 30
0.0
 10
30.868016
 20
14.053486
 30
0.0
  0
SPLINE
  5
237
100
AcDbEntity
  8
vector_engraving
 62
5
100
AcDbSpline
 70
8
 71
3
 72
8
 73
4
 74
0
 40
0
 40
0
 40
0
 40
0
 40
1
 40
1
 40
1
 40
1
 10
30.868016
 20
14.053486
 30
0.0
 10
30.907376
 20
14.050486
 30
0.0
 10
30.907686
 20
13.925316
 30
0.0
 10
30.905206
 20
13.897206
 30
0.0
  0
SPLINE
  5
238
100
AcDbEntity
  8
vector_engraving
 62
5
100
AcDbSpline
 70
8
 71
3
 72
8
 73
4
 74
0
 40
0
 40
0
 40
0
 40
0
 40
1
 40
1
 40
1
 40
1
 10
30.905206
 20
13.897206
 30
0.0
 10
30.894076
 20
13.450536
 30
0.0
 10
30.890076
 20
13.212896
 30
0.0
 10
30.881426
 20
12.794346
 30
0.0
  0
SPLINE
  5
239
100
AcDbEntity
  8
vector_engraving
 62
5
100
AcDbSpline
 70
8
 71
3
 72
8
 73
4
 74
0
 40
0
 40
0
 40
0
 40
0
 40
1
 40
1
 40
1
 40
1
 10
30.881426
 20
12.794346
 30
0.0
 10
30.882626
 20
12.743246
 30
0.0
 10
30.827346
 20
12.759446
 30
0.0
 10
30.754253
 20
12.765946
 30
0.0
  0
SPLINE
  5
23a
100
AcDbEntity
  8
vector_engraving
 62
5
100
AcDbSpline
 70
8
 71
3
 72
8
 73
4
 74
0
 40
0
 40
0
 40
0
 40
0
 40
1
 40
1
 40
1
 40
1
 10
30.754253
 20
12.765946
 30
0.0
 10
30.669913
 20
12.772946
 30
0.0
 10
30.636676
 20
12.782046
 30
0.0
 10
30.645776
 20
12.820846
 30
0.0
  0
LWPOLYLINE
  5
23b
100
AcDbEntity
  8
vector_engraving
 62
5
100
AcDbPolyline
 90
1
 70
1
 10
30.390614
 20
11.472176
 30
0.0
  0
SPLINE
  5
23c
100
AcDbEntity
  8
vector_engraving
 62
5
100
AcDbSpline
 70
8
 71
3
 72
8
 73
4
 74
0
 40
0
 40
0
 40
0
 40
0
 40
1
 40
1
 40
1
 40
1
 10
32.239392
 20
12.617366
 30
0.0
 10
32.186262
 20
12.117826
 30
0.0
 10
32.143632
 20
11.770436
 30
0.0
 10
32.095269
 20
11.315796
 30
0.0
  0
SPLINE
  5
23d
100
AcDbEntity
  8
vector_engraving
 62
5
100
AcDbSpline
 70
8
 71
3
 72
8
 73
4
 74
0
 40
0
 40
0
 40
0
 40
0
 40
1
 40
1
 40
1
 40
1
 10
32.095269
 20
11.315796
 30
0.0
 10
32.088069
 20
11.248496
 30
0.0
 10
32.296374
 20
11.231996
 30
0.0
 10
32.386179
 20
11.222396
 30
0.0
  0
SPLINE
  5
23e
100
AcDbEntity
  8
vector_engraving
 62
5
100
AcDbSpline
 70
8
 71
3
 72
8
 73
4
 74
0
 40
0
 40
0
 40
0
 40
0
 40
1
 40
1
 40
1
 40
1
 10
32.386179
 20
11.222396
 30
0.0
 10
32.459149
 20
11.214396
 30
0.0
 10
32.694285
 20
11.183896
 30
0.0
 10
32.699658
 20
11.234496
 30
0.0
  0
SPLINE
  5
23f
100
AcDbEntity
  8
vector_engraving
 62
5
100
AcDbSpline
 70
8
 71
3
 72
8
 73
4
 74
0
 40
0
 40
0
 40
0
 40
0
 40
1
 40
1
 40
1
 40
1
 10
32.699658
 20
11.234496
 30
0.0
 10
32.749808
 20
11.705966
 30
0.0
 10
32.791008
 20
12.093246
 30
0.0
 10
32.841751
 20
12.570336
 30
0.0
  0
SPLINE
  5
240
100
AcDbEntity
  8
vector_engraving
 62
5
100
AcDbSpline
 70
8
 71
3
 72
8
 73
4
 74
0
 40
0
 40
0
 40
0
 40
0
 40
1
 40
1
 40
1
 40
1
 10
32.841751
 20
12.570336
 30
0.0
 10
32.852501
 20
12.671366
 30
0.0
 10
32.890471
 20
12.814906
 30
0.0
 10
32.907071
 20
12.864226
 30
0.0
  0
SPLINE
  5
241
100
AcDbEntity
  8
vector_engraving
 62
5
100
AcDbSpline
 70
8
 71
3
 72
8
 73
4
 74
0
 40
0
 40
0
 40
0
 40
0
 40
1
 40
1
 40
1
 40
1
 10
32.907071
 20
12.864226
 30
0.0
 10
32.933461
 20
12.952226
 30
0.0
 10
32.963431
 20
13.073936
 30
0.0
 10
33.004041
 20
13.188816
 30
0.0
  0
SPLINE
  5
242
100
AcDbEntity
  8
vector_engraving
 62
5
100
AcDbSpline
 70
8
 71
3
 72
8
 73
4
 74
0
 40
0
 40
0
 40
0
 40
0
 40
1
 40
1
 40
1
 40
1
 10
33.004041
 20
13.188816
 30
0.0
 10
33.231648
 20
13.834406
 30
0.0
 10
33.392620
 20
14.333826
 30
0.0
 10
33.603389
 20
14.981206
 30
0.0
  0
SPLINE
  5
243
100
AcDbEntity
  8
vector_engraving
 62
5
100
AcDbSpline
 70
8
 71
3
 72
8
 73
4
 74
0
 40
0
 40
0
 40
0
 40
0
 40
1
 40
1
 40
1
 40
1
 10
33.603389
 20
14.981206
 30
0.0
 10
33.627989
 20
15.052406
 30
0.0
 10
33.488266
 20
15.072906
 30
0.0
 10
33.336721
 20
15.089046
 30
0.0
  0
SPLINE
  5
244
100
AcDbEntity
  8
vector_engraving
 62
5
100
AcDbSpline
 70
8
 71
3
 72
8
 73
4
 74
0
 40
0
 40
0
 40
0
 40
0
 40
1
 40
1
 40
1
 40
1
 10
33.336721
 20
15.089046
 30
0.0
 10
33.190789
 20
15.104546
 30
0.0
 10
33.031840
 20
15.104446
 30
0.0
 10
33.012853
 20
15.032646
 30
0.0
  0
SPLINE
  5
245
100
AcDbEntity
  8
vector_engraving
 62
5
100
AcDbSpline
 70
8
 71
3
 72
8
 73
4
 74
0
 40
0
 40
0
 40
0
 40
0
 40
1
 40
1
 40
1
 40
1
 10
33.012853
 20
15.032646
 30
0.0
 10
32.891767
 20
14.534656
 30
0.0
 10
32.813074
 20
14.168396
 30
0.0
 10
32.686972
 20
13.676616
 30
0.0
  0
SPLINE
  5
246
100
AcDbEntity
  8
vector_engraving
 62
5
100
AcDbSpline
 70
8
 71
3
 72
8
 73
4
 74
0
 40
0
 40
0
 40
0
 40
0
 40
1
 40
1
 40
1
 40
1
 10
32.686972
 20
13.676616
 30
0.0
 10
32.685172
 20
13.659816
 30
0.0
 10
32.675392
 20
13.621116
 30
0.0
 10
32.652942
 20
13.623516
 30
0.0
  0
SPLINE
  5
247
100
AcDbEntity
  8
vector_engraving
 62
5
100
AcDbSpline
 70
8
 71
3
 72
8
 73
4
 74
0
 40
0
 40
0
 40
0
 40
0
 40
1
 40
1
 40
1
 40
1
 10
32.652942
 20
13.623516
 30
0.0
 10
32.630492
 20
13.625516
 30
0.0
 10
32.622842
 20
13.660816
 30
0.0
 10
32.624642
 20
13.677616
 30
0.0
  0
SPLINE
  5
248
100
AcDbEntity
  8
vector_engraving
 62
5
100
AcDbSpline
 70
8
 71
3
 72
8
 73
4
 74
0
 40
0
 40
0
 40
0
 40
0
 40
1
 40
1
 40
1
 40
1
 10
32.624642
 20
13.677616
 30
0.0
 10
32.611262
 20
14.138826
 30
0.0
 10
32.596092
 20
14.583186
 30
0.0
 10
32.580672
 20
15.078666
 30
0.0
  0
SPLINE
  5
249
100
AcDbEntity
  8
vector_engraving
 62
5
100
AcDbSpline
 70
8
 71
3
 72
8
 73
4
 74
0
 40
0
 40
0
 40
0
 40
0
 40
1
 40
1
 40
1
 40
1
 10
32.580672
 20
15.078666
 30
0.0
 10
32.578372
 20
15.164066
 30
0.0
 10
32.421841
 20
15.186376
 30
0.0
 10
32.247845
 20
15.204886
 30
0.0
  0
SPLINE
  5
24a
100
AcDbEntity
  8
vector_engraving
 62
5
100
AcDbSpline
 70
8
 71
3
 72
8
 73
4
 74
0
 40
0
 40
0
 40
0
 40
0
 40
1
 40
1
 40
1
 40
1
 10
32.247845
 20
15.204886
 30
0.0
 10
32.152425
 20
15.214986
 30
0.0
 10
31.977834
 20
15.227886
 30
0.0
 10
31.986911
 20
15.153186
 30
0.0
  0
SPLINE
  5
24b
100
AcDbEntity
  8
vector_engraving
 62
5
100
AcDbSpline
 70
8
 71
3
 72
8
 73
4
 74
0
 40
0
 40
0
 40
0
 40
0
 40
1
 40
1
 40
1
 40
1
 10
31.986911
 20
15.153186
 30
0.0
 10
32.057381
 20
14.481566
 30
0.0
 10
32.127367
 20
13.912166
 30
0.0
 10
32.209059
 20
13.239346
 30
0.0
  0
SPLINE
  5
24c
100
AcDbEntity
  8
vector_engraving
 62
5
100
AcDbSpline
 70
8
 71
3
 72
8
 73
4
 74
0
 40
0
 40
0
 40
0
 40
0
 40
1
 40
1
 40
1
 40
1
 10
32.209059
 20
13.239346
 30
0.0
 10
32.223989
 20
13.112886
 30
0.0
 10
32.248349
 20
12.968386
 30
0.0
 10
32.251819
 20
12.894226
 30
0.0
  0
SPLINE
  5
24d
100
AcDbEntity
  8
vector_engraving
 62
5
100
AcDbSpline
 70
8
 71
3
 72
8
 73
4
 74
0
 40
0
 40
0
 40
0
 40
0
 40
1
 40
1
 40
1
 40
1
 10
32.251819
 20
12.894226
 30
0.0
 10
32.256519
 20
12.831326
 30
0.0
 10
32.250119
 20
12.718436
 30
0.0
 10
32.239399
 20
12.617406
 30
0.0
  0
LWPOLYLINE
  5
24e
100
AcDbEntity
  8
vector_engraving
 62
5
100
AcDbPolyline
 90
1
 70
1
 10
30.645776
 20
12.820846
 30
0.0
  0
LWPOLYLINE
  5
24f
100
AcDbEntity
  8
vector_engraving
 62
5
100
AcDbPolyline
 90
1
 70
1
 10
32.239399
 20
12.617406
 30
0.0
  0
LWPOLYLINE
  5
250
100
AcDbEntity
  8
vector_engraving
 62
5
100
AcDbPolyline
 90
7
 70
0
 10
17.683800
 20
41.476886
 30
0.0
 10
3.105140
 20
33.059926
 30
0.0
 10
3.105140
 20
13.405166
 30
0.0
 10
20.126668
 20
3.577786
 30
0.0
 10
37.148196
 20
13.405166
 30
0.0
 10
37.148196
 20
33.059926
 30
0.0
 10
22.570127
 20
41.476586
 30
0.0
  0
LWPOLYLINE
  5
251
100
AcDbEntity
  8
vector_engraving
 62
5
100
AcDbPolyline
 90
5
 70
0
 10
31.433963
 20
10.106046
 30
0.0
 10
25.772614
 20
10.507493
 30
0.0
 10
20.072509
 20
10.629076
 30
0.0
 10
14.410557
 20
10.482744
 30
0.0
 10
8.863667
 20
10.080446
 30
0.0
  0
LWPOLYLINE
  5
252
100
AcDbEntity
  8
vector_engraving
 62
5
100
AcDbPolyline
 90
9
 70
0
 10
37.148196
 20
15.431966
 30
0.0
 10
32.931892
 20
15.995195
 30
0.0
 10
28.635495
 20
16.386774
 30
0.0
 10
24.293469
 20
16.611889
 30
0.0
 10
19.940278
 20
16.675724
 30
0.0
 10
15.610386
 20
16.583463
 30
0.0
 10
11.338256
 20
16.340294
 30
0.0
 10
7.158353
 20
15.951400
 30
0.0
 10
3.105140
 20
15.421966
 30
0.0
  0
LWPOLYLINE
  5
253
100
AcDbEntity
  8
vector_engraving
 62
7
100
AcDbPolyline
 90
9
 70
0
 10
1.479843
 20
10.330946
 30
0.0
 10
5.879803
 20
10.967736
 30
0.0
 10
10.446892
 20
11.436514
 30
0.0
 10
15.134939
 20
11.730318
 30
0.0
 10
19.897770
 20
11.842181
 30
0.0
 10
24.689213
 20
11.765140
 30
0.0
 10
29.463097
 20
11.492230
 30
0.0
 10
34.173247
 20
11.016487
 30
0.0
 10
38.773493
 20
10.330946
 30
0.0
  0
SPLINE
  5
254
100
AcDbEntity
  8
cutting
 62
1
100
AcDbSpline
 70
8
 71
3
 72
8
 73
4
 74
0
 40
0
 40
0
 40
0
 40
0
 40
1
 40
1
 40
1
 40
1
 10
22.646509
 20
40.871426
 30
0.0
 10
22.646509
 20
39.971173
 30
0.0
 10
22.166230
 20
39.139306
 30
0.0
 10
21.386589
 20
38.689180
 30
0.0
  0
SPLINE
  5
255
100
AcDbEntity
  8
cutting
 62
1
100
AcDbSpline
 70
8
 71
3
 72
8
 73
4
 74
0
 40
0
 40
0
 40
0
 40
0
 40
1
 40
1
 40
1
 40
1
 10
21.386589
 20
38.689180
 30
0.0
 10
20.606947
 20
38.239053
 30
0.0
 10
19.646389
 20
38.239053
 30
0.0
 10
18.866747
 20
38.689180
 30
0.0
  0
SPLINE
  5
256
100
AcDbEntity
  8
cutting
 62
1
100
AcDbSpline
 70
8
 71
3
 72
8
 73
4
 74
0
 40
0
 40
0
 40
0
 40
0
 40
1
 40
1
 40
1
 40
1
 10
18.866747
 20
38.689180
 30
0.0
 10
18.087106
 20
39.139306
 30
0.0
 10
17.606827
 20
39.971173
 30
0.0
 10
17.606827
 20
40.871426
 30
0.0
  0
SPLINE
  5
257
100
AcDbEntity
  8
cutting
 62
1
100
AcDbSpline
 70
8
 71
3
 72
8
 73
4
 74
0
 40
0
 40
0
 40
0
 40
0
 40
1
 40
1
 40
1
 40
1
 10
17.606827
 20
40.871426
 30
0.0
 10
17.606827
 20
41.771679
 30
0.0
 10
18.087106
 20
42.603546
 30
0.0
 10
18.866747
 20
43.053672
 30
0.0
  0
SPLINE
  5
258
100
AcDbEntity
  8
cutting
 62
1
100
AcDbSpline
 70
8
 71
3
 72
8
 73
4
 74
0
 40
0
 40
0
 40
0
 40
0
 40
1
 40
1
 40
1
 40
1
 10
18.866747
 20
43.053672
 30
0.0
 10
19.646389
 20
43.503799
 30
0.0
 10
20.606947
 20
43.503799
 30
0.0
 10
21.386589
 20
43.053672
 30
0.0
  0
SPLINE
  5
259
100
AcDbEntity
  8
cutting
 62
1
100
AcDbSpline
 70
8
 71
3
 72
8
 73
4
 74
0
 40
0
 40
0
 40
0
 40
0
 40
1
 40
1
 40
1
 40
1
 10
21.386589
 20
43.053672
 30
0.0
 10
22.166230
 20
42.603546
 30
0.0
 10
22.646509
 20
41.771679
 30
0.0
 10
22.646509
 20
40.871426
 30
0.0
  0
LWPOLYLINE
  5
25a
100
AcDbEntity
  8
cutting
 62
1
100
AcDbPolyline
 90
6
 70
1
 10
20.126669
 20
46.415076
 30
0.0
 10
40.203336
 20
34.823806
 30
0.0
 10
40.203335
 20
11.641266
 30
0.0
 10
20.126667
 20
0.049996
 30
0.0
 10
0.050000
 20
11.641266
 30
0.0
 10
0.050001
 20
34.823806
 30
0.0
  0
LWPOLYLINE
  5
25b
100
AcDbEntity
  8
cutting
 62
1
100
AcDbPolyline
 90
1
 70
1
 10
22.646509
 20
40.871426
 30
0.0
  0
ENDSEC
  0
SECTION
  2
OBJECTS
  0
DICTIONARY
  5
C
330
0
100
AcDbDictionary
  3
ACAD_GROUP
350
D
  3
ACAD_MLINESTYLE
350
17
  0
DICTIONARY
  5
D
330
C
100
AcDbDictionary
  0
DICTIONARY
  5
1A
330
C
100
AcDbDictionary
  0
DICTIONARY
  5
17
330
C
100
AcDbDictionary
  3
STANDARD
350
18
  0
DICTIONARY
  5
19
330
C
100
AcDbDictionary
  0
ENDSEC
  0
EOF
