  0
SECTION
  2
HEADER
  9
$ACADVER
  1
AC1014
  9
$HANDSEED
  5
FFFF
  9
$MEASUREMENT
 70
     1
  0
ENDSEC
  0
SECTION
  2
TABLES
  0
TABLE
  2
VPORT
  5
8
330
0
100
AcDbSymbolTable
 70
     4
  0
VPORT
  5
2E
330
8
100
AcDbSymbolTableRecord
100
AcDbViewportTableRecord
  2
*ACTIVE
 70
     0
 10
0.0
 20
0.0
 11
1.0
 21
1.0
 12
210.0
 22
148.5
 13
0.0
 23
0.0
 14
10.0
 24
10.0
 15
10.0
 25
10.0
 16
0.0
 26
0.0
 36
1.0
 17
0.0
 27
0.0
 37
0.0
 40
341.0
 41
1.24
 42
50.0
 43
0.0
 44
0.0
 50
0.0
 51
0.0
 71
     0
 72
   100
 73
     1
 74
     3
 75
     0
 76
     0
 77
     0
 78
     0
  0
ENDTAB
  0
TABLE
  2
LTYPE
  5
5
330
0
100
AcDbSymbolTable
 70
     1
  0
LTYPE
  5
14
330
5
100
AcDbSymbolTableRecord
100
AcDbLinetypeTableRecord
  2
BYBLOCK
 70
     0
  3

 72
    65
 73
     0
 40
0.0
  0
LTYPE
  5
15
330
5
100
AcDbSymbolTableRecord
100
AcDbLinetypeTableRecord
  2
BYLAYER
 70
     0
  3

 72
    65
 73
     0
 40
0.0
  0
LTYPE
  5
16
330
5
100
AcDbSymbolTableRecord
100
AcDbLinetypeTableRecord
  2
CONTINUOUS
 70
     0
  3
Solid line
 72
    65
 73
     0
 40
0.0
  0
ENDTAB
  0
TABLE
  2
LAYER
  5
2
100
AcDbSymbolTable
 70
8
  0
LAYER
  5
50
100
AcDbSymbolTableRecord
100
AcDbLayerTableRecord
  2
0
 70
0
  6
CONTINUOUS
  0
LAYER
  5
51
100
AcDbSymbolTableRecord
100
AcDbLayerTableRecord
  2
medal_original
 70
0
  6
CONTINUOUS
  0
LAYER
  5
52
100
AcDbSymbolTableRecord
100
AcDbLayerTableRecord
  2
pikachu_surf
 70
0
  6
CONTINUOUS
  0
LAYER
  5
53
100
AcDbSymbolTableRecord
100
AcDbLayerTableRecord
  2
engraving_1
 70
0
  6
CONTINUOUS
  0
LAYER
  5
54
100
AcDbSymbolTableRecord
100
AcDbLayerTableRecord
  2
engraving_2
 70
0
  6
CONTINUOUS
  0
LAYER
  5
55
100
AcDbSymbolTableRecord
100
AcDbLayerTableRecord
  2
engraving_3
 70
0
  6
CONTINUOUS
  0
LAYER
  5
56
100
AcDbSymbolTableRecord
100
AcDbLayerTableRecord
  2
vector_engraving
 70
0
  6
CONTINUOUS
  0
LAYER
  5
57
100
AcDbSymbolTableRecord
100
AcDbLayerTableRecord
  2
cutting
 70
0
  6
CONTINUOUS
  0
ENDTAB
  0
TABLE
  2
STYLE
  5
3
330
0
100
AcDbSymbolTable
 70
     1
  0
STYLE
  5
11
330
3
100
AcDbSymbolTableRecord
100
AcDbTextStyleTableRecord
  2
STANDARD
 70
     0
 40
0.0
 41
1.0
 50
0.0
 71
     0
 42
2.5
  3
txt
  4

  0
ENDTAB
  0
TABLE
  2
VIEW
  5
6
330
0
100
AcDbSymbolTable
 70
     0
  0
ENDTAB
  0
TABLE
  2
UCS
  5
7
330
0
100
AcDbSymbolTable
 70
     0
  0
ENDTAB
  0
TABLE
  2
APPID
  5
9
330
0
100
AcDbSymbolTable
 70
     2
  0
APPID
  5
12
330
9
100
AcDbSymbolTableRecord
100
AcDbRegAppTableRecord
  2
ACAD
 70
     0
  0
ENDTAB
  0
TABLE
  2
DIMSTYLE
  5
A
330
0
100
AcDbSymbolTable
 70
     1
  0
DIMSTYLE
105
27
330
A
100
AcDbSymbolTableRecord
100
AcDbDimStyleTableRecord
  2
ISO-25
 70
     0
  3

  4

  5

  6

  7

 40
1.0
 41
2.5
 42
0.625
 43
3.75
 44
1.25
 45
0.0
 46
0.0
 47
0.0
 48
0.0
140
2.5
141
2.5
142
0.0
143
0.03937007874016
144
1.0
145
0.0
146
1.0
147
0.625
 71
     0
 72
     0
 73
     0
 74
     0
 75
     0
 76
     0
 77
     1
 78
     8
170
     0
171
     3
172
     1
173
     0
174
     0
175
     0
176
     0
177
     0
178
     0
270
     2
271
     2
272
     2
273
     2
274
     3
340
11
275
     0
280
     0
281
     0
282
     0
283
     0
284
     8
285
     0
286
     0
287
     3
288
     0
  0
ENDTAB
  0
TABLE
  2
BLOCK_RECORD
  5
1
330
0
100
AcDbSymbolTable
 70
     1
  0
BLOCK_RECORD
  5
1F
330
1
100
AcDbSymbolTableRecord
100
AcDbBlockTableRecord
  2
*MODEL_SPACE
  0
BLOCK_RECORD
  5
1B
330
1
100
AcDbSymbolTableRecord
100
AcDbBlockTableRecord
  2
*PAPER_SPACE
  0
ENDTAB
  0
ENDSEC
  0
SECTION
  2
BLOCKS
  0
BLOCK
  5
20
330
1F
100
AcDbEntity
  8
0
100
AcDbBlockBegin
  2
*MODEL_SPACE
 70
     0
 10
0.0
 20
0.0
 30
0.0
  3
*MODEL_SPACE
  1

  0
ENDBLK
  5
21
330
1F
100
AcDbEntity
  8
0
100
AcDbBlockEnd
  0
BLOCK
  5
1C
330
1B
100
AcDbEntity
 67
     1
  8
0
100
AcDbBlockBegin
  2
*PAPER_SPACE
  1

  0
ENDBLK
  5
1D
330
1B
100
AcDbEntity
 67
     1
  8
0
100
AcDbBlockEnd
  0
ENDSEC
  0
SECTION
  2
ENTITIES
  0
LWPOLYLINE
  5
100
100
AcDbEntity
  8
engraving_1
 62
7
100
AcDbPolyline
 90
16
 70
1
 10
25.166350
 20
41.375407
 30
0.0
 10
25.166350
 20
40.367470
 30
0.0
 10
24.662382
 20
40.367470
 30
0.0
 10
24.662382
 20
39.359534
 30
0.0
 10
25.166350
 20
39.359534
 30
0.0
 10
25.166350
 20
38.855566
 30
0.0
 10
25.670318
 20
38.855566
 30
0.0
 10
25.670318
 20
38.351597
 30
0.0
 10
26.174286
 20
38.351597
 30
0.0
 10
26.174286
 20
36.839693
 30
0.0
 10
26.678255
 20
36.839693
 30
0.0
 10
26.678255
 20
39.863502
 30
0.0
 10
26.174286
 20
39.863502
 30
0.0
 10
26.174286
 20
40.871438
 30
0.0
 10
25.670318
 20
40.871438
 30
0.0
 10
25.670318
 20
41.375407
 30
0.0
  0
LWPOLYLINE
  5
101
100
AcDbEntity
  8
engraving_1
 62
7
100
AcDbPolyline
 90
4
 70
1
 10
26.174286
 20
36.839693
 30
0.0
 10
25.670318
 20
36.839693
 30
0.0
 10
25.670318
 20
35.831756
 30
0.0
 10
26.174286
 20
35.831756
 30
0.0
  0
LWPOLYLINE
  5
102
100
AcDbEntity
  8
engraving_1
 62
7
100
AcDbPolyline
 90
20
 70
1
 10
26.174286
 20
35.831756
 30
0.0
 10
26.174286
 20
35.327788
 30
0.0
 10
25.670318
 20
35.327788
 30
0.0
 10
25.670318
 20
34.823820
 30
0.0
 10
25.166350
 20
34.823820
 30
0.0
 10
25.166350
 20
35.327788
 30
0.0
 10
25.670318
 20
35.327788
 30
0.0
 10
25.670318
 20
35.831756
 30
0.0
 10
25.166350
 20
35.831756
 30
0.0
 10
24.662382
 20
35.831756
 30
0.0
 10
24.662382
 20
35.327788
 30
0.0
 10
24.662382
 20
34.319852
 30
0.0
 10
25.166350
 20
34.319852
 30
0.0
 10
25.166350
 20
33.815884
 30
0.0
 10
25.670318
 20
33.815884
 30
0.0
 10
25.670318
 20
34.319852
 30
0.0
 10
26.174286
 20
34.319852
 30
0.0
 10
26.174286
 20
34.823820
 30
0.0
 10
26.678255
 20
34.823820
 30
0.0
 10
26.678255
 20
35.831756
 30
0.0
  0
LWPOLYLINE
  5
103
100
AcDbEntity
  8
engraving_1
 62
7
100
AcDbPolyline
 90
4
 70
1
 10
26.678255
 20
34.823820
 30
0.0
 10
26.678255
 20
33.311915
 30
0.0
 10
27.182223
 20
33.311915
 30
0.0
 10
27.182223
 20
34.823820
 30
0.0
  0
LWPOLYLINE
  5
104
100
AcDbEntity
  8
engraving_1
 62
7
100
AcDbPolyline
 90
4
 70
1
 10
27.182223
 20
33.311915
 30
0.0
 10
27.182223
 20
31.800011
 30
0.0
 10
27.686191
 20
31.800011
 30
0.0
 10
27.686191
 20
33.311915
 30
0.0
  0
LWPOLYLINE
  5
105
100
AcDbEntity
  8
engraving_1
 62
7
100
AcDbPolyline
 90
4
 70
1
 10
27.182223
 20
31.800011
 30
0.0
 10
26.678255
 20
31.800011
 30
0.0
 10
26.678255
 20
31.296043
 30
0.0
 10
27.182223
 20
31.296043
 30
0.0
  0
LWPOLYLINE
  5
106
100
AcDbEntity
  8
engraving_1
 62
7
100
AcDbPolyline
 90
4
 70
1
 10
26.678255
 20
31.296043
 30
0.0
 10
26.174286
 20
31.296043
 30
0.0
 10
26.174286
 20
30.792074
 30
0.0
 10
26.678255
 20
30.792074
 30
0.0
  0
LWPOLYLINE
  5
107
100
AcDbEntity
  8
engraving_1
 62
7
100
AcDbPolyline
 90
12
 70
1
 10
26.174286
 20
30.792074
 30
0.0
 10
25.166350
 20
30.792074
 30
0.0
 10
25.166350
 20
30.288106
 30
0.0
 10
25.670318
 20
30.288106
 30
0.0
 10
25.670318
 20
29.784138
 30
0.0
 10
25.670318
 20
29.280171
 30
0.0
 10
25.670318
 20
27.768267
 30
0.0
 10
26.174286
 20
27.768267
 30
0.0
 10
26.174286
 20
29.280171
 30
0.0
 10
27.182223
 20
29.280171
 30
0.0
 10
27.182223
 20
29.784138
 30
0.0
 10
26.174286
 20
29.784138
 30
0.0
  0
LWPOLYLINE
  5
108
100
AcDbEntity
  8
engraving_1
 62
7
100
AcDbPolyline
 90
4
 70
1
 10
27.182223
 20
29.280171
 30
0.0
 10
27.182223
 20
28.776203
 30
0.0
 10
27.686191
 20
28.776203
 30
0.0
 10
27.686191
 20
29.280171
 30
0.0
  0
LWPOLYLINE
  5
109
100
AcDbEntity
  8
engraving_1
 62
7
100
AcDbPolyline
 90
4
 70
1
 10
27.686191
 20
28.776203
 30
0.0
 10
27.686191
 20
27.768267
 30
0.0
 10
28.190159
 20
27.768267
 30
0.0
 10
28.190159
 20
28.776203
 30
0.0
  0
LWPOLYLINE
  5
10a
100
AcDbEntity
  8
engraving_1
 62
7
100
AcDbPolyline
 90
4
 70
1
 10
27.686191
 20
27.768267
 30
0.0
 10
27.182223
 20
27.768267
 30
0.0
 10
27.182223
 20
27.264298
 30
0.0
 10
27.686191
 20
27.264298
 30
0.0
  0
LWPOLYLINE
  5
10b
100
AcDbEntity
  8
engraving_1
 62
7
100
AcDbPolyline
 90
8
 70
1
 10
27.182223
 20
27.264298
 30
0.0
 10
25.670318
 20
27.264298
 30
0.0
 10
25.670318
 20
27.768267
 30
0.0
 10
25.166350
 20
27.768267
 30
0.0
 10
25.166350
 20
26.256362
 30
0.0
 10
25.670318
 20
26.256362
 30
0.0
 10
25.670318
 20
26.760330
 30
0.0
 10
27.182223
 20
26.760330
 30
0.0
  0
LWPOLYLINE
  5
10c
100
AcDbEntity
  8
engraving_1
 62
7
100
AcDbPolyline
 90
11
 70
1
 10
25.166350
 20
26.256362
 30
0.0
 10
24.662382
 20
26.256362
 30
0.0
 10
24.662382
 20
25.248426
 30
0.0
 10
20.126668
 20
25.248426
 30
0.0
 10
20.126668
 20
26.256362
 30
0.0
 10
19.622700
 20
26.256362
 30
0.0
 10
19.622700
 20
24.744457
 30
0.0
 10
20.126668
 20
24.744457
 30
0.0
 10
27.686191
 20
24.744457
 30
0.0
 10
27.686191
 20
25.248426
 30
0.0
 10
25.166350
 20
25.248426
 30
0.0
  0
LWPOLYLINE
  5
10d
100
AcDbEntity
  8
engraving_1
 62
7
100
AcDbPolyline
 90
8
 70
1
 10
27.686191
 20
24.744457
 30
0.0
 10
27.686191
 20
24.240489
 30
0.0
 10
27.686191
 20
23.232553
 30
0.0
 10
28.190159
 20
23.232553
 30
0.0
 10
28.190159
 20
24.240489
 30
0.0
 10
29.702064
 20
24.240489
 30
0.0
 10
29.702064
 20
24.744457
 30
0.0
 10
28.190159
 20
24.744457
 30
0.0
  0
LWPOLYLINE
  5
10e
100
AcDbEntity
  8
engraving_1
 62
7
100
AcDbPolyline
 90
4
 70
1
 10
29.702064
 20
24.240489
 30
0.0
 10
29.702064
 20
23.736521
 30
0.0
 10
30.710000
 20
23.736521
 30
0.0
 10
30.710000
 20
24.240489
 30
0.0
  0
LWPOLYLINE
  5
10f
100
AcDbEntity
  8
engraving_1
 62
7
100
AcDbPolyline
 90
4
 70
1
 10
30.710000
 20
23.736521
 30
0.0
 10
30.710000
 20
23.232553
 30
0.0
 10
31.717937
 20
23.232553
 30
0.0
 10
31.717937
 20
23.736521
 30
0.0
  0
LWPOLYLINE
  5
110
100
AcDbEntity
  8
engraving_1
 62
7
100
AcDbPolyline
 90
4
 70
1
 10
31.717937
 20
23.232553
 30
0.0
 10
31.717937
 20
22.224616
 30
0.0
 10
32.221905
 20
22.224616
 30
0.0
 10
32.221905
 20
23.232553
 30
0.0
  0
LWPOLYLINE
  5
111
100
AcDbEntity
  8
engraving_1
 62
7
100
AcDbPolyline
 90
4
 70
1
 10
31.717937
 20
22.224616
 30
0.0
 10
31.213968
 20
22.224616
 30
0.0
 10
31.213968
 20
21.720648
 30
0.0
 10
31.717937
 20
21.720648
 30
0.0
  0
LWPOLYLINE
  5
112
100
AcDbEntity
  8
engraving_1
 62
7
100
AcDbPolyline
 90
4
 70
1
 10
31.213968
 20
21.720648
 30
0.0
 10
30.206032
 20
21.720648
 30
0.0
 10
30.206032
 20
21.216680
 30
0.0
 10
31.213968
 20
21.216680
 30
0.0
  0
LWPOLYLINE
  5
113
100
AcDbEntity
  8
engraving_1
 62
7
100
AcDbPolyline
 90
4
 70
1
 10
30.206032
 20
21.216680
 30
0.0
 10
28.190159
 20
21.216680
 30
0.0
 10
28.190159
 20
20.712712
 30
0.0
 10
30.206032
 20
20.712712
 30
0.0
  0
LWPOLYLINE
  5
114
100
AcDbEntity
  8
engraving_1
 62
7
100
AcDbPolyline
 90
4
 70
1
 10
28.190159
 20
20.712712
 30
0.0
 10
25.670318
 20
20.712712
 30
0.0
 10
25.670318
 20
20.208744
 30
0.0
 10
28.190159
 20
20.208744
 30
0.0
  0
LWPOLYLINE
  5
115
100
AcDbEntity
  8
engraving_1
 62
7
100
AcDbPolyline
 90
4
 70
1
 10
25.670318
 20
20.208744
 30
0.0
 10
22.142541
 20
20.208744
 30
0.0
 10
22.142541
 20
19.704775
 30
0.0
 10
25.670318
 20
19.704775
 30
0.0
  0
LWPOLYLINE
  5
116
100
AcDbEntity
  8
engraving_1
 62
7
100
AcDbPolyline
 90
8
 70
1
 10
22.142541
 20
19.704775
 30
0.0
 10
18.614763
 20
19.704775
 30
0.0
 10
18.614763
 20
20.208744
 30
0.0
 10
18.110795
 20
20.208744
 30
0.0
 10
18.110795
 20
19.704775
 30
0.0
 10
17.606827
 20
19.704775
 30
0.0
 10
17.606827
 20
19.200807
 30
0.0
 10
22.142541
 20
19.200807
 30
0.0
  0
LWPOLYLINE
  5
117
100
AcDbEntity
  8
engraving_1
 62
7
100
AcDbPolyline
 90
4
 70
1
 10
17.606827
 20
19.200807
 30
0.0
 10
17.102859
 20
19.200807
 30
0.0
 10
17.102859
 20
18.696839
 30
0.0
 10
17.606827
 20
18.696839
 30
0.0
  0
LWPOLYLINE
  5
118
100
AcDbEntity
  8
engraving_1
 62
7
100
AcDbPolyline
 90
4
 70
1
 10
17.102859
 20
18.696839
 30
0.0
 10
15.590954
 20
18.696839
 30
0.0
 10
15.590954
 20
18.192871
 30
0.0
 10
17.102859
 20
18.192871
 30
0.0
  0
LWPOLYLINE
  5
119
100
AcDbEntity
  8
engraving_1
 62
7
100
AcDbPolyline
 90
8
 70
1
 10
15.590954
 20
18.696839
 30
0.0
 10
15.590954
 20
20.712712
 30
0.0
 10
15.086986
 20
20.712712
 30
0.0
 10
15.086986
 20
20.208744
 30
0.0
 10
14.079050
 20
20.208744
 30
0.0
 10
14.079050
 20
19.704775
 30
0.0
 10
15.086986
 20
19.704775
 30
0.0
 10
15.086986
 20
18.696839
 30
0.0
  0
LWPOLYLINE
  5
11a
100
AcDbEntity
  8
engraving_1
 62
7
100
AcDbPolyline
 90
4
 70
1
 10
14.079050
 20
20.208744
 30
0.0
 10
14.079050
 20
20.712712
 30
0.0
 10
12.063177
 20
20.712712
 30
0.0
 10
12.063177
 20
20.208744
 30
0.0
  0
LWPOLYLINE
  5
11b
100
AcDbEntity
  8
engraving_1
 62
7
100
AcDbPolyline
 90
4
 70
1
 10
12.063177
 20
20.712712
 30
0.0
 10
12.063177
 20
21.216680
 30
0.0
 10
10.551272
 20
21.216680
 30
0.0
 10
10.551272
 20
20.712712
 30
0.0
  0
LWPOLYLINE
  5
11c
100
AcDbEntity
  8
engraving_1
 62
7
100
AcDbPolyline
 90
4
 70
1
 10
10.551272
 20
21.216680
 30
0.0
 10
10.551272
 20
22.224616
 30
0.0
 10
10.047304
 20
22.224616
 30
0.0
 10
10.047304
 20
21.216680
 30
0.0
  0
LWPOLYLINE
  5
11d
100
AcDbEntity
  8
engraving_1
 62
7
100
AcDbPolyline
 90
4
 70
1
 10
10.551272
 20
22.224616
 30
0.0
 10
11.559209
 20
22.224616
 30
0.0
 10
11.559209
 20
22.728585
 30
0.0
 10
10.551272
 20
22.728585
 30
0.0
  0
LWPOLYLINE
  5
11e
100
AcDbEntity
  8
engraving_1
 62
7
100
AcDbPolyline
 90
4
 70
1
 10
11.559209
 20
22.728585
 30
0.0
 10
12.567145
 20
22.728585
 30
0.0
 10
12.567145
 20
23.232553
 30
0.0
 10
11.559209
 20
23.232553
 30
0.0
  0
LWPOLYLINE
  5
11f
100
AcDbEntity
  8
engraving_1
 62
7
100
AcDbPolyline
 90
4
 70
1
 10
12.567145
 20
23.232553
 30
0.0
 10
14.079050
 20
23.232553
 30
0.0
 10
14.079050
 20
23.736521
 30
0.0
 10
12.567145
 20
23.736521
 30
0.0
  0
LWPOLYLINE
  5
120
100
AcDbEntity
  8
engraving_1
 62
7
100
AcDbPolyline
 90
6
 70
1
 10
14.079050
 20
23.736521
 30
0.0
 10
16.598891
 20
23.736521
 30
0.0
 10
16.598891
 20
24.240489
 30
0.0
 10
15.086986
 20
24.240489
 30
0.0
 10
15.086986
 20
24.744457
 30
0.0
 10
14.079050
 20
24.744457
 30
0.0
  0
LWPOLYLINE
  5
121
100
AcDbEntity
  8
engraving_1
 62
7
100
AcDbPolyline
 90
4
 70
1
 10
14.079050
 20
24.744457
 30
0.0
 10
14.079050
 20
25.752394
 30
0.0
 10
13.575081
 20
25.752394
 30
0.0
 10
13.575081
 20
24.744457
 30
0.0
  0
LWPOLYLINE
  5
122
100
AcDbEntity
  8
engraving_1
 62
7
100
AcDbPolyline
 90
19
 70
1
 10
13.575081
 20
25.752394
 30
0.0
 10
13.575081
 20
26.256362
 30
0.0
 10
13.575081
 20
26.760330
 30
0.0
 10
14.583018
 20
26.760330
 30
0.0
 10
14.583018
 20
27.264298
 30
0.0
 10
15.086986
 20
27.264298
 30
0.0
 10
15.086986
 20
27.768267
 30
0.0
 10
14.583018
 20
27.768267
 30
0.0
 10
14.583018
 20
28.272235
 30
0.0
 10
13.575081
 20
28.272235
 30
0.0
 10
13.575081
 20
28.776203
 30
0.0
 10
13.071113
 20
28.776203
 30
0.0
 10
13.071113
 20
27.768267
 30
0.0
 10
12.567145
 20
27.768267
 30
0.0
 10
12.567145
 20
27.264298
 30
0.0
 10
13.071113
 20
27.264298
 30
0.0
 10
13.071113
 20
26.256362
 30
0.0
 10
12.567145
 20
26.256362
 30
0.0
 10
12.567145
 20
25.752394
 30
0.0
  0
LWPOLYLINE
  5
123
100
AcDbEntity
  8
engraving_1
 62
7
100
AcDbPolyline
 90
4
 70
1
 10
12.567145
 20
26.256362
 30
0.0
 10
12.567145
 20
26.760330
 30
0.0
 10
11.559209
 20
26.760330
 30
0.0
 10
11.559209
 20
26.256362
 30
0.0
  0
LWPOLYLINE
  5
124
100
AcDbEntity
  8
engraving_1
 62
7
100
AcDbPolyline
 90
4
 70
1
 10
11.559209
 20
26.760330
 30
0.0
 10
11.559209
 20
27.264298
 30
0.0
 10
11.055240
 20
27.264298
 30
0.0
 10
11.055240
 20
26.760330
 30
0.0
  0
LWPOLYLINE
  5
125
100
AcDbEntity
  8
engraving_1
 62
7
100
AcDbPolyline
 90
4
 70
1
 10
11.559209
 20
27.264298
 30
0.0
 10
12.063177
 20
27.264298
 30
0.0
 10
12.063177
 20
28.776203
 30
0.0
 10
11.559209
 20
28.776203
 30
0.0
  0
LWPOLYLINE
  5
126
100
AcDbEntity
  8
engraving_1
 62
7
100
AcDbPolyline
 90
4
 70
1
 10
11.559209
 20
28.776203
 30
0.0
 10
11.559209
 20
29.280171
 30
0.0
 10
11.055240
 20
29.280171
 30
0.0
 10
11.055240
 20
28.776203
 30
0.0
  0
LWPOLYLINE
  5
127
100
AcDbEntity
  8
engraving_1
 62
7
100
AcDbPolyline
 90
4
 70
1
 10
11.055240
 20
29.280171
 30
0.0
 10
11.055240
 20
29.784138
 30
0.0
 10
10.551272
 20
29.784138
 30
0.0
 10
10.551272
 20
29.280171
 30
0.0
  0
LWPOLYLINE
  5
128
100
AcDbEntity
  8
engraving_1
 62
7
100
AcDbPolyline
 90
4
 70
1
 10
10.551272
 20
29.784138
 30
0.0
 10
10.551272
 20
30.792074
 30
0.0
 10
10.047304
 20
30.792074
 30
0.0
 10
10.047304
 20
29.784138
 30
0.0
  0
LWPOLYLINE
  5
129
100
AcDbEntity
  8
engraving_1
 62
7
100
AcDbPolyline
 90
4
 70
1
 10
10.551272
 20
30.792074
 30
0.0
 10
11.055240
 20
30.792074
 30
0.0
 10
11.055240
 20
31.296043
 30
0.0
 10
10.551272
 20
31.296043
 30
0.0
  0
LWPOLYLINE
  5
12a
100
AcDbEntity
  8
engraving_1
 62
7
100
AcDbPolyline
 90
4
 70
1
 10
11.055240
 20
31.296043
 30
0.0
 10
11.559209
 20
31.296043
 30
0.0
 10
11.559209
 20
32.303979
 30
0.0
 10
11.055240
 20
32.303979
 30
0.0
  0
LWPOLYLINE
  5
12b
100
AcDbEntity
  8
engraving_1
 62
7
100
AcDbPolyline
 90
4
 70
1
 10
11.055240
 20
32.303979
 30
0.0
 10
11.055240
 20
32.807947
 30
0.0
 10
10.551272
 20
32.807947
 30
0.0
 10
10.551272
 20
32.303979
 30
0.0
  0
LWPOLYLINE
  5
12c
100
AcDbEntity
  8
engraving_1
 62
7
100
AcDbPolyline
 90
4
 70
1
 10
10.551272
 20
32.807947
 30
0.0
 10
10.551272
 20
33.311915
 30
0.0
 10
10.047304
 20
33.311915
 30
0.0
 10
10.047304
 20
32.807947
 30
0.0
  0
LWPOLYLINE
  5
12d
100
AcDbEntity
  8
engraving_1
 62
7
100
AcDbPolyline
 90
4
 70
1
 10
10.047304
 20
33.311915
 30
0.0
 10
10.047304
 20
33.815884
 30
0.0
 10
9.543336
 20
33.815884
 30
0.0
 10
9.543336
 20
33.311915
 30
0.0
  0
LWPOLYLINE
  5
12e
100
AcDbEntity
  8
engraving_1
 62
7
100
AcDbPolyline
 90
4
 70
1
 10
9.543336
 20
33.815884
 30
0.0
 10
9.543336
 20
35.327788
 30
0.0
 10
9.039368
 20
35.327788
 30
0.0
 10
9.039368
 20
33.815884
 30
0.0
  0
LWPOLYLINE
  5
12f
100
AcDbEntity
  8
engraving_1
 62
7
100
AcDbPolyline
 90
4
 70
1
 10
9.543336
 20
35.327788
 30
0.0
 10
10.047304
 20
35.327788
 30
0.0
 10
10.047304
 20
36.335725
 30
0.0
 10
9.543336
 20
36.335725
 30
0.0
  0
LWPOLYLINE
  5
130
100
AcDbEntity
  8
engraving_1
 62
7
100
AcDbPolyline
 90
4
 70
1
 10
10.047304
 20
36.335725
 30
0.0
 10
10.551272
 20
36.335725
 30
0.0
 10
10.551272
 20
37.343661
 30
0.0
 10
10.047304
 20
37.343661
 30
0.0
  0
LWPOLYLINE
  5
131
100
AcDbEntity
  8
engraving_1
 62
7
100
AcDbPolyline
 90
7
 70
1
 10
10.551272
 20
37.343661
 30
0.0
 10
11.055240
 20
37.343661
 30
0.0
 10
11.055240
 20
37.847629
 30
0.0
 10
11.559209
 20
37.847629
 30
0.0
 10
11.559209
 20
38.351597
 30
0.0
 10
10.551272
 20
38.351597
 30
0.0
 10
10.551272
 20
37.847629
 30
0.0
  0
LWPOLYLINE
  5
132
100
AcDbEntity
  8
engraving_1
 62
7
100
AcDbPolyline
 90
4
 70
1
 10
11.559209
 20
37.847629
 30
0.0
 10
11.559209
 20
37.343661
 30
0.0
 10
12.063177
 20
37.343661
 30
0.0
 10
12.063177
 20
37.847629
 30
0.0
  0
LWPOLYLINE
  5
133
100
AcDbEntity
  8
engraving_1
 62
7
100
AcDbPolyline
 90
4
 70
1
 10
12.063177
 20
37.343661
 30
0.0
 10
12.063177
 20
36.335725
 30
0.0
 10
12.567145
 20
36.335725
 30
0.0
 10
12.567145
 20
37.343661
 30
0.0
  0
LWPOLYLINE
  5
134
100
AcDbEntity
  8
engraving_1
 62
7
100
AcDbPolyline
 90
4
 70
1
 10
12.567145
 20
36.335725
 30
0.0
 10
12.567145
 20
35.327788
 30
0.0
 10
13.071113
 20
35.327788
 30
0.0
 10
13.071113
 20
36.335725
 30
0.0
  0
LWPOLYLINE
  5
135
100
AcDbEntity
  8
engraving_1
 62
7
100
AcDbPolyline
 90
4
 70
1
 10
13.071113
 20
35.327788
 30
0.0
 10
13.071113
 20
34.319852
 30
0.0
 10
13.575081
 20
34.319852
 30
0.0
 10
13.575081
 20
35.327788
 30
0.0
  0
LWPOLYLINE
  5
136
100
AcDbEntity
  8
engraving_1
 62
7
100
AcDbPolyline
 90
4
 70
1
 10
13.575081
 20
34.319852
 30
0.0
 10
13.575081
 20
33.311915
 30
0.0
 10
14.079050
 20
33.311915
 30
0.0
 10
14.079050
 20
34.319852
 30
0.0
  0
LWPOLYLINE
  5
137
100
AcDbEntity
  8
engraving_1
 62
7
100
AcDbPolyline
 90
4
 70
1
 10
14.079050
 20
33.311915
 30
0.0
 10
14.079050
 20
32.303979
 30
0.0
 10
14.583018
 20
32.303979
 30
0.0
 10
14.583018
 20
33.311915
 30
0.0
  0
LWPOLYLINE
  5
138
100
AcDbEntity
  8
engraving_1
 62
7
100
AcDbPolyline
 90
4
 70
1
 10
14.079050
 20
32.303979
 30
0.0
 10
13.575081
 20
32.303979
 30
0.0
 10
13.575081
 20
31.800011
 30
0.0
 10
14.079050
 20
31.800011
 30
0.0
  0
LWPOLYLINE
  5
139
100
AcDbEntity
  8
engraving_1
 62
7
100
AcDbPolyline
 90
4
 70
1
 10
13.575081
 20
31.800011
 30
0.0
 10
13.071113
 20
31.800011
 30
0.0
 10
13.071113
 20
31.296043
 30
0.0
 10
13.575081
 20
31.296043
 30
0.0
  0
LWPOLYLINE
  5
13a
100
AcDbEntity
  8
engraving_1
 62
7
100
AcDbPolyline
 90
4
 70
1
 10
13.071113
 20
31.296043
 30
0.0
 10
12.567145
 20
31.296043
 30
0.0
 10
12.567145
 20
30.792074
 30
0.0
 10
13.071113
 20
30.792074
 30
0.0
  0
LWPOLYLINE
  5
13b
100
AcDbEntity
  8
engraving_1
 62
7
100
AcDbPolyline
 90
4
 70
1
 10
12.567145
 20
30.792074
 30
0.0
 10
12.063177
 20
30.792074
 30
0.0
 10
12.063177
 20
30.288106
 30
0.0
 10
12.567145
 20
30.288106
 30
0.0
  0
LWPOLYLINE
  5
13c
100
AcDbEntity
  8
engraving_1
 62
7
100
AcDbPolyline
 90
4
 70
1
 10
12.567145
 20
30.288106
 30
0.0
 10
12.567145
 20
29.784138
 30
0.0
 10
13.071113
 20
29.784138
 30
0.0
 10
13.071113
 20
30.288106
 30
0.0
  0
LWPOLYLINE
  5
13d
100
AcDbEntity
  8
engraving_1
 62
7
100
AcDbPolyline
 90
7
 70
1
 10
13.071113
 20
29.784138
 30
0.0
 10
13.071113
 20
29.280171
 30
0.0
 10
13.575081
 20
29.280171
 30
0.0
 10
13.575081
 20
28.776203
 30
0.0
 10
14.079050
 20
28.776203
 30
0.0
 10
14.079050
 20
29.784138
 30
0.0
 10
13.575081
 20
29.784138
 30
0.0
  0
LWPOLYLINE
  5
13e
100
AcDbEntity
  8
engraving_1
 62
7
100
AcDbPolyline
 90
12
 70
1
 10
14.079050
 20
29.784138
 30
0.0
 10
15.086986
 20
29.784138
 30
0.0
 10
15.086986
 20
30.288106
 30
0.0
 10
16.094922
 20
30.288106
 30
0.0
 10
16.094922
 20
30.792074
 30
0.0
 10
15.590954
 20
30.792074
 30
0.0
 10
15.590954
 20
31.296043
 30
0.0
 10
15.086986
 20
31.296043
 30
0.0
 10
15.086986
 20
31.800011
 30
0.0
 10
14.583018
 20
31.800011
 30
0.0
 10
14.583018
 20
30.792074
 30
0.0
 10
14.079050
 20
30.792074
 30
0.0
  0
LWPOLYLINE
  5
13f
100
AcDbEntity
  8
engraving_1
 62
7
100
AcDbPolyline
 90
4
 70
1
 10
15.086986
 20
31.800011
 30
0.0
 10
15.590954
 20
31.800011
 30
0.0
 10
15.590954
 20
32.807947
 30
0.0
 10
15.086986
 20
32.807947
 30
0.0
  0
LWPOLYLINE
  5
140
100
AcDbEntity
  8
engraving_1
 62
7
100
AcDbPolyline
 90
4
 70
1
 10
15.590954
 20
32.807947
 30
0.0
 10
16.094922
 20
32.807947
 30
0.0
 10
16.094922
 20
33.815884
 30
0.0
 10
15.590954
 20
33.815884
 30
0.0
  0
LWPOLYLINE
  5
141
100
AcDbEntity
  8
engraving_1
 62
7
100
AcDbPolyline
 90
7
 70
1
 10
16.094922
 20
33.815884
 30
0.0
 10
16.598891
 20
33.815884
 30
0.0
 10
16.598891
 20
35.327788
 30
0.0
 10
17.102859
 20
35.327788
 30
0.0
 10
17.102859
 20
35.831756
 30
0.0
 10
16.598891
 20
35.831756
 30
0.0
 10
16.094922
 20
35.831756
 30
0.0
  0
LWPOLYLINE
  5
142
100
AcDbEntity
  8
engraving_1
 62
7
100
AcDbPolyline
 90
4
 70
1
 10
16.094922
 20
35.831756
 30
0.0
 10
16.094922
 20
36.335725
 30
0.0
 10
15.086986
 20
36.335725
 30
0.0
 10
15.086986
 20
35.831756
 30
0.0
  0
LWPOLYLINE
  5
143
100
AcDbEntity
  8
engraving_1
 62
7
100
AcDbPolyline
 90
4
 70
1
 10
15.086986
 20
36.335725
 30
0.0
 10
15.086986
 20
36.839693
 30
0.0
 10
14.583018
 20
36.839693
 30
0.0
 10
14.583018
 20
36.335725
 30
0.0
  0
LWPOLYLINE
  5
144
100
AcDbEntity
  8
engraving_1
 62
7
100
AcDbPolyline
 90
21
 70
1
 10
14.583018
 20
36.839693
 30
0.0
 10
14.583018
 20
37.343661
 30
0.0
 10
14.583018
 20
37.847629
 30
0.0
 10
14.079050
 20
37.847629
 30
0.0
 10
14.079050
 20
38.855566
 30
0.0
 10
16.094922
 20
38.855566
 30
0.0
 10
16.094922
 20
39.359534
 30
0.0
 10
14.079050
 20
39.359534
 30
0.0
 10
14.079050
 20
39.863502
 30
0.0
 10
12.063177
 20
39.863502
 30
0.0
 10
12.063177
 20
39.359534
 30
0.0
 10
11.559209
 20
39.359534
 30
0.0
 10
11.559209
 20
38.855566
 30
0.0
 10
12.063177
 20
38.855566
 30
0.0
 10
12.063177
 20
38.351597
 30
0.0
 10
12.567145
 20
38.351597
 30
0.0
 10
12.567145
 20
37.847629
 30
0.0
 10
13.071113
 20
37.847629
 30
0.0
 10
13.071113
 20
37.343661
 30
0.0
 10
13.575081
 20
37.343661
 30
0.0
 10
13.575081
 20
36.839693
 30
0.0
  0
LWPOLYLINE
  5
145
100
AcDbEntity
  8
engraving_1
 62
7
100
AcDbPolyline
 90
4
 70
1
 10
16.094922
 20
38.855566
 30
0.0
 10
16.094922
 20
38.351597
 30
0.0
 10
17.606827
 20
38.351597
 30
0.0
 10
17.606827
 20
38.855566
 30
0.0
  0
LWPOLYLINE
  5
146
100
AcDbEntity
  8
engraving_1
 62
7
100
AcDbPolyline
 90
4
 70
1
 10
17.606827
 20
38.351597
 30
0.0
 10
17.606827
 20
37.847629
 30
0.0
 10
18.614763
 20
37.847629
 30
0.0
 10
18.614763
 20
38.351597
 30
0.0
  0
LWPOLYLINE
  5
147
100
AcDbEntity
  8
engraving_1
 62
7
100
AcDbPolyline
 90
4
 70
1
 10
18.614763
 20
37.847629
 30
0.0
 10
18.614763
 20
37.343661
 30
0.0
 10
20.630636
 20
37.343661
 30
0.0
 10
20.630636
 20
37.847629
 30
0.0
  0
LWPOLYLINE
  5
148
100
AcDbEntity
  8
engraving_1
 62
7
100
AcDbPolyline
 90
4
 70
1
 10
20.630636
 20
37.847629
 30
0.0
 10
24.158414
 20
37.847629
 30
0.0
 10
24.158414
 20
38.351597
 30
0.0
 10
20.630636
 20
38.351597
 30
0.0
  0
LWPOLYLINE
  5
149
100
AcDbEntity
  8
engraving_1
 62
7
100
AcDbPolyline
 90
4
 70
1
 10
24.158414
 20
38.351597
 30
0.0
 10
24.662382
 20
38.351597
 30
0.0
 10
24.662382
 20
39.359534
 30
0.0
 10
24.158414
 20
39.359534
 30
0.0
  0
LWPOLYLINE
  5
14a
100
AcDbEntity
  8
engraving_1
 62
7
100
AcDbPolyline
 90
4
 70
1
 10
24.158414
 20
37.847629
 30
0.0
 10
24.158414
 20
37.343661
 30
0.0
 10
25.166350
 20
37.343661
 30
0.0
 10
25.166350
 20
37.847629
 30
0.0
  0
LWPOLYLINE
  5
14b
100
AcDbEntity
  8
engraving_1
 62
7
100
AcDbPolyline
 90
4
 70
1
 10
25.166350
 20
37.343661
 30
0.0
 10
25.166350
 20
36.839693
 30
0.0
 10
25.670318
 20
36.839693
 30
0.0
 10
25.670318
 20
37.343661
 30
0.0
  0
LWPOLYLINE
  5
14c
100
AcDbEntity
  8
engraving_1
 62
7
100
AcDbPolyline
 90
4
 70
1
 10
16.598891
 20
24.240489
 30
0.0
 10
19.622700
 20
24.240489
 30
0.0
 10
19.622700
 20
24.744457
 30
0.0
 10
16.598891
 20
24.744457
 30
0.0
  0
LWPOLYLINE
  5
14d
100
AcDbEntity
  8
engraving_1
 62
7
100
AcDbPolyline
 90
4
 70
1
 10
18.614763
 20
20.208744
 30
0.0
 10
19.118732
 20
20.208744
 30
0.0
 10
19.118732
 20
20.712712
 30
0.0
 10
18.614763
 20
20.712712
 30
0.0
  0
LWPOLYLINE
  5
14e
100
AcDbEntity
  8
engraving_1
 62
7
100
AcDbPolyline
 90
4
 70
1
 10
19.118732
 20
20.712712
 30
0.0
 10
21.134604
 20
20.712712
 30
0.0
 10
21.134604
 20
21.216680
 30
0.0
 10
19.118732
 20
21.216680
 30
0.0
  0
LWPOLYLINE
  5
14f
100
AcDbEntity
  8
engraving_1
 62
7
100
AcDbPolyline
 90
4
 70
1
 10
21.134604
 20
21.216680
 30
0.0
 10
23.654445
 20
21.216680
 30
0.0
 10
23.654445
 20
21.720648
 30
0.0
 10
21.134604
 20
21.720648
 30
0.0
  0
LWPOLYLINE
  5
150
100
AcDbEntity
  8
engraving_1
 62
7
100
AcDbPolyline
 90
4
 70
1
 10
23.654445
 20
21.720648
 30
0.0
 10
26.174286
 20
21.720648
 30
0.0
 10
26.174286
 20
22.224616
 30
0.0
 10
23.654445
 20
22.224616
 30
0.0
  0
LWPOLYLINE
  5
151
100
AcDbEntity
  8
engraving_1
 62
7
100
AcDbPolyline
 90
4
 70
1
 10
26.174286
 20
22.224616
 30
0.0
 10
27.182223
 20
22.224616
 30
0.0
 10
27.182223
 20
22.728585
 30
0.0
 10
26.174286
 20
22.728585
 30
0.0
  0
LWPOLYLINE
  5
152
100
AcDbEntity
  8
engraving_1
 62
7
100
AcDbPolyline
 90
4
 70
1
 10
27.182223
 20
22.728585
 30
0.0
 10
27.686191
 20
22.728585
 30
0.0
 10
27.686191
 20
23.232553
 30
0.0
 10
27.182223
 20
23.232553
 30
0.0
  0
LWPOLYLINE
  5
153
100
AcDbEntity
  8
engraving_1
 62
7
100
AcDbPolyline
 90
4
 70
1
 10
19.622700
 20
26.256362
 30
0.0
 10
19.622700
 20
26.760330
 30
0.0
 10
19.118732
 20
26.760330
 30
0.0
 10
19.118732
 20
26.256362
 30
0.0
  0
LWPOLYLINE
  5
154
100
AcDbEntity
  8
engraving_1
 62
7
100
AcDbPolyline
 90
4
 70
1
 10
19.118732
 20
26.760330
 30
0.0
 10
19.118732
 20
27.264298
 30
0.0
 10
17.606827
 20
27.264298
 30
0.0
 10
17.606827
 20
26.760330
 30
0.0
  0
LWPOLYLINE
  5
155
100
AcDbEntity
  8
engraving_1
 62
7
100
AcDbPolyline
 90
4
 70
1
 10
25.166350
 20
30.288106
 30
0.0
 10
24.158414
 20
30.288106
 30
0.0
 10
24.158414
 20
29.784138
 30
0.0
 10
25.166350
 20
29.784138
 30
0.0
  0
LWPOLYLINE
  5
156
100
AcDbEntity
  8
engraving_1
 62
7
100
AcDbPolyline
 90
16
 70
1
 10
20.126668
 20
36.335725
 30
0.0
 10
20.126668
 20
35.831756
 30
0.0
 10
19.622700
 20
35.831756
 30
0.0
 10
19.622700
 20
34.823820
 30
0.0
 10
20.126668
 20
34.823820
 30
0.0
 10
20.126668
 20
34.319852
 30
0.0
 10
21.134604
 20
34.319852
 30
0.0
 10
21.134604
 20
34.823820
 30
0.0
 10
21.638573
 20
34.823820
 30
0.0
 10
21.638573
 20
35.831756
 30
0.0
 10
21.134604
 20
35.831756
 30
0.0
 10
21.134604
 20
35.327788
 30
0.0
 10
20.630636
 20
35.327788
 30
0.0
 10
20.630636
 20
35.831756
 30
0.0
 10
21.134604
 20
35.831756
 30
0.0
 10
21.134604
 20
36.335725
 30
0.0
  0
LWPOLYLINE
  5
157
100
AcDbEntity
  8
engraving_1
 62
7
100
AcDbPolyline
 90
4
 70
1
 10
23.654445
 20
34.319852
 30
0.0
 10
23.654445
 20
33.815884
 30
0.0
 10
24.158414
 20
33.815884
 30
0.0
 10
24.158414
 20
34.319852
 30
0.0
  0
LWPOLYLINE
  5
158
100
AcDbEntity
  8
engraving_1
 62
7
100
AcDbPolyline
 90
4
 70
1
 10
21.638573
 20
33.311915
 30
0.0
 10
21.638573
 20
32.807947
 30
0.0
 10
22.142541
 20
32.807947
 30
0.0
 10
22.142541
 20
33.311915
 30
0.0
  0
LWPOLYLINE
  5
159
100
AcDbEntity
  8
engraving_1
 62
7
100
AcDbPolyline
 90
4
 70
1
 10
22.142541
 20
32.807947
 30
0.0
 10
22.142541
 20
32.303979
 30
0.0
 10
23.150477
 20
32.303979
 30
0.0
 10
23.150477
 20
32.807947
 30
0.0
  0
LWPOLYLINE
  5
15a
100
AcDbEntity
  8
engraving_1
 62
7
100
AcDbPolyline
 90
4
 70
1
 10
23.150477
 20
32.807947
 30
0.0
 10
24.158414
 20
32.807947
 30
0.0
 10
24.158414
 20
33.311915
 30
0.0
 10
23.150477
 20
33.311915
 30
0.0
  0
LWPOLYLINE
  5
15b
100
AcDbEntity
  8
engraving_1
 62
7
100
AcDbPolyline
 90
4
 70
1
 10
24.158414
 20
32.807947
 30
0.0
 10
24.158414
 20
32.303979
 30
0.0
 10
24.662382
 20
32.303979
 30
0.0
 10
24.662382
 20
32.807947
 30
0.0
  0
LWPOLYLINE
  5
15c
100
AcDbEntity
  8
engraving_1
 62
7
100
AcDbPolyline
 90
4
 70
1
 10
24.662382
 20
32.807947
 30
0.0
 10
25.166350
 20
32.807947
 30
0.0
 10
25.166350
 20
33.311915
 30
0.0
 10
24.662382
 20
33.311915
 30
0.0
  0
LWPOLYLINE
  5
15d
100
AcDbEntity
  8
engraving_1
 62
7
100
AcDbPolyline
 90
4
 70
1
 10
19.118732
 20
31.800011
 30
0.0
 10
19.118732
 20
31.296043
 30
0.0
 10
20.126668
 20
31.296043
 30
0.0
 10
20.126668
 20
31.800011
 30
0.0
  0
LWPOLYLINE
  5
15e
100
AcDbEntity
  8
engraving_1
 62
7
100
AcDbPolyline
 90
4
 70
1
 10
20.126668
 20
31.296043
 30
0.0
 10
20.126668
 20
30.288106
 30
0.0
 10
20.630636
 20
30.288106
 30
0.0
 10
20.630636
 20
31.296043
 30
0.0
  0
LWPOLYLINE
  5
15f
100
AcDbEntity
  8
engraving_1
 62
7
100
AcDbPolyline
 90
4
 70
1
 10
20.630636
 20
30.288106
 30
0.0
 10
20.630636
 20
29.784138
 30
0.0
 10
21.134604
 20
29.784138
 30
0.0
 10
21.134604
 20
30.288106
 30
0.0
  0
LWPOLYLINE
  5
160
100
AcDbEntity
  8
engraving_1
 62
7
100
AcDbPolyline
 90
4
 70
1
 10
20.630636
 20
29.784138
 30
0.0
 10
19.622700
 20
29.784138
 30
0.0
 10
19.622700
 20
29.280171
 30
0.0
 10
20.630636
 20
29.280171
 30
0.0
  0
LWPOLYLINE
  5
161
100
AcDbEntity
  8
engraving_1
 62
7
100
AcDbPolyline
 90
4
 70
1
 10
19.118732
 20
31.296043
 30
0.0
 10
18.110795
 20
31.296043
 30
0.0
 10
18.110795
 20
30.792074
 30
0.0
 10
19.118732
 20
30.792074
 30
0.0
  0
LWPOLYLINE
  5
162
100
AcDbEntity
  8
engraving_1
 62
7
100
AcDbPolyline
 90
4
 70
1
 10
18.110795
 20
30.792074
 30
0.0
 10
17.606827
 20
30.792074
 30
0.0
 10
17.606827
 20
30.288106
 30
0.0
 10
18.110795
 20
30.288106
 30
0.0
  0
LWPOLYLINE
  5
163
100
AcDbEntity
  8
engraving_2
 62
7
100
AcDbPolyline
 90
12
 70
1
 10
18.614763
 20
34.319846
 30
0.0
 10
18.614763
 20
33.815876
 30
0.0
 10
18.110795
 20
33.815876
 30
0.0
 10
18.110795
 20
32.807946
 30
0.0
 10
18.614763
 20
32.807946
 30
0.0
 10
18.614763
 20
32.303976
 30
0.0
 10
19.622700
 20
32.303976
 30
0.0
 10
19.622700
 20
32.807946
 30
0.0
 10
20.126668
 20
32.807946
 30
0.0
 10
20.126668
 20
33.815876
 30
0.0
 10
19.622700
 20
33.815876
 30
0.0
 10
19.622700
 20
34.319846
 30
0.0
  0
LWPOLYLINE
  5
164
100
AcDbEntity
  8
engraving_2
 62
7
100
AcDbPolyline
 90
10
 70
1
 10
26.174287
 20
33.311906
 30
0.0
 10
26.174287
 20
32.807946
 30
0.0
 10
25.670319
 20
32.807946
 30
0.0
 10
25.670319
 20
31.800006
 30
0.0
 10
26.174287
 20
31.800006
 30
0.0
 10
26.174287
 20
31.296036
 30
0.0
 10
26.678255
 20
31.296036
 30
0.0
 10
26.678255
 20
31.800006
 30
0.0
 10
27.182224
 20
31.800006
 30
0.0
 10
27.182224
 20
33.311906
 30
0.0
  0
LWPOLYLINE
  5
165
100
AcDbEntity
  8
engraving_2
 62
7
100
AcDbPolyline
 90
10
 70
1
 10
12.063176
 20
27.768256
 30
0.0
 10
12.063176
 20
27.264296
 30
0.0
 10
11.559208
 20
27.264296
 30
0.0
 10
11.559208
 20
26.760326
 30
0.0
 10
12.567144
 20
26.760326
 30
0.0
 10
12.567144
 20
26.256356
 30
0.0
 10
13.071113
 20
26.256356
 30
0.0
 10
13.071113
 20
27.264296
 30
0.0
 10
12.567144
 20
27.264296
 30
0.0
 10
12.567144
 20
27.768256
 30
0.0
  0
LWPOLYLINE
  5
166
100
AcDbEntity
  8
engraving_3
 62
7
100
AcDbPolyline
 90
41
 70
1
 10
20.126668
 20
24.240486
 30
0.0
 10
20.126668
 20
23.736516
 30
0.0
 10
17.102859
 20
23.736516
 30
0.0
 10
17.102859
 20
23.232546
 30
0.0
 10
14.583017
 20
23.232546
 30
0.0
 10
14.583017
 20
22.728576
 30
0.0
 10
12.567144
 20
22.728576
 30
0.0
 10
11.559208
 20
22.728576
 30
0.0
 10
11.559208
 20
22.224606
 30
0.0
 10
10.551271
 20
22.224606
 30
0.0
 10
10.551271
 20
21.216676
 30
0.0
 10
12.063176
 20
21.216676
 30
0.0
 10
12.063176
 20
20.712706
 30
0.0
 10
14.079049
 20
20.712706
 30
0.0
 10
14.079049
 20
20.208736
 30
0.0
 10
15.086986
 20
20.208736
 30
0.0
 10
15.086986
 20
20.712706
 30
0.0
 10
15.590954
 20
20.712706
 30
0.0
 10
15.590954
 20
18.696836
 30
0.0
 10
17.102859
 20
18.696836
 30
0.0
 10
17.102859
 20
19.200796
 30
0.0
 10
17.606827
 20
19.200796
 30
0.0
 10
17.606827
 20
19.704766
 30
0.0
 10
18.110795
 20
19.704766
 30
0.0
 10
18.110795
 20
20.208736
 30
0.0
 10
18.614763
 20
20.208736
 30
0.0
 10
18.614763
 20
20.712706
 30
0.0
 10
19.118732
 20
20.712706
 30
0.0
 10
19.118732
 20
21.216676
 30
0.0
 10
21.134605
 20
21.216676
 30
0.0
 10
21.134605
 20
21.720646
 30
0.0
 10
23.654446
 20
21.720646
 30
0.0
 10
23.654446
 20
22.224606
 30
0.0
 10
26.174287
 20
22.224606
 30
0.0
 10
26.174287
 20
22.728576
 30
0.0
 10
27.182224
 20
22.728576
 30
0.0
 10
27.182224
 20
23.232546
 30
0.0
 10
27.686192
 20
23.232546
 30
0.0
 10
27.686192
 20
23.736516
 30
0.0
 10
26.174287
 20
23.736516
 30
0.0
 10
26.174287
 20
24.240486
 30
0.0
  0
SPLINE
  5
167
100
AcDbEntity
  8
engraving_3
 62
7
100
AcDbSpline
 70
8
 71
3
 72
8
 73
4
 74
0
 40
0
 40
0
 40
0
 40
0
 40
1
 40
1
 40
1
 40
1
 10
20.496154
 20
17.184875
 30
0.0
 10
14.510304
 20
17.190961
 30
0.0
 10
8.577752
 20
16.752890
 30
0.0
 10
3.104968
 20
15.930697
 30
0.0
  0
LWPOLYLINE
  5
168
100
AcDbEntity
  8
engraving_3
 62
7
100
AcDbPolyline
 90
29
 70
1
 10
27.686192
 20
23.232546
 30
0.0
 10
27.686192
 20
22.728576
 30
0.0
 10
27.182224
 20
22.728576
 30
0.0
 10
27.182224
 20
22.224606
 30
0.0
 10
26.174287
 20
22.224606
 30
0.0
 10
26.174287
 20
21.720646
 30
0.0
 10
23.654446
 20
21.720646
 30
0.0
 10
23.654446
 20
21.216676
 30
0.0
 10
21.134605
 20
21.216676
 30
0.0
 10
21.134605
 20
20.712706
 30
0.0
 10
19.118732
 20
20.712706
 30
0.0
 10
19.118732
 20
20.208736
 30
0.0
 10
18.614763
 20
20.208736
 30
0.0
 10
18.614763
 20
19.704766
 30
0.0
 10
22.142541
 20
19.704766
 30
0.0
 10
22.142541
 20
20.208736
 30
0.0
 10
25.670319
 20
20.208736
 30
0.0
 10
25.670319
 20
20.712706
 30
0.0
 10
28.190160
 20
20.712706
 30
0.0
 10
28.190160
 20
21.216676
 30
0.0
 10
30.206033
 20
21.216676
 30
0.0
 10
30.206033
 20
21.720646
 30
0.0
 10
30.710001
 20
21.720646
 30
0.0
 10
30.710001
 20
22.224606
 30
0.0
 10
30.206033
 20
22.224606
 30
0.0
 10
30.206033
 20
22.728576
 30
0.0
 10
28.694128
 20
22.728576
 30
0.0
 10
28.694128
 20
23.232546
 30
0.0
 10
28.190160
 20
23.232546
 30
0.0
  0
SPLINE
  5
169
100
AcDbEntity
  8
engraving_3
 62
7
100
AcDbSpline
 70
8
 71
3
 72
8
 73
4
 74
0
 40
0
 40
0
 40
0
 40
0
 40
1
 40
1
 40
1
 40
1
 10
9.608447
 20
9.650468
 30
0.0
 10
16.434669
 20
10.263243
 30
0.0
 10
23.685763
 20
10.305418
 30
0.0
 10
30.688297
 20
9.675339
 30
0.0
  0
LWPOLYLINE
  5
16a
100
AcDbEntity
  8
engraving_3
 62
7
100
AcDbPolyline
 90
3
 70
0
 10
3.104968
 20
15.930697
 30
0.0
 10
3.104968
 20
13.405276
 30
0.0
 10
9.608447
 20
9.650468
 30
0.0
  0
SPLINE
  5
16b
100
AcDbEntity
  8
engraving_3
 62
7
100
AcDbSpline
 70
8
 71
3
 72
8
 73
4
 74
0
 40
0
 40
0
 40
0
 40
0
 40
1
 40
1
 40
1
 40
1
 10
37.148368
 20
15.942154
 30
0.0
 10
31.773937
 20
16.781730
 30
0.0
 10
26.111495
 20
17.178975
 30
0.0
 10
20.496154
 20
17.184955
 30
0.0
  0
LWPOLYLINE
  5
16c
100
AcDbEntity
  8
engraving_3
 62
7
100
AcDbPolyline
 90
3
 70
0
 10
30.688297
 20
9.675339
 30
0.0
 10
37.148368
 20
13.405355
 30
0.0
 10
37.148368
 20
15.942154
 30
0.0
  0
SPLINE
  5
16d
100
AcDbEntity
  8
engraving_3
 62
7
100
AcDbSpline
 70
8
 71
3
 72
8
 73
4
 74
0
 40
0
 40
0
 40
0
 40
0
 40
1
 40
1
 40
1
 40
1
 10
20.224853
 20
15.795310
 30
0.0
 10
20.512715
 20
15.797956
 30
0.0
 10
20.518375
 20
15.791606
 30
0.0
 10
20.518892
 20
15.701251
 30
0.0
  0
LWPOLYLINE
  5
16e
100
AcDbEntity
  8
engraving_3
 62
7
100
AcDbPolyline
 90
1
 70
1
 10
20.496154
 20
17.184955
 30
0.0
  0
SPLINE
  5
16f
100
AcDbEntity
  8
engraving_3
 62
7
100
AcDbSpline
 70
8
 71
3
 72
8
 73
4
 74
0
 40
0
 40
0
 40
0
 40
0
 40
1
 40
1
 40
1
 40
1
 10
20.540079
 20
12.010022
 30
0.0
 10
20.540918
 20
11.863258
 30
0.0
 10
20.546822
 20
11.846298
 30
0.0
 10
20.258960
 20
11.844658
 30
0.0
  0
SPLINE
  5
170
100
AcDbEntity
  8
engraving_3
 62
7
100
AcDbSpline
 70
8
 71
3
 72
8
 73
4
 74
0
 40
0
 40
0
 40
0
 40
0
 40
1
 40
1
 40
1
 40
1
 10
20.258960
 20
11.844658
 30
0.0
 10
20.112206
 20
11.844658
 30
0.0
 10
20.050197
 20
11.854712
 30
0.0
 10
20.009879
 20
11.995549
 30
0.0
  0
SPLINE
  5
171
100
AcDbEntity
  8
engraving_3
 62
7
100
AcDbSpline
 70
8
 71
3
 72
8
 73
4
 74
0
 40
0
 40
0
 40
0
 40
0
 40
1
 40
1
 40
1
 40
1
 10
20.009879
 20
11.995549
 30
0.0
 10
19.819868
 20
12.649229
 30
0.0
 10
19.750031
 20
12.947917
 30
0.0
 10
19.548409
 20
13.657979
 30
0.0
  0
SPLINE
  5
172
100
AcDbEntity
  8
engraving_3
 62
7
100
AcDbSpline
 70
8
 71
3
 72
8
 73
4
 74
0
 40
0
 40
0
 40
0
 40
0
 40
1
 40
1
 40
1
 40
1
 10
19.548409
 20
13.657979
 30
0.0
 10
19.513832
 20
13.781963
 30
0.0
 10
19.467513
 20
13.990481
 30
0.0
 10
19.428003
 20
13.990243
 30
0.0
  0
SPLINE
  5
173
100
AcDbEntity
  8
engraving_3
 62
7
100
AcDbSpline
 70
8
 71
3
 72
8
 73
4
 74
0
 40
0
 40
0
 40
0
 40
0
 40
1
 40
1
 40
1
 40
1
 10
19.428003
 20
13.990243
 30
0.0
 10
19.388492
 20
13.990032
 30
0.0
 10
19.389342
 20
13.871392
 30
0.0
 10
19.389762
 20
13.798023
 30
0.0
  0
LWPOLYLINE
  5
174
100
AcDbEntity
  8
engraving_3
 62
7
100
AcDbPolyline
 90
2
 70
0
 10
20.518892
 20
15.701251
 30
0.0
 10
20.540079
 20
12.010022
 30
0.0
  0
SPLINE
  5
175
100
AcDbEntity
  8
engraving_3
 62
7
100
AcDbSpline
 70
8
 71
3
 72
8
 73
4
 74
0
 40
0
 40
0
 40
0
 40
0
 40
1
 40
1
 40
1
 40
1
 10
19.400097
 20
11.941283
 30
0.0
 10
19.400613
 20
11.850981
 30
0.0
 10
19.384062
 20
11.839604
 30
0.0
 10
19.090555
 20
11.837937
 30
0.0
  0
SPLINE
  5
176
100
AcDbEntity
  8
engraving_3
 62
7
100
AcDbSpline
 70
8
 71
3
 72
8
 73
4
 74
0
 40
0
 40
0
 40
0
 40
0
 40
1
 40
1
 40
1
 40
1
 10
19.090555
 20
11.837937
 30
0.0
 10
18.808338
 20
11.835291
 30
0.0
 10
18.808370
 20
11.847198
 30
0.0
 10
18.807885
 20
11.931970
 30
0.0
  0
LWPOLYLINE
  5
177
100
AcDbEntity
  8
engraving_3
 62
7
100
AcDbPolyline
 90
2
 70
0
 10
19.389762
 20
13.798023
 30
0.0
 10
19.400097
 20
11.941283
 30
0.0
  0
SPLINE
  5
178
100
AcDbEntity
  8
engraving_3
 62
7
100
AcDbSpline
 70
8
 71
3
 72
8
 73
4
 74
0
 40
0
 40
0
 40
0
 40
0
 40
1
 40
1
 40
1
 40
1
 10
18.786181
 20
15.707971
 30
0.0
 10
18.785729
 20
15.787002
 30
0.0
 10
18.796729
 20
15.787161
 30
0.0
 10
19.045080
 20
15.788590
 30
0.0
  0
SPLINE
  5
179
100
AcDbEntity
  8
engraving_3
 62
7
100
AcDbSpline
 70
8
 71
3
 72
8
 73
4
 74
0
 40
0
 40
0
 40
0
 40
0
 40
1
 40
1
 40
1
 40
1
 10
19.045080
 20
15.788590
 30
0.0
 10
19.287787
 20
15.791235
 30
0.0
 10
19.316314
 20
15.767688
 30
0.0
 10
19.362373
 20
15.609784
 30
0.0
  0
SPLINE
  5
17a
100
AcDbEntity
  8
engraving_3
 62
7
100
AcDbSpline
 70
8
 71
3
 72
8
 73
4
 74
0
 40
0
 40
0
 40
0
 40
0
 40
1
 40
1
 40
1
 40
1
 10
19.362373
 20
15.609784
 30
0.0
 10
19.483554
 20
15.147637
 30
0.0
 10
19.650613
 20
14.544651
 30
0.0
 10
19.829012
 20
13.947354
 30
0.0
  0
SPLINE
  5
17b
100
AcDbEntity
  8
engraving_3
 62
7
100
AcDbSpline
 70
8
 71
3
 72
8
 73
4
 74
0
 40
0
 40
0
 40
0
 40
0
 40
1
 40
1
 40
1
 40
1
 10
19.829012
 20
13.947354
 30
0.0
 10
19.840623
 20
13.890972
 30
0.0
 10
19.863875
 20
13.800934
 30
0.0
 10
19.897741
 20
13.801119
 30
0.0
  0
SPLINE
  5
17c
100
AcDbEntity
  8
engraving_3
 62
7
100
AcDbSpline
 70
8
 71
3
 72
8
 73
4
 74
0
 40
0
 40
0
 40
0
 40
0
 40
1
 40
1
 40
1
 40
1
 10
19.897741
 20
13.801119
 30
0.0
 10
19.937252
 20
13.801331
 30
0.0
 10
19.936337
 20
13.908513
 30
0.0
 10
19.935982
 20
13.970611
 30
0.0
  0
LWPOLYLINE
  5
17d
100
AcDbEntity
  8
engraving_3
 62
7
100
AcDbPolyline
 90
2
 70
0
 10
18.807885
 20
11.931970
 30
0.0
 10
18.786181
 20
15.707971
 30
0.0
  0
SPLINE
  5
17e
100
AcDbEntity
  8
engraving_3
 62
7
100
AcDbSpline
 70
8
 71
3
 72
8
 73
4
 74
0
 40
0
 40
0
 40
0
 40
0
 40
1
 40
1
 40
1
 40
1
 10
19.926163
 20
15.691964
 30
0.0
 10
19.925647
 20
15.782266
 30
0.0
 10
19.942636
 20
15.793696
 30
0.0
 10
20.224853
 20
15.795310
 30
0.0
  0
LWPOLYLINE
  5
17f
100
AcDbEntity
  8
engraving_3
 62
7
100
AcDbPolyline
 90
2
 70
0
 10
19.935982
 20
13.970611
 30
0.0
 10
19.926163
 20
15.691964
 30
0.0
  0
SPLINE
  5
180
100
AcDbEntity
  8
engraving_3
 62
7
100
AcDbSpline
 70
8
 71
3
 72
8
 73
4
 74
0
 40
0
 40
0
 40
0
 40
0
 40
1
 40
1
 40
1
 40
1
 10
21.500744
 20
15.783404
 30
0.0
 10
21.799887
 20
15.780758
 30
0.0
 10
21.816804
 20
15.774937
 30
0.0
 10
21.815971
 20
15.684688
 30
0.0
  0
LWPOLYLINE
  5
181
100
AcDbEntity
  8
engraving_3
 62
7
100
AcDbPolyline
 90
1
 70
1
 10
20.224853
 20
15.795310
 30
0.0
  0
SPLINE
  5
182
100
AcDbEntity
  8
engraving_3
 62
7
100
AcDbSpline
 70
8
 71
3
 72
8
 73
4
 74
0
 40
0
 40
0
 40
0
 40
0
 40
1
 40
1
 40
1
 40
1
 10
21.781347
 20
11.930912
 30
0.0
 10
21.780567
 20
11.846245
 30
0.0
 10
21.774485
 20
11.840715
 30
0.0
 10
21.464054
 20
11.843573
 30
0.0
  0
SPLINE
  5
183
100
AcDbEntity
  8
engraving_3
 62
7
100
AcDbSpline
 70
8
 71
3
 72
8
 73
4
 74
0
 40
0
 40
0
 40
0
 40
0
 40
1
 40
1
 40
1
 40
1
 10
21.464054
 20
11.843573
 30
0.0
 10
21.187488
 20
11.846219
 30
0.0
 10
21.176521
 20
11.846219
 30
0.0
 10
21.177250
 20
11.925223
 30
0.0
  0
LWPOLYLINE
  5
184
100
AcDbEntity
  8
engraving_3
 62
7
100
AcDbPolyline
 90
2
 70
0
 10
21.815971
 20
15.684688
 30
0.0
 10
21.781347
 20
11.930912
 30
0.0
  0
SPLINE
  5
185
100
AcDbEntity
  8
engraving_3
 62
7
100
AcDbSpline
 70
8
 71
3
 72
8
 73
4
 74
0
 40
0
 40
0
 40
0
 40
0
 40
1
 40
1
 40
1
 40
1
 10
21.211873
 20
15.695536
 30
0.0
 10
21.212654
 20
15.780202
 30
0.0
 10
21.235467
 20
15.785838
 30
0.0
 10
21.500744
 20
15.783404
 30
0.0
  0
LWPOLYLINE
  5
186
100
AcDbEntity
  8
engraving_3
 62
7
100
AcDbPolyline
 90
2
 70
0
 10
21.177250
 20
11.925223
 30
0.0
 10
21.211873
 20
15.695536
 30
0.0
  0
LWPOLYLINE
  5
187
100
AcDbEntity
  8
engraving_3
 62
7
100
AcDbPolyline
 90
1
 70
1
 10
21.500744
 20
15.783404
 30
0.0
  0
SPLINE
  5
188
100
AcDbEntity
  8
engraving_3
 62
7
100
AcDbSpline
 70
8
 71
3
 72
8
 73
4
 74
0
 40
0
 40
0
 40
0
 40
0
 40
1
 40
1
 40
1
 40
1
 10
23.938322
 20
15.745066
 30
0.0
 10
24.006037
 20
15.742420
 30
0.0
 10
24.010426
 20
15.692334
 30
0.0
 10
24.005501
 20
15.477916
 30
0.0
  0
SPLINE
  5
189
100
AcDbEntity
  8
engraving_3
 62
7
100
AcDbSpline
 70
8
 71
3
 72
8
 73
4
 74
0
 40
0
 40
0
 40
0
 40
0
 40
1
 40
1
 40
1
 40
1
 10
24.005501
 20
15.477916
 30
0.0
 10
23.999540
 20
15.218333
 30
0.0
 10
23.993161
 20
15.190208
 30
0.0
 10
23.931087
 20
15.191610
 30
0.0
  0
LWPOLYLINE
  5
18a
100
AcDbEntity
  8
engraving_3
 62
7
100
AcDbPolyline
 90
2
 70
0
 10
22.448490
 20
15.779170
 30
0.0
 10
23.938322
 20
15.745066
 30
0.0
  0
SPLINE
  5
18b
100
AcDbEntity
  8
engraving_3
 62
7
100
AcDbSpline
 70
8
 71
3
 72
8
 73
4
 74
0
 40
0
 40
0
 40
0
 40
0
 40
1
 40
1
 40
1
 40
1
 10
23.688725
 20
15.197431
 30
0.0
 10
23.626652
 20
15.200077
 30
0.0
 10
23.553384
 20
15.200342
 30
0.0
 10
23.524910
 20
15.189758
 30
0.0
  0
SPLINE
  5
18c
100
AcDbEntity
  8
engraving_3
 62
7
100
AcDbSpline
 70
8
 71
3
 72
8
 73
4
 74
0
 40
0
 40
0
 40
0
 40
0
 40
1
 40
1
 40
1
 40
1
 10
23.524910
 20
15.189758
 30
0.0
 10
23.473216
 20
15.151420
 30
0.0
 10
23.482153
 20
15.055376
 30
0.0
 10
23.480468
 20
14.982034
 30
0.0
  0
LWPOLYLINE
  5
18d
100
AcDbEntity
  8
engraving_3
 62
7
100
AcDbPolyline
 90
2
 70
0
 10
23.931087
 20
15.191610
 30
0.0
 10
23.688725
 20
15.197431
 30
0.0
  0
SPLINE
  5
18e
100
AcDbEntity
  8
engraving_3
 62
7
100
AcDbSpline
 70
8
 71
3
 72
8
 73
4
 74
0
 40
0
 40
0
 40
0
 40
0
 40
1
 40
1
 40
1
 40
1
 10
23.408638
 20
11.861300
 30
0.0
 10
23.407474
 20
11.810500
 30
0.0
 10
23.345195
 20
11.806611
 30
0.0
 10
23.079976
 20
11.812722
 30
0.0
  0
SPLINE
  5
18f
100
AcDbEntity
  8
engraving_3
 62
7
100
AcDbSpline
 70
8
 71
3
 72
8
 73
4
 74
0
 40
0
 40
0
 40
0
 40
0
 40
1
 40
1
 40
1
 40
1
 10
23.079976
 20
11.812722
 30
0.0
 10
22.842972
 20
11.818014
 30
0.0
 10
22.792393
 20
11.819337
 30
0.0
 10
22.793689
 20
11.875746
 30
0.0
  0
LWPOLYLINE
  5
190
100
AcDbEntity
  8
engraving_3
 62
7
100
AcDbPolyline
 90
2
 70
0
 10
23.480468
 20
14.982034
 30
0.0
 10
23.408638
 20
11.861300
 30
0.0
  0
SPLINE
  5
191
100
AcDbEntity
  8
engraving_3
 62
7
100
AcDbSpline
 70
8
 71
3
 72
8
 73
4
 74
0
 40
0
 40
0
 40
0
 40
0
 40
1
 40
1
 40
1
 40
1
 10
22.865519
 20
14.995977
 30
0.0
 10
22.867212
 20
15.069346
 30
0.0
 10
22.880259
 20
15.165125
 30
0.0
 10
22.830379
 20
15.205792
 30
0.0
  0
SPLINE
  5
192
100
AcDbEntity
  8
engraving_3
 62
7
100
AcDbSpline
 70
8
 71
3
 72
8
 73
4
 74
0
 40
0
 40
0
 40
0
 40
0
 40
1
 40
1
 40
1
 40
1
 10
22.830379
 20
15.205792
 30
0.0
 10
22.802423
 20
15.217698
 30
0.0
 10
22.729154
 20
15.219286
 30
0.0
 10
22.667081
 20
15.220873
 30
0.0
  0
LWPOLYLINE
  5
193
100
AcDbEntity
  8
engraving_3
 62
7
100
AcDbPolyline
 90
2
 70
0
 10
22.793689
 20
11.875746
 30
0.0
 10
22.865519
 20
14.995977
 30
0.0
  0
SPLINE
  5
194
100
AcDbEntity
  8
engraving_3
 62
7
100
AcDbSpline
 70
8
 71
3
 72
8
 73
4
 74
0
 40
0
 40
0
 40
0
 40
0
 40
1
 40
1
 40
1
 40
1
 10
22.458309
 20
15.226165
 30
0.0
 10
22.373664
 20
15.228811
 30
0.0
 10
22.357780
 20
15.267678
 30
0.0
 10
22.363224
 20
15.504692
 30
0.0
  0
SPLINE
  5
195
100
AcDbEntity
  8
engraving_3
 62
7
100
AcDbSpline
 70
8
 71
3
 72
8
 73
4
 74
0
 40
0
 40
0
 40
0
 40
0
 40
1
 40
1
 40
1
 40
1
 10
22.363224
 20
15.504692
 30
0.0
 10
22.368667
 20
15.741679
 30
0.0
 10
22.380775
 20
15.781155
 30
0.0
 10
22.448490
 20
15.779594
 30
0.0
  0
LWPOLYLINE
  5
196
100
AcDbEntity
  8
engraving_3
 62
7
100
AcDbPolyline
 90
2
 70
0
 10
22.667081
 20
15.220873
 30
0.0
 10
22.458309
 20
15.226165
 30
0.0
  0
SPLINE
  5
197
100
AcDbEntity
  8
engraving_3
 62
7
100
AcDbSpline
 70
8
 71
3
 72
8
 73
4
 74
0
 40
0
 40
0
 40
0
 40
0
 40
1
 40
1
 40
1
 40
1
 10
17.959358
 20
15.768852
 30
0.0
 10
18.092863
 20
15.764089
 30
0.0
 10
18.112625
 20
15.742658
 30
0.0
 10
18.113871
 20
15.691858
 30
0.0
  0
LWPOLYLINE
  5
198
100
AcDbEntity
  8
engraving_3
 62
7
100
AcDbPolyline
 90
2
 70
0
 10
22.448490
 20
15.779594
 30
0.0
 10
22.448490
 20
15.779170
 30
0.0
  0
SPLINE
  5
199
100
AcDbEntity
  8
engraving_3
 62
7
100
AcDbSpline
 70
8
 71
3
 72
8
 73
4
 74
0
 40
0
 40
0
 40
0
 40
0
 40
1
 40
1
 40
1
 40
1
 10
18.189319
 20
12.616579
 30
0.0
 10
18.200809
 20
12.148241
 30
0.0
 10
17.909492
 20
11.819178
 30
0.0
 10
17.384717
 20
11.806293
 30
0.0
  0
SPLINE
  5
19a
100
AcDbEntity
  8
engraving_3
 62
7
100
AcDbSpline
 70
8
 71
3
 72
8
 73
4
 74
0
 40
0
 40
0
 40
0
 40
0
 40
1
 40
1
 40
1
 40
1
 10
17.384717
 20
11.806293
 30
0.0
 10
16.871227
 20
11.793593
 30
0.0
 10
16.557664
 20
12.158665
 30
0.0
 10
16.547558
 20
12.570595
 30
0.0
  0
LWPOLYLINE
  5
19b
100
AcDbEntity
  8
engraving_3
 62
7
100
AcDbPolyline
 90
2
 70
0
 10
18.113871
 20
15.691858
 30
0.0
 10
18.189319
 20
12.616579
 30
0.0
  0
SPLINE
  5
19c
100
AcDbEntity
  8
engraving_3
 62
7
100
AcDbSpline
 70
8
 71
3
 72
8
 73
4
 74
0
 40
0
 40
0
 40
0
 40
0
 40
1
 40
1
 40
1
 40
1
 10
16.472111
 20
15.640185
 30
0.0
 10
16.469888
 20
15.730461
 30
0.0
 10
16.509292
 20
15.737260
 30
0.0
 10
16.785787
 20
15.744034
 30
0.0
  0
SPLINE
  5
19d
100
AcDbEntity
  8
engraving_3
 62
7
100
AcDbSpline
 70
8
 71
3
 72
8
 73
4
 74
0
 40
0
 40
0
 40
0
 40
0
 40
1
 40
1
 40
1
 40
1
 10
16.785787
 20
15.744034
 30
0.0
 10
17.011497
 20
15.749590
 30
0.0
 10
17.073615
 20
15.739800
 30
0.0
 10
17.075691
 20
15.655160
 30
0.0
  0
LWPOLYLINE
  5
19e
100
AcDbEntity
  8
engraving_3
 62
7
100
AcDbPolyline
 90
2
 70
0
 10
16.547558
 20
12.570595
 30
0.0
 10
16.472111
 20
15.640185
 30
0.0
  0
SPLINE
  5
19f
100
AcDbEntity
  8
engraving_3
 62
7
100
AcDbSpline
 70
8
 71
3
 72
8
 73
4
 74
0
 40
0
 40
0
 40
0
 40
0
 40
1
 40
1
 40
1
 40
1
 10
17.148039
 20
12.715295
 30
0.0
 10
17.151777
 20
12.562922
 30
0.0
 10
17.184036
 20
12.400150
 30
0.0
 10
17.370247
 20
12.404701
 30
0.0
  0
SPLINE
  5
1a0
100
AcDbEntity
  8
engraving_3
 62
7
100
AcDbSpline
 70
8
 71
3
 72
8
 73
4
 74
0
 40
0
 40
0
 40
0
 40
0
 40
1
 40
1
 40
1
 40
1
 10
17.370247
 20
12.404701
 30
0.0
 10
17.550815
 20
12.409199
 30
0.0
 10
17.580829
 20
12.567632
 30
0.0
 10
17.576953
 20
12.725614
 30
0.0
  0
LWPOLYLINE
  5
1a1
100
AcDbEntity
  8
engraving_3
 62
7
100
AcDbPolyline
 90
2
 70
0
 10
17.075691
 20
15.655160
 30
0.0
 10
17.148039
 20
12.715295
 30
0.0
  0
SPLINE
  5
1a2
100
AcDbEntity
  8
engraving_3
 62
7
100
AcDbSpline
 70
8
 71
3
 72
8
 73
4
 74
0
 40
0
 40
0
 40
0
 40
0
 40
1
 40
1
 40
1
 40
1
 10
17.504606
 20
15.671168
 30
0.0
 10
17.502666
 20
15.750172
 30
0.0
 10
17.530769
 20
15.762105
 30
0.0
 10
17.784692
 20
15.768323
 30
0.0
  0
SPLINE
  5
1a3
100
AcDbEntity
  8
engraving_3
 62
7
100
AcDbSpline
 70
8
 71
3
 72
8
 73
4
 74
0
 40
0
 40
0
 40
0
 40
0
 40
1
 40
1
 40
1
 40
1
 10
17.784692
 20
15.768323
 30
0.0
 10
17.858048
 20
15.770968
 30
0.0
 10
17.914857
 20
15.770968
 30
0.0
 10
17.959358
 20
15.768323
 30
0.0
  0
LWPOLYLINE
  5
1a4
100
AcDbEntity
  8
engraving_3
 62
7
100
AcDbPolyline
 90
2
 70
0
 10
17.576953
 20
12.725614
 30
0.0
 10
17.504606
 20
15.671168
 30
0.0
  0
SPLINE
  5
1a5
100
AcDbEntity
  8
engraving_3
 62
7
100
AcDbSpline
 70
8
 71
3
 72
8
 73
4
 74
0
 40
0
 40
0
 40
0
 40
0
 40
1
 40
1
 40
1
 40
1
 10
24.727421
 20
15.713025
 30
0.0
 10
24.902258
 20
15.706145
 30
0.0
 10
25.060078
 20
15.694239
 30
0.0
 10
25.067968
 20
15.609176
 30
0.0
  0
SPLINE
  5
1a6
100
AcDbEntity
  8
engraving_3
 62
7
100
AcDbSpline
 70
8
 71
3
 72
8
 73
4
 74
0
 40
0
 40
0
 40
0
 40
0
 40
1
 40
1
 40
1
 40
1
 10
25.067968
 20
15.609176
 30
0.0
 10
25.115986
 20
15.115781
 30
0.0
 10
25.160144
 20
14.673212
 30
0.0
 10
25.203877
 20
14.213895
 30
0.0
  0
SPLINE
  5
1a7
100
AcDbEntity
  8
engraving_3
 62
7
100
AcDbSpline
 70
8
 71
3
 72
8
 73
4
 74
0
 40
0
 40
0
 40
0
 40
0
 40
1
 40
1
 40
1
 40
1
 10
25.203877
 20
14.213895
 30
0.0
 10
25.203189
 20
14.196962
 30
0.0
 10
25.213357
 20
14.162619
 30
0.0
 10
25.235917
 20
14.161720
 30
0.0
  0
SPLINE
  5
1a8
100
AcDbEntity
  8
engraving_3
 62
7
100
AcDbSpline
 70
8
 71
3
 72
8
 73
4
 74
0
 40
0
 40
0
 40
0
 40
0
 40
1
 40
1
 40
1
 40
1
 10
25.235917
 20
14.161720
 30
0.0
 10
25.258475
 20
14.161720
 30
0.0
 10
25.265728
 20
14.200084
 30
0.0
 10
25.266406
 20
14.216991
 30
0.0
  0
SPLINE
  5
1a9
100
AcDbEntity
  8
engraving_3
 62
7
100
AcDbSpline
 70
8
 71
3
 72
8
 73
4
 74
0
 40
0
 40
0
 40
0
 40
0
 40
1
 40
1
 40
1
 40
1
 10
25.266406
 20
14.216991
 30
0.0
 10
25.359839
 20
14.716022
 30
0.0
 10
25.414032
 20
15.086729
 30
0.0
 10
25.502050
 20
15.591607
 30
0.0
  0
SPLINE
  5
1aa
100
AcDbEntity
  8
engraving_3
 62
7
100
AcDbSpline
 70
8
 71
3
 72
8
 73
4
 74
0
 40
0
 40
0
 40
0
 40
0
 40
1
 40
1
 40
1
 40
1
 10
25.502050
 20
15.591607
 30
0.0
 10
25.516269
 20
15.664474
 30
0.0
 10
25.674773
 20
15.674978
 30
0.0
 10
25.821411
 20
15.669104
 30
0.0
  0
SPLINE
  5
1ab
100
AcDbEntity
  8
engraving_3
 62
7
100
AcDbSpline
 70
8
 71
3
 72
8
 73
4
 74
0
 40
0
 40
0
 40
0
 40
0
 40
1
 40
1
 40
1
 40
1
 10
25.821411
 20
15.669104
 30
0.0
 10
25.973689
 20
15.663018
 30
0.0
 10
26.114637
 20
15.651906
 30
0.0
 10
26.094779
 20
15.579198
 30
0.0
  0
SPLINE
  5
1ac
100
AcDbEntity
  8
engraving_3
 62
7
100
AcDbSpline
 70
8
 71
3
 72
8
 73
4
 74
0
 40
0
 40
0
 40
0
 40
0
 40
1
 40
1
 40
1
 40
1
 10
26.094779
 20
15.579198
 30
0.0
 10
25.927114
 20
14.919328
 30
0.0
 10
25.799290
 20
14.410058
 30
0.0
 10
25.614705
 20
13.750875
 30
0.0
  0
SPLINE
  5
1ad
100
AcDbEntity
  8
engraving_3
 62
7
100
AcDbSpline
 70
8
 71
3
 72
8
 73
4
 74
0
 40
0
 40
0
 40
0
 40
0
 40
1
 40
1
 40
1
 40
1
 10
25.614705
 20
13.750875
 30
0.0
 10
25.581760
 20
13.633585
 30
0.0
 10
25.559793
 20
13.510236
 30
0.0
 10
25.539257
 20
13.420675
 30
0.0
  0
SPLINE
  5
1ae
100
AcDbEntity
  8
engraving_3
 62
7
100
AcDbSpline
 70
8
 71
3
 72
8
 73
4
 74
0
 40
0
 40
0
 40
0
 40
0
 40
1
 40
1
 40
1
 40
1
 10
25.539257
 20
13.420675
 30
0.0
 10
25.525944
 20
13.370351
 30
0.0
 10
25.497850
 20
13.225042
 30
0.0
 10
25.493782
 20
13.123521
 30
0.0
  0
LWPOLYLINE
  5
1af
100
AcDbEntity
  8
engraving_3
 62
7
100
AcDbPolyline
 90
2
 70
0
 10
17.959358
 20
15.768323
 30
0.0
 10
17.959358
 20
15.768852
 30
0.0
  0
SPLINE
  5
1b0
100
AcDbEntity
  8
engraving_3
 62
7
100
AcDbSpline
 70
8
 71
3
 72
8
 73
4
 74
0
 40
0
 40
0
 40
0
 40
0
 40
1
 40
1
 40
1
 40
1
 10
25.440039
 20
11.780972
 30
0.0
 10
25.438001
 20
11.730225
 30
0.0
 10
25.201232
 20
11.745492
 30
0.0
 10
25.127913
 20
11.748429
 30
0.0
  0
SPLINE
  5
1b1
100
AcDbEntity
  8
engraving_3
 62
7
100
AcDbSpline
 70
8
 71
3
 72
8
 73
4
 74
0
 40
0
 40
0
 40
0
 40
0
 40
1
 40
1
 40
1
 40
1
 10
25.127913
 20
11.748429
 30
0.0
 10
25.037674
 20
11.752133
 30
0.0
 10
24.828578
 20
11.754779
 30
0.0
 10
24.831290
 20
11.822327
 30
0.0
  0
SPLINE
  5
1b2
100
AcDbEntity
  8
engraving_3
 62
7
100
AcDbSpline
 70
8
 71
3
 72
8
 73
4
 74
0
 40
0
 40
0
 40
0
 40
0
 40
1
 40
1
 40
1
 40
1
 10
24.831290
 20
11.822327
 30
0.0
 10
24.849597
 20
12.279156
 30
0.0
 10
24.869571
 20
12.628803
 30
0.0
 10
24.889685
 20
13.130771
 30
0.0
  0
SPLINE
  5
1b3
100
AcDbEntity
  8
engraving_3
 62
7
100
AcDbSpline
 70
8
 71
3
 72
8
 73
4
 74
0
 40
0
 40
0
 40
0
 40
0
 40
1
 40
1
 40
1
 40
1
 10
24.889685
 20
13.130771
 30
0.0
 10
24.893751
 20
13.232291
 30
0.0
 10
24.892278
 20
13.345268
 30
0.0
 10
24.883483
 20
13.407763
 30
0.0
  0
SPLINE
  5
1b4
100
AcDbEntity
  8
engraving_3
 62
7
100
AcDbSpline
 70
8
 71
3
 72
8
 73
4
 74
0
 40
0
 40
0
 40
0
 40
0
 40
1
 40
1
 40
1
 40
1
 10
24.883483
 20
13.407763
 30
0.0
 10
24.875141
 20
13.481529
 30
0.0
 10
24.841598
 20
13.624113
 30
0.0
 10
24.818370
 20
13.749340
 30
0.0
  0
SPLINE
  5
1b5
100
AcDbEntity
  8
engraving_3
 62
7
100
AcDbSpline
 70
8
 71
3
 72
8
 73
4
 74
0
 40
0
 40
0
 40
0
 40
0
 40
1
 40
1
 40
1
 40
1
 10
24.818370
 20
13.749340
 30
0.0
 10
24.692534
 20
14.415296
 30
0.0
 10
24.585144
 20
14.978779
 30
0.0
 10
24.470588
 20
15.644312
 30
0.0
  0
SPLINE
  5
1b6
100
AcDbEntity
  8
engraving_3
 62
7
100
AcDbSpline
 70
8
 71
3
 72
8
 73
4
 74
0
 40
0
 40
0
 40
0
 40
0
 40
1
 40
1
 40
1
 40
1
 10
24.470588
 20
15.644312
 30
0.0
 10
24.456608
 20
15.718316
 30
0.0
 10
24.631541
 20
15.716888
 30
0.0
 10
24.727420
 20
15.713025
 30
0.0
  0
LWPOLYLINE
  5
1b7
100
AcDbEntity
  8
engraving_3
 62
7
100
AcDbPolyline
 90
2
 70
0
 10
25.493782
 20
13.123521
 30
0.0
 10
25.440039
 20
11.780972
 30
0.0
  0
SPLINE
  5
1b8
100
AcDbEntity
  8
engraving_3
 62
7
100
AcDbSpline
 70
8
 71
3
 72
8
 73
4
 74
0
 40
0
 40
0
 40
0
 40
0
 40
1
 40
1
 40
1
 40
1
 10
15.645805
 20
15.705881
 30
0.0
 10
15.762629
 20
15.705881
 30
0.0
 10
15.792136
 20
15.686302
 30
0.0
 10
15.795149
 20
15.618542
 30
0.0
  0
LWPOLYLINE
  5
1b9
100
AcDbEntity
  8
engraving_3
 62
7
100
AcDbPolyline
 90
1
 70
1
 10
24.727420
 20
15.713025
 30
0.0
  0
SPLINE
  5
1ba
100
AcDbEntity
  8
engraving_3
 62
7
100
AcDbSpline
 70
8
 71
3
 72
8
 73
4
 74
0
 40
0
 40
0
 40
0
 40
0
 40
1
 40
1
 40
1
 40
1
 10
15.962064
 20
11.868893
 30
0.0
 10
15.966083
 20
11.778697
 30
0.0
 10
15.972523
 20
11.767743
 30
0.0
 10
15.668026
 20
11.754197
 30
0.0
  0
SPLINE
  5
1bb
100
AcDbEntity
  8
engraving_3
 62
7
100
AcDbSpline
 70
8
 71
3
 72
8
 73
4
 74
0
 40
0
 40
0
 40
0
 40
0
 40
1
 40
1
 40
1
 40
1
 10
15.668026
 20
11.754197
 30
0.0
 10
15.391722
 20
11.741761
 30
0.0
 10
15.374137
 20
11.751551
 30
0.0
 10
15.370369
 20
11.836879
 30
0.0
  0
SPLINE
  5
1bc
100
AcDbEntity
  8
engraving_3
 62
7
100
AcDbSpline
 70
8
 71
3
 72
8
 73
4
 74
0
 40
0
 40
0
 40
0
 40
0
 40
1
 40
1
 40
1
 40
1
 10
15.370369
 20
11.836879
 30
0.0
 10
15.335207
 20
12.626316
 30
0.0
 10
15.289822
 20
13.646788
 30
0.0
 10
15.253064
 20
14.091499
 30
0.0
  0
SPLINE
  5
1bd
100
AcDbEntity
  8
engraving_3
 62
7
100
AcDbSpline
 70
8
 71
3
 72
8
 73
4
 74
0
 40
0
 40
0
 40
0
 40
0
 40
1
 40
1
 40
1
 40
1
 10
15.253064
 20
14.091499
 30
0.0
 10
15.228248
 20
14.141267
 30
0.0
 10
15.178114
 20
14.122561
 30
0.0
 10
15.169348
 20
14.065570
 30
0.0
  0
SPLINE
  5
1be
100
AcDbEntity
  8
engraving_3
 62
7
100
AcDbSpline
 70
8
 71
3
 72
8
 73
4
 74
0
 40
0
 40
0
 40
0
 40
0
 40
1
 40
1
 40
1
 40
1
 10
15.169348
 20
14.065570
 30
0.0
 10
15.115747
 20
13.746774
 30
0.0
 10
15.059584
 20
13.484148
 30
0.0
 10
15.011735
 20
13.289891
 30
0.0
  0
SPLINE
  5
1bf
100
AcDbEntity
  8
engraving_3
 62
7
100
AcDbSpline
 70
8
 71
3
 72
8
 73
4
 74
0
 40
0
 40
0
 40
0
 40
0
 40
1
 40
1
 40
1
 40
1
 10
15.011735
 20
13.289891
 30
0.0
 10
15.002969
 20
13.233006
 30
0.0
 10
14.981550
 20
13.204007
 30
0.0
 10
14.891329
 20
13.199986
 30
0.0
  0
SPLINE
  5
1c0
100
AcDbEntity
  8
engraving_3
 62
7
100
AcDbSpline
 70
8
 71
3
 72
8
 73
4
 74
0
 40
0
 40
0
 40
0
 40
0
 40
1
 40
1
 40
1
 40
1
 10
14.891329
 20
13.199986
 30
0.0
 10
14.801107
 20
13.196017
 30
0.0
 10
14.782865
 20
13.223269
 30
0.0
 10
14.763688
 20
13.273355
 30
0.0
  0
SPLINE
  5
1c1
100
AcDbEntity
  8
engraving_3
 62
7
100
AcDbSpline
 70
8
 71
3
 72
8
 73
4
 74
0
 40
0
 40
0
 40
0
 40
0
 40
1
 40
1
 40
1
 40
1
 10
14.763688
 20
13.273355
 30
0.0
 10
14.710791
 20
13.446154
 30
0.0
 10
14.631228
 20
13.719178
 30
0.0
 10
14.549747
 20
14.026279
 30
0.0
  0
SPLINE
  5
1c2
100
AcDbEntity
  8
engraving_3
 62
7
100
AcDbSpline
 70
8
 71
3
 72
8
 73
4
 74
0
 40
0
 40
0
 40
0
 40
0
 40
1
 40
1
 40
1
 40
1
 10
14.549747
 20
14.026279
 30
0.0
 10
14.535957
 20
14.082186
 30
0.0
 10
14.467458
 20
14.096182
 30
0.0
 10
14.446911
 20
14.050092
 30
0.0
  0
SPLINE
  5
1c3
100
AcDbEntity
  8
engraving_3
 62
7
100
AcDbSpline
 70
8
 71
3
 72
8
 73
4
 74
0
 40
0
 40
0
 40
0
 40
0
 40
1
 40
1
 40
1
 40
1
 10
14.446911
 20
14.050092
 30
0.0
 10
14.450086
 20
13.598237
 30
0.0
 10
14.494948
 20
12.594698
 30
0.0
 10
14.530110
 20
11.805261
 30
0.0
  0
SPLINE
  5
1c4
100
AcDbEntity
  8
engraving_3
 62
7
100
AcDbSpline
 70
8
 71
3
 72
8
 73
4
 74
0
 40
0
 40
0
 40
0
 40
0
 40
1
 40
1
 40
1
 40
1
 10
14.530110
 20
11.805261
 30
0.0
 10
14.534129
 20
11.715038
 30
0.0
 10
14.517408
 20
11.703079
 30
0.0
 10
14.224186
 20
11.690035
 30
0.0
  0
SPLINE
  5
1c5
100
AcDbEntity
  8
engraving_3
 62
7
100
AcDbSpline
 70
8
 71
3
 72
8
 73
4
 74
0
 40
0
 40
0
 40
0
 40
0
 40
1
 40
1
 40
1
 40
1
 10
14.224186
 20
11.690035
 30
0.0
 10
13.947882
 20
11.677864
 30
0.0
 10
13.953035
 20
11.690035
 30
0.0
 10
13.949267
 20
11.773749
 30
0.0
  0
LWPOLYLINE
  5
1c6
100
AcDbEntity
  8
engraving_3
 62
7
100
AcDbPolyline
 90
2
 70
0
 10
15.795149
 20
15.618542
 30
0.0
 10
15.962064
 20
11.868893
 30
0.0
  0
SPLINE
  5
1c7
100
AcDbEntity
  8
engraving_3
 62
7
100
AcDbSpline
 70
8
 71
3
 72
8
 73
4
 74
0
 40
0
 40
0
 40
0
 40
0
 40
1
 40
1
 40
1
 40
1
 10
13.781836
 20
15.529060
 30
0.0
 10
13.777565
 20
15.624918
 30
0.0
 10
13.817719
 20
15.621082
 30
0.0
 10
14.037634
 20
15.630872
 30
0.0
  0
SPLINE
  5
1c8
100
AcDbEntity
  8
engraving_3
 62
7
100
AcDbSpline
 70
8
 71
3
 72
8
 73
4
 74
0
 40
0
 40
0
 40
0
 40
0
 40
1
 40
1
 40
1
 40
1
 10
14.037634
 20
15.630872
 30
0.0
 10
14.280105
 20
15.641719
 30
0.0
 10
14.320474
 20
15.614997
 30
0.0
 10
14.384900
 20
15.437091
 30
0.0
  0
SPLINE
  5
1c9
100
AcDbEntity
  8
engraving_3
 62
7
100
AcDbSpline
 70
8
 71
3
 72
8
 73
4
 74
0
 40
0
 40
0
 40
0
 40
0
 40
1
 40
1
 40
1
 40
1
 10
14.384900
 20
15.437091
 30
0.0
 10
14.482291
 20
15.153272
 30
0.0
 10
14.578372
 20
14.903294
 30
0.0
 10
14.669120
 20
14.641780
 30
0.0
  0
SPLINE
  5
1ca
100
AcDbEntity
  8
engraving_3
 62
7
100
AcDbSpline
 70
8
 71
3
 72
8
 73
4
 74
0
 40
0
 40
0
 40
0
 40
0
 40
1
 40
1
 40
1
 40
1
 10
14.669120
 20
14.641780
 30
0.0
 10
14.734299
 20
14.446940
 30
0.0
 10
14.803798
 20
14.275199
 30
0.0
 10
14.843270
 20
14.276946
 30
0.0
  0
SPLINE
  5
1cb
100
AcDbEntity
  8
engraving_3
 62
7
100
AcDbSpline
 70
8
 71
3
 72
8
 73
4
 74
0
 40
0
 40
0
 40
0
 40
0
 40
1
 40
1
 40
1
 40
1
 10
14.843270
 20
14.276946
 30
0.0
 10
14.882741
 20
14.279592
 30
0.0
 10
14.932129
 20
14.444850
 30
0.0
 10
14.984863
 20
14.656252
 30
0.0
  0
LWPOLYLINE
  5
1cc
100
AcDbEntity
  8
engraving_3
 62
7
100
AcDbPolyline
 90
2
 70
0
 10
13.949267
 20
11.773749
 30
0.0
 10
13.781836
 20
15.529060
 30
0.0
  0
SPLINE
  5
1cd
100
AcDbEntity
  8
engraving_3
 62
7
100
AcDbSpline
 70
8
 71
3
 72
8
 73
4
 74
0
 40
0
 40
0
 40
0
 40
0
 40
1
 40
1
 40
1
 40
1
 10
15.197253
 20
15.473259
 30
0.0
 10
15.239966
 20
15.655954
 30
0.0
 10
15.277578
 20
15.691884
 30
0.0
 10
15.497493
 20
15.701674
 30
0.0
  0
SPLINE
  5
1ce
100
AcDbEntity
  8
engraving_3
 62
7
100
AcDbSpline
 70
8
 71
3
 72
8
 73
4
 74
0
 40
0
 40
0
 40
0
 40
0
 40
1
 40
1
 40
1
 40
1
 10
15.497493
 20
15.701674
 30
0.0
 10
15.558111
 20
15.704320
 30
0.0
 10
15.606863
 20
15.705907
 30
0.0
 10
15.645805
 20
15.705907
 30
0.0
  0
LWPOLYLINE
  5
1cf
100
AcDbEntity
  8
engraving_3
 62
7
100
AcDbPolyline
 90
2
 70
0
 10
14.984863
 20
14.656252
 30
0.0
 10
15.197253
 20
15.473259
 30
0.0
  0
SPLINE
  5
1d0
100
AcDbEntity
  8
engraving_3
 62
7
100
AcDbSpline
 70
8
 71
3
 72
8
 73
4
 74
0
 40
0
 40
0
 40
0
 40
0
 40
1
 40
1
 40
1
 40
1
 10
12.906954
 20
15.572557
 30
0.0
 10
13.023764
 20
15.575203
 30
0.0
 10
13.053344
 20
15.556418
 30
0.0
 10
13.057849
 20
15.488843
 30
0.0
  0
LWPOLYLINE
  5
1d1
100
AcDbEntity
  8
engraving_3
 62
7
100
AcDbPolyline
 90
1
 70
1
 10
15.645805
 20
15.705907
 30
0.0
  0
SPLINE
  5
1d2
100
AcDbEntity
  8
engraving_3
 62
7
100
AcDbSpline
 70
8
 71
3
 72
8
 73
4
 74
0
 40
0
 40
0
 40
0
 40
0
 40
1
 40
1
 40
1
 40
1
 10
13.307963
 20
11.743851
 30
0.0
 10
13.313969
 20
11.653734
 30
0.0
 10
13.320115
 20
11.642675
 30
0.0
 10
13.015991
 20
11.622408
 30
0.0
  0
SPLINE
  5
1d3
100
AcDbEntity
  8
engraving_3
 62
7
100
AcDbSpline
 70
8
 71
3
 72
8
 73
4
 74
0
 40
0
 40
0
 40
0
 40
0
 40
1
 40
1
 40
1
 40
1
 10
13.015991
 20
11.622408
 30
0.0
 10
12.740026
 20
11.603887
 30
0.0
 10
12.722416
 20
11.614470
 30
0.0
 10
12.716785
 20
11.698899
 30
0.0
  0
SPLINE
  5
1d4
100
AcDbEntity
  8
engraving_3
 62
7
100
AcDbSpline
 70
8
 71
3
 72
8
 73
4
 74
0
 40
0
 40
0
 40
0
 40
0
 40
1
 40
1
 40
1
 40
1
 10
12.716785
 20
11.698899
 30
0.0
 10
12.664225
 20
12.487357
 30
0.0
 10
12.596424
 20
13.506638
 30
0.0
 10
12.549870
 20
13.950423
 30
0.0
  0
SPLINE
  5
1d5
100
AcDbEntity
  8
engraving_3
 62
7
100
AcDbSpline
 70
8
 71
3
 72
8
 73
4
 74
0
 40
0
 40
0
 40
0
 40
0
 40
1
 40
1
 40
1
 40
1
 10
12.549870
 20
13.950423
 30
0.0
 10
12.523962
 20
13.999609
 30
0.0
 10
12.474180
 20
13.979078
 30
0.0
 10
12.466671
 20
13.922007
 30
0.0
  0
SPLINE
  5
1d6
100
AcDbEntity
  8
engraving_3
 62
7
100
AcDbSpline
 70
8
 71
3
 72
8
 73
4
 74
0
 40
0
 40
0
 40
0
 40
0
 40
1
 40
1
 40
1
 40
1
 10
12.466671
 20
13.922007
 30
0.0
 10
12.420111
 20
13.602126
 30
0.0
 10
12.369666
 20
13.338495
 30
0.0
 10
12.326111
 20
13.143259
 30
0.0
  0
SPLINE
  5
1d7
100
AcDbEntity
  8
engraving_3
 62
7
100
AcDbSpline
 70
8
 71
3
 72
8
 73
4
 74
0
 40
0
 40
0
 40
0
 40
0
 40
1
 40
1
 40
1
 40
1
 10
12.326111
 20
13.143259
 30
0.0
 10
12.318602
 20
13.086188
 30
0.0
 10
12.297883
 20
13.056740
 30
0.0
 10
12.207771
 20
13.050734
 30
0.0
  0
SPLINE
  5
1d8
100
AcDbEntity
  8
engraving_3
 62
7
100
AcDbSpline
 70
8
 71
3
 72
8
 73
4
 74
0
 40
0
 40
0
 40
0
 40
0
 40
1
 40
1
 40
1
 40
1
 10
12.207771
 20
13.050734
 30
0.0
 10
12.117660
 20
13.044649
 30
0.0
 10
12.099372
 20
13.071901
 30
0.0
 10
12.079097
 20
13.121537
 30
0.0
  0
SPLINE
  5
1d9
100
AcDbEntity
  8
engraving_3
 62
7
100
AcDbSpline
 70
8
 71
3
 72
8
 73
4
 74
0
 40
0
 40
0
 40
0
 40
0
 40
1
 40
1
 40
1
 40
1
 10
12.079097
 20
13.121537
 30
0.0
 10
12.022404
 20
13.293119
 30
0.0
 10
11.936335
 20
13.564555
 30
0.0
 10
11.848104
 20
13.869831
 30
0.0
  0
SPLINE
  5
1da
100
AcDbEntity
  8
engraving_3
 62
7
100
AcDbSpline
 70
8
 71
3
 72
8
 73
4
 74
0
 40
0
 40
0
 40
0
 40
0
 40
1
 40
1
 40
1
 40
1
 10
11.848104
 20
13.869831
 30
0.0
 10
11.833086
 20
13.925394
 30
0.0
 10
11.764275
 20
13.937565
 30
0.0
 10
11.744751
 20
13.890998
 30
0.0
  0
SPLINE
  5
1db
100
AcDbEntity
  8
engraving_3
 62
7
100
AcDbSpline
 70
8
 71
3
 72
8
 73
4
 74
0
 40
0
 40
0
 40
0
 40
0
 40
1
 40
1
 40
1
 40
1
 10
11.744751
 20
13.890998
 30
0.0
 10
11.757890
 20
13.439328
 30
0.0
 10
11.824483
 20
12.436716
 30
0.0
 10
11.877042
 20
11.648257
 30
0.0
  0
SPLINE
  5
1dc
100
AcDbEntity
  8
engraving_3
 62
7
100
AcDbSpline
 70
8
 71
3
 72
8
 73
4
 74
0
 40
0
 40
0
 40
0
 40
0
 40
1
 40
1
 40
1
 40
1
 10
11.877042
 20
11.648257
 30
0.0
 10
11.883048
 20
11.558140
 30
0.0
 10
11.867081
 20
11.545811
 30
0.0
 10
11.574218
 20
11.526284
 30
0.0
  0
SPLINE
  5
1dd
100
AcDbEntity
  8
engraving_3
 62
7
100
AcDbSpline
 70
8
 71
3
 72
8
 73
4
 74
0
 40
0
 40
0
 40
0
 40
0
 40
1
 40
1
 40
1
 40
1
 10
11.574218
 20
11.526284
 30
0.0
 10
11.298253
 20
11.507764
 30
0.0
 10
11.303381
 20
11.519934
 30
0.0
 10
11.297750
 20
11.604310
 30
0.0
  0
LWPOLYLINE
  5
1de
100
AcDbEntity
  8
engraving_3
 62
7
100
AcDbPolyline
 90
2
 70
0
 10
13.057849
 20
15.488843
 30
0.0
 10
13.307963
 20
11.743851
 30
0.0
  0
SPLINE
  5
1df
100
AcDbEntity
  8
engraving_3
 62
7
100
AcDbSpline
 70
8
 71
3
 72
8
 73
4
 74
0
 40
0
 40
0
 40
0
 40
0
 40
1
 40
1
 40
1
 40
1
 10
11.047636
 20
15.354990
 30
0.0
 10
11.041254
 20
15.450743
 30
0.0
 10
11.080688
 20
15.447833
 30
0.0
 10
11.300333
 20
15.462491
 30
0.0
  0
SPLINE
  5
1e0
100
AcDbEntity
  8
engraving_3
 62
7
100
AcDbSpline
 70
8
 71
3
 72
8
 73
4
 74
0
 40
0
 40
0
 40
0
 40
0
 40
1
 40
1
 40
1
 40
1
 10
11.300333
 20
15.462491
 30
0.0
 10
11.542507
 20
15.478630
 30
0.0
 10
11.583917
 20
15.452966
 30
0.0
 10
11.652250
 20
15.276462
 30
0.0
  0
SPLINE
  5
1e1
100
AcDbEntity
  8
engraving_3
 62
7
100
AcDbSpline
 70
8
 71
3
 72
8
 73
4
 74
0
 40
0
 40
0
 40
0
 40
0
 40
1
 40
1
 40
1
 40
1
 10
11.652250
 20
15.276462
 30
0.0
 10
11.755876
 20
14.994840
 30
0.0
 10
11.857548
 20
14.747322
 30
0.0
 10
11.954040
 20
14.487872
 30
0.0
  0
SPLINE
  5
1e2
100
AcDbEntity
  8
engraving_3
 62
7
100
AcDbSpline
 70
8
 71
3
 72
8
 73
4
 74
0
 40
0
 40
0
 40
0
 40
0
 40
1
 40
1
 40
1
 40
1
 10
11.954040
 20
14.487872
 30
0.0
 10
12.023500
 20
14.294514
 30
0.0
 10
12.097035
 20
14.124017
 30
0.0
 10
12.136458
 20
14.126662
 30
0.0
  0
SPLINE
  5
1e3
100
AcDbEntity
  8
engraving_3
 62
7
100
AcDbSpline
 70
8
 71
3
 72
8
 73
4
 74
0
 40
0
 40
0
 40
0
 40
0
 40
1
 40
1
 40
1
 40
1
 10
12.136458
 20
14.126662
 30
0.0
 10
12.175882
 20
14.129308
 30
0.0
 10
12.221206
 20
14.296022
 30
0.0
 10
12.269266
 20
14.508535
 30
0.0
  0
LWPOLYLINE
  5
1e4
100
AcDbEntity
  8
engraving_3
 62
7
100
AcDbPolyline
 90
2
 70
0
 10
11.297750
 20
11.604310
 30
0.0
 10
11.047636
 20
15.354990
 30
0.0
  0
SPLINE
  5
1e5
100
AcDbEntity
  8
engraving_3
 62
7
100
AcDbSpline
 70
8
 71
3
 72
8
 73
4
 74
0
 40
0
 40
0
 40
0
 40
0
 40
1
 40
1
 40
1
 40
1
 10
12.463570
 20
15.330702
 30
0.0
 10
12.502244
 20
15.514323
 30
0.0
 10
12.538996
 20
15.550676
 30
0.0
 10
12.758642
 20
15.565334
 30
0.0
  0
SPLINE
  5
1e6
100
AcDbEntity
  8
engraving_3
 62
7
100
AcDbSpline
 70
8
 71
3
 72
8
 73
4
 74
0
 40
0
 40
0
 40
0
 40
0
 40
1
 40
1
 40
1
 40
1
 10
12.758642
 20
15.565334
 30
0.0
 10
12.819186
 20
15.569303
 30
0.0
 10
12.868017
 20
15.571949
 30
0.0
 10
12.906954
 20
15.572478
 30
0.0
  0
LWPOLYLINE
  5
1e7
100
AcDbEntity
  8
engraving_3
 62
7
100
AcDbPolyline
 90
2
 70
0
 10
12.269266
 20
14.508535
 30
0.0
 10
12.463570
 20
15.330702
 30
0.0
  0
SPLINE
  5
1e8
100
AcDbEntity
  8
engraving_3
 62
7
100
AcDbSpline
 70
8
 71
3
 72
8
 73
4
 74
0
 40
0
 40
0
 40
0
 40
0
 40
1
 40
1
 40
1
 40
1
 10
28.101375
 20
15.550332
 30
0.0
 10
28.124849
 20
15.552978
 30
0.0
 10
28.153142
 20
15.547687
 30
0.0
 10
28.189742
 20
15.546099
 30
0.0
  0
LWPOLYLINE
  5
1e9
100
AcDbEntity
  8
engraving_3
 62
7
100
AcDbPolyline
 90
1
 70
1
 10
12.906954
 20
15.572478
 30
0.0
  0
SPLINE
  5
1ea
100
AcDbEntity
  8
engraving_3
 62
7
100
AcDbSpline
 70
8
 71
3
 72
8
 73
4
 74
0
 40
0
 40
0
 40
0
 40
0
 40
1
 40
1
 40
1
 40
1
 10
28.763867
 20
15.505777
 30
0.0
 10
29.005985
 20
15.488843
 30
0.0
 10
29.249291
 20
15.403806
 30
0.0
 10
29.412406
 20
15.228282
 30
0.0
  0
SPLINE
  5
1eb
100
AcDbEntity
  8
engraving_3
 62
7
100
AcDbSpline
 70
8
 71
3
 72
8
 73
4
 74
0
 40
0
 40
0
 40
0
 40
0
 40
1
 40
1
 40
1
 40
1
 10
29.412406
 20
15.228282
 30
0.0
 10
29.565049
 20
15.064822
 30
0.0
 10
29.616947
 20
14.834793
 30
0.0
 10
29.599992
 20
14.592673
 30
0.0
  0
LWPOLYLINE
  5
1ec
100
AcDbEntity
  8
engraving_3
 62
7
100
AcDbPolyline
 90
2
 70
0
 10
28.189742
 20
15.546099
 30
0.0
 10
28.763867
 20
15.505777
 30
0.0
  0
SPLINE
  5
1ed
100
AcDbEntity
  8
engraving_3
 62
7
100
AcDbSpline
 70
8
 71
3
 72
8
 73
4
 74
0
 40
0
 40
0
 40
0
 40
0
 40
1
 40
1
 40
1
 40
1
 10
29.443412
 20
12.357658
 30
0.0
 10
29.428823
 20
12.149325
 30
0.0
 10
29.363401
 20
11.944458
 30
0.0
 10
29.158158
 20
11.760785
 30
0.0
  0
SPLINE
  5
1ee
100
AcDbEntity
  8
engraving_3
 62
7
100
AcDbSpline
 70
8
 71
3
 72
8
 73
4
 74
0
 40
0
 40
0
 40
0
 40
0
 40
1
 40
1
 40
1
 40
1
 10
29.158158
 20
11.760785
 30
0.0
 10
28.964965
 20
11.587615
 30
0.0
 10
28.701933
 20
11.549330
 30
0.0
 10
28.493599
 20
11.563908
 30
0.0
  0
LWPOLYLINE
  5
1ef
100
AcDbEntity
  8
engraving_3
 62
7
100
AcDbPolyline
 90
2
 70
0
 10
29.599992
 20
14.592673
 30
0.0
 10
29.443412
 20
12.357658
 30
0.0
  0
SPLINE
  5
1f0
100
AcDbEntity
  8
engraving_3
 62
7
100
AcDbSpline
 70
8
 71
3
 72
8
 73
4
 74
0
 40
0
 40
0
 40
0
 40
0
 40
1
 40
1
 40
1
 40
1
 10
27.908105
 20
11.604733
 30
0.0
 10
27.834906
 20
11.609761
 30
0.0
 10
27.789497
 20
11.607644
 30
0.0
 10
27.770129
 20
11.654343
 30
0.0
  0
SPLINE
  5
1f1
100
AcDbEntity
  8
engraving_3
 62
7
100
AcDbSpline
 70
8
 71
3
 72
8
 73
4
 74
0
 40
0
 40
0
 40
0
 40
0
 40
1
 40
1
 40
1
 40
1
 10
27.770129
 20
11.654343
 30
0.0
 10
27.749579
 20
11.684082
 30
0.0
 10
27.753267
 20
11.734459
 30
0.0
 10
27.757209
 20
11.790762
 30
0.0
  0
LWPOLYLINE
  5
1f2
100
AcDbEntity
  8
engraving_3
 62
7
100
AcDbPolyline
 90
2
 70
0
 10
28.493599
 20
11.563908
 30
0.0
 10
27.908105
 20
11.604733
 30
0.0
  0
SPLINE
  5
1f3
100
AcDbEntity
  8
engraving_3
 62
7
100
AcDbSpline
 70
8
 71
3
 72
8
 73
4
 74
0
 40
0
 40
0
 40
0
 40
0
 40
1
 40
1
 40
1
 40
1
 10
28.008357
 20
15.383327
 30
0.0
 10
28.012693
 20
15.445240
 30
0.0
 10
28.016419
 20
15.495749
 30
0.0
 10
28.040913
 20
15.522313
 30
0.0
  0
SPLINE
  5
1f4
100
AcDbEntity
  8
engraving_3
 62
7
100
AcDbSpline
 70
8
 71
3
 72
8
 73
4
 74
0
 40
0
 40
0
 40
0
 40
0
 40
1
 40
1
 40
1
 40
1
 10
28.040913
 20
15.522313
 30
0.0
 10
28.059185
 20
15.540834
 30
0.0
 10
28.077902
 20
15.548242
 30
0.0
 10
28.101374
 20
15.550227
 30
0.0
  0
LWPOLYLINE
  5
1f5
100
AcDbEntity
  8
engraving_3
 62
7
100
AcDbPolyline
 90
2
 70
0
 10
27.757209
 20
11.790762
 30
0.0
 10
28.008357
 20
15.383327
 30
0.0
  0
SPLINE
  5
1f6
100
AcDbEntity
  8
engraving_3
 62
7
100
AcDbSpline
 70
8
 71
3
 72
8
 73
4
 74
0
 40
0
 40
0
 40
0
 40
0
 40
1
 40
1
 40
1
 40
1
 10
30.791650
 20
15.339486
 30
0.0
 10
30.848869
 20
15.345836
 30
0.0
 10
30.919455
 20
15.342132
 30
0.0
 10
30.981303
 20
15.335253
 30
0.0
  0
SPLINE
  5
1f7
100
AcDbEntity
  8
engraving_3
 62
7
100
AcDbSpline
 70
8
 71
3
 72
8
 73
4
 74
0
 40
0
 40
0
 40
0
 40
0
 40
1
 40
1
 40
1
 40
1
 10
30.981303
 20
15.335253
 30
0.0
 10
31.121866
 20
15.322817
 30
0.0
 10
31.273059
 20
15.303688
 30
0.0
 10
31.275858
 20
15.207088
 30
0.0
  0
SPLINE
  5
1f8
100
AcDbEntity
  8
engraving_3
 62
7
100
AcDbSpline
 70
8
 71
3
 72
8
 73
4
 74
0
 40
0
 40
0
 40
0
 40
0
 40
1
 40
1
 40
1
 40
1
 10
31.275858
 20
15.207088
 30
0.0
 10
31.367958
 20
13.748361
 30
0.0
 10
31.414197
 20
12.860578
 30
0.0
 10
31.509435
 20
11.373223
 30
0.0
  0
SPLINE
  5
1f9
100
AcDbEntity
  8
engraving_3
 62
7
100
AcDbSpline
 70
8
 71
3
 72
8
 73
4
 74
0
 40
0
 40
0
 40
0
 40
0
 40
1
 40
1
 40
1
 40
1
 10
31.509435
 20
11.373223
 30
0.0
 10
31.515217
 20
11.310384
 30
0.0
 10
31.347051
 20
11.330863
 30
0.0
 10
31.195243
 20
11.344278
 30
0.0
  0
SPLINE
  5
1fa
100
AcDbEntity
  8
engraving_3
 62
7
100
AcDbSpline
 70
8
 71
3
 72
8
 73
4
 74
0
 40
0
 40
0
 40
0
 40
0
 40
1
 40
1
 40
1
 40
1
 10
31.195243
 20
11.344278
 30
0.0
 10
31.032189
 20
11.358565
 30
0.0
 10
30.924614
 20
11.356448
 30
0.0
 10
30.920324
 20
11.436273
 30
0.0
  0
SPLINE
  5
1fb
100
AcDbEntity
  8
engraving_3
 62
7
100
AcDbSpline
 70
8
 71
3
 72
8
 73
4
 74
0
 40
0
 40
0
 40
0
 40
0
 40
1
 40
1
 40
1
 40
1
 10
30.920324
 20
11.436273
 30
0.0
 10
30.903163
 20
11.755096
 30
0.0
 10
30.899224
 20
11.971076
 30
0.0
 10
30.881567
 20
12.284289
 30
0.0
  0
SPLINE
  5
1fc
100
AcDbEntity
  8
engraving_3
 62
7
100
AcDbSpline
 70
8
 71
3
 72
8
 73
4
 74
0
 40
0
 40
0
 40
0
 40
0
 40
1
 40
1
 40
1
 40
1
 10
30.881567
 20
12.284289
 30
0.0
 10
30.880906
 20
12.340989
 30
0.0
 10
30.812364
 20
12.335751
 30
0.0
 10
30.722404
 20
12.343715
 30
0.0
  0
SPLINE
  5
1fd
100
AcDbEntity
  8
engraving_3
 62
7
100
AcDbSpline
 70
8
 71
3
 72
8
 73
4
 74
0
 40
0
 40
0
 40
0
 40
0
 40
1
 40
1
 40
1
 40
1
 10
30.722404
 20
12.343715
 30
0.0
 10
30.615575
 20
12.353240
 30
0.0
 10
30.560395
 20
12.369379
 30
0.0
 10
30.549804
 20
12.313737
 30
0.0
  0
SPLINE
  5
1fe
100
AcDbEntity
  8
engraving_3
 62
7
100
AcDbSpline
 70
8
 71
3
 72
8
 73
4
 74
0
 40
0
 40
0
 40
0
 40
0
 40
1
 40
1
 40
1
 40
1
 10
30.549804
 20
12.313737
 30
0.0
 10
30.488249
 20
12.001847
 30
0.0
 10
30.447568
 20
11.795551
 30
0.0
 10
30.390641
 20
11.471913
 30
0.0
  0
SPLINE
  5
1ff
100
AcDbEntity
  8
engraving_3
 62
7
100
AcDbSpline
 70
8
 71
3
 72
8
 73
4
 74
0
 40
0
 40
0
 40
0
 40
0
 40
1
 40
1
 40
1
 40
1
 10
30.390641
 20
11.471913
 30
0.0
 10
30.379555
 20
11.410582
 30
0.0
 10
30.256369
 20
11.427092
 30
0.0
 10
30.076448
 20
11.442994
 30
0.0
  0
SPLINE
  5
200
100
AcDbEntity
  8
engraving_3
 62
7
100
AcDbSpline
 70
8
 71
3
 72
8
 73
4
 74
0
 40
0
 40
0
 40
0
 40
0
 40
1
 40
1
 40
1
 40
1
 10
30.076448
 20
11.442994
 30
0.0
 10
29.992110
 20
11.450402
 30
0.0
 10
29.795053
 20
11.467864
 30
0.0
 10
29.805147
 20
11.517924
 30
0.0
  0
SPLINE
  5
201
100
AcDbEntity
  8
engraving_3
 62
7
100
AcDbSpline
 70
8
 71
3
 72
8
 73
4
 74
0
 40
0
 40
0
 40
0
 40
0
 40
1
 40
1
 40
1
 40
1
 10
29.805147
 20
11.517924
 30
0.0
 10
30.142844
 20
12.967020
 30
0.0
 10
30.376308
 20
13.938226
 30
0.0
 10
30.681579
 20
15.276859
 30
0.0
  0
SPLINE
  5
202
100
AcDbEntity
  8
engraving_3
 62
7
100
AcDbSpline
 70
8
 71
3
 72
8
 73
4
 74
0
 40
0
 40
0
 40
0
 40
0
 40
1
 40
1
 40
1
 40
1
 10
30.681579
 20
15.276859
 30
0.0
 10
30.690678
 20
15.315726
 30
0.0
 10
30.734431
 20
15.333109
 30
0.0
 10
30.791650
 20
15.339380
 30
0.0
  0
LWPOLYLINE
  5
203
100
AcDbEntity
  8
engraving_3
 62
7
100
AcDbPolyline
 90
2
 70
0
 10
28.101374
 20
15.550227
 30
0.0
 10
28.101375
 20
15.550332
 30
0.0
  0
SPLINE
  5
204
100
AcDbEntity
  8
engraving_3
 62
7
100
AcDbSpline
 70
8
 71
3
 72
8
 73
4
 74
0
 40
0
 40
0
 40
0
 40
0
 40
1
 40
1
 40
1
 40
1
 10
9.699398
 20
15.323875
 30
0.0
 10
10.093785
 20
15.290855
 30
0.0
 10
10.378244
 20
15.019181
 30
0.0
 10
10.415633
 20
14.591112
 30
0.0
  0
LWPOLYLINE
  5
205
100
AcDbEntity
  8
engraving_3
 62
7
100
AcDbPolyline
 90
2
 70
0
 10
30.791650
 20
15.339380
 30
0.0
 10
30.791650
 20
15.339486
 30
0.0
  0
SPLINE
  5
206
100
AcDbEntity
  8
engraving_3
 62
7
100
AcDbSpline
 70
8
 71
3
 72
8
 73
4
 74
0
 40
0
 40
0
 40
0
 40
0
 40
1
 40
1
 40
1
 40
1
 10
10.618205
 20
12.268785
 30
0.0
 10
10.659462
 20
11.796451
 30
0.0
 10
10.413297
 20
11.434818
 30
0.0
 10
9.867863
 20
11.387167
 30
0.0
  0
SPLINE
  5
207
100
AcDbEntity
  8
engraving_3
 62
7
100
AcDbSpline
 70
8
 71
3
 72
8
 73
4
 74
0
 40
0
 40
0
 40
0
 40
0
 40
1
 40
1
 40
1
 40
1
 10
9.867863
 20
11.387167
 30
0.0
 10
9.350544
 20
11.342002
 30
0.0
 10
9.022404
 20
11.664556
 30
0.0
 10
8.982129
 20
12.125645
 30
0.0
  0
LWPOLYLINE
  5
208
100
AcDbEntity
  8
engraving_3
 62
7
100
AcDbPolyline
 90
2
 70
0
 10
10.415633
 20
14.591112
 30
0.0
 10
10.618205
 20
12.268785
 30
0.0
  0
SPLINE
  5
209
100
AcDbEntity
  8
engraving_3
 62
7
100
AcDbSpline
 70
8
 71
3
 72
8
 73
4
 74
0
 40
0
 40
0
 40
0
 40
0
 40
1
 40
1
 40
1
 40
1
 10
8.779040
 20
14.447972
 30
0.0
 10
8.736310
 20
14.937187
 30
0.0
 10
9.057503
 20
15.282600
 30
0.0
 10
9.524214
 20
15.323373
 30
0.0
  0
SPLINE
  5
20a
100
AcDbEntity
  8
engraving_3
 62
7
100
AcDbSpline
 70
8
 71
3
 72
8
 73
4
 74
0
 40
0
 40
0
 40
0
 40
0
 40
1
 40
1
 40
1
 40
1
 10
9.524214
 20
15.323373
 30
0.0
 10
9.584662
 20
15.328664
 30
0.0
 10
9.643057
 20
15.328664
 30
0.0
 10
9.699398
 20
15.323373
 30
0.0
  0
LWPOLYLINE
  5
20b
100
AcDbEntity
  8
engraving_3
 62
7
100
AcDbPolyline
 90
2
 70
0
 10
8.982129
 20
12.125645
 30
0.0
 10
8.779040
 20
14.447972
 30
0.0
  0
SPLINE
  5
20c
100
AcDbEntity
  8
engraving_3
 62
7
100
AcDbSpline
 70
8
 71
3
 72
8
 73
4
 74
0
 40
0
 40
0
 40
0
 40
0
 40
1
 40
1
 40
1
 40
1
 10
32.078393
 20
15.210713
 30
0.0
 10
32.132834
 20
15.215476
 30
0.0
 10
32.200183
 20
15.210713
 30
0.0
 10
32.247892
 20
15.204628
 30
0.0
  0
SPLINE
  5
20d
100
AcDbEntity
  8
engraving_3
 62
7
100
AcDbSpline
 70
8
 71
3
 72
8
 73
4
 74
0
 40
0
 40
0
 40
0
 40
0
 40
1
 40
1
 40
1
 40
1
 10
32.247892
 20
15.204628
 30
0.0
 10
32.421888
 20
15.186107
 30
0.0
 10
32.578418
 20
15.163908
 30
0.0
 10
32.580688
 20
15.078527
 30
0.0
  0
SPLINE
  5
20e
100
AcDbEntity
  8
engraving_3
 62
7
100
AcDbSpline
 70
8
 71
3
 72
8
 73
4
 74
0
 40
0
 40
0
 40
0
 40
0
 40
1
 40
1
 40
1
 40
1
 10
32.580688
 20
15.078527
 30
0.0
 10
32.596100
 20
14.583042
 30
0.0
 10
32.611232
 20
14.138780
 30
0.0
 10
32.624613
 20
13.677585
 30
0.0
  0
SPLINE
  5
20f
100
AcDbEntity
  8
engraving_3
 62
7
100
AcDbSpline
 70
8
 71
3
 72
8
 73
4
 74
0
 40
0
 40
0
 40
0
 40
0
 40
1
 40
1
 40
1
 40
1
 10
32.624613
 20
13.677585
 30
0.0
 10
32.622814
 20
13.660652
 30
0.0
 10
32.630585
 20
13.625700
 30
0.0
 10
32.653035
 20
13.623319
 30
0.0
  0
SPLINE
  5
210
100
AcDbEntity
  8
engraving_3
 62
7
100
AcDbSpline
 70
8
 71
3
 72
8
 73
4
 74
0
 40
0
 40
0
 40
0
 40
0
 40
1
 40
1
 40
1
 40
1
 10
32.653035
 20
13.623319
 30
0.0
 10
32.675485
 20
13.620673
 30
0.0
 10
32.685350
 20
13.659699
 30
0.0
 10
32.687141
 20
13.676553
 30
0.0
  0
SPLINE
  5
211
100
AcDbEntity
  8
engraving_3
 62
7
100
AcDbSpline
 70
8
 71
3
 72
8
 73
4
 74
0
 40
0
 40
0
 40
0
 40
0
 40
1
 40
1
 40
1
 40
1
 10
32.687141
 20
13.676553
 30
0.0
 10
32.813243
 20
14.168334
 30
0.0
 10
32.891617
 20
14.534544
 30
0.0
 10
33.012703
 20
15.032543
 30
0.0
  0
SPLINE
  5
212
100
AcDbEntity
  8
engraving_3
 62
7
100
AcDbSpline
 70
8
 71
3
 72
8
 73
4
 74
0
 40
0
 40
0
 40
0
 40
0
 40
1
 40
1
 40
1
 40
1
 10
33.012703
 20
15.032543
 30
0.0
 10
33.031689
 20
15.104298
 30
0.0
 10
33.190782
 20
15.104377
 30
0.0
 10
33.336714
 20
15.088873
 30
0.0
  0
SPLINE
  5
213
100
AcDbEntity
  8
engraving_3
 62
7
100
AcDbSpline
 70
8
 71
3
 72
8
 73
4
 74
0
 40
0
 40
0
 40
0
 40
0
 40
1
 40
1
 40
1
 40
1
 10
33.336714
 20
15.088873
 30
0.0
 10
33.488259
 20
15.072733
 30
0.0
 10
33.627964
 20
15.052545
 30
0.0
 10
33.603365
 20
14.981372
 30
0.0
  0
SPLINE
  5
214
100
AcDbEntity
  8
engraving_3
 62
7
100
AcDbSpline
 70
8
 71
3
 72
8
 73
4
 74
0
 40
0
 40
0
 40
0
 40
0
 40
1
 40
1
 40
1
 40
1
 10
33.603365
 20
14.981372
 30
0.0
 10
33.392596
 20
14.333990
 30
0.0
 10
33.231525
 20
13.834324
 30
0.0
 10
33.003918
 20
13.188714
 30
0.0
  0
SPLINE
  5
215
100
AcDbEntity
  8
engraving_3
 62
7
100
AcDbSpline
 70
8
 71
3
 72
8
 73
4
 74
0
 40
0
 40
0
 40
0
 40
0
 40
1
 40
1
 40
1
 40
1
 10
33.003918
 20
13.188714
 30
0.0
 10
32.963316
 20
13.073832
 30
0.0
 10
32.933674
 20
12.952203
 30
0.0
 10
32.907283
 20
12.864203
 30
0.0
  0
SPLINE
  5
216
100
AcDbEntity
  8
engraving_3
 62
7
100
AcDbSpline
 70
8
 71
3
 72
8
 73
4
 74
0
 40
0
 40
0
 40
0
 40
0
 40
1
 40
1
 40
1
 40
1
 10
32.907283
 20
12.864203
 30
0.0
 10
32.890683
 20
12.814885
 30
0.0
 10
32.852400
 20
12.671189
 30
0.0
 10
32.841654
 20
12.570145
 30
0.0
  0
LWPOLYLINE
  5
217
100
AcDbEntity
  8
engraving_3
 62
7
100
AcDbPolyline
 90
2
 70
0
 10
9.699398
 20
15.323373
 30
0.0
 10
9.699398
 20
15.323875
 30
0.0
  0
SPLINE
  5
218
100
AcDbEntity
  8
engraving_3
 62
7
100
AcDbSpline
 70
8
 71
3
 72
8
 73
4
 74
0
 40
0
 40
0
 40
0
 40
0
 40
1
 40
1
 40
1
 40
1
 10
32.699544
 20
11.234317
 30
0.0
 10
32.694170
 20
11.183808
 30
0.0
 10
32.459351
 20
11.214738
 30
0.0
 10
32.386385
 20
11.222411
 30
0.0
  0
SPLINE
  5
219
100
AcDbEntity
  8
engraving_3
 62
7
100
AcDbSpline
 70
8
 71
3
 72
8
 73
4
 74
0
 40
0
 40
0
 40
0
 40
0
 40
1
 40
1
 40
1
 40
1
 10
32.386385
 20
11.222411
 30
0.0
 10
32.296580
 20
11.231936
 30
0.0
 10
32.088282
 20
11.248604
 30
0.0
 10
32.095446
 20
11.315941
 30
0.0
  0
SPLINE
  5
21a
100
AcDbEntity
  8
engraving_3
 62
7
100
AcDbSpline
 70
8
 71
3
 72
8
 73
4
 74
0
 40
0
 40
0
 40
0
 40
0
 40
1
 40
1
 40
1
 40
1
 10
32.095446
 20
11.315941
 30
0.0
 10
32.143806
 20
11.770574
 30
0.0
 10
32.186488
 20
12.117628
 30
0.0
 10
32.239624
 20
12.617162
 30
0.0
  0
SPLINE
  5
21b
100
AcDbEntity
  8
engraving_3
 62
7
100
AcDbSpline
 70
8
 71
3
 72
8
 73
4
 74
0
 40
0
 40
0
 40
0
 40
0
 40
1
 40
1
 40
1
 40
1
 10
32.239624
 20
12.617162
 30
0.0
 10
32.250371
 20
12.718179
 30
0.0
 10
32.256684
 20
12.831209
 30
0.0
 10
32.252025
 20
12.894127
 30
0.0
  0
SPLINE
  5
21c
100
AcDbEntity
  8
engraving_3
 62
7
100
AcDbSpline
 70
8
 71
3
 72
8
 73
4
 74
0
 40
0
 40
0
 40
0
 40
0
 40
1
 40
1
 40
1
 40
1
 10
32.252025
 20
12.894127
 30
0.0
 10
32.248561
 20
12.968290
 30
0.0
 10
32.224062
 20
13.112885
 30
0.0
 10
32.209133
 20
13.239329
 30
0.0
  0
SPLINE
  5
21d
100
AcDbEntity
  8
engraving_3
 62
7
100
AcDbSpline
 70
8
 71
3
 72
8
 73
4
 74
0
 40
0
 40
0
 40
0
 40
0
 40
1
 40
1
 40
1
 40
1
 10
32.209133
 20
13.239329
 30
0.0
 10
32.127441
 20
13.912165
 30
0.0
 10
32.057392
 20
14.481283
 30
0.0
 10
31.986925
 20
15.152928
 30
0.0
  0
SPLINE
  5
21e
100
AcDbEntity
  8
engraving_3
 62
7
100
AcDbSpline
 70
8
 71
3
 72
8
 73
4
 74
0
 40
0
 40
0
 40
0
 40
0
 40
1
 40
1
 40
1
 40
1
 10
31.986925
 20
15.152928
 30
0.0
 10
31.982387
 20
15.190287
 30
0.0
 10
32.023951
 20
15.205951
 30
0.0
 10
32.078392
 20
15.210793
 30
0.0
  0
LWPOLYLINE
  5
21f
100
AcDbEntity
  8
engraving_3
 62
7
100
AcDbPolyline
 90
2
 70
0
 10
32.841654
 20
12.570145
 30
0.0
 10
32.699544
 20
11.234317
 30
0.0
  0
SPLINE
  5
220
100
AcDbEntity
  8
engraving_3
 62
7
100
AcDbSpline
 70
8
 71
3
 72
8
 73
4
 74
0
 40
0
 40
0
 40
0
 40
0
 40
1
 40
1
 40
1
 40
1
 10
7.561027
 20
15.118215
 30
0.0
 10
7.973334
 20
15.082470
 30
0.0
 10
8.211260
 20
14.766689
 30
0.0
 10
8.249357
 20
14.408179
 30
0.0
  0
LWPOLYLINE
  5
221
100
AcDbEntity
  8
engraving_3
 62
7
100
AcDbPolyline
 90
1
 70
1
 10
32.078392
 20
15.210793
 30
0.0
  0
SPLINE
  5
222
100
AcDbEntity
  8
engraving_3
 62
7
100
AcDbSpline
 70
8
 71
3
 72
8
 73
4
 74
0
 40
0
 40
0
 40
0
 40
0
 40
1
 40
1
 40
1
 40
1
 10
8.281396
 20
14.105363
 30
0.0
 10
8.287360
 20
14.049219
 30
0.0
 10
8.244515
 20
14.027364
 30
0.0
 10
7.986324
 20
13.999927
 30
0.0
  0
SPLINE
  5
223
100
AcDbEntity
  8
engraving_3
 62
7
100
AcDbSpline
 70
8
 71
3
 72
8
 73
4
 74
0
 40
0
 40
0
 40
0
 40
0
 40
1
 40
1
 40
1
 40
1
 10
7.986324
 20
13.999927
 30
0.0
 10
7.801100
 20
13.980348
 30
0.0
 10
7.706757
 20
13.959022
 30
0.0
 10
7.699003
 20
14.031968
 30
0.0
  0
LWPOLYLINE
  5
224
100
AcDbEntity
  8
engraving_3
 62
7
100
AcDbPolyline
 90
2
 70
0
 10
8.249357
 20
14.408179
 30
0.0
 10
8.281396
 20
14.105363
 30
0.0
  0
SPLINE
  5
225
100
AcDbEntity
  8
engraving_3
 62
7
100
AcDbSpline
 70
8
 71
3
 72
8
 73
4
 74
0
 40
0
 40
0
 40
0
 40
0
 40
1
 40
1
 40
1
 40
1
 10
7.667997
 20
14.323936
 30
0.0
 10
7.659647
 20
14.402517
 30
0.0
 10
7.580870
 20
14.552880
 30
0.0
 10
7.434936
 20
14.537375
 30
0.0
  0
SPLINE
  5
226
100
AcDbEntity
  8
engraving_3
 62
7
100
AcDbSpline
 70
8
 71
3
 72
8
 73
4
 74
0
 40
0
 40
0
 40
0
 40
0
 40
1
 40
1
 40
1
 40
1
 10
7.434936
 20
14.537375
 30
0.0
 10
7.260938
 20
14.518854
 30
0.0
 10
7.240112
 20
14.340684
 30
0.0
 10
7.255619
 20
14.194766
 30
0.0
  0
LWPOLYLINE
  5
227
100
AcDbEntity
  8
engraving_3
 62
7
100
AcDbPolyline
 90
2
 70
0
 10
7.699003
 20
14.031968
 30
0.0
 10
7.667997
 20
14.323936
 30
0.0
  0
SPLINE
  5
228
100
AcDbEntity
  8
engraving_3
 62
7
100
AcDbSpline
 70
8
 71
3
 72
8
 73
4
 74
0
 40
0
 40
0
 40
0
 40
0
 40
1
 40
1
 40
1
 40
1
 10
7.480928
 20
12.078602
 30
0.0
 10
7.497629
 20
11.921440
 30
0.0
 10
7.553944
 20
11.762981
 30
0.0
 10
7.727942
 20
11.781475
 30
0.0
  0
SPLINE
  5
229
100
AcDbEntity
  8
engraving_3
 62
7
100
AcDbSpline
 70
8
 71
3
 72
8
 73
4
 74
0
 40
0
 40
0
 40
0
 40
0
 40
1
 40
1
 40
1
 40
1
 10
7.727942
 20
11.781475
 30
0.0
 10
7.890714
 20
11.798673
 30
0.0
 10
7.921453
 20
11.938161
 30
0.0
 10
7.911910
 20
12.027961
 30
0.0
  0
LWPOLYLINE
  5
22a
100
AcDbEntity
  8
engraving_3
 62
7
100
AcDbPolyline
 90
2
 70
0
 10
7.255619
 20
14.194766
 30
0.0
 10
7.480928
 20
12.078602
 30
0.0
  0
SPLINE
  5
22b
100
AcDbEntity
  8
engraving_3
 62
7
100
AcDbSpline
 70
8
 71
3
 72
8
 73
4
 74
0
 40
0
 40
0
 40
0
 40
0
 40
1
 40
1
 40
1
 40
1
 10
7.880904
 20
12.319929
 30
0.0
 10
7.872554
 20
12.398510
 30
0.0
 10
7.923327
 20
12.398087
 30
0.0
 10
8.170292
 20
12.424333
 30
0.0
  0
SPLINE
  5
22c
100
AcDbEntity
  8
engraving_3
 62
7
100
AcDbSpline
 70
8
 71
3
 72
8
 73
4
 74
0
 40
0
 40
0
 40
0
 40
0
 40
1
 40
1
 40
1
 40
1
 10
8.170292
 20
12.424333
 30
0.0
 10
8.406032
 20
12.449469
 30
0.0
 10
8.457213
 20
12.449469
 30
0.0
 10
8.467948
 20
12.348371
 30
0.0
  0
LWPOLYLINE
  5
22d
100
AcDbEntity
  8
engraving_3
 62
7
100
AcDbPolyline
 90
2
 70
0
 10
7.911910
 20
12.027961
 30
0.0
 10
7.880904
 20
12.319929
 30
0.0
  0
SPLINE
  5
22e
100
AcDbEntity
  8
engraving_3
 62
7
100
AcDbSpline
 70
8
 71
3
 72
8
 73
4
 74
0
 40
0
 40
0
 40
0
 40
0
 40
1
 40
1
 40
1
 40
1
 10
8.498954
 20
12.056377
 30
0.0
 10
8.548458
 20
11.590525
 30
0.0
 10
8.312982
 20
11.242148
 30
0.0
 10
7.790987
 20
11.186665
 30
0.0
  0
SPLINE
  5
22f
100
AcDbEntity
  8
engraving_3
 62
7
100
AcDbSpline
 70
8
 71
3
 72
8
 73
4
 74
0
 40
0
 40
0
 40
0
 40
0
 40
1
 40
1
 40
1
 40
1
 10
7.790987
 20
11.186665
 30
0.0
 10
7.285831
 20
11.132981
 30
0.0
 10
6.939213
 20
11.459266
 30
0.0
 10
6.893884
 20
11.885853
 30
0.0
  0
LWPOLYLINE
  5
230
100
AcDbEntity
  8
engraving_3
 62
7
100
AcDbPolyline
 90
2
 70
0
 10
8.467948
 20
12.348371
 30
0.0
 10
8.498954
 20
12.056377
 30
0.0
  0
SPLINE
  5
231
100
AcDbEntity
  8
engraving_3
 62
7
100
AcDbSpline
 70
8
 71
3
 72
8
 73
4
 74
0
 40
0
 40
0
 40
0
 40
0
 40
1
 40
1
 40
1
 40
1
 10
6.643770
 20
14.237655
 30
0.0
 10
6.597845
 20
14.669825
 30
0.0
 10
6.868285
 20
15.061964
 30
0.0
 10
7.373441
 20
15.115622
 30
0.0
  0
SPLINE
  5
232
100
AcDbEntity
  8
engraving_3
 62
7
100
AcDbSpline
 70
8
 71
3
 72
8
 73
4
 74
0
 40
0
 40
0
 40
0
 40
0
 40
1
 40
1
 40
1
 40
1
 10
7.373441
 20
15.115622
 30
0.0
 10
7.439392
 20
15.122501
 30
0.0
 10
7.502126
 20
15.123295
 30
0.0
 10
7.561027
 20
15.118268
 30
0.0
  0
LWPOLYLINE
  5
233
100
AcDbEntity
  8
engraving_3
 62
7
100
AcDbPolyline
 90
2
 70
0
 10
6.893884
 20
11.885853
 30
0.0
 10
6.643770
 20
14.237655
 30
0.0
  0
SPLINE
  5
234
100
AcDbEntity
  8
engraving_3
 62
7
100
AcDbSpline
 70
8
 71
3
 72
8
 73
4
 74
0
 40
0
 40
0
 40
0
 40
0
 40
1
 40
1
 40
1
 40
1
 10
28.647078
 20
14.917184
 30
0.0
 10
28.622247
 20
14.917184
 30
0.0
 10
28.606186
 20
14.911364
 30
0.0
 10
28.596952
 20
14.900780
 30
0.0
  0
SPLINE
  5
235
100
AcDbEntity
  8
engraving_3
 62
7
100
AcDbSpline
 70
8
 71
3
 72
8
 73
4
 74
0
 40
0
 40
0
 40
0
 40
0
 40
1
 40
1
 40
1
 40
1
 10
28.596952
 20
14.900780
 30
0.0
 10
28.578484
 20
14.879349
 30
0.0
 10
28.577098
 20
14.857071
 30
0.0
 10
28.574732
 20
14.823284
 30
0.0
  0
LWPOLYLINE
  5
236
100
AcDbEntity
  8
engraving_3
 62
7
100
AcDbPolyline
 90
1
 70
1
 10
7.561027
 20
15.118268
 30
0.0
  0
SPLINE
  5
237
100
AcDbEntity
  8
engraving_3
 62
7
100
AcDbSpline
 70
8
 71
3
 72
8
 73
4
 74
0
 40
0
 40
0
 40
0
 40
0
 40
1
 40
1
 40
1
 40
1
 10
28.397482
 20
12.289581
 30
0.0
 10
28.393934
 20
12.238913
 30
0.0
 10
28.391005
 20
12.199464
 30
0.0
 10
28.411952
 20
12.175387
 30
0.0
  0
SPLINE
  5
238
100
AcDbEntity
  8
engraving_3
 62
7
100
AcDbSpline
 70
8
 71
3
 72
8
 73
4
 74
0
 40
0
 40
0
 40
0
 40
0
 40
1
 40
1
 40
1
 40
1
 10
28.411952
 20
12.175387
 30
0.0
 10
28.427660
 20
12.157395
 30
0.0
 10
28.489950
 20
12.158189
 30
0.0
 10
28.540626
 20
12.154749
 30
0.0
  0
SPLINE
  5
239
100
AcDbEntity
  8
engraving_3
 62
7
100
AcDbSpline
 70
8
 71
3
 72
8
 73
4
 74
0
 40
0
 40
0
 40
0
 40
0
 40
1
 40
1
 40
1
 40
1
 10
28.540626
 20
12.154749
 30
0.0
 10
28.608194
 20
12.149987
 30
0.0
 10
28.694344
 20
12.167185
 30
0.0
 10
28.761802
 20
12.241586
 30
0.0
  0
SPLINE
  5
23a
100
AcDbEntity
  8
engraving_3
 62
7
100
AcDbSpline
 70
8
 71
3
 72
8
 73
4
 74
0
 40
0
 40
0
 40
0
 40
0
 40
1
 40
1
 40
1
 40
1
 10
28.761802
 20
12.241586
 30
0.0
 10
28.836073
 20
12.332549
 30
0.0
 10
28.837019
 20
12.428408
 30
0.0
 10
28.842933
 20
12.512863
 30
0.0
  0
LWPOLYLINE
  5
23b
100
AcDbEntity
  8
engraving_3
 62
7
100
AcDbPolyline
 90
2
 70
0
 10
28.574732
 20
14.823284
 30
0.0
 10
28.397482
 20
12.289581
 30
0.0
  0
SPLINE
  5
23c
100
AcDbEntity
  8
engraving_3
 62
7
100
AcDbSpline
 70
8
 71
3
 72
8
 73
4
 74
0
 40
0
 40
0
 40
0
 40
0
 40
1
 40
1
 40
1
 40
1
 10
28.983493
 20
14.517399
 30
0.0
 10
28.991775
 20
14.635641
 30
0.0
 10
28.993471
 20
14.742930
 30
0.0
 10
28.931817
 20
14.832121
 30
0.0
  0
SPLINE
  5
23d
100
AcDbEntity
  8
engraving_3
 62
7
100
AcDbSpline
 70
8
 71
3
 72
8
 73
4
 74
0
 40
0
 40
0
 40
0
 40
0
 40
1
 40
1
 40
1
 40
1
 10
28.931817
 20
14.832121
 30
0.0
 10
28.889926
 20
14.880302
 30
0.0
 10
28.852301
 20
14.905622
 30
0.0
 10
28.750949
 20
14.912739
 30
0.0
  0
SPLINE
  5
23e
100
AcDbEntity
  8
engraving_3
 62
7
100
AcDbSpline
 70
8
 71
3
 72
8
 73
4
 74
0
 40
0
 40
0
 40
0
 40
0
 40
1
 40
1
 40
1
 40
1
 10
28.750949
 20
14.912739
 30
0.0
 10
28.705904
 20
14.915914
 30
0.0
 10
28.671911
 20
14.918560
 30
0.0
 10
28.647080
 20
14.917237
 30
0.0
  0
LWPOLYLINE
  5
23f
100
AcDbEntity
  8
engraving_3
 62
7
100
AcDbPolyline
 90
2
 70
0
 10
28.842933
 20
12.512863
 30
0.0
 10
28.983493
 20
14.517399
 30
0.0
  0
SPLINE
  5
240
100
AcDbEntity
  8
engraving_3
 62
7
100
AcDbSpline
 70
8
 71
3
 72
8
 73
4
 74
0
 40
0
 40
0
 40
0
 40
0
 40
1
 40
1
 40
1
 40
1
 10
9.574858
 20
14.744068
 30
0.0
 10
9.406166
 20
14.729251
 30
0.0
 10
9.377137
 20
14.545471
 30
0.0
 10
9.390889
 20
14.388018
 30
0.0
  0
LWPOLYLINE
  5
241
100
AcDbEntity
  8
engraving_3
 62
7
100
AcDbPolyline
 90
1
 70
1
 10
28.647080
 20
14.917237
 30
0.0
  0
SPLINE
  5
242
100
AcDbEntity
  8
engraving_3
 62
7
100
AcDbSpline
 70
8
 71
3
 72
8
 73
4
 74
0
 40
0
 40
0
 40
0
 40
0
 40
1
 40
1
 40
1
 40
1
 10
9.572790
 20
12.301858
 30
0.0
 10
9.586543
 20
12.144404
 30
0.0
 10
9.608134
 20
11.964831
 30
0.0
 10
9.816186
 20
11.983008
 30
0.0
  0
SPLINE
  5
243
100
AcDbEntity
  8
engraving_3
 62
7
100
AcDbSpline
 70
8
 71
3
 72
8
 73
4
 74
0
 40
0
 40
0
 40
0
 40
0
 40
1
 40
1
 40
1
 40
1
 10
9.816186
 20
11.983008
 30
0.0
 10
10.012992
 20
12.000206
 30
0.0
 10
10.013907
 20
12.181604
 30
0.0
 10
10.000154
 20
12.339058
 30
0.0
  0
LWPOLYLINE
  5
244
100
AcDbEntity
  8
engraving_3
 62
7
100
AcDbPolyline
 90
2
 70
0
 10
9.390889
 20
14.388018
 30
0.0
 10
9.572790
 20
12.301858
 30
0.0
  0
SPLINE
  5
245
100
AcDbEntity
  8
engraving_3
 62
7
100
AcDbSpline
 70
8
 71
3
 72
8
 73
4
 74
0
 40
0
 40
0
 40
0
 40
0
 40
1
 40
1
 40
1
 40
1
 10
9.818253
 20
14.425245
 30
0.0
 10
9.804500
 20
14.582672
 30
0.0
 10
9.737926
 20
14.758329
 30
0.0
 10
9.574858
 20
14.744068
 30
0.0
  0
LWPOLYLINE
  5
246
100
AcDbEntity
  8
engraving_3
 62
7
100
AcDbPolyline
 90
2
 70
0
 10
10.000154
 20
12.339058
 30
0.0
 10
9.818253
 20
14.425245
 30
0.0
  0
SPLINE
  5
247
100
AcDbEntity
  8
engraving_3
 62
7
100
AcDbSpline
 70
8
 71
3
 72
8
 73
4
 74
0
 40
0
 40
0
 40
0
 40
0
 40
1
 40
1
 40
1
 40
1
 10
30.868131
 20
14.053161
 30
0.0
 10
30.840019
 20
14.055807
 30
0.0
 10
30.816375
 20
13.916477
 30
0.0
 10
30.814388
 20
13.893988
 30
0.0
  0
SPLINE
  5
248
100
AcDbEntity
  8
engraving_3
 62
7
100
AcDbSpline
 70
8
 71
3
 72
8
 73
4
 74
0
 40
0
 40
0
 40
0
 40
0
 40
1
 40
1
 40
1
 40
1
 10
30.814388
 20
13.893988
 30
0.0
 10
30.747525
 20
13.457928
 30
0.0
 10
30.700207
 20
13.178528
 30
0.0
 10
30.645922
 20
12.820679
 30
0.0
  0
SPLINE
  5
249
100
AcDbEntity
  8
engraving_3
 62
7
100
AcDbSpline
 70
8
 71
3
 72
8
 73
4
 74
0
 40
0
 40
0
 40
0
 40
0
 40
1
 40
1
 40
1
 40
1
 10
30.645922
 20
12.820679
 30
0.0
 10
30.636823
 20
12.781812
 30
0.0
 10
30.670105
 20
12.773345
 30
0.0
 10
30.754443
 20
12.765910
 30
0.0
  0
SPLINE
  5
24a
100
AcDbEntity
  8
engraving_3
 62
7
100
AcDbSpline
 70
8
 71
3
 72
8
 73
4
 74
0
 40
0
 40
0
 40
0
 40
0
 40
1
 40
1
 40
1
 40
1
 10
30.754443
 20
12.765910
 30
0.0
 10
30.827536
 20
12.759560
 30
0.0
 10
30.882718
 20
12.743156
 30
0.0
 10
30.881567
 20
12.794327
 30
0.0
  0
SPLINE
  5
24b
100
AcDbEntity
  8
engraving_3
 62
7
100
AcDbSpline
 70
8
 71
3
 72
8
 73
4
 74
0
 40
0
 40
0
 40
0
 40
0
 40
1
 40
1
 40
1
 40
1
 10
30.881567
 20
12.794327
 30
0.0
 10
30.890216
 20
13.212871
 30
0.0
 10
30.894204
 20
13.450440
 30
0.0
 10
30.905337
 20
13.897110
 30
0.0
  0
SPLINE
  5
24c
100
AcDbEntity
  8
engraving_3
 62
7
100
AcDbSpline
 70
8
 71
3
 72
8
 73
4
 74
0
 40
0
 40
0
 40
0
 40
0
 40
1
 40
1
 40
1
 40
1
 10
30.905337
 20
13.897110
 30
0.0
 10
30.907824
 20
13.925209
 30
0.0
 10
30.907480
 20
14.049695
 30
0.0
 10
30.868130
 20
14.053161
 30
0.0
  0
LWPOLYLINE
  5
24d
100
AcDbEntity
  8
engraving_3
 62
7
100
AcDbPolyline
 90
1
 70
1
 10
9.574858
 20
14.744068
 30
0.0
  0
LWPOLYLINE
  5
24e
100
AcDbEntity
  8
engraving_3
 62
7
100
AcDbPolyline
 90
1
 70
1
 10
30.868130
 20
14.053161
 30
0.0
  0
SPLINE
  5
24f
100
AcDbEntity
  8
vector_engraving
 62
5
100
AcDbSpline
 70
8
 71
3
 72
8
 73
4
 74
0
 40
0
 40
0
 40
0
 40
0
 40
1
 40
1
 40
1
 40
1
 10
31.433963
 20
10.106046
 30
0.0
 10
23.945516
 20
10.833196
 30
0.0
 10
16.148631
 20
10.782176
 30
0.0
 10
8.863667
 20
10.080446
 30
0.0
  0
SPLINE
  5
250
100
AcDbEntity
  8
vector_engraving
 62
5
100
AcDbSpline
 70
8
 71
3
 72
8
 73
4
 74
0
 40
0
 40
0
 40
0
 40
0
 40
1
 40
1
 40
1
 40
1
 10
37.148196
 20
15.431966
 30
0.0
 10
26.042144
 20
17.167386
 30
0.0
 10
13.714152
 20
17.016566
 30
0.0
 10
3.105140
 20
15.421966
 30
0.0
  0
SPLINE
  5
251
100
AcDbEntity
  8
vector_engraving
 62
7
100
AcDbSpline
 70
8
 71
3
 72
8
 73
4
 74
0
 40
0
 40
0
 40
0
 40
0
 40
1
 40
1
 40
1
 40
1
 10
1.479843
 20
10.330946
 30
0.0
 10
12.949187
 20
12.246876
 30
0.0
 10
26.693754
 20
12.444976
 30
0.0
 10
38.773493
 20
10.330946
 30
0.0
  0
LWPOLYLINE
  5
252
100
AcDbEntity
  8
vector_engraving
 62
5
100
AcDbPolyline
 90
7
 70
0
 10
17.683800
 20
41.476886
 30
0.0
 10
3.105140
 20
33.059926
 30
0.0
 10
3.105140
 20
13.405166
 30
0.0
 10
20.126668
 20
3.577786
 30
0.0
 10
37.148196
 20
13.405166
 30
0.0
 10
37.148196
 20
33.059926
 30
0.0
 10
22.570127
 20
41.476586
 30
0.0
  0
SPLINE
  5
253
100
AcDbEntity
  8
cutting
 62
1
100
AcDbSpline
 70
8
 71
3
 72
8
 73
4
 74
0
 40
0
 40
0
 40
0
 40
0
 40
1
 40
1
 40
1
 40
1
 10
22.646509
 20
40.871426
 30
0.0
 10
22.646509
 20
39.971173
 30
0.0
 10
22.166230
 20
39.139306
 30
0.0
 10
21.386589
 20
38.689180
 30
0.0
  0
SPLINE
  5
254
100
AcDbEntity
  8
cutting
 62
1
100
AcDbSpline
 70
8
 71
3
 72
8
 73
4
 74
0
 40
0
 40
0
 40
0
 40
0
 40
1
 40
1
 40
1
 40
1
 10
21.386589
 20
38.689180
 30
0.0
 10
20.606947
 20
38.239053
 30
0.0
 10
19.646389
 20
38.239053
 30
0.0
 10
18.866747
 20
38.689180
 30
0.0
  0
SPLINE
  5
255
100
AcDbEntity
  8
cutting
 62
1
100
AcDbSpline
 70
8
 71
3
 72
8
 73
4
 74
0
 40
0
 40
0
 40
0
 40
0
 40
1
 40
1
 40
1
 40
1
 10
18.866747
 20
38.689180
 30
0.0
 10
18.087106
 20
39.139306
 30
0.0
 10
17.606827
 20
39.971173
 30
0.0
 10
17.606827
 20
40.871426
 30
0.0
  0
SPLINE
  5
256
100
AcDbEntity
  8
cutting
 62
1
100
AcDbSpline
 70
8
 71
3
 72
8
 73
4
 74
0
 40
0
 40
0
 40
0
 40
0
 40
1
 40
1
 40
1
 40
1
 10
17.606827
 20
40.871426
 30
0.0
 10
17.606827
 20
41.771679
 30
0.0
 10
18.087106
 20
42.603546
 30
0.0
 10
18.866747
 20
43.053672
 30
0.0
  0
SPLINE
  5
257
100
AcDbEntity
  8
cutting
 62
1
100
AcDbSpline
 70
8
 71
3
 72
8
 73
4
 74
0
 40
0
 40
0
 40
0
 40
0
 40
1
 40
1
 40
1
 40
1
 10
18.866747
 20
43.053672
 30
0.0
 10
19.646389
 20
43.503799
 30
0.0
 10
20.606947
 20
43.503799
 30
0.0
 10
21.386589
 20
43.053672
 30
0.0
  0
SPLINE
  5
258
100
AcDbEntity
  8
cutting
 62
1
100
AcDbSpline
 70
8
 71
3
 72
8
 73
4
 74
0
 40
0
 40
0
 40
0
 40
0
 40
1
 40
1
 40
1
 40
1
 10
21.386589
 20
43.053672
 30
0.0
 10
22.166230
 20
42.603546
 30
0.0
 10
22.646509
 20
41.771679
 30
0.0
 10
22.646509
 20
40.871426
 30
0.0
  0
LWPOLYLINE
  5
259
100
AcDbEntity
  8
cutting
 62
1
100
AcDbPolyline
 90
6
 70
1
 10
20.126669
 20
46.415076
 30
0.0
 10
40.203336
 20
34.823806
 30
0.0
 10
40.203335
 20
11.641266
 30
0.0
 10
20.126667
 20
0.049996
 30
0.0
 10
0.050000
 20
11.641266
 30
0.0
 10
0.050001
 20
34.823806
 30
0.0
  0
LWPOLYLINE
  5
25a
100
AcDbEntity
  8
cutting
 62
1
100
AcDbPolyline
 90
1
 70
1
 10
22.646509
 20
40.871426
 30
0.0
  0
ENDSEC
  0
SECTION
  2
OBJECTS
  0
DICTIONARY
  5
C
330
0
100
AcDbDictionary
  3
ACAD_GROUP
350
D
  3
ACAD_MLINESTYLE
350
17
  0
DICTIONARY
  5
D
330
C
100
AcDbDictionary
  0
DICTIONARY
  5
1A
330
C
100
AcDbDictionary
  0
DICTIONARY
  5
17
330
C
100
AcDbDictionary
  3
STANDARD
350
18
  0
DICTIONARY
  5
19
330
C
100
AcDbDictionary
  0
ENDSEC
  0
EOF
